# Blender v3.6.0 OBJ File: ''
# www.blender.org
mtllib ../../general.mtl
o Core
v 0.406250 0.343750 0.656250
v 0.343750 0.406250 0.656250
v 0.343750 0.343750 0.593750
v 0.656250 0.343750 0.593750
v 0.656250 0.406250 0.656250
v 0.593750 0.343750 0.656250
v 0.406250 0.656250 0.656250
v 0.343750 0.656250 0.593750
v 0.343750 0.593750 0.656250
v 0.656250 0.656250 0.593750
v 0.593750 0.656250 0.656250
v 0.656250 0.593750 0.656250
v 0.406250 0.343750 0.343750
v 0.343750 0.343750 0.406250
v 0.343750 0.406250 0.343750
v 0.593750 0.343750 0.343750
v 0.656250 0.406250 0.343750
v 0.656250 0.343750 0.406250
v 0.593750 0.656250 0.343750
v 0.656250 0.656250 0.406250
v 0.656250 0.593750 0.343750
v 0.406250 0.656250 0.343750
v 0.343750 0.593750 0.343750
v 0.343750 0.656250 0.406250
vt 0.250000 0.062500
vt 0.250000 -0.000000
vt 0.312500 0.000000
vt 0.312500 0.312500
vt 0.250000 0.312500
vt 0.250000 0.250000
vt 0.312500 0.000000
vt 0.250000 0.062500
vt 0.250000 -0.000000
vt 0.562500 0.062500
vt 0.500000 0.000000
vt 0.562500 -0.000000
vt 0.562500 0.062500
vt 0.500000 0.000000
vt 0.562500 -0.000000
vt 0.562500 0.250000
vt 0.562500 0.312500
vt 0.500000 0.312500
vt 0.500000 0.312500
vt 0.562500 0.250000
vt 0.562500 0.312500
vt 0.312500 0.312500
vt 0.250000 0.312500
vt 0.250000 0.250000
vt 0.562500 0.250000
vt 0.312500 0.312500
vt 0.250000 0.062500
vt 0.312500 0.312500
vt 0.250000 0.062500
vt 0.500000 0.000000
vt 0.250000 0.250000
vt 0.312500 0.000000
vt 0.562500 0.062500
vt 0.250000 0.250000
vt 0.312500 0.000000
vt 0.562500 0.062500
vt 0.312500 0.000000
vt 0.500000 0.000000
vt 0.562500 0.062500
vt 0.500000 0.312500
vt 0.250000 0.250000
vt 0.562500 0.062500
vt 0.562500 0.250000
vt 0.500000 0.312500
vt 0.250000 0.250000
vt 0.312500 0.000000
vt 0.562500 0.250000
vt 0.500000 0.312500
vt 0.312500 0.312500
vt 0.250000 0.062500
vt 0.500000 0.000000
vt 0.562500 0.250000
vt 0.500000 0.312500
vt 0.312500 0.312500
vt 0.250000 0.062500
vt 0.500000 0.000000
vn -0.5774 -0.5774 0.5774
vn 0.5774 -0.5774 0.5774
vn -0.5774 0.5774 0.5774
vn 0.5774 0.5774 0.5774
vn -0.5774 -0.5774 -0.5774
vn 0.5774 -0.5774 -0.5774
vn 0.5774 0.5774 -0.5774
vn -0.5774 0.5774 -0.5774
vn 0.0000 -1.0000 0.0000
vn 0.0000 0.0000 -1.0000
vn -1.0000 0.0000 0.0000
vn 1.0000 0.0000 0.0000
vn 0.0000 1.0000 0.0000
vn 0.0000 0.0000 1.0000
usemtl Texture
s 1
f 1/1/1 2/2/1 3/3/1
f 4/4/2 5/5/2 6/6/2
f 7/7/3 8/8/3 9/9/3
f 10/10/4 11/11/4 12/12/4
f 13/13/5 14/14/5 15/15/5
f 16/16/6 17/17/6 18/18/6
f 19/19/7 20/20/7 21/21/7
f 22/22/8 23/23/8 24/24/8
f 14/14/9 16/16/9 4/4/9
f 13/25/10 23/26/10 19/27/10
f 9/28/11 24/29/11 15/30/11
f 4/31/12 17/32/12 20/33/12
f 20/20/13 22/22/13 8/8/13
f 1/34/14 5/35/14 11/36/14
f 4/4/9 6/6/9 1/1/9
f 1/1/9 3/3/9 14/14/9
f 14/14/9 13/13/9 16/16/9
f 16/16/9 18/18/9 4/4/9
f 4/4/9 1/1/9 14/14/9
f 19/27/10 21/37/10 17/38/10
f 17/38/10 16/39/10 13/25/10
f 13/25/10 15/40/10 23/26/10
f 23/26/10 22/41/10 19/27/10
f 19/27/10 17/38/10 13/25/10
f 15/30/11 14/42/11 3/43/11
f 3/43/11 2/44/11 9/28/11
f 9/28/11 8/45/11 24/29/11
f 24/29/11 23/46/11 15/30/11
f 15/30/11 3/43/11 9/28/11
f 20/33/12 10/47/12 12/48/12
f 12/48/12 5/49/12 4/31/12
f 4/31/12 18/50/12 17/32/12
f 17/32/12 21/51/12 20/33/12
f 20/33/12 12/48/12 4/31/12
f 8/8/13 7/7/13 11/11/13
f 11/11/13 10/10/13 20/20/13
f 20/20/13 19/19/13 22/22/13
f 22/22/13 24/24/13 8/8/13
f 8/8/13 11/11/13 20/20/13
f 11/36/14 7/52/14 9/53/14
f 9/53/14 2/54/14 1/34/14
f 1/34/14 6/55/14 5/35/14
f 5/35/14 12/56/14 11/36/14
f 11/36/14 9/53/14 1/34/14
