# Blender v3.6.0 OBJ File: ''
# www.blender.org
mtllib ../../general2.mtl
o core_ppn
v 0.500000 0.500000 0.687500
v 0.632583 0.500000 0.632583
v 0.500000 0.632582 0.632583
v 0.500000 0.687500 0.500000
v 0.632583 0.632582 0.500000
v 0.687500 0.500000 0.500000
v 0.500000 0.312500 0.500000
v 0.500000 0.367417 0.632583
v 0.367418 0.367417 0.500000
v 0.367418 0.500000 0.632583
v 0.500000 0.500000 0.687500
v 0.312500 0.500000 0.500000
v 0.500000 0.312500 0.500000
v 0.367418 0.367417 0.500000
v 0.500000 0.367417 0.367417
v 0.500000 0.500000 0.312500
v 0.367418 0.500000 0.367417
v 0.312500 0.500000 0.500000
v 0.632583 0.367417 0.500000
v 0.500000 0.312500 0.500000
v 0.500000 0.367417 0.367417
v 0.632583 0.500000 0.367417
v 0.500000 0.500000 0.312500
v 0.687500 0.500000 0.500000
v 0.632583 0.367417 0.500000
v 0.500000 0.367417 0.632583
v 0.500000 0.312500 0.500000
v 0.687500 0.500000 0.500000
v 0.632583 0.500000 0.632583
v 0.500000 0.500000 0.687500
v 0.312500 0.500000 0.500000
v 0.367418 0.500000 0.632583
v 0.367418 0.632582 0.500000
v 0.500000 0.632582 0.632583
v 0.500000 0.500000 0.687500
v 0.500000 0.687500 0.500000
v 0.500000 0.500000 0.312500
v 0.367418 0.500000 0.367417
v 0.500000 0.632582 0.367417
v 0.312500 0.500000 0.500000
v 0.367418 0.632582 0.500000
v 0.500000 0.687500 0.500000
v 0.632583 0.500000 0.367417
v 0.500000 0.500000 0.312500
v 0.500000 0.632582 0.367417
v 0.500000 0.687500 0.500000
v 0.632583 0.632582 0.500000
v 0.687500 0.500000 0.500000
vt 0.625000 0.375000
vt 0.500000 0.500000
vt 0.375000 0.375000
vt 0.250000 0.500000
vt 0.375000 0.625000
vt 0.625000 0.625000
vt 0.250000 0.500000
vt 0.375000 0.375000
vt 0.375000 0.625000
vt 0.500000 0.500000
vt 0.625000 0.375000
vt 0.625000 0.625000
vt 0.250000 0.500000
vt 0.375000 0.375000
vt 0.375000 0.625000
vt 0.625000 0.625000
vt 0.500000 0.500000
vt 0.625000 0.375000
vt 0.375000 0.625000
vt 0.250000 0.500000
vt 0.375000 0.375000
vt 0.500000 0.500000
vt 0.625000 0.375000
vt 0.625000 0.625000
vt 0.375000 0.375000
vt 0.375000 0.625000
vt 0.250000 0.500000
vt 0.625000 0.375000
vt 0.500000 0.500000
vt 0.625000 0.625000
vt 0.625000 0.375000
vt 0.500000 0.500000
vt 0.375000 0.375000
vt 0.375000 0.625000
vt 0.625000 0.625000
vt 0.250000 0.500000
vt 0.625000 0.375000
vt 0.500000 0.500000
vt 0.375000 0.375000
vt 0.625000 0.625000
vt 0.375000 0.625000
vt 0.250000 0.500000
vt 0.500000 0.500000
vt 0.625000 0.625000
vt 0.375000 0.625000
vt 0.250000 0.500000
vt 0.375000 0.375000
vt 0.625000 0.375000
vn 0.3574 0.3574 0.8629
vn 0.3574 0.8629 0.3574
vn 0.8629 0.3574 0.3574
vn 0.5773 0.5774 0.5773
vn -0.3574 -0.8629 0.3574
vn -0.3574 -0.3574 0.8629
vn -0.5774 -0.5773 0.5773
vn -0.8629 -0.3574 0.3574
vn -0.3574 -0.8629 -0.3574
vn -0.3574 -0.3574 -0.8629
vn -0.5774 -0.5773 -0.5773
vn -0.8629 -0.3574 -0.3574
vn 0.3574 -0.8629 -0.3574
vn 0.3574 -0.3574 -0.8629
vn 0.5774 -0.5774 -0.5774
vn 0.8629 -0.3574 -0.3574
vn 0.3574 -0.8629 0.3574
vn 0.8629 -0.3574 0.3574
vn 0.5774 -0.5774 0.5774
vn 0.3574 -0.3574 0.8629
vn -0.8629 0.3574 0.3574
vn -0.5774 0.5774 0.5773
vn -0.3574 0.3574 0.8629
vn -0.3574 0.8629 0.3574
vn -0.3574 0.3574 -0.8629
vn -0.8629 0.3574 -0.3574
vn -0.5774 0.5774 -0.5773
vn -0.3574 0.8629 -0.3574
vn 0.3574 0.3574 -0.8629
vn 0.3574 0.8629 -0.3574
vn 0.5773 0.5774 -0.5773
vn 0.8629 0.3574 -0.3574
usemtl Texture
s 1
f 1/1/1 2/2/1 3/3/1
f 4/4/2 3/3/2 5/5/2
f 5/5/3 2/2/3 6/6/3
f 2/2/4 5/5/4 3/3/4
f 7/7/5 8/8/5 9/9/5
f 10/10/6 8/8/6 11/11/6
f 8/8/7 10/10/7 9/9/7
f 9/9/8 10/10/8 12/12/8
f 13/13/9 14/14/9 15/15/9
f 16/16/10 15/15/10 17/17/10
f 15/15/11 14/14/11 17/17/11
f 14/14/12 18/18/12 17/17/12
f 19/19/13 20/20/13 21/21/13
f 22/22/14 21/21/14 23/23/14
f 21/21/15 22/22/15 19/19/15
f 24/24/16 19/19/16 22/22/16
f 25/25/17 26/26/17 27/27/17
f 28/28/18 29/29/18 25/25/18
f 26/26/19 25/25/19 29/29/19
f 29/29/20 30/30/20 26/26/20
f 31/31/21 32/32/21 33/33/21
f 32/32/22 34/34/22 33/33/22
f 32/32/23 35/35/23 34/34/23
f 33/33/24 34/34/24 36/36/24
f 37/37/25 38/38/25 39/39/25
f 40/40/26 41/41/26 38/38/26
f 38/38/27 41/41/27 39/39/27
f 41/41/28 42/42/28 39/39/28
f 43/43/29 44/44/29 45/45/29
f 46/46/30 47/47/30 45/45/30
f 45/45/31 47/47/31 43/43/31
f 47/47/32 48/48/32 43/43/32
