# Blender v3.6.0 OBJ File: ''
# www.blender.org
mtllib ../../general2.mtl
o pZ
v 0.500000 0.687500 0.000000
v 0.367418 0.632583 0.500000
v 0.500000 0.687500 0.500000
v 0.312500 0.500000 0.000000
v 0.367418 0.367417 0.500000
v 0.312500 0.500000 0.500000
v 0.500000 0.312500 0.000000
v 0.632582 0.367417 0.500000
v 0.500000 0.312500 0.500000
v 0.632582 0.632583 0.000000
v 0.632582 0.632583 0.500000
v 0.632582 0.367418 0.000000
v 0.687500 0.500000 0.500000
v 0.687500 0.500000 0.000000
v 0.367417 0.632583 0.000000
v 0.367417 0.367418 0.000000
vt 0.125000 1.000000
vt 0.000000 0.500000
vt 0.125000 0.500000
vt 0.125000 1.000000
vt 0.000000 0.500000
vt 0.125000 0.500000
vt 0.125000 1.000000
vt 0.000000 0.500000
vt 0.125000 0.500000
vt 0.250000 1.000000
vt 0.250000 0.500000
vt 0.250000 0.500000
vt 0.250000 0.500000
vt 0.250000 1.000000
vt 0.125000 0.500000
vt 0.250000 0.500000
vt 0.125000 1.000000
vt 0.000000 0.500000
vt 0.305394 0.319606
vt 0.250674 0.187500
vt 0.624326 0.187500
vt -0.000000 1.000000
vt -0.000000 1.000000
vt -0.000000 1.000000
vt 0.250000 1.000000
vt 0.250000 1.000000
vt -0.000000 1.000000
vt 0.305394 0.055394
vt 0.437500 0.000674
vt 0.569606 0.055394
vt 0.569606 0.319606
vt 0.437500 0.374326
vn -0.3827 0.9239 0.0000
vn -0.9239 -0.3827 0.0000
vn 0.3827 -0.9239 -0.0000
vn 0.3827 0.9239 -0.0000
vn -0.9239 0.3827 0.0000
vn -0.3827 -0.9239 -0.0000
vn 0.9239 -0.3827 -0.0000
vn 0.9239 0.3827 -0.0000
vn 0.0000 0.0000 -1.0000
usemtl Texture
s 1
f 1/1/1 2/2/1 3/3/1
f 4/4/2 5/5/2 6/6/2
f 7/7/3 8/8/3 9/9/3
f 10/10/4 3/3/4 11/11/4
f 2/12/5 4/4/5 6/6/5
f 5/13/6 7/7/6 9/9/6
f 12/14/7 13/15/7 8/16/7
f 14/17/8 11/18/8 13/15/8
f 10/19/9 14/20/9 4/21/9
f 1/1/1 15/22/1 2/2/1
f 4/4/2 16/23/2 5/5/2
f 7/7/3 12/24/3 8/8/3
f 10/10/4 1/1/4 3/3/4
f 2/12/5 15/25/5 4/4/5
f 5/13/6 16/26/6 7/7/6
f 12/14/7 14/17/7 13/15/7
f 14/17/8 10/27/8 11/18/8
f 14/20/9 12/28/9 7/29/9
f 7/29/9 16/30/9 14/20/9
f 16/30/9 4/21/9 14/20/9
f 4/21/9 15/31/9 1/32/9
f 1/32/9 10/19/9 4/21/9
