# Blender v3.6.0 OBJ File: ''
# www.blender.org
mtllib ../../general2.mtl
o pipe_inv_nZ
v 0.687500 0.500000 1.000000
v 0.500000 0.687500 1.000000
v 0.312500 0.500000 1.000000
v 0.687500 0.500000 0.500000
v 0.632583 0.632582 1.000000
v 0.632582 0.367417 0.500000
v 0.632583 0.367417 1.000000
v 0.367418 0.367417 1.000000
v 0.500000 0.312500 0.500000
v 0.500000 0.312500 1.000000
v 0.367418 0.632583 0.500000
v 0.367418 0.632582 1.000000
v 0.632582 0.632583 0.500000
v 0.312500 0.500000 0.500000
v 0.500000 0.687500 0.500000
v 0.367418 0.367417 0.500000
v 0.500000 0.687500 -0.000000
v 0.367418 0.632583 0.500000
v 0.500000 0.687500 0.500000
v 0.312500 0.500000 0.000000
v 0.367418 0.367417 0.500000
v 0.312500 0.500000 0.500000
v 0.500000 0.312500 0.000000
v 0.632582 0.367417 0.500000
v 0.500000 0.312500 0.500000
v 0.632582 0.632583 -0.000000
v 0.632582 0.632583 0.500000
v 0.632582 0.367418 0.000000
v 0.687500 0.500000 0.500000
v 0.687500 0.500000 0.000000
v 0.367417 0.632583 -0.000000
v 0.367417 0.367418 0.000000
v 1.000000 0.687500 0.500000
v 0.500000 0.632583 0.367418
v 0.500000 0.687500 0.500000
v 0.500000 0.500000 0.312500
v 1.000000 0.367418 0.367418
v 0.500000 0.367417 0.367418
v 1.000000 0.312500 0.500000
v 0.500000 0.367417 0.632582
v 0.500000 0.312500 0.500000
v 1.000000 0.632583 0.632582
v 0.500000 0.632583 0.632582
v 1.000000 0.632583 0.367418
v 1.000000 0.367418 0.632582
v 0.500000 0.500000 0.687500
v 1.000000 0.500000 0.687500
v 1.000000 0.500000 0.312500
v 0.000000 0.312500 0.500000
v 0.000000 0.500000 0.687500
v 0.000000 0.687500 0.500000
v 0.500000 0.632583 0.367418
v 0.000000 0.632582 0.367418
v 0.500000 0.500000 0.312500
v 0.000000 0.367417 0.367418
v 0.000000 0.500000 0.312500
v 0.500000 0.312500 0.500000
v 0.000000 0.367417 0.632583
v 0.500000 0.632583 0.632582
v 0.000000 0.632582 0.632583
v 0.500000 0.367417 0.367418
v 0.500000 0.367417 0.632582
v 0.500000 0.500000 0.687500
v 0.500000 0.687500 0.500000
v 0.500000 0.312500 0.500000
v 0.500000 0.367417 0.632583
v 0.367418 0.367417 0.500000
v 0.367418 0.500000 0.632583
v 0.500000 0.500000 0.687500
v 0.312500 0.500000 0.500000
v 0.500000 0.312500 0.500000
v 0.367418 0.367417 0.500000
v 0.500000 0.367417 0.367417
v 0.500000 0.500000 0.312500
v 0.367418 0.500000 0.367417
v 0.312500 0.500000 0.500000
v 0.632583 0.367417 0.500000
v 0.500000 0.312500 0.500000
v 0.500000 0.367417 0.367417
v 0.632583 0.500000 0.367417
v 0.500000 0.500000 0.312500
v 0.687500 0.500000 0.500000
v 0.632583 0.367417 0.500000
v 0.500000 0.367417 0.632583
v 0.500000 0.312500 0.500000
v 0.687500 0.500000 0.500000
v 0.632583 0.500000 0.632583
v 0.500000 0.500000 0.687500
v 0.500000 0.500000 0.687500
v 0.632583 0.500000 0.632583
v 0.500000 0.632582 0.632583
v 0.500000 0.687500 0.500000
v 0.632583 0.632582 0.500000
v 0.687500 0.500000 0.500000
v 0.312500 0.500000 0.500000
v 0.367418 0.500000 0.632583
v 0.367418 0.632582 0.500000
v 0.500000 0.632582 0.632583
v 0.500000 0.500000 0.687500
v 0.500000 0.687500 0.500000
v 0.500000 0.500000 0.312500
v 0.367418 0.500000 0.367417
v 0.500000 0.632582 0.367417
v 0.312500 0.500000 0.500000
v 0.367418 0.632582 0.500000
v 0.500000 0.687500 0.500000
v 0.632583 0.500000 0.367417
v 0.500000 0.500000 0.312500
v 0.500000 0.632582 0.367417
v 0.500000 0.687500 0.500000
v 0.632583 0.632582 0.500000
v 0.687500 0.500000 0.500000
vt 0.624326 0.187500
vt 0.437500 0.374326
vt 0.250674 0.187500
vt 0.125000 0.500000
vt -0.000000 -0.000000
vt 0.125000 -0.000000
vt 0.250000 0.500000
vt 0.250000 -0.000000
vt 0.250000 -0.000000
vt 0.125000 0.500000
vt 0.125000 -0.000000
vt 0.250000 0.500000
vt 0.125000 -0.000000
vt 0.250000 -0.000000
vt 0.250000 0.500000
vt 0.125000 0.000000
vt 0.250000 0.000000
vt -0.000000 -0.000000
vt 0.125000 0.500000
vt -0.000000 -0.000000
vt 0.125000 0.500000
vt -0.000000 0.000000
vt 0.437500 0.000674
vt 0.569606 0.055394
vt 0.569606 0.319606
vt 0.305394 0.319606
vt 0.305394 0.055394
vt 0.000000 0.500000
vt 0.250000 0.500000
vt 0.000000 0.500000
vt 0.000000 0.500000
vt 0.000000 0.500000
vt 0.125000 1.000000
vt 0.000000 0.500000
vt 0.125000 0.500000
vt 0.125000 1.000000
vt 0.000000 0.500000
vt 0.125000 0.500000
vt 0.125000 1.000000
vt 0.000000 0.500000
vt 0.125000 0.500000
vt 0.250000 1.000000
vt 0.250000 0.500000
vt 0.250000 0.500000
vt 0.250000 0.500000
vt 0.250000 1.000000
vt 0.125000 0.500000
vt 0.250000 0.500000
vt 0.125000 1.000000
vt 0.000000 0.500000
vt 0.305394 0.319606
vt 0.250674 0.187500
vt 0.624326 0.187500
vt -0.000000 1.000000
vt -0.000000 1.000000
vt -0.000000 1.000000
vt 0.250000 1.000000
vt 0.250000 1.000000
vt -0.000000 1.000000
vt 0.305394 0.055394
vt 0.437500 0.000674
vt 0.569606 0.055394
vt 0.569606 0.319606
vt 0.437500 0.374326
vt 0.125000 1.000000
vt 0.000000 0.500000
vt 0.125000 0.500000
vt 0.125000 0.500000
vt -0.000000 1.000000
vt 0.000000 0.500000
vt 0.125000 1.000000
vt 0.000000 0.500000
vt 0.125000 0.500000
vt 0.250000 1.000000
vt 0.250000 0.500000
vt 0.250000 1.000000
vt 0.250000 0.500000
vt 0.250000 1.000000
vt 0.250000 0.500000
vt 0.250000 1.000000
vt 0.125000 0.500000
vt 0.250000 0.500000
vt 0.125000 1.000000
vt 0.000000 0.500000
vt 0.305394 0.319606
vt 0.250674 0.187500
vt 0.624326 0.187500
vt -0.000000 1.000000
vt 0.125000 1.000000
vt -0.000000 1.000000
vt -0.000000 1.000000
vt 0.305394 0.055394
vt 0.437500 0.000674
vt 0.569606 0.055394
vt 0.569606 0.319606
vt 0.437500 0.374326
vt 0.437500 0.000674
vt 0.624326 0.187500
vt 0.437500 0.374326
vt 0.125000 0.000000
vt 0.000000 0.500000
vt -0.000000 0.000000
vt 0.125000 0.500000
vt -0.000000 -0.000000
vt 0.125000 -0.000000
vt 0.125000 0.500000
vt -0.000000 -0.000000
vt 0.125000 -0.000000
vt 0.250000 0.500000
vt 0.250000 0.000000
vt 0.250000 0.500000
vt 0.250000 -0.000000
vt 0.250000 0.500000
vt 0.250000 -0.000000
vt 0.250000 0.500000
vt 0.125000 -0.000000
vt 0.250000 -0.000000
vt 0.125000 0.500000
vt -0.000000 -0.000000
vt 0.569606 0.055394
vt 0.569606 0.319606
vt 0.305394 0.319606
vt 0.250674 0.187500
vt 0.305394 0.055394
vt 0.125000 0.500000
vt 0.000000 0.500000
vt 0.000000 0.500000
vt 0.000000 0.500000
vt 0.250000 0.500000
vt 0.375000 0.375000
vt 0.375000 0.625000
vt 0.500000 0.500000
vt 0.625000 0.375000
vt 0.625000 0.625000
vt 0.250000 0.500000
vt 0.375000 0.375000
vt 0.375000 0.625000
vt 0.625000 0.625000
vt 0.500000 0.500000
vt 0.625000 0.375000
vt 0.375000 0.625000
vt 0.250000 0.500000
vt 0.375000 0.375000
vt 0.500000 0.500000
vt 0.625000 0.375000
vt 0.625000 0.625000
vt 0.375000 0.375000
vt 0.375000 0.625000
vt 0.250000 0.500000
vt 0.625000 0.375000
vt 0.500000 0.500000
vt 0.625000 0.625000
vt 0.625000 0.375000
vt 0.500000 0.500000
vt 0.375000 0.375000
vt 0.250000 0.500000
vt 0.375000 0.625000
vt 0.625000 0.625000
vt 0.625000 0.375000
vt 0.500000 0.500000
vt 0.375000 0.375000
vt 0.375000 0.625000
vt 0.625000 0.625000
vt 0.250000 0.500000
vt 0.625000 0.375000
vt 0.500000 0.500000
vt 0.375000 0.375000
vt 0.625000 0.625000
vt 0.375000 0.625000
vt 0.250000 0.500000
vt 0.500000 0.500000
vt 0.625000 0.625000
vt 0.375000 0.625000
vt 0.250000 0.500000
vt 0.375000 0.375000
vt 0.625000 0.375000
vn 0.0000 0.0000 1.0000
vn 0.9239 0.3827 -0.0000
vn 0.9239 -0.3827 -0.0000
vn -0.3827 -0.9239 0.0000
vn -0.9239 0.3827 0.0000
vn 0.3827 0.9239 0.0000
vn 0.3827 -0.9239 -0.0000
vn -0.9239 -0.3827 0.0000
vn -0.3827 0.9239 0.0000
vn 0.0000 -0.0000 -1.0000
vn 0.0000 0.9239 -0.3827
vn 0.0000 -0.3827 -0.9239
vn 0.0000 -0.9239 0.3827
vn 0.0000 0.9239 0.3827
vn 0.0000 0.3827 -0.9239
vn 0.0000 -0.9239 -0.3827
vn 0.0000 -0.3827 0.9239
vn 0.0000 0.3827 0.9239
vn 1.0000 0.0000 0.0000
vn -1.0000 0.0000 0.0000
vn -0.3574 -0.8629 0.3574
vn -0.3574 -0.3574 0.8629
vn -0.5774 -0.5773 0.5773
vn -0.8629 -0.3574 0.3574
vn -0.3574 -0.8629 -0.3574
vn -0.3574 -0.3574 -0.8629
vn -0.5774 -0.5773 -0.5773
vn -0.8629 -0.3574 -0.3574
vn 0.3574 -0.8629 -0.3574
vn 0.3574 -0.3574 -0.8629
vn 0.5774 -0.5774 -0.5774
vn 0.8629 -0.3574 -0.3574
vn 0.3574 -0.8629 0.3574
vn 0.8629 -0.3574 0.3574
vn 0.5774 -0.5774 0.5774
vn 0.3574 -0.3574 0.8629
vn 0.3574 0.3574 0.8629
vn 0.3574 0.8629 0.3574
vn 0.8629 0.3574 0.3574
vn 0.5773 0.5774 0.5773
vn -0.8629 0.3574 0.3574
vn -0.5774 0.5774 0.5773
vn -0.3574 0.3574 0.8629
vn -0.3574 0.8629 0.3574
vn -0.3574 0.3574 -0.8629
vn -0.8629 0.3574 -0.3574
vn -0.5774 0.5774 -0.5773
vn -0.3574 0.8629 -0.3574
vn 0.3574 0.3574 -0.8629
vn 0.3574 0.8629 -0.3574
vn 0.5773 0.5774 -0.5773
vn 0.8629 0.3574 -0.3574
usemtl Texture
s 1
f 1/1/1 2/2/1 3/3/1
f 4/4/2 5/5/2 1/6/2
f 6/7/3 1/6/3 7/8/3
f 8/9/4 9/10/4 10/11/4
f 11/12/5 3/13/5 12/14/5
f 13/15/6 2/16/6 5/17/6
f 9/10/7 7/18/7 10/11/7
f 14/19/8 8/20/8 3/13/8
f 15/21/9 12/22/9 2/16/9
f 10/23/1 7/24/1 1/1/1
f 1/1/1 5/25/1 2/2/1
f 2/2/1 12/26/1 3/3/1
f 3/3/1 8/27/1 10/23/1
f 10/23/1 1/1/1 3/3/1
f 4/4/2 13/28/2 5/5/2
f 6/7/3 4/4/3 1/6/3
f 8/9/4 16/29/4 9/10/4
f 11/12/5 14/19/5 3/13/5
f 13/15/6 15/21/6 2/16/6
f 9/10/7 6/30/7 7/18/7
f 14/19/8 16/31/8 8/20/8
f 15/21/9 11/32/9 12/22/9
f 17/33/9 18/34/9 19/35/9
f 20/36/8 21/37/8 22/38/8
f 23/39/7 24/40/7 25/41/7
f 26/42/6 19/35/6 27/43/6
f 18/44/5 20/36/5 22/38/5
f 21/45/4 23/39/4 25/41/4
f 28/46/3 29/47/3 24/48/3
f 30/49/2 27/50/2 29/47/2
f 26/51/10 30/52/10 20/53/10
f 17/33/9 31/54/9 18/34/9
f 20/36/8 32/55/8 21/37/8
f 23/39/7 28/56/7 24/40/7
f 26/42/6 17/33/6 19/35/6
f 18/44/5 31/57/5 20/36/5
f 21/45/4 32/58/4 23/39/4
f 28/46/3 30/49/3 29/47/3
f 30/49/2 26/59/2 27/50/2
f 30/52/10 28/60/10 23/61/10
f 23/61/10 32/62/10 30/52/10
f 32/62/10 20/53/10 30/52/10
f 20/53/10 31/63/10 17/64/10
f 17/64/10 26/51/10 20/53/10
f 33/65/11 34/66/11 35/67/11
f 36/68/12 37/69/12 38/70/12
f 39/71/13 40/72/13 41/73/13
f 42/74/14 35/67/14 43/75/14
f 44/76/15 36/68/15 34/77/15
f 37/78/16 41/73/16 38/79/16
f 45/80/17 46/81/17 40/82/17
f 47/83/18 43/84/18 46/81/18
f 42/85/19 47/86/19 48/87/19
f 33/65/11 44/88/11 34/66/11
f 36/68/12 48/89/12 37/69/12
f 39/71/13 45/90/13 40/72/13
f 42/74/14 33/65/14 35/67/14
f 44/76/15 48/89/15 36/68/15
f 37/78/16 39/71/16 41/73/16
f 45/80/17 47/83/17 46/81/17
f 47/83/18 42/91/18 43/84/18
f 47/86/19 45/92/19 39/93/19
f 39/93/19 37/94/19 47/86/19
f 37/94/19 48/87/19 47/86/19
f 48/87/19 44/95/19 33/96/19
f 33/96/19 42/85/19 48/87/19
f 49/97/20 50/98/20 51/99/20
f 51/100/11 52/101/11 53/102/11
f 54/103/12 55/104/12 56/105/12
f 57/106/13 58/107/13 49/108/13
f 59/109/14 51/100/14 60/110/14
f 52/111/15 56/105/15 53/112/15
f 61/113/16 49/108/16 55/114/16
f 62/115/17 50/116/17 58/117/17
f 63/118/18 60/119/18 50/116/18
f 49/97/20 58/120/20 50/98/20
f 50/98/20 60/121/20 51/99/20
f 51/99/20 53/122/20 56/123/20
f 56/123/20 55/124/20 51/99/20
f 55/124/20 49/97/20 51/99/20
f 51/100/11 64/125/11 52/101/11
f 54/103/12 61/126/12 55/104/12
f 57/106/13 62/127/13 58/107/13
f 59/109/14 64/125/14 51/100/14
f 52/111/15 54/103/15 56/105/15
f 61/113/16 57/106/16 49/108/16
f 62/115/17 63/118/17 50/116/17
f 63/118/18 59/128/18 60/119/18
f 65/129/21 66/130/21 67/131/21
f 68/132/22 66/130/22 69/133/22
f 66/130/23 68/132/23 67/131/23
f 67/131/24 68/132/24 70/134/24
f 71/135/25 72/136/25 73/137/25
f 74/138/26 73/137/26 75/139/26
f 73/137/27 72/136/27 75/139/27
f 72/136/28 76/140/28 75/139/28
f 77/141/29 78/142/29 79/143/29
f 80/144/30 79/143/30 81/145/30
f 79/143/31 80/144/31 77/141/31
f 82/146/32 77/141/32 80/144/32
f 83/147/33 84/148/33 85/149/33
f 86/150/34 87/151/34 83/147/34
f 84/148/35 83/147/35 87/151/35
f 87/151/36 88/152/36 84/148/36
f 89/153/37 90/154/37 91/155/37
f 92/156/38 91/155/38 93/157/38
f 93/157/39 90/154/39 94/158/39
f 90/154/40 93/157/40 91/155/40
f 95/159/41 96/160/41 97/161/41
f 96/160/42 98/162/42 97/161/42
f 96/160/43 99/163/43 98/162/43
f 97/161/44 98/162/44 100/164/44
f 101/165/45 102/166/45 103/167/45
f 104/168/46 105/169/46 102/166/46
f 102/166/47 105/169/47 103/167/47
f 105/169/48 106/170/48 103/167/48
f 107/171/49 108/172/49 109/173/49
f 110/174/50 111/175/50 109/173/50
f 109/173/51 111/175/51 107/171/51
f 111/175/52 112/176/52 107/171/52
