# Blender v3.6.0 OBJ File: ''
# www.blender.org
mtllib ../../general2.mtl
o pY
v 0.687500 1.000000 0.500000
v 0.632583 0.500000 0.632582
v 0.687500 0.500000 0.500000
v 0.500000 1.000000 0.687500
v 0.367417 0.500000 0.632582
v 0.500000 0.500000 0.687500
v 0.312500 1.000000 0.500000
v 0.367417 0.500000 0.367418
v 0.312500 0.500000 0.500000
v 0.632583 1.000000 0.367418
v 0.632583 0.500000 0.367418
v 0.632583 1.000000 0.632582
v 0.367417 1.000000 0.632582
v 0.367417 1.000000 0.367418
v 0.500000 0.500000 0.312500
v 0.500000 1.000000 0.312500
vt 0.125000 1.000000
vt 0.000000 0.500000
vt 0.125000 0.500000
vt 0.125000 1.000000
vt 0.000000 0.500000
vt 0.125000 0.500000
vt 0.125000 1.000000
vt 0.000000 0.500000
vt 0.125000 0.500000
vt 0.250000 1.000000
vt 0.250000 0.500000
vt 0.250000 1.000000
vt 0.250000 0.500000
vt 0.250000 1.000000
vt 0.250000 0.500000
vt 0.250000 1.000000
vt 0.125000 0.500000
vt 0.250000 0.500000
vt 0.125000 1.000000
vt 0.000000 0.500000
vt 0.624326 0.187500
vt 0.437500 0.374326
vt 0.250674 0.187500
vt -0.000000 1.000000
vt -0.000000 1.000000
vt -0.000000 1.000000
vt -0.000000 1.000000
vt 0.305394 0.055394
vt 0.437500 0.000674
vt 0.569606 0.055394
vt 0.569606 0.319606
vt 0.305394 0.319606
vn 0.9239 0.0000 0.3827
vn -0.3827 0.0000 0.9239
vn -0.9239 -0.0000 -0.3827
vn 0.9239 -0.0000 -0.3827
vn 0.3827 0.0000 0.9239
vn -0.9239 0.0000 0.3827
vn -0.3827 -0.0000 -0.9239
vn 0.3827 -0.0000 -0.9239
vn 0.0000 1.0000 0.0000
usemtl Texture
s 1
f 1/1/1 2/2/1 3/3/1
f 4/4/2 5/5/2 6/6/2
f 7/7/3 8/8/3 9/9/3
f 10/10/4 3/3/4 11/11/4
f 12/12/5 6/6/5 2/13/5
f 13/14/6 9/9/6 5/15/6
f 14/16/7 15/17/7 8/18/7
f 16/19/8 11/20/8 15/17/8
f 4/21/9 1/22/9 16/23/9
f 1/1/1 12/24/1 2/2/1
f 4/4/2 13/25/2 5/5/2
f 7/7/3 14/26/3 8/8/3
f 10/10/4 1/1/4 3/3/4
f 12/12/5 4/4/5 6/6/5
f 13/14/6 7/7/6 9/9/6
f 14/16/7 16/19/7 15/17/7
f 16/19/8 10/27/8 11/20/8
f 16/23/9 14/28/9 4/21/9
f 14/28/9 7/29/9 4/21/9
f 7/29/9 13/30/9 4/21/9
f 4/21/9 12/31/9 1/22/9
f 1/22/9 10/32/9 16/23/9
