# Blender v3.6.0 OBJ File: ''
# www.blender.org
mtllib ../../general2.mtl
o nZ
v 0.687500 0.500000 1.000000
v 0.500000 0.687500 1.000000
v 0.312500 0.500000 1.000000
v 0.687500 0.500000 0.500000
v 0.632583 0.632582 1.000000
v 0.632582 0.367417 0.500000
v 0.632583 0.367417 1.000000
v 0.367418 0.367417 1.000000
v 0.500000 0.312500 0.500000
v 0.500000 0.312500 1.000000
v 0.367418 0.632583 0.500000
v 0.367418 0.632582 1.000000
v 0.632582 0.632583 0.500000
v 0.312500 0.500000 0.500000
v 0.500000 0.687500 0.500000
v 0.367418 0.367417 0.500000
vt 0.624326 0.187500
vt 0.437500 0.374326
vt 0.250674 0.187500
vt 0.125000 0.500000
vt -0.000000 -0.000000
vt 0.125000 -0.000000
vt 0.250000 0.500000
vt 0.250000 -0.000000
vt 0.250000 -0.000000
vt 0.125000 0.500000
vt 0.125000 -0.000000
vt 0.250000 0.500000
vt 0.125000 -0.000000
vt 0.250000 -0.000000
vt 0.250000 0.500000
vt 0.125000 0.000000
vt 0.250000 0.000000
vt -0.000000 -0.000000
vt 0.125000 0.500000
vt -0.000000 -0.000000
vt 0.125000 0.500000
vt -0.000000 0.000000
vt 0.437500 0.000674
vt 0.569606 0.055394
vt 0.569606 0.319606
vt 0.305394 0.319606
vt 0.305394 0.055394
vt 0.000000 0.500000
vt 0.250000 0.500000
vt 0.000000 0.500000
vt 0.000000 0.500000
vt 0.000000 0.500000
vn 0.0000 0.0000 1.0000
vn 0.9239 0.3827 -0.0000
vn 0.9239 -0.3827 -0.0000
vn -0.3827 -0.9239 0.0000
vn -0.9239 0.3827 0.0000
vn 0.3827 0.9239 0.0000
vn 0.3827 -0.9239 -0.0000
vn -0.9239 -0.3827 0.0000
vn -0.3827 0.9239 0.0000
usemtl Texture
s 1
f 1/1/1 2/2/1 3/3/1
f 4/4/2 5/5/2 1/6/2
f 6/7/3 1/6/3 7/8/3
f 8/9/4 9/10/4 10/11/4
f 11/12/5 3/13/5 12/14/5
f 13/15/6 2/16/6 5/17/6
f 9/10/7 7/18/7 10/11/7
f 14/19/8 8/20/8 3/13/8
f 15/21/9 12/22/9 2/16/9
f 10/23/1 7/24/1 1/1/1
f 1/1/1 5/25/1 2/2/1
f 2/2/1 12/26/1 3/3/1
f 3/3/1 8/27/1 10/23/1
f 10/23/1 1/1/1 3/3/1
f 4/4/2 13/28/2 5/5/2
f 6/7/3 4/4/3 1/6/3
f 8/9/4 16/29/4 9/10/4
f 11/12/5 14/19/5 3/13/5
f 13/15/6 15/21/6 2/16/6
f 9/10/7 6/30/7 7/18/7
f 14/19/8 16/31/8 8/20/8
f 15/21/9 11/32/9 12/22/9
