mtllib legacy_default.mtl
v -0.375000 0.625000 -1.062500
v -0.375000 0.625000 -0.312500
v 0.375000 0.625000 -0.312500
v 0.375000 0.625000 -1.062500
v -0.375000 0.562500 -1.062500
v -0.375000 0.562500 -0.312500
v 0.375000 0.562500 -0.312500
v 0.375000 0.562500 -1.062500
v 0.375000 0.562500 0.312500
v 0.375000 0.562500 1.062500
v -0.375000 0.562500 1.062500
v -0.375000 0.562500 0.312500
v 0.375000 0.625000 0.312500
v 0.375000 0.625000 1.062500
v -0.375000 0.625000 1.062500
v -0.375000 0.625000 0.312500
vt 0.666667 0.695652
vt 0.444444 0.717391
vt 0.444444 0.695652
vt 0.666667 0.978261
vt 0.444444 0.978261
vt 0.444444 1.000000
vt 0.666667 1.000000
vt 0.685185 0.978261
vt 0.666667 0.717391
vt 0.685185 0.717391
vt 0.425926 0.717391
vt 0.425926 0.978261
vt 0.425926 0.717391
vt 0.444444 0.978261
vt 0.425926 0.978261
vt 0.685185 0.978261
vt 0.666667 0.717391
vt 0.685185 0.717391
vt 0.444444 1.000000
vt 0.666667 0.978261
vt 0.666667 1.000000
vt 0.444444 0.717391
vt 0.666667 0.695652
vt 0.444444 0.695652
vn -1.0000 0.0000 0.0000
vn 0.0000 1.0000 0.0000
vn 1.0000 0.0000 0.0000
vn 0.0000 0.0000 1.0000
vn 0.0000 0.0000 -1.0000
v -0.500000 0.375000 -0.187500
v 0.500000 0.375000 -0.187500
v -0.500000 0.375000 -1.187500
v 0.500000 0.375000 -1.187500
v -0.375000 0.625000 -1.062500
v -0.375000 0.625000 -0.312500
v 0.375000 0.625000 -0.312500
v 0.375000 0.625000 -1.062500
v -0.250000 0.125000 -0.937500
v -0.250000 0.125000 -0.437500
v 0.250000 0.125000 -0.437500
v 0.250000 0.125000 -0.937500
v -0.500000 0.625000 -1.187500
v -0.500000 0.625000 -0.187500
v 0.500000 0.625000 -0.187500
v 0.500000 0.625000 -1.187500
v 0.375000 0.750000 0.312500
v 0.375000 0.750000 1.062500
v -0.375000 0.750000 1.062500
v -0.375000 0.750000 0.312500
v 0.375000 0.625000 0.312500
v 0.375000 0.625000 1.062500
v -0.375000 0.625000 1.062500
v -0.375000 0.625000 0.312500
v 0.500000 0.625000 0.187500
v 0.500000 0.625000 1.187500
v -0.500000 0.625000 1.187500
v -0.500000 0.625000 0.187500
v 0.250000 0.125000 0.437500
v 0.250000 0.125000 0.937500
v -0.250000 0.125000 0.937500
v -0.250000 0.125000 0.437500
v -0.375000 0.625000 -1.062500
v -0.375000 0.625000 -0.312500
v 0.375000 0.625000 -0.312500
v 0.375000 0.625000 -1.062500
v 0.375000 0.625000 0.312500
v 0.375000 0.625000 1.062500
v -0.375000 0.625000 1.062500
v -0.375000 0.625000 0.312500
v -0.375000 0.750000 -1.062500
v -0.375000 0.750000 -0.312500
v 0.375000 0.750000 -0.312500
v 0.375000 0.750000 -1.062500
v 0.500000 0.375000 0.187500
v -0.500000 0.375000 0.187500
v 0.500000 0.375000 1.187500
v -0.500000 0.375000 1.187500
vt 0.407407 0.260870
vt 0.629630 0.173913
vt 0.703704 0.260870
vt 0.407407 0.347826
vt 0.703704 0.260870
vt 0.407407 0.347826
vt 0.407407 0.260870
vt 0.703704 0.260870
vt 0.407407 0.347826
vt 0.407407 0.260870
vt 0.703704 0.260870
vt 0.407407 0.347826
vt 0.407407 0.260870
vt 0.629630 0.000000
vt 0.481481 0.173913
vt 0.481481 0.000000
vt 0.481481 0.173913
vt 0.629630 0.173913
vt 0.629630 0.173913
vt 0.629630 0.173913
vt 0.666667 0.652174
vt 0.407407 0.695652
vt 0.444444 0.652174
vt 0.444444 0.391304
vt 0.703704 0.347826
vt 0.666667 0.391304
vt 0.703704 0.695652
vt 0.740741 0.347826
vt 0.962963 0.304348
vt 0.962963 0.347826
vt 0.962963 0.000000
vt 0.740741 0.043478
vt 0.740741 0.000000
vt 0.703704 0.043478
vt 0.740741 0.304348
vt 0.703704 0.304348
vt 1.000000 0.304348
vt 0.962963 0.043478
vt 1.000000 0.043478
vt 0.666667 0.391304
vt 0.703704 0.695652
vt 0.666667 0.652174
vt 0.444444 0.391304
vt 0.703704 0.347826
vt 0.444444 0.652174
vt 0.407407 0.347826
vt 0.407407 0.695652
vt 0.407407 0.260870
vt 0.629630 0.173913
vt 0.703704 0.260870
vt 0.407407 0.260870
vt 0.629630 0.173913
vt 0.703704 0.260870
vt 0.407407 0.260870
vt 0.629630 0.173913
vt 0.703704 0.260870
vt 0.629630 0.000000
vt 0.481481 0.173913
vt 0.481481 0.000000
vt 0.407407 0.347826
vt 0.740741 0.043478
vt 0.962963 0.304348
vt 0.740741 0.304348
vt 0.407407 0.347826
vt 0.407407 0.347826
vt 0.703704 0.260870
vt 0.407407 0.260870
vt 1.000000 0.304348
vt 0.962963 0.043478
vt 1.000000 0.043478
vt 0.703704 0.043478
vt 0.703704 0.304348
vt 0.629630 0.173913
vt 0.962963 0.000000
vt 0.740741 0.000000
vt 0.740741 0.347826
vt 0.962963 0.347826
vt 0.703704 0.347826
vt 0.703704 0.347826
vt 0.703704 0.347826
vt 0.481481 0.173913
vt 0.481481 0.173913
vt 0.481481 0.173913
vt 0.481481 0.173913
vt 0.481481 0.173913
vt 0.703704 0.347826
vt 0.703704 0.347826
vt 0.703704 0.347826
vn 0.7071 -0.7071 0.0000
vn 1.0000 0.0000 0.0000
vn -1.0000 0.0000 0.0000
vn 0.0000 0.0000 -1.0000
vn 0.0000 0.0000 1.0000
vn 0.0000 -1.0000 0.0000
vn -0.7071 -0.7071 0.0000
vn 0.0000 -0.7071 -0.7071
vn 0.0000 -0.7071 0.7071
vn 0.0000 1.0000 0.0000
v -0.500000 0.000000 0.187500
v 0.500000 0.000000 0.187500
v -0.500000 0.000000 -0.187500
v 0.500000 0.000000 -0.187500
v -0.375000 0.500000 0.187500
v 0.375000 0.500000 0.187500
v -0.375000 0.500000 -0.187500
v 0.375000 0.500000 -0.187500
v -0.125000 0.750000 -0.187500
v -0.125000 0.750000 0.187500
v 0.125000 0.750000 0.187500
v 0.125000 0.750000 -0.187500
vt 0.111111 0.260870
vt -0.000000 0.608696
vt -0.000000 0.260870
vt 0.259259 0.304348
vt 0.333333 0.478261
vt 0.259259 0.565217
vt 0.111111 0.086957
vt 0.111111 0.608696
vt 0.111111 0.260870
vt 0.259259 0.565217
vt 0.111111 0.608696
vt 0.000000 0.782609
vt -0.000000 0.869565
vt 0.111111 0.956522
vt -0.000000 0.956522
vt 0.259259 0.304348
vt 0.333333 0.478261
vt 0.111111 0.782609
vt -0.000000 0.086957
vt 0.111111 -0.000000
vt 0.333333 0.391304
vt 0.111111 0.869565
vt 0.333333 0.391304
vt 0.000000 -0.000000
vn 0.0000 -1.0000 0.0000
vn 0.0000 0.0000 -1.0000
vn -0.9701 0.2425 0.0000
vn 0.0000 0.0000 1.0000
vn 0.9701 0.2425 0.0000
vn 0.0000 1.0000 0.0000
vn 0.7071 0.7071 0.0000
vn -0.7071 0.7071 0.0000
o Lamps
s off
usemtl default
f 4/1/1 7/2/1 3/3/1
f 7/2/2 5/4/2 6/5/2
f 2/6/3 5/4/3 1/7/3
f 1/8/4 8/9/4 4/10/4
f 3/11/5 6/5/5 2/12/5
f 14/13/5 11/14/5 15/15/5
f 16/16/4 9/17/4 13/18/4
f 15/19/3 12/20/3 16/21/3
f 10/22/2 12/20/2 11/14/2
f 13/23/1 10/22/1 14/24/1
f 4/1/1 8/9/1 7/2/1
f 7/2/2 8/9/2 5/4/2
f 2/6/3 6/5/3 5/4/3
f 1/8/4 5/4/4 8/9/4
f 3/11/5 7/2/5 6/5/5
f 14/13/5 10/22/5 11/14/5
f 16/16/4 12/20/4 9/17/4
f 15/19/3 11/14/3 12/20/3
f 10/22/2 9/17/2 12/20/2
f 13/23/1 9/17/1 10/22/1
