# Blender v2.79 (sub 0) OBJ File: 'autoloader.blend'
# www.blender.org
o Piston
v 0.062500 0.000000 0.312500
v 0.062500 0.000000 0.187500
v 0.187500 0.000000 0.062500
v 0.187500 0.000000 0.437500
v 0.312500 0.000000 0.437500
v 0.312500 0.000000 0.062500
v 0.437500 0.000000 0.187500
v 0.437500 0.000000 0.312500
v -0.500000 0.500000 0.500000
v 0.500000 0.500000 0.500000
v -0.500000 0.500000 -0.500000
v 0.500000 0.500000 -0.500000
v 0.062500 0.500000 0.312500
v 0.062500 0.500000 0.187500
v 0.187500 0.500000 0.062500
v 0.187500 0.500000 0.437500
v 0.312500 0.500000 0.437500
v 0.312500 0.500000 0.062500
v 0.437500 0.500000 0.187500
v 0.437500 0.500000 0.312500
v 0.062500 0.000000 -0.187500
v 0.062500 0.000000 -0.312500
v 0.187500 0.000000 -0.437500
v 0.187500 0.000000 -0.062500
v 0.312500 0.000000 -0.062500
v 0.312500 0.000000 -0.437500
v 0.437500 0.000000 -0.312500
v 0.437500 0.000000 -0.187500
v 0.062500 0.500000 -0.187500
v 0.062500 0.500000 -0.312500
v 0.187500 0.500000 -0.437500
v 0.187500 0.500000 -0.062500
v 0.312500 0.500000 -0.062500
v 0.312500 0.500000 -0.437500
v 0.437500 0.500000 -0.312500
v 0.437500 0.500000 -0.187500
v -0.437500 0.000000 0.312500
v -0.437500 0.000000 0.187500
v -0.312500 0.000000 0.062500
v -0.312500 0.000000 0.437500
v -0.187500 0.000000 0.437500
v -0.187500 0.000000 0.062500
v -0.062500 0.000000 0.187500
v -0.062500 0.000000 0.312500
v -0.437500 0.500000 0.312500
v -0.437500 0.500000 0.187500
v -0.312500 0.500000 0.062500
v -0.312500 0.500000 0.437500
v -0.187500 0.500000 0.437500
v -0.187500 0.500000 0.062500
v -0.062500 0.500000 0.187500
v -0.062500 0.500000 0.312500
v -0.437500 0.000000 -0.187500
v -0.437500 0.000000 -0.312500
v -0.312500 0.000000 -0.437500
v -0.312500 0.000000 -0.062500
v -0.187500 0.000000 -0.062500
v -0.187500 0.000000 -0.437500
v -0.062500 0.000000 -0.312500
v -0.062500 0.000000 -0.187500
v -0.437500 0.500000 -0.187500
v -0.437500 0.500000 -0.312500
v -0.312500 0.500000 -0.437500
v -0.312500 0.500000 -0.062500
v -0.187500 0.500000 -0.062500
v -0.187500 0.500000 -0.437500
v -0.062500 0.500000 -0.312500
v -0.062500 0.500000 -0.187500
v 0.500000 0.000000 -0.500000
v -0.500000 0.000000 -0.500000
v 0.500000 0.000000 0.500000
v -0.500000 0.000000 0.500000
v 0.375000 0.750000 -0.375000
v -0.375000 0.750000 -0.375000
v 0.375000 0.750000 0.375000
v -0.375000 0.750000 0.375000
v 0.375000 4.500000 -0.375000
v -0.375000 4.500000 -0.375000
v 0.375000 4.500000 0.375000
v -0.375000 4.500000 0.375000
v 0.437500 4.500000 0.187500
v 0.437500 4.500000 0.312500
v 0.437500 0.500000 0.187500
v 0.437500 0.500000 0.312500
v 0.375000 4.500000 -0.312500
v 0.375000 4.500000 -0.187500
v 0.375000 0.500000 -0.312500
v 0.375000 0.500000 -0.187500
v 0.437500 4.500000 -0.312500
v 0.437500 4.500000 -0.187500
v 0.437500 0.500000 -0.312500
v 0.437500 0.500000 -0.187500
v 0.375000 0.500000 0.312500
v 0.375000 0.500000 0.187500
v 0.375000 4.500000 0.312500
v 0.375000 4.500000 0.187500
v -0.437500 4.500000 -0.187500
v -0.437500 4.500000 -0.312500
v -0.437500 0.500000 -0.187500
v -0.437500 0.500000 -0.312500
v -0.375000 4.500000 0.312500
v -0.375000 4.500000 0.187500
v -0.375000 0.500000 0.312500
v -0.375000 0.500000 0.187500
v -0.437500 4.500000 0.312500
v -0.437500 4.500000 0.187500
v -0.437500 0.500000 0.312500
v -0.437500 0.500000 0.187500
v -0.375000 0.500000 -0.312500
v -0.375000 0.500000 -0.187500
v -0.375000 4.500000 -0.312500
v -0.375000 4.500000 -0.187500
v 0.187500 4.500000 -0.437500
v 0.312500 4.500000 -0.437500
v 0.187500 0.500000 -0.437500
v 0.312500 0.500000 -0.437500
v -0.312500 4.500000 -0.375000
v -0.187500 4.500000 -0.375000
v -0.312500 0.500000 -0.375000
v -0.187500 0.500000 -0.375000
v -0.312500 4.500000 -0.437500
v -0.187500 4.500000 -0.437500
v -0.312500 0.500000 -0.437500
v -0.187500 0.500000 -0.437500
v 0.312500 0.500000 -0.375000
v 0.187500 0.500000 -0.375000
v 0.312500 4.500000 -0.375000
v 0.187500 4.500000 -0.375000
v -0.187500 4.500000 0.437500
v -0.312500 4.500000 0.437500
v -0.187500 0.500000 0.437500
v -0.312500 0.500000 0.437500
v 0.312500 4.500000 0.375000
v 0.187500 4.500000 0.375000
v 0.312500 0.500000 0.375000
v 0.187500 0.500000 0.375000
v 0.312500 4.500000 0.437500
v 0.187500 4.500000 0.437500
v 0.312500 0.500000 0.437500
v 0.187500 0.500000 0.437500
v -0.312500 0.500000 0.375000
v -0.187500 0.500000 0.375000
v -0.312500 4.500000 0.375000
v -0.187500 4.500000 0.375000
vt 0.736842 0.150943
vt 0.631579 0.226415
vt 0.631579 0.150943
vt 0.611842 0.009434
vt 0.631579 0.000000
vt 0.625000 0.028302
vt 0.559211 0.141509
vt 0.598684 0.141509
vt 0.546053 0.141509
vt 0.526316 0.150943
vt 0.532895 0.122642
vt 0.710526 0.000000
vt 0.697368 0.075472
vt 0.697368 0.000000
vt 0.684211 0.075472
vt 0.684211 0.000000
vt 0.671053 0.075472
vt 0.657895 0.000000
vt 0.671053 0.000000
vt 0.736842 0.000000
vt 0.723684 0.075472
vt 0.723684 0.000000
vt 0.644737 0.000000
vt 0.631579 0.075472
vt 0.631579 0.000000
vt 0.710526 0.075472
vt 0.657895 0.075472
vt 0.657895 0.132075
vt 0.631579 0.113208
vt 0.644737 0.075472
vt 0.710526 0.000000
vt 0.697368 0.075472
vt 0.697368 0.000000
vt 0.684211 0.075472
vt 0.684211 0.000000
vt 0.671053 0.075472
vt 0.657895 0.000000
vt 0.671053 0.000000
vt 0.736842 0.000000
vt 0.723684 0.075472
vt 0.723684 0.000000
vt 0.644737 0.000000
vt 0.631579 0.075472
vt 0.631579 0.000000
vt 0.710526 0.075472
vt 0.657895 0.075472
vt 0.657895 0.132075
vt 0.631579 0.113208
vt 0.644737 0.075472
vt 0.710526 0.000000
vt 0.697368 0.075472
vt 0.697368 0.000000
vt 0.684211 0.075472
vt 0.684211 0.000000
vt 0.671053 0.075472
vt 0.657895 0.000000
vt 0.671053 0.000000
vt 0.736842 0.000000
vt 0.723684 0.075472
vt 0.723684 0.000000
vt 0.644737 0.000000
vt 0.631579 0.075472
vt 0.631579 0.000000
vt 0.710526 0.075472
vt 0.657895 0.075472
vt 0.657895 0.132075
vt 0.631579 0.113208
vt 0.644737 0.075472
vt 0.710526 0.000000
vt 0.697368 0.075472
vt 0.697368 0.000000
vt 0.684211 0.075472
vt 0.684211 0.000000
vt 0.671053 0.075472
vt 0.657895 0.000000
vt 0.671053 0.000000
vt 0.736842 0.000000
vt 0.723684 0.075472
vt 0.723684 0.000000
vt 0.644737 0.000000
vt 0.631579 0.075472
vt 0.631579 0.000000
vt 0.710526 0.075472
vt 0.657895 0.075472
vt 0.657895 0.132075
vt 0.631579 0.113208
vt 0.644737 0.075472
vt 0.546053 0.084906
vt 0.559211 0.066038
vt 0.559211 0.084906
vt 0.572368 0.103774
vt 0.585526 0.122642
vt 0.572368 0.122642
vt 0.598684 0.084906
vt 0.611842 0.066038
vt 0.611842 0.084906
vt 0.572368 0.028302
vt 0.585526 0.047170
vt 0.572368 0.047170
vt 0.598684 0.066038
vt 0.585526 0.103774
vt 0.559211 0.009434
vt 0.585526 0.028302
vt 0.532895 0.103774
vt 0.546053 0.066038
vt 0.625000 0.047170
vt 0.625000 0.103774
vt 0.532895 0.028302
vt 0.526316 0.000000
vt 0.546053 0.009434
vt 0.625000 0.122642
vt 0.611842 0.141509
vt 0.532895 0.047170
vt 0.598684 0.009434
vt 0.842105 0.150943
vt 0.736842 0.226415
vt 0.526316 0.226415
vt 0.421053 0.226415
vt 0.421053 0.150943
vt 0.539474 0.264151
vt 0.434211 0.264151
vt 0.842105 0.226415
vt 0.750000 0.264151
vt 0.644737 0.264151
vt 0.723684 0.264151
vt 0.644737 0.830189
vt 0.513158 0.264151
vt 0.434211 0.830189
vt 0.828947 0.264151
vt 0.750000 0.830189
vt 0.618421 0.264151
vt 0.539474 0.830189
vt 0.993421 0.603774
vt 0.980263 0.000000
vt 0.993421 0.000000
vt 0.993421 0.000000
vt 1.000000 0.603774
vt 0.993421 0.603774
vt 0.980263 0.603774
vt 0.973684 0.000000
vt 0.980263 0.000000
vt 0.980263 0.603774
vt 0.973684 0.000000
vt 1.000000 0.603774
vt 0.993421 0.603774
vt 0.980263 0.000000
vt 0.993421 0.000000
vt 0.993421 0.000000
vt 1.000000 0.603774
vt 0.993421 0.603774
vt 0.980263 0.603774
vt 0.973684 0.000000
vt 0.980263 0.000000
vt 0.980263 0.603774
vt 0.973684 0.000000
vt 1.000000 0.603774
vt 0.993421 0.603774
vt 0.980263 0.000000
vt 0.993421 0.000000
vt 0.993421 0.000000
vt 1.000000 0.603774
vt 0.993421 0.603774
vt 0.980263 0.603774
vt 0.973684 0.000000
vt 0.980263 0.000000
vt 0.980263 0.603774
vt 0.973684 0.000000
vt 1.000000 0.603774
vt 0.993421 0.603774
vt 0.980263 0.000000
vt 0.993421 0.000000
vt 0.993421 0.000000
vt 1.000000 0.603774
vt 0.993421 0.603774
vt 0.980263 0.603774
vt 0.973684 0.000000
vt 0.980263 0.000000
vt 0.980263 0.603774
vt 0.973684 0.000000
vt 1.000000 0.603774
vt 0.736842 0.075472
vt 0.671053 0.094340
vt 0.671053 0.113208
vt 0.644737 0.132075
vt 0.631579 0.094340
vt 0.736842 0.075472
vt 0.671053 0.094340
vt 0.671053 0.113208
vt 0.644737 0.132075
vt 0.631579 0.094340
vt 0.736842 0.075472
vt 0.671053 0.094340
vt 0.671053 0.113208
vt 0.644737 0.132075
vt 0.631579 0.094340
vt 0.736842 0.075472
vt 0.671053 0.094340
vt 0.671053 0.113208
vt 0.644737 0.132075
vt 0.631579 0.094340
vt 0.723684 0.830189
vt 0.513158 0.830189
vt 0.828947 0.830189
vt 0.618421 0.830189
vt 1.000000 0.000000
vt 0.973684 0.603774
vt 0.973684 0.603774
vt 1.000000 0.000000
vt 1.000000 0.000000
vt 0.973684 0.603774
vt 0.973684 0.603774
vt 1.000000 0.000000
vt 1.000000 0.000000
vt 0.973684 0.603774
vt 0.973684 0.603774
vt 1.000000 0.000000
vt 1.000000 0.000000
vt 0.973684 0.603774
vt 0.973684 0.603774
vt 1.000000 0.000000
vn 0.0000 0.0000 -1.0000
vn 0.0000 -1.0000 0.0000
vn -1.0000 0.0000 0.0000
vn -0.7071 0.0000 0.7071
vn 0.7071 0.0000 0.7071
vn 0.7071 0.0000 -0.7071
vn -0.7071 0.0000 -0.7071
vn 0.0000 0.0000 1.0000
vn 1.0000 0.0000 0.0000
vn 0.8944 0.4472 0.0000
vn 0.0000 0.4472 0.8944
vn -0.8944 0.4472 0.0000
vn 0.0000 0.4472 -0.8944
s off
f 12/2/1 69/3/1 70/1/1 11/116/1
f 55/6/2 54/4/2 70/5/2 58/106/2
f 28/8/2 69/3/2 7/7/2 6/93/2
f 71/10/2 5/11/2 8/9/2 7/7/2
f 19/13/3 7/14/3 8/12/3 20/26/3
f 18/15/4 6/16/4 7/14/4 19/13/4
f 2/18/5 3/19/5 15/17/5 14/27/5
f 17/21/1 5/22/1 4/20/1 16/181/1
f 16/24/6 4/25/6 1/23/6 13/30/6
f 20/26/7 8/12/7 5/22/7 17/21/7
f 15/17/8 3/19/8 6/16/8 18/15/8
f 1/23/9 2/18/9 14/27/9 13/30/9
f 17/29/2 13/30/2 19/28/2 20/184/2
f 35/32/3 27/33/3 28/31/3 36/45/3
f 34/34/4 26/35/4 27/33/4 35/32/4
f 22/37/5 23/38/5 31/36/5 30/46/5
f 33/40/1 25/41/1 24/39/1 32/186/1
f 32/43/6 24/44/6 21/42/6 29/49/6
f 36/45/7 28/31/7 25/41/7 33/40/7
f 31/36/8 23/38/8 26/35/8 34/34/8
f 21/42/9 22/37/9 30/46/9 29/49/9
f 33/48/2 29/49/2 35/47/2 36/189/2
f 51/51/3 43/52/3 44/50/3 52/64/3
f 50/53/4 42/54/4 43/52/4 51/51/4
f 38/56/5 39/57/5 47/55/5 46/65/5
f 49/59/1 41/60/1 40/58/1 48/191/1
f 48/62/6 40/63/6 37/61/6 45/68/6
f 52/64/7 44/50/7 41/60/7 49/59/7
f 47/55/8 39/57/8 42/54/8 50/53/8
f 37/61/9 38/56/9 46/65/9 45/68/9
f 49/67/2 45/68/2 51/66/2 52/194/2
f 67/70/3 59/71/3 60/69/3 68/83/3
f 66/72/4 58/73/4 59/71/4 67/70/4
f 54/75/5 55/76/5 63/74/5 62/84/5
f 65/78/1 57/79/1 56/77/1 64/196/1
f 64/81/6 56/82/6 53/80/6 61/87/6
f 68/83/7 60/69/7 57/79/7 65/78/7
f 63/74/8 55/76/8 58/73/8 66/72/8
f 53/80/9 54/75/9 62/84/9 61/87/9
f 65/86/2 61/87/2 67/85/2 68/199/2
f 43/89/2 2/90/2 1/88/2 44/105/2
f 25/92/2 6/93/2 3/91/2 24/101/2
f 59/95/2 22/96/2 21/94/2 60/100/2
f 57/98/2 42/99/2 39/97/2 56/103/2
f 60/100/2 24/101/2 42/99/2 57/98/2
f 56/103/2 39/97/2 38/102/2 53/114/2
f 44/105/2 1/88/2 4/104/2 41/113/2
f 23/107/2 22/96/2 58/106/2 70/5/2
f 72/109/2 37/110/2 40/108/2 41/113/2
f 27/112/2 26/111/2 69/3/2 28/8/2
f 71/10/2 41/113/2 4/104/2 5/11/2
f 72/109/2 53/114/2 38/102/2 37/110/2
f 11/116/3 70/1/3 72/115/3 9/122/3
f 10/117/9 71/10/9 69/3/9 12/2/9
f 9/118/8 72/119/8 71/10/8 10/117/8
f 75/120/10 10/117/10 12/2/10 73/131/10
f 76/121/11 9/118/11 10/117/11 75/127/11
f 74/123/12 11/116/12 9/122/12 76/129/12
f 73/124/13 12/2/13 11/116/13 74/125/13
f 77/126/1 73/124/1 74/125/1 78/201/1
f 80/128/8 76/121/8 75/127/8 79/202/8
f 78/130/3 74/123/3 76/129/3 80/203/3
f 79/132/9 75/120/9 73/131/9 77/204/9
f 84/134/9 83/135/9 81/133/9 82/142/9
f 85/137/1 89/138/1 91/136/1 87/205/1
f 88/140/8 92/141/8 90/139/8 86/206/8
f 92/141/9 91/136/9 89/138/9 90/139/9
f 93/143/8 84/134/8 82/142/8 95/207/8
f 96/144/1 81/133/1 83/135/1 94/208/1
f 100/146/3 99/147/3 97/145/3 98/154/3
f 101/149/8 105/150/8 107/148/8 103/209/8
f 104/152/1 108/153/1 106/151/1 102/210/1
f 108/153/3 107/148/3 105/150/3 106/151/3
f 109/155/1 100/146/1 98/154/1 111/211/1
f 112/156/8 97/145/8 99/147/8 110/212/8
f 116/158/1 115/159/1 113/157/1 114/166/1
f 117/161/3 121/162/3 123/160/3 119/213/3
f 120/164/9 124/165/9 122/163/9 118/214/9
f 124/165/1 123/160/1 121/162/1 122/163/1
f 125/167/9 116/158/9 114/166/9 127/215/9
f 128/168/3 113/157/3 115/159/3 126/216/3
f 132/170/8 131/171/8 129/169/8 130/178/8
f 133/173/9 137/174/9 139/172/9 135/217/9
f 136/176/3 140/177/3 138/175/3 134/218/3
f 140/177/8 139/172/8 137/174/8 138/175/8
f 141/179/3 132/170/3 130/178/3 143/219/3
f 144/180/9 129/169/9 131/171/9 142/220/9
f 69/3/2 71/10/2 7/7/2
f 13/30/2 14/27/2 15/182/2 19/28/2
f 15/182/2 18/183/2 19/28/2
f 17/29/2 16/185/2 13/30/2
f 29/49/2 30/46/2 31/187/2 35/47/2
f 31/187/2 34/188/2 35/47/2
f 33/48/2 32/190/2 29/49/2
f 45/68/2 46/65/2 47/192/2 51/66/2
f 47/192/2 50/193/2 51/66/2
f 49/67/2 48/195/2 45/68/2
f 61/87/2 62/84/2 63/197/2 67/85/2
f 63/197/2 66/198/2 67/85/2
f 65/86/2 64/200/2 61/87/2
f 24/101/2 3/91/2 2/90/2 42/99/2
f 2/90/2 43/89/2 42/99/2
f 60/100/2 21/94/2 24/101/2
f 6/93/2 25/92/2 28/8/2
f 22/96/2 59/95/2 58/106/2
f 23/107/2 70/5/2 69/3/2 26/111/2
f 71/10/2 72/109/2 41/113/2
f 53/114/2 72/109/2 70/5/2 54/4/2
o Base
v -0.500000 4.500000 0.500000
v 0.500000 4.500000 0.500000
v -0.500000 4.500000 -0.500000
v 0.500000 4.500000 -0.500000
v -0.437500 8.000000 0.437500
v 0.437500 8.000000 0.437500
v -0.437500 8.000000 -0.437500
v 0.437500 8.000000 -0.437500
v -0.125000 0.000000 0.125000
v 0.125000 0.000000 0.125000
v -0.125000 0.000000 -0.125000
v 0.125000 0.000000 -0.125000
v -0.125000 4.500000 -0.125000
v -0.125000 4.500000 0.125000
v 0.125000 4.500000 0.125000
v 0.125000 4.500000 -0.125000
v -0.500000 7.750000 -0.500000
v -0.500000 7.750000 0.500000
v 0.500000 7.750000 0.500000
v 0.500000 7.750000 -0.500000
v 0.437500 7.500000 -0.437500
v -0.437500 7.500000 -0.437500
v 0.437500 7.500000 0.437500
v -0.437500 7.500000 0.437500
v -0.500000 4.750000 -0.500000
v -0.500000 4.750000 0.500000
v 0.500000 4.750000 0.500000
v 0.500000 4.750000 -0.500000
v -0.437500 5.000000 -0.437500
v -0.437500 5.000000 0.437500
v 0.437500 5.000000 0.437500
v 0.437500 5.000000 -0.437500
v -0.500000 9.000000 0.500000
v 0.500000 9.000000 0.500000
v -0.500000 9.000000 -0.500000
v 0.500000 9.000000 -0.500000
v -0.437500 8.750000 -0.437500
v -0.437500 8.750000 0.437500
v 0.437500 8.750000 0.437500
v 0.437500 8.750000 -0.437500
v -0.500000 8.000000 -0.500000
v -0.500000 8.000000 0.500000
v 0.500000 8.000000 0.500000
v 0.500000 8.000000 -0.500000
v -0.500000 8.750000 -0.500000
v -0.500000 8.750000 0.500000
v 0.500000 8.750000 0.500000
v 0.500000 8.750000 -0.500000
v -0.500000 8.125000 -0.500000
v -0.500000 8.125000 0.500000
v 0.500000 8.125000 0.500000
v 0.500000 8.125000 -0.500000
v -0.500000 8.625000 -0.500000
v -0.500000 8.625000 0.500000
v 0.500000 8.625000 0.500000
v 0.500000 8.625000 -0.500000
v 0.500000 4.750000 -0.187500
v 0.500000 4.750000 -0.312500
v 0.500000 7.750000 -0.187500
v 0.500000 7.750000 -0.312500
v 0.437500 4.750000 -0.187500
v 0.437500 4.750000 -0.312500
v 0.437500 7.750000 -0.187500
v 0.437500 7.750000 -0.312500
v 0.500000 4.750000 0.312500
v 0.500000 4.750000 0.187500
v 0.500000 7.750000 0.312500
v 0.500000 7.750000 0.187500
v 0.437500 4.750000 0.312500
v 0.437500 4.750000 0.187500
v 0.437500 7.750000 0.312500
v 0.437500 7.750000 0.187500
v -0.500000 4.750000 0.187500
v -0.500000 4.750000 0.312500
v -0.500000 7.750000 0.187500
v -0.500000 7.750000 0.312500
v -0.437500 4.750000 0.187500
v -0.437500 4.750000 0.312500
v -0.437500 7.750000 0.187500
v -0.437500 7.750000 0.312500
v -0.500000 4.750000 -0.312500
v -0.500000 4.750000 -0.187500
v -0.500000 7.750000 -0.312500
v -0.500000 7.750000 -0.187500
v -0.437500 4.750000 -0.312500
v -0.437500 4.750000 -0.187500
v -0.437500 7.750000 -0.312500
v -0.437500 7.750000 -0.187500
v -0.187500 4.750000 -0.500000
v -0.312500 4.750000 -0.500000
v -0.187500 7.750000 -0.500000
v -0.312500 7.750000 -0.500000
v -0.187500 4.750000 -0.437500
v -0.312500 4.750000 -0.437500
v -0.187500 7.750000 -0.437500
v -0.312500 7.750000 -0.437500
v 0.312500 4.750000 -0.500000
v 0.187500 4.750000 -0.500000
v 0.312500 7.750000 -0.500000
v 0.187500 7.750000 -0.500000
v 0.312500 4.750000 -0.437500
v 0.187500 4.750000 -0.437500
v 0.312500 7.750000 -0.437500
v 0.187500 7.750000 -0.437500
v 0.187500 4.750000 0.500000
v 0.312500 4.750000 0.500000
v 0.187500 7.750000 0.500000
v 0.312500 7.750000 0.500000
v 0.187500 4.750000 0.437500
v 0.312500 4.750000 0.437500
v 0.187500 7.750000 0.437500
v 0.312500 7.750000 0.437500
v -0.312500 4.750000 0.500000
v -0.187500 4.750000 0.500000
v -0.312500 7.750000 0.500000
v -0.187500 7.750000 0.500000
v -0.312500 4.750000 0.437500
v -0.187500 4.750000 0.437500
v -0.312500 7.750000 0.437500
v -0.187500 7.750000 0.437500
vt 0.210526 -0.000000
vt 0.105263 0.150943
vt 0.105263 0.000000
vt 0.315789 0.707547
vt 0.217105 0.688679
vt 0.309211 0.688679
vt 0.105263 0.679245
vt 0.210526 0.641509
vt 0.210526 0.679245
vt -0.000000 0.641509
vt 0.098684 0.603774
vt 0.105263 0.641509
vt 0.315789 0.679245
vt 0.421053 0.641509
vt 0.421053 0.679245
vt -0.000000 0.679245
vt 0.894737 0.000000
vt 0.868421 0.037736
vt 0.868421 0.000000
vt 0.842105 0.716981
vt 0.842105 0.037736
vt 0.894737 0.037736
vt 0.868421 0.716981
vt 0.947368 0.037736
vt 0.921053 0.716981
vt 0.921053 0.037736
vt 0.894737 0.716981
vt 0.315789 0.641509
vt 0.309211 0.603774
vt 0.414474 0.603774
vt 0.203947 0.603774
vt 0.105263 0.188679
vt 0.006579 0.226415
vt 0.000000 0.188679
vt 0.315789 0.150943
vt 0.210526 0.188679
vt 0.210526 0.150943
vt 0.000000 0.150943
vt 0.421053 0.150943
vt 0.315789 0.188679
vt 0.111842 0.226415
vt 0.421053 0.188679
vt 0.322368 0.226415
vt 0.217105 0.226415
vt 0.322368 0.603774
vt 0.414474 0.226415
vt 0.217105 0.603774
vt 0.309211 0.226415
vt 0.111842 0.603774
vt 0.203947 0.226415
vt 0.006579 0.603774
vt 0.098684 0.226415
vt 0.105263 0.849057
vt 0.210526 1.000000
vt 0.105263 1.000000
vt 0.421053 0.707547
vt 0.322368 0.688679
vt 0.414474 0.688679
vt 0.210526 0.849057
vt 0.315789 0.811321
vt 0.315789 0.849057
vt -0.000000 0.849057
vt 0.105263 0.811321
vt 0.210526 0.811321
vt 0.421053 0.811321
vt 0.421053 0.849057
vt 0.006579 0.688679
vt 0.098684 0.688679
vt 0.111842 0.688679
vt 0.203947 0.688679
vt 0.414474 0.801887
vt 0.322368 0.801887
vt 0.098684 0.801887
vt -0.000000 0.811321
vt 0.006579 0.801887
vt 0.203947 0.801887
vt 0.111842 0.801887
vt 0.309211 0.801887
vt 0.217105 0.801887
vt 0.210526 0.707547
vt 0.105263 0.707547
vt 0.421053 0.783019
vt 0.105263 0.783019
vt 0.210526 0.783019
vt 0.315789 0.783019
vt 0.000000 0.707547
vt 0.967105 0.452830
vt 0.953947 0.000000
vt 0.967105 0.000000
vt 0.953947 0.452830
vt 0.947368 0.000000
vt 0.973684 0.452830
vt 0.967105 0.452830
vt 0.953947 0.000000
vt 0.967105 0.000000
vt 0.953947 0.452830
vt 0.947368 0.000000
vt 0.973684 0.452830
vt 0.967105 0.452830
vt 0.953947 0.000000
vt 0.967105 0.000000
vt 0.953947 0.452830
vt 0.947368 0.000000
vt 0.973684 0.452830
vt 0.967105 0.452830
vt 0.953947 0.000000
vt 0.967105 0.000000
vt 0.953947 0.452830
vt 0.947368 0.000000
vt 0.973684 0.452830
vt 0.967105 0.452830
vt 0.953947 0.000000
vt 0.967105 0.000000
vt 0.953947 0.452830
vt 0.947368 0.000000
vt 0.973684 0.452830
vt 0.967105 0.452830
vt 0.953947 0.000000
vt 0.967105 0.000000
vt 0.953947 0.452830
vt 0.947368 0.000000
vt 0.973684 0.452830
vt 0.967105 0.452830
vt 0.953947 0.000000
vt 0.967105 0.000000
vt 0.953947 0.452830
vt 0.947368 0.000000
vt 0.973684 0.452830
vt 0.967105 0.452830
vt 0.953947 0.000000
vt 0.967105 0.000000
vt 0.953947 0.452830
vt 0.947368 0.000000
vt 0.973684 0.452830
vt 0.947368 0.716981
vt 0.000000 0.783019
vt 0.947368 0.452830
vt 0.973684 0.000000
vt 0.947368 0.452830
vt 0.973684 0.000000
vt 0.947368 0.452830
vt 0.973684 0.000000
vt 0.947368 0.452830
vt 0.973684 0.000000
vt 0.947368 0.452830
vt 0.973684 0.000000
vt 0.947368 0.452830
vt 0.973684 0.000000
vt 0.947368 0.452830
vt 0.973684 0.000000
vt 0.947368 0.452830
vt 0.973684 0.000000
vn 0.0000 -1.0000 0.0000
vn 0.0000 -0.4472 -0.8944
vn 1.0000 0.0000 0.0000
vn 0.0000 -0.2425 0.9701
vn -1.0000 0.0000 0.0000
vn 0.0000 0.0000 1.0000
vn 0.0000 0.0000 -1.0000
vn 0.0000 -0.2425 -0.9701
vn -0.9701 -0.2425 0.0000
vn 0.9701 -0.2425 0.0000
vn 0.0000 0.2425 0.9701
vn 0.9701 0.2425 0.0000
vn -0.9701 0.2425 0.0000
vn 0.0000 0.2425 -0.9701
vn 0.0000 1.0000 0.0000
vn -0.8944 -0.4472 0.0000
vn 0.8944 -0.4472 0.0000
vn 0.0000 -0.4472 0.8944
vn -0.8944 0.4472 0.0000
vn 0.0000 0.4472 0.8944
vn 0.8944 0.4472 0.0000
vn 0.0000 0.4472 -0.8944
s off
f 146/222/14 145/223/14 147/221/14 148/257/14
f 152/225/15 151/226/15 193/224/15 196/300/15
f 164/228/16 188/229/16 187/227/16 163/232/16
f 167/231/17 163/232/17 162/230/17 168/271/17
f 162/234/18 186/235/18 185/233/18 161/248/18
f 163/232/19 187/227/19 186/236/19 162/230/19
f 154/238/14 153/239/14 155/237/14 156/242/14
f 158/240/19 153/241/19 154/238/19 159/243/19
f 159/243/16 154/238/16 156/242/16 160/247/16
f 157/245/18 155/246/18 153/244/18 158/355/18
f 160/247/20 156/242/20 155/246/20 157/245/20
f 161/248/20 185/233/20 188/229/20 164/228/20
f 166/249/21 161/248/21 164/228/21 165/267/21
f 168/250/22 162/234/22 161/248/22 166/265/22
f 165/251/23 164/228/23 163/232/23 167/269/23
f 174/253/24 170/254/24 171/252/24 175/272/24
f 172/256/20 148/257/20 147/255/20 169/260/20
f 170/254/19 145/258/19 146/222/19 171/252/19
f 171/252/16 146/222/16 148/257/16 172/256/16
f 169/260/18 147/255/18 145/259/18 170/262/18
f 175/261/25 171/252/25 172/256/25 176/270/25
f 173/263/26 169/260/26 170/262/26 174/266/26
f 176/264/27 172/256/27 169/260/27 173/268/27
f 174/266/18 168/250/18 166/265/18 173/263/18
f 173/268/20 166/249/20 165/267/20 176/264/20
f 176/270/16 165/251/16 167/269/16 175/261/16
f 175/272/19 167/231/19 168/271/19 174/253/19
f 179/274/28 177/275/28 178/273/28 180/279/28
f 151/277/29 149/278/29 194/276/29 193/224/29
f 189/280/20 179/281/20 180/279/20 192/284/20
f 191/283/19 178/273/19 177/282/19 190/294/19
f 192/284/16 180/279/16 178/273/16 191/283/16
f 190/285/18 177/286/18 179/281/18 189/280/18
f 186/235/28 149/278/28 151/277/28 185/233/28
f 187/227/28 150/288/28 149/287/28 186/236/28
f 188/229/28 152/290/28 150/289/28 187/227/28
f 185/233/28 151/226/28 152/225/28 188/229/28
f 189/280/14 181/292/14 182/291/14 190/285/14
f 190/294/14 182/295/14 183/293/14 191/283/14
f 191/283/14 183/297/14 184/296/14 192/284/14
f 192/284/14 184/299/14 181/298/14 189/280/14
f 150/289/30 152/290/30 196/300/30 195/301/30
f 149/287/31 150/288/31 195/301/31 194/306/31
f 198/302/32 182/291/32 181/292/32 197/305/32
f 199/303/33 183/293/33 182/295/33 198/356/33
f 200/304/34 184/296/34 183/297/34 199/303/34
f 197/305/35 181/298/35 184/299/35 200/304/35
f 193/224/18 194/276/18 198/302/18 197/305/18
f 194/306/19 195/301/19 199/303/19 198/356/19
f 195/301/16 196/300/16 200/304/16 199/303/16
f 196/300/20 193/224/20 197/305/20 200/304/20
f 201/308/16 202/309/16 204/307/16 203/310/16
f 205/311/19 201/308/19 203/310/19 207/357/19
f 208/312/20 204/307/20 202/309/20 206/358/20
f 209/314/16 210/315/16 212/313/16 211/316/16
f 213/317/19 209/314/19 211/316/19 215/359/19
f 216/318/20 212/313/20 210/315/20 214/360/20
f 217/320/18 218/321/18 220/319/18 219/322/18
f 221/323/20 217/320/20 219/322/20 223/361/20
f 224/324/19 220/319/19 218/321/19 222/362/19
f 225/326/18 226/327/18 228/325/18 227/328/18
f 229/329/20 225/326/20 227/328/20 231/363/20
f 232/330/19 228/325/19 226/327/19 230/364/19
f 233/332/20 234/333/20 236/331/20 235/334/20
f 237/335/16 233/332/16 235/334/16 239/365/16
f 240/336/18 236/331/18 234/333/18 238/366/18
f 241/338/20 242/339/20 244/337/20 243/340/20
f 245/341/16 241/338/16 243/340/16 247/367/16
f 248/342/18 244/337/18 242/339/18 246/368/18
f 249/344/19 250/345/19 252/343/19 251/346/19
f 253/347/18 249/344/18 251/346/18 255/369/18
f 256/348/16 252/343/16 250/345/16 254/370/16
f 257/350/19 258/351/19 260/349/19 259/352/19
f 261/353/18 257/350/18 259/352/18 263/371/18
f 264/354/16 260/349/16 258/351/16 262/372/16
