# Blender v2.79 (sub 0) OBJ File: ''
# www.blender.org
o Needle
v 0.031250 0.562500 -0.109375
v 0.031250 0.437500 -0.109375
v 0.031250 0.562500 -0.140625
v 0.031250 0.437500 -0.140625
v 0.031250 0.656250 -0.125000
v 0.046875 0.656250 -0.125000
v 0.046875 0.562500 -0.109375
v 0.046875 0.437500 -0.109375
v 0.046875 0.437500 -0.140625
v 0.046875 0.562500 -0.140625
vt -0.002146 -0.002232
vt -0.002146 -0.002232
vt -0.002146 -0.002232
vt -0.002146 -0.002232
vt -0.002146 -0.002232
vt -0.002146 -0.002232
vt -0.002146 -0.002232
vt -0.002146 -0.002232
vt -0.002146 -0.002232
vt -0.002146 -0.002232
vn 1.0000 0.0000 0.0000
vn 0.0000 0.1644 -0.9864
vn 0.0000 0.1644 0.9864
vn 0.0000 0.0000 -1.0000
vn 0.0000 0.0000 1.0000
s off
f 8/1/1 9/2/1 10/3/1 7/10/1
f 10/3/2 3/5/2 5/4/2 6/7/2
f 6/7/3 5/4/3 1/6/3 7/10/3
f 9/2/4 4/8/4 3/5/4 10/3/4
f 7/10/5 1/6/5 2/9/5 8/1/5
f 6/7/1 7/10/1 10/3/1
o Gauge
v 0.062500 0.687500 0.125000
v 0.000000 0.718750 -0.156250
v 0.000000 0.718750 0.156250
v 0.062500 0.437500 -0.125000
v 0.062500 0.687500 -0.125000
v 0.000000 0.406250 -0.156250
v 0.000000 0.406250 0.156250
v 0.062500 0.437500 0.125000
v 0.062500 0.718750 0.156250
v 0.062500 0.718750 -0.156250
v 0.062500 0.406250 -0.156250
v 0.062500 0.406250 0.156250
v 0.031250 0.687500 0.125000
v 0.031250 0.687500 -0.125000
v 0.031250 0.437500 -0.125000
v 0.031250 0.437500 0.125000
v 0.031250 0.463180 0.123708
v 0.031250 0.455398 0.124389
v 0.031250 0.457733 0.061446
v 0.031250 0.449950 0.062127
v 0.036250 0.463180 0.123708
v 0.036250 0.455398 0.124389
v 0.036250 0.457733 0.061446
v 0.036250 0.449950 0.062127
v 0.031250 0.687500 0.050000
v 0.031250 0.505978 0.115470
v 0.031250 0.498432 0.117492
v 0.031250 0.489802 0.055100
v 0.031250 0.482255 0.057122
v 0.036250 0.505978 0.115470
v 0.036250 0.498432 0.117492
v 0.036250 0.489802 0.055100
v 0.036250 0.482255 0.057122
v 0.031250 0.546695 0.099926
v 0.031250 0.539614 0.103228
v 0.031250 0.520281 0.043282
v 0.031250 0.513201 0.046584
v 0.036250 0.546695 0.099926
v 0.036250 0.539614 0.103228
v 0.036250 0.520281 0.043282
v 0.036250 0.513201 0.046584
v 0.031250 0.584094 0.077548
v 0.031250 0.577694 0.082029
v 0.031250 0.548245 0.026350
v 0.031250 0.541846 0.030832
v 0.036250 0.584094 0.077548
v 0.036250 0.577694 0.082029
v 0.036250 0.548245 0.026350
v 0.036250 0.541846 0.030832
v 0.031250 0.617039 0.049015
v 0.031250 0.611515 0.054539
v 0.031250 0.572845 0.004820
v 0.031250 0.567320 0.010345
v 0.036250 0.617039 0.049015
v 0.036250 0.611515 0.054539
v 0.036250 0.572845 0.004820
v 0.036250 0.567320 0.010345
v 0.031250 0.644529 0.015194
v 0.031250 0.640047 0.021594
v 0.031250 0.593332 -0.020654
v 0.031250 0.588850 -0.014255
v 0.036250 0.644529 0.015194
v 0.036250 0.640047 0.021594
v 0.036250 0.593332 -0.020654
v 0.036250 0.588850 -0.014255
v 0.031250 0.665728 -0.022886
v 0.031250 0.662426 -0.015805
v 0.031250 0.609084 -0.049299
v 0.031250 0.605782 -0.042219
v 0.036250 0.665728 -0.022886
v 0.036250 0.662426 -0.015805
v 0.036250 0.609084 -0.049299
v 0.036250 0.605782 -0.042219
v 0.031250 0.679992 -0.064068
v 0.031250 0.677970 -0.056522
v 0.031250 0.619622 -0.080245
v 0.031250 0.617600 -0.072698
v 0.036250 0.679992 -0.064068
v 0.036250 0.677970 -0.056522
v 0.036250 0.619622 -0.080245
v 0.036250 0.617600 -0.072698
v 0.031250 0.686889 -0.107102
v 0.031250 0.686208 -0.099320
v 0.031250 0.624627 -0.112550
v 0.031250 0.623946 -0.104767
v 0.036250 0.686889 -0.107102
v 0.036250 0.686208 -0.099320
v 0.036250 0.624627 -0.112550
v 0.036250 0.623946 -0.104767
vt 0.428571 0.142857
vt 0.500000 0.857143
vt 0.428571 0.857143
vt 0.071429 1.000000
vt 0.071429 0.857143
vt -0.000000 0.142857
vt 0.071429 0.142857
vt 0.142857 0.214286
vt 0.071429 0.785714
vt 0.142857 0.785714
vt 0.428571 -0.000000
vt 0.392857 0.785714
vt 0.107143 0.785714
vt 0.107143 0.214286
vt 0.392857 0.214286
vt 1.000000 1.000000
vt 0.785714 1.000000
vt 1.000000 0.428571
vt 0.392857 0.285714
vt 0.107143 0.142857
vt 0.107143 0.285714
vt 0.357143 0.785714
vt 0.428571 0.214286
vt 0.357143 0.214286
vt 0.107143 0.714286
vt 0.107143 0.857143
vt 0.193750 0.857143
vt 0.571429 0.285714
vt 0.642857 0.142857
vt 0.642857 0.285714
vt 0.500000 0.142857
vt 0.500000 0.285714
vt 0.642857 0.000000
vt 0.571429 0.142857
vt 0.571429 0.000000
vt 0.571429 0.428571
vt 0.642857 0.428571
vt 0.714286 0.285714
vt 0.714286 0.142857
vt 0.642857 1.000000
vt 0.500000 0.428571
vt 0.785714 0.428571
vt 0.571429 0.285714
vt 0.642857 0.142857
vt 0.642857 0.285714
vt 0.500000 0.142857
vt 0.500000 0.285714
vt 0.642857 0.000000
vt 0.571429 0.142857
vt 0.571429 0.000000
vt 0.571429 0.428571
vt 0.642857 0.428571
vt 0.714286 0.285714
vt 0.714286 0.142857
vt 0.571429 0.285714
vt 0.642857 0.142857
vt 0.642857 0.285714
vt 0.500000 0.142857
vt 0.500000 0.285714
vt 0.642857 0.000000
vt 0.571429 0.142857
vt 0.571429 0.000000
vt 0.571429 0.428571
vt 0.642857 0.428571
vt 0.714286 0.285714
vt 0.714286 0.142857
vt 0.571429 0.285714
vt 0.642857 0.142857
vt 0.642857 0.285714
vt 0.500000 0.142857
vt 0.500000 0.285714
vt 0.642857 0.000000
vt 0.571429 0.142857
vt 0.571429 0.000000
vt 0.571429 0.428571
vt 0.642857 0.428571
vt 0.714286 0.285714
vt 0.714286 0.142857
vt 0.571429 0.285714
vt 0.642857 0.142857
vt 0.642857 0.285714
vt 0.500000 0.142857
vt 0.500000 0.285714
vt 0.642857 0.000000
vt 0.571429 0.142857
vt 0.571429 0.000000
vt 0.571429 0.428571
vt 0.642857 0.428571
vt 0.714286 0.285714
vt 0.714286 0.142857
vt 0.571429 0.285714
vt 0.642857 0.142857
vt 0.642857 0.285714
vt 0.500000 0.142857
vt 0.500000 0.285714
vt 0.642857 0.000000
vt 0.571429 0.142857
vt 0.571429 0.000000
vt 0.571429 0.428571
vt 0.642857 0.428571
vt 0.714286 0.285714
vt 0.714286 0.142857
vt 0.571429 0.285714
vt 0.642857 0.142857
vt 0.642857 0.285714
vt 0.500000 0.142857
vt 0.500000 0.285714
vt 0.642857 0.000000
vt 0.571429 0.142857
vt 0.571429 0.000000
vt 0.571429 0.428571
vt 0.642857 0.428571
vt 0.714286 0.285714
vt 0.714286 0.142857
vt 0.571429 0.285714
vt 0.642857 0.142857
vt 0.642857 0.285714
vt 0.500000 0.142857
vt 0.500000 0.285714
vt 0.642857 0.000000
vt 0.571429 0.142857
vt 0.571429 0.000000
vt 0.571429 0.428571
vt 0.642857 0.428571
vt 0.714286 0.285714
vt 0.714286 0.142857
vt 0.571429 0.285714
vt 0.642857 0.142857
vt 0.642857 0.285714
vt 0.500000 0.142857
vt 0.500000 0.285714
vt 0.642857 0.000000
vt 0.571429 0.142857
vt 0.571429 0.000000
vt 0.571429 0.428571
vt 0.642857 0.428571
vt 0.714286 0.285714
vt 0.714286 0.142857
vt 0.500000 0.142857
vt 0.428571 1.000000
vt -0.000000 0.857143
vt 0.071429 0.214286
vt 0.071429 -0.000000
vt 0.392857 0.142857
vt 0.428571 0.785714
vt 0.392857 0.857143
vt 0.392857 0.714286
vt 0.500000 1.000000
vn 0.0000 0.0000 -1.0000
vn 0.0000 1.0000 0.0000
vn 0.0000 -0.0000 1.0000
vn 0.0000 -1.0000 0.0000
vn 1.0000 0.0000 0.0000
vn 0.0000 -0.9962 0.0872
vn 0.0000 -0.0872 -0.9962
vn 0.0000 0.0872 0.9962
vn 0.0000 0.9962 -0.0872
vn 0.0000 -0.9659 0.2588
vn 0.0000 -0.2588 -0.9659
vn 0.0000 0.2588 0.9659
vn 0.0000 0.9659 -0.2588
vn 0.0000 -0.9063 0.4226
vn 0.0000 -0.4226 -0.9063
vn 0.0000 0.4226 0.9063
vn 0.0000 0.9063 -0.4226
vn 0.0000 -0.8192 0.5736
vn 0.0000 -0.5736 -0.8192
vn 0.0000 0.5736 0.8192
vn 0.0000 0.8192 -0.5736
vn 0.0000 -0.7071 0.7071
vn 0.0000 -0.7071 -0.7071
vn 0.0000 0.7071 0.7071
vn 0.0000 0.7071 -0.7071
vn 0.0000 -0.5736 0.8192
vn 0.0000 -0.8192 -0.5736
vn 0.0000 0.8191 0.5736
vn 0.0000 0.5736 -0.8192
vn 0.0000 -0.4226 0.9063
vn 0.0000 -0.9063 -0.4226
vn 0.0000 0.9063 0.4226
vn 0.0000 0.4226 -0.9063
vn 0.0000 -0.2588 0.9659
vn 0.0000 -0.9659 -0.2588
vn 0.0000 0.9659 0.2588
vn 0.0000 0.2588 -0.9659
vn 0.0000 -0.0872 0.9962
vn 0.0000 -0.9962 -0.0872
vn 0.0000 0.9962 0.0872
vn 0.0000 0.0872 -0.9962
vn 0.0000 0.8192 0.5736
vn 0.0000 -0.9962 -0.0871
s off
f 12/12/6 20/13/6 21/11/6 16/149/6
f 13/14/7 19/15/7 20/13/7 12/150/7
f 17/16/8 22/17/8 19/15/8 13/151/8
f 23/19/6 11/20/6 18/18/6 26/152/6
f 16/21/9 21/11/9 22/17/9 17/153/9
f 19/15/10 11/23/10 15/22/10 20/13/10
f 21/11/10 14/25/10 18/24/10 22/17/10
f 20/13/10 15/22/10 14/25/10 21/11/10
f 22/17/10 18/24/10 11/23/10 19/15/10
f 24/26/10 35/27/10 25/28/10
f 26/30/7 18/31/7 14/29/7 25/154/7
f 25/33/8 14/34/8 15/32/8 24/155/8
f 11/35/9 23/36/9 35/37/9 15/157/9
f 33/39/10 31/40/10 32/38/10 34/44/10
f 32/38/11 28/42/11 30/41/11 34/44/11
f 34/44/12 30/45/12 29/43/12 33/39/12
f 31/40/13 27/47/13 28/46/13 32/38/13
f 33/39/14 29/49/14 27/48/14 31/40/14
f 26/51/10 25/52/10 35/50/10 23/158/10
f 42/54/10 40/55/10 41/53/10 43/59/10
f 41/53/15 37/57/15 39/56/15 43/59/15
f 43/59/16 39/60/16 38/58/16 42/54/16
f 40/55/17 36/62/17 37/61/17 41/53/17
f 42/54/18 38/64/18 36/63/18 40/55/18
f 50/66/10 48/67/10 49/65/10 51/71/10
f 49/65/19 45/69/19 47/68/19 51/71/19
f 51/71/20 47/72/20 46/70/20 50/66/20
f 48/67/21 44/74/21 45/73/21 49/65/21
f 50/66/22 46/76/22 44/75/22 48/67/22
f 58/78/10 56/79/10 57/77/10 59/83/10
f 57/77/23 53/81/23 55/80/23 59/83/23
f 59/83/24 55/84/24 54/82/24 58/78/24
f 56/79/25 52/86/25 53/85/25 57/77/25
f 58/78/26 54/88/26 52/87/26 56/79/26
f 66/90/10 64/91/10 65/89/10 67/95/10
f 65/89/27 61/93/27 63/92/27 67/95/27
f 67/95/28 63/96/28 62/94/28 66/90/28
f 64/91/29 60/98/29 61/97/29 65/89/29
f 66/90/30 62/100/30 60/99/30 64/91/30
f 74/102/10 72/103/10 73/101/10 75/107/10
f 73/101/31 69/105/31 71/104/31 75/107/31
f 75/107/32 71/108/32 70/106/32 74/102/32
f 69/109/33 72/103/33 68/110/33
f 74/102/34 70/112/34 68/111/34 72/103/34
f 82/114/10 80/115/10 81/113/10 83/119/10
f 81/113/35 77/117/35 79/116/35 83/119/35
f 83/119/36 79/120/36 78/118/36 82/114/36
f 80/115/37 76/122/37 77/121/37 81/113/37
f 82/114/38 78/124/38 76/123/38 80/115/38
f 90/126/10 88/127/10 89/125/10 91/131/10
f 89/125/39 85/129/39 87/128/39 91/131/39
f 91/131/40 87/132/40 86/130/40 90/126/40
f 88/127/41 84/134/41 85/133/41 89/125/41
f 90/126/42 86/136/42 84/135/42 88/127/42
f 98/138/10 96/139/10 97/137/10 99/143/10
f 97/137/43 93/141/43 95/140/43 99/143/43
f 94/142/44 99/143/44 95/144/44
f 96/139/45 92/146/45 93/145/45 97/137/45
f 98/138/46 94/148/46 92/147/46 96/139/46
f 24/156/9 15/157/9 35/37/9
f 69/109/47 73/101/47 72/103/47
f 94/142/48 98/138/48 99/143/48
