# Blender v3.6.0 OBJ File: ''
# www.blender.org
mtllib sphere.mtl
o Icosphere
v 0.000000 -1.000000 0.000000
v 0.425323 -0.850654 0.309011
v -0.162456 -0.850654 0.499995
v 0.723607 -0.447220 0.525725
v 0.850648 -0.525736 0.000000
v -0.525730 -0.850652 0.000000
v -0.162456 -0.850654 -0.499995
v 0.425323 -0.850654 -0.309011
v 0.951058 0.000000 0.309013
v -0.276388 -0.447220 0.850649
v 0.262869 -0.525738 0.809012
v 0.000000 0.000000 1.000000
v -0.894426 -0.447216 0.000000
v -0.688189 -0.525736 0.499997
v -0.951058 0.000000 0.309013
v -0.276388 -0.447220 -0.850649
v -0.688189 -0.525736 -0.499997
v -0.587786 -0.000000 -0.809017
v 0.723607 -0.447220 -0.525725
v 0.262869 -0.525738 -0.809012
v 0.587786 -0.000000 -0.809017
v 0.587786 0.000000 0.809017
v -0.587786 0.000000 0.809017
v -0.951058 -0.000000 -0.309013
v 0.000000 -0.000000 -1.000000
v 0.951058 -0.000000 -0.309013
v 0.276388 0.447220 0.850649
v 0.688189 0.525736 0.499997
v 0.162456 0.850654 0.499995
v -0.723607 0.447220 0.525725
v -0.262869 0.525738 0.809012
v -0.425323 0.850654 0.309011
v -0.723607 0.447220 -0.525725
v -0.850648 0.525736 -0.000000
v -0.425323 0.850654 -0.309011
v 0.276388 0.447220 -0.850649
v -0.262869 0.525738 -0.809012
v 0.162456 0.850654 -0.499995
v 0.894426 0.447216 -0.000000
v 0.688189 0.525736 -0.499997
v 0.525730 0.850652 -0.000000
v 0.000000 1.000000 -0.000000
vt 1.000000 0.103581
vt 0.901325 0.066228
vt 1.000000 0.000000
vt 0.873562 0.527104
vt 0.960821 0.468536
vt 0.960821 0.585669
vt 0.098675 0.909973
vt 0.000000 0.872620
vt 0.098675 0.806390
vt 0.513105 0.806389
vt 0.513105 0.909972
vt 0.414430 0.843742
vt 0.889908 0.279285
vt 0.977167 0.220719
vt 0.977167 0.337852
vt 0.715389 0.396420
vt 0.802648 0.337854
vt 0.802648 0.454989
vt 0.687627 0.527103
vt 0.774886 0.468536
vt 0.774886 0.585672
vt 0.687628 0.675704
vt 0.687628 0.779286
vt 0.588951 0.713056
vt 0.409500 0.468536
vt 0.409500 0.572119
vt 0.310823 0.505890
vt 0.305895 0.585671
vt 0.305895 0.689254
vt 0.207218 0.623025
vt 0.616711 0.220719
vt 0.518035 0.183364
vt 0.616711 0.117135
vt 0.409500 0.572119
vt 0.409500 0.675702
vt 0.310823 0.609475
vt 0.687628 0.779286
vt 0.687625 0.882869
vt 0.588951 0.816641
vt 0.687627 0.468536
vt 0.687627 0.572120
vt 0.588951 0.505891
vt 0.616713 0.337853
vt 0.518036 0.300499
vt 0.616713 0.234270
vt 0.409500 0.675702
vt 0.409499 0.779286
vt 0.310823 0.713056
vt 0.889906 0.207166
vt 0.791231 0.169812
vt 0.889906 0.103583
vt 0.687627 0.864954
vt 0.774886 0.806388
vt 0.774886 0.923521
vt 0.786302 0.806388
vt 0.687627 0.769034
vt 0.786302 0.702806
vt 0.103608 0.837854
vt 0.190868 0.779288
vt 0.190868 0.896421
vt 0.873562 0.872617
vt 0.972237 0.806388
vt 0.972237 0.909970
vt 0.103608 0.409970
vt 0.207214 0.351403
vt 0.207214 0.468537
vt 0.774887 0.702806
vt 0.687627 0.644238
vt 0.774886 0.585672
vt 0.977165 0.103583
vt 0.977167 0.220719
vt 0.889906 0.162149
vt 0.518036 0.351403
vt 0.414430 0.292836
vt 0.518036 0.234270
vt 0.889908 0.454988
vt 0.802648 0.396421
vt 0.889908 0.337854
vt 0.310823 0.962646
vt 0.409498 0.896419
vt 0.409498 1.000000
vt 0.518037 0.117132
vt 0.414431 0.058566
vt 0.518037 0.000000
vt 0.873562 0.923521
vt 0.786302 0.864956
vt 0.873562 0.806388
vt 0.988582 0.441436
vt 0.889908 0.375207
vt 0.988582 0.337854
vt 0.518037 0.117132
vt 0.518036 0.234270
vt 0.414429 0.175701
vt 0.873562 0.468536
vt 0.873562 0.572118
vt 0.774886 0.534765
vt 0.983653 0.806387
vt 0.884977 0.740159
vt 0.983653 0.702806
vt 0.310823 0.234269
vt 0.310823 0.351403
vt 0.207218 0.292836
vt 0.901325 0.000000
vt 0.901325 0.103582
vt 0.802650 0.066228
vt 0.605298 0.066230
vt 0.703975 0.000000
vt 0.703975 0.103582
vt 0.103608 0.175702
vt 0.207215 0.117135
vt 0.207215 0.234269
vt 0.202284 0.468537
vt 0.202284 0.572122
vt 0.103608 0.534768
vt 0.703975 0.103582
vt 0.703971 0.220719
vt 0.616711 0.162152
vt 0.310823 0.117135
vt 0.310823 0.234269
vt 0.207215 0.175702
vt 0.687628 0.675704
vt 0.588951 0.638351
vt 0.588949 0.689255
vt 0.588949 0.806389
vt 0.501689 0.747824
vt 0.414431 0.000000
vt 0.414431 0.117132
vt 0.310823 0.058566
vt 0.305895 0.689254
vt 0.305892 0.792837
vt 0.207218 0.755485
vt 0.202283 0.675706
vt 0.103608 0.609475
vt 0.202284 0.572122
vt 0.310823 0.117135
vt 0.207216 0.058569
vt 0.310823 0.000000
vt 0.087259 0.702808
vt 0.000000 0.644240
vt 0.087259 0.585673
vt 0.588951 0.468536
vt 0.588951 0.585671
vt 0.501691 0.527104
vt 0.103608 0.117135
vt 0.103608 0.234269
vt 0.000000 0.175702
vt 0.703972 0.271622
vt 0.802649 0.234270
vt 0.802648 0.337854
vt 0.605298 0.000000
vt 0.605298 0.117134
vt 0.518037 0.058568
vt 0.207214 0.351403
vt 0.103608 0.292837
vt 0.207215 0.234269
vt 0.703972 0.351406
vt 0.616713 0.292839
vt 0.703972 0.234270
vt 0.087261 0.468538
vt 0.087259 0.585673
vt 0.000000 0.527106
vt 0.103608 0.117135
vt 0.000000 0.058567
vt 0.103608 0.000000
vt 0.202283 0.675706
vt 0.202284 0.779288
vt 0.103608 0.741936
vt 0.294479 0.468537
vt 0.294479 0.585671
vt 0.207218 0.527104
vt 0.207215 0.117135
vt 0.103608 0.058567
vt 0.207216 0.000000
vt 0.501691 0.585671
vt 0.414430 0.527104
vt 0.501691 0.468536
vt 0.616713 0.454986
vt 0.518036 0.388758
vt 0.616713 0.351403
vt 0.103608 0.234269
vt 0.103607 0.351405
vt 0.000000 0.292836
vt 0.414430 0.623024
vt 0.513105 0.585671
vt 0.513105 0.689255
vt 0.305892 0.896419
vt 0.207218 0.830192
vt 0.305892 0.792837
vt 0.310823 0.175704
vt 0.414431 0.117132
vt 0.414429 0.234269
vt 0.501689 0.806389
vt 0.414430 0.747824
vt 0.501689 0.689255
vt 0.873562 0.702806
vt 0.774887 0.636577
vt 0.873562 0.599223
vt 0.000000 0.409971
vt 0.103607 0.351405
vt 0.103606 0.468538
vt 0.000000 0.740162
vt 0.098676 0.702808
vt 0.098675 0.806390
vt 0.791231 0.103583
vt 0.791231 0.220717
vt 0.703971 0.162150
vt 0.310823 0.468537
vt 0.207218 0.409969
vt 0.310823 0.351403
vt 0.889908 0.337854
vt 0.802649 0.279285
vt 0.889908 0.220719
vt 0.398083 0.779286
vt 0.398083 0.896419
vt 0.310823 0.837852
vt 0.414430 0.351403
vt 0.414430 0.468536
vt 0.310823 0.409968
vt 0.616713 0.388759
vt 0.715389 0.351406
vt 0.715389 0.454989
vt 0.972238 0.702805
vt 0.873562 0.636577
vt 0.972238 0.599223
vt 0.414430 0.409969
vt 0.518036 0.351403
vt 0.518036 0.468534
vt 0.687625 0.882869
vt 0.687625 0.986450
vt 0.588951 0.949096
vt 0.703975 0.066228
vt 0.802650 0.000000
vt 0.802650 0.103582
vt 0.414429 0.234269
vt 0.414430 0.351403
vt 0.310823 0.292835
vt 0.884977 0.702806
vt 0.884977 0.806388
vt 0.786302 0.769035
vn 0.1024 -0.9435 0.3151
vn 0.7002 -0.6617 0.2680
vn -0.2680 -0.9435 0.1947
vn -0.2680 -0.9435 -0.1947
vn 0.1024 -0.9435 -0.3151
vn 0.9050 -0.3304 0.2680
vn 0.0247 -0.3304 0.9435
vn -0.8897 -0.3304 0.3151
vn -0.5746 -0.3304 -0.7488
vn 0.5346 -0.3304 -0.7779
vn 0.8026 -0.1256 0.5831
vn -0.3066 -0.1256 0.9435
vn -0.9921 -0.1256 0.0000
vn -0.3066 -0.1256 -0.9435
vn 0.8026 -0.1256 -0.5831
vn 0.4089 0.6617 0.6284
vn -0.4713 0.6617 0.5831
vn -0.7002 0.6617 -0.2680
vn 0.0385 0.6617 -0.7488
vn 0.7240 0.6617 -0.1947
vn 0.2680 0.9435 -0.1947
vn 0.4911 0.7947 -0.3568
vn 0.4089 0.6617 -0.6284
vn -0.1024 0.9435 -0.3151
vn -0.1876 0.7947 -0.5773
vn -0.4713 0.6617 -0.5831
vn -0.3313 0.9435 0.0000
vn -0.6071 0.7947 0.0000
vn -0.7002 0.6617 0.2680
vn -0.1024 0.9435 0.3151
vn -0.1876 0.7947 0.5773
vn 0.0385 0.6617 0.7488
vn 0.2680 0.9435 0.1947
vn 0.4911 0.7947 0.3568
vn 0.7240 0.6617 0.1947
vn 0.8897 0.3304 -0.3151
vn 0.7947 0.1876 -0.5773
vn 0.5746 0.3304 -0.7488
vn -0.0247 0.3304 -0.9435
vn -0.3035 0.1876 -0.9342
vn -0.5346 0.3304 -0.7779
vn -0.9050 0.3304 -0.2680
vn -0.9822 0.1876 0.0000
vn -0.9050 0.3304 0.2680
vn -0.5346 0.3304 0.7779
vn -0.3035 0.1876 0.9342
vn -0.0247 0.3304 0.9435
vn 0.5746 0.3304 0.7488
vn 0.7947 0.1876 0.5773
vn 0.8897 0.3304 0.3151
vn 0.3066 0.1256 -0.9435
vn 0.3035 -0.1876 -0.9342
vn 0.0247 -0.3304 -0.9435
vn -0.8026 0.1256 -0.5831
vn -0.7947 -0.1876 -0.5773
vn -0.8897 -0.3304 -0.3151
vn -0.8026 0.1256 0.5831
vn -0.7947 -0.1876 0.5773
vn -0.5746 -0.3304 0.7488
vn 0.3066 0.1256 0.9435
vn 0.3035 -0.1876 0.9342
vn 0.5346 -0.3304 0.7779
vn 0.9921 0.1256 -0.0000
vn 0.9822 -0.1876 0.0000
vn 0.9050 -0.3304 -0.2680
vn 0.4713 -0.6617 -0.5831
vn 0.1876 -0.7947 -0.5773
vn -0.0385 -0.6617 -0.7488
vn -0.4089 -0.6617 -0.6284
vn -0.4911 -0.7947 -0.3568
vn -0.7240 -0.6617 -0.1947
vn -0.7240 -0.6617 0.1947
vn -0.4911 -0.7947 0.3568
vn -0.4089 -0.6617 0.6284
vn 0.7002 -0.6617 -0.2680
vn 0.6071 -0.7947 0.0000
vn 0.3313 -0.9435 0.0000
vn -0.0385 -0.6617 0.7488
vn 0.1876 -0.7947 0.5773
vn 0.4713 -0.6617 0.5831
usemtl Sphere
s 1
f 1/1/1 2/2/1 3/3/1
f 4/4/2 2/5/2 5/6/2
f 1/7/3 3/8/3 6/9/3
f 1/10/4 6/11/4 7/12/4
f 1/13/5 7/14/5 8/15/5
f 4/16/6 5/17/6 9/18/6
f 10/19/7 11/20/7 12/21/7
f 13/22/8 14/23/8 15/24/8
f 16/25/9 17/26/9 18/27/9
f 19/28/10 20/29/10 21/30/10
f 4/31/11 9/32/11 22/33/11
f 10/34/12 12/35/12 23/36/12
f 13/37/13 15/38/13 24/39/13
f 16/40/14 18/41/14 25/42/14
f 19/43/15 21/44/15 26/45/15
f 27/46/16 28/47/16 29/48/16
f 30/49/17 31/50/17 32/51/17
f 33/52/18 34/53/18 35/54/18
f 36/55/19 37/56/19 38/57/19
f 39/58/20 40/59/20 41/60/20
f 41/61/21 38/62/21 42/63/21
f 41/64/22 40/65/22 38/66/22
f 40/67/23 36/68/23 38/69/23
f 38/70/24 35/71/24 42/72/24
f 38/73/25 37/74/25 35/75/25
f 37/76/26 33/77/26 35/78/26
f 35/79/27 32/80/27 42/81/27
f 35/82/28 34/83/28 32/84/28
f 34/85/29 30/86/29 32/87/29
f 32/88/30 29/89/30 42/90/30
f 32/91/31 31/92/31 29/93/31
f 31/94/32 27/95/32 29/96/32
f 29/97/33 41/98/33 42/99/33
f 29/100/34 28/101/34 41/102/34
f 28/103/35 39/104/35 41/105/35
f 26/106/36 40/107/36 39/108/36
f 26/109/37 21/110/37 40/111/37
f 21/112/38 36/113/38 40/114/38
f 25/115/39 37/116/39 36/117/39
f 25/118/40 18/119/40 37/120/40
f 18/41/41 33/121/41 37/122/41
f 24/123/42 34/124/42 33/125/42
f 24/126/43 15/127/43 34/128/43
f 15/129/44 30/130/44 34/131/44
f 23/132/45 31/133/45 30/134/45
f 23/135/46 12/136/46 31/137/46
f 12/138/47 27/139/47 31/140/47
f 22/141/48 28/142/48 27/143/48
f 22/144/49 9/145/49 28/146/49
f 9/147/50 39/148/50 28/149/50
f 21/150/51 25/151/51 36/152/51
f 21/153/52 20/154/52 25/155/52
f 20/156/53 16/157/53 25/158/53
f 18/159/54 24/160/54 33/161/54
f 18/162/55 17/163/55 24/164/55
f 17/165/56 13/166/56 24/167/56
f 15/168/57 23/169/57 30/170/57
f 15/171/58 14/172/58 23/173/58
f 14/174/59 10/175/59 23/176/59
f 12/177/60 22/178/60 27/179/60
f 12/180/61 11/181/61 22/182/61
f 11/183/62 4/184/62 22/185/62
f 9/186/63 26/187/63 39/188/63
f 9/189/64 5/190/64 26/191/64
f 5/192/65 19/193/65 26/194/65
f 8/195/66 20/196/66 19/197/66
f 8/198/67 7/199/67 20/200/67
f 7/201/68 16/202/68 20/203/68
f 7/204/69 17/205/69 16/206/69
f 7/207/70 6/208/70 17/209/70
f 6/210/71 13/211/71 17/212/71
f 6/213/72 14/214/72 13/215/72
f 6/216/73 3/217/73 14/218/73
f 3/219/74 10/220/74 14/221/74
f 5/222/75 8/223/75 19/224/75
f 5/225/76 2/226/76 8/227/76
f 2/228/77 1/229/77 8/230/77
f 3/231/78 11/232/78 10/233/78
f 3/234/79 2/235/79 11/236/79
f 2/237/80 4/238/80 11/239/80
