# Blender v2.79 (sub 0) OBJ File: 'dipole.blend'
# www.blender.org
o Cube_Cube.001
v 0.500000 1.000000 1.500000
v 0.500000 2.000000 1.500000
v -0.500000 2.000000 1.500000
v -0.500000 1.000000 1.500000
v 0.250000 1.250000 1.250000
v -0.250000 1.250000 1.250000
v -0.250000 1.750000 1.250000
v 0.250000 1.750000 1.250000
v 0.500000 2.000000 -1.500000
v 0.500000 1.000000 -1.500000
v -0.500000 1.000000 -1.500000
v -0.500000 2.000000 -1.500000
v -0.250000 1.250000 -1.250000
v -0.250000 1.750000 -1.250000
v 0.250000 1.250000 -1.250000
v 0.250000 1.750000 -1.250000
v 0.500000 1.750000 -0.500000
v 0.500000 1.250000 -0.500000
v 0.500000 1.750000 0.500000
v 0.500000 1.250000 0.500000
v -0.500000 1.750000 -0.500000
v -0.500000 1.250000 -0.500000
v -0.500000 1.750000 0.500000
v -0.500000 1.250000 0.500000
v 1.500000 1.000000 0.500000
v 1.500000 2.000000 0.500000
v 1.500000 1.000000 -0.500000
v 1.500000 2.000000 -0.500000
v 1.250000 1.250000 -0.250000
v 1.250000 1.750000 -0.250000
v 1.250000 1.250000 0.250000
v 1.250000 1.750000 0.250000
v 1.000000 0.500000 1.500000
v 1.500000 0.500000 1.000000
v -1.500000 0.500000 1.000000
v -1.000000 0.500000 1.500000
v 1.500000 0.500000 -1.000000
v 1.000000 0.500000 -1.500000
v -1.000000 0.500000 -1.500000
v -1.500000 0.500000 -1.000000
v 1.000000 -0.000000 -1.500000
v 1.500000 -0.000000 -1.000000
v 1.500000 -0.000000 1.000000
v 1.000000 -0.000000 1.500000
v -1.000000 0.000000 1.500000
v -1.500000 0.000000 1.000000
v -1.500000 0.000000 -1.000000
v -1.000000 0.000000 -1.500000
v -1.000000 2.500000 1.500000
v -1.500000 2.500000 1.000000
v 1.500000 2.500000 1.000000
v 1.000000 2.500000 1.500000
v -1.500000 2.500000 -1.000000
v -1.000000 2.500000 -1.500000
v 1.000000 2.500000 -1.500000
v 1.500000 2.500000 -1.000000
v -1.000000 3.000000 -1.500000
v -1.500000 3.000000 -1.000000
v -1.500000 3.000000 1.000000
v -1.000000 3.000000 1.500000
v 1.000000 3.000000 1.500000
v 1.500000 3.000000 1.000000
v 1.500000 3.000000 -1.000000
v 1.000000 3.000000 -1.500000
v -1.250000 1.750000 -0.250000
v -1.250000 1.250000 -0.250000
v -1.250000 1.750000 0.250000
v -1.250000 1.250000 0.250000
v -1.500000 2.000000 -0.500000
v -1.500000 1.000000 -0.500000
v -1.500000 2.000000 0.500000
v -1.500000 1.000000 0.500000
v 0.375000 1.750000 -0.750000
v 0.750000 1.750000 -0.375000
v -0.750000 1.750000 -0.375000
v -0.375000 1.750000 -0.750000
v -0.375000 1.750000 0.750000
v -0.750000 1.750000 0.375000
v 0.750000 1.750000 0.375000
v 0.375000 1.750000 0.750000
v -0.500000 0.500000 1.000000
v -1.000000 0.500000 0.500000
v 1.000000 0.500000 0.500000
v 0.500000 0.500000 1.000000
v -1.000000 0.500000 -0.500000
v -0.500000 0.500000 -1.000000
v 0.500000 0.500000 -1.000000
v 1.000000 0.500000 -0.500000
v -0.500000 1.000000 -1.000000
v -1.000000 1.000000 -0.500000
v -1.000000 1.000000 0.500000
v -0.500000 1.000000 1.000000
v 0.500000 1.000000 1.000000
v 1.000000 1.000000 0.500000
v 1.000000 1.000000 -0.500000
v 0.500000 1.000000 -1.000000
v 0.375000 1.250000 0.750000
v 0.750000 1.250000 0.375000
v -0.750000 1.250000 0.375000
v -0.375000 1.250000 0.750000
v -0.375000 1.250000 -0.750000
v -0.750000 1.250000 -0.375000
v 0.750000 1.250000 -0.375000
v 0.375000 1.250000 -0.750000
v 0.375000 1.000000 -0.750000
v 0.750000 1.000000 -0.375000
v -0.750000 1.000000 -0.375000
v -0.375000 1.000000 -0.750000
v 0.750000 1.000000 0.375000
v 0.375000 1.000000 0.750000
v -0.375000 1.000000 0.750000
v -0.750000 1.000000 0.375000
v 0.750000 2.000000 0.375000
v 0.750000 2.000000 -0.375000
v 0.375000 2.000000 0.750000
v -0.375000 2.000000 0.750000
v 0.375000 2.000000 -0.750000
v -0.375000 2.000000 -0.750000
v -0.750000 2.000000 -0.375000
v -0.750000 2.000000 0.375000
v -0.500000 2.000000 -1.000000
v -1.000000 2.000000 -0.500000
v -1.000000 2.000000 0.500000
v -0.500000 2.000000 1.000000
v 0.500000 2.000000 1.000000
v 1.000000 2.000000 0.500000
v 1.000000 2.000000 -0.500000
v 0.500000 2.000000 -1.000000
v -0.500000 2.500000 1.000000
v -1.000000 2.500000 0.500000
v -1.000000 2.500000 -0.500000
v -0.500000 2.500000 -1.000000
v 0.500000 2.500000 -1.000000
v 1.000000 2.500000 -0.500000
v 1.000000 2.500000 0.500000
v 0.500000 2.500000 1.000000
v -0.500000 1.750000 -0.250000
v -0.500000 1.250000 -0.250000
v -0.500000 1.750000 0.250000
v -0.500000 1.250000 0.250000
v 0.250000 1.250000 0.500000
v -0.250000 1.250000 0.500000
v -0.250000 1.750000 0.500000
v 0.250000 1.750000 0.500000
v 0.500000 1.250000 -0.250000
v 0.500000 1.750000 -0.250000
v 0.500000 1.250000 0.250000
v 0.500000 1.750000 0.250000
v -0.250000 1.250000 -0.500000
v -0.250000 1.750000 -0.500000
v 0.250000 1.250000 -0.500000
v 0.250000 1.750000 -0.500000
v -1.000000 0.500000 -0.646447
v -0.646447 0.500000 -1.000000
v -1.353553 0.500000 -1.000000
v -1.000000 0.500000 -1.353553
v -1.000000 2.500000 -0.646447
v -0.646447 2.500000 -1.000000
v -1.353553 2.500000 -1.000000
v -1.000000 2.500000 -1.353553
v -1.000000 0.500000 1.353553
v -0.646447 0.500000 1.000000
v -1.353553 0.500000 1.000000
v -1.000000 0.500000 0.646447
v -1.000000 2.500000 1.353553
v -0.646447 2.500000 1.000000
v -1.353553 2.500000 1.000000
v -1.000000 2.500000 0.646447
v 1.000000 0.500000 -0.646447
v 1.353553 0.500000 -1.000000
v 0.646447 0.500000 -1.000000
v 1.000000 0.500000 -1.353553
v 1.000000 2.500000 -0.646447
v 1.353553 2.500000 -1.000000
v 0.646447 2.500000 -1.000000
v 1.000000 2.500000 -1.353553
v 1.000000 0.500000 1.353553
v 1.353553 0.500000 1.000000
v 0.646447 0.500000 1.000000
v 1.000000 0.500000 0.646447
v 1.000000 2.500000 1.353553
v 1.353553 2.500000 1.000000
v 0.646447 2.500000 1.000000
v 1.000000 2.500000 0.646447
vt 0.921053 0.142857
vt 0.894737 0.250000
vt 0.894737 0.107143
vt 0.815790 0.285714
vt 0.868421 0.285714
vt 0.763158 0.214286
vt 0.789474 0.107143
vt 0.789474 0.250000
vt 0.684211 0.214286
vt 0.763158 0.285714
vt 0.684211 0.285714
vt 0.763158 0.357143
vt 0.684211 0.357143
vt 0.684211 0.214286
vt 0.763158 0.285714
vt 0.684211 0.285714
vt 0.868421 0.071429
vt 0.815790 0.071429
vt 0.868421 0.071429
vt 0.789474 0.107143
vt 0.815790 0.071429
vt 0.763158 0.214286
vt 0.789474 0.250000
vt 0.921053 0.142857
vt 0.894737 0.250000
vt 0.894737 0.107143
vt 0.684211 0.071429
vt 0.763158 0.142857
vt 0.684211 0.142857
vt 0.763158 0.214286
vt 0.763158 0.357143
vt 0.684211 0.357143
vt 0.815790 0.285714
vt 0.868421 0.285714
vt 0.789474 0.071429
vt 0.684211 0.000000
vt 0.789474 0.000000
vt 0.894737 0.071429
vt 0.894737 0.000000
vt 1.000000 0.071429
vt 1.000000 0.000000
vt 0.684211 0.071429
vt 0.763158 0.142857
vt 0.684211 0.142857
vt 0.684211 0.071429
vt 0.578947 0.000000
vt 0.763158 0.214286
vt 0.684211 0.214286
vt 0.000000 0.571429
vt 0.052632 0.857143
vt 0.000000 0.857143
vt 0.105263 1.000000
vt 0.315789 0.928571
vt 0.315789 1.000000
vt 0.105263 0.500000
vt 0.368421 0.571429
vt 0.315789 0.928571
vt 0.315789 0.428571
vt 0.105263 0.428571
vt 0.421053 0.857143
vt 0.421053 0.571429
vt 0.368421 0.071429
vt 0.052632 0.357143
vt 0.000000 0.571429
vt 0.052632 0.857143
vt 0.000000 0.857143
vt 0.763158 0.214286
vt 0.789474 0.107143
vt 0.789474 0.250000
vt 0.105263 0.500000
vt 0.368421 0.571429
vt 0.315789 0.428571
vt 0.105263 0.428571
vt 0.421053 0.857143
vt 0.421053 0.571429
vt 0.368421 0.071429
vt 0.052632 0.357143
vt 0.368421 1.000000
vt 0.315789 1.000000
vt 0.368421 0.500000
vt 0.315789 0.500000
vt 0.052632 0.428571
vt 0.105263 1.000000
vt 0.052632 0.928571
vt 0.105263 0.928571
vt 0.368421 1.000000
vt 0.368421 0.500000
vt 0.315789 0.500000
vt 0.052632 0.428571
vt 0.052632 0.928571
vt 0.105263 0.928571
vt 0.684211 0.142857
vt 0.763158 0.214286
vt 0.684211 0.214286
vt 0.684211 0.285714
vt 0.763158 0.357143
vt 0.684211 0.357143
vt 0.684211 0.071429
vt 0.763158 0.142857
vt 0.894737 0.250000
vt 0.894737 0.107143
vt 0.921053 0.142857
vt 0.868421 0.071429
vt 0.815790 0.071429
vt 0.815790 0.285714
vt 0.868421 0.285714
vt 0.921053 0.142857
vt 0.894737 0.250000
vt 0.894737 0.107143
vt 0.763158 0.285714
vt 0.684211 0.071429
vt 0.763158 0.142857
vt 0.684211 0.142857
vt 0.763158 0.214286
vt 0.789474 0.107143
vt 0.763158 0.214286
vt 0.789474 0.250000
vt 0.868421 0.071429
vt 0.815789 0.071429
vt 0.815789 0.285714
vt 0.868421 0.285714
vt 0.421053 0.428571
vt 0.473684 0.571429
vt 0.421053 0.571429
vt 0.565789 0.714286
vt 0.486842 0.750000
vt 0.486842 0.714286
vt 0.526316 0.357143
vt 0.684211 0.428571
vt 0.631579 0.642857
vt 0.631579 0.285714
vt 0.526316 0.285714
vt 0.736842 0.571429
vt 0.736842 0.428571
vt 0.473684 0.642857
vt 0.526316 0.714286
vt 0.473684 0.714286
vt 0.684211 0.714286
vt 0.684211 0.642857
vt 0.684211 0.357143
vt 0.631579 0.357143
vt 0.473684 0.285714
vt 0.631579 0.714286
vt 0.486842 1.000000
vt 0.565789 0.964286
vt 0.565789 1.000000
vt 0.605263 0.803571
vt 0.631579 0.910714
vt 0.631579 0.803571
vt 0.447368 0.803571
vt 0.565789 0.750000
vt 0.605263 0.910714
vt 0.605263 1.000000
vt 0.605263 0.964286
vt 0.447368 0.964286
vt 0.486842 0.964286
vt 0.605263 0.750000
vt 0.605263 0.714286
vt 0.447368 0.714286
vt 0.447368 0.750000
vt 0.421053 0.803571
vt 0.447368 0.910714
vt 0.421053 0.910714
vt 0.473684 0.428571
vt 0.631579 0.357143
vt 0.684211 0.571429
vt 0.486842 0.750000
vt 0.565789 0.714286
vt 0.447368 0.750000
vt 0.486842 0.714286
vt 0.486842 0.964286
vt 0.447368 1.000000
vt 0.447368 0.964286
vt 0.447368 0.910714
vt 0.421053 0.803571
vt 0.565789 0.964286
vt 0.486842 1.000000
vt 0.605263 0.964286
vt 0.565789 1.000000
vt 0.605263 0.714286
vt 0.605263 0.750000
vt 0.605263 0.803571
vt 0.631579 0.910714
vt 0.763158 0.285714
vt 0.684211 0.285714
vt 0.684211 0.428571
vt 0.736842 0.571429
vt 0.684211 0.285714
vt 0.684211 0.357143
vt 0.526316 0.642857
vt 0.473684 0.714286
vt 0.473684 0.642857
vt 0.526316 0.357143
vt 0.631579 0.285714
vt 0.631579 0.642857
vt 0.526316 0.714286
vt 0.473684 0.357143
vt 0.526316 0.285714
vt 0.684211 0.642857
vt 0.631579 0.714286
vt 0.473684 0.571429
vt 0.421053 0.428571
vt 0.763158 0.357143
vt 0.684211 0.357143
vt 0.578947 0.285714
vt 0.526316 0.000000
vt 0.578947 0.000000
vt 0.473684 0.285714
vt 0.421053 0.000000
vt 0.473684 0.000000
vt 0.526316 0.285714
vt 0.421053 0.285714
vt 0.368421 0.000000
vt 0.578947 0.285714
vt 0.526316 0.000000
vt 0.578947 0.000000
vt 0.473684 0.285714
vt 0.421053 0.000000
vt 0.473684 0.000000
vt 0.526316 0.285714
vt 0.421053 0.285714
vt 0.368421 0.000000
vt 0.578947 0.285714
vt 0.526316 0.000000
vt 0.578947 0.000000
vt 0.473684 0.285714
vt 0.421053 0.000000
vt 0.473684 0.000000
vt 0.526316 0.285714
vt 0.421053 0.285714
vt 0.368421 0.000000
vt 0.578947 0.285714
vt 0.526316 0.000000
vt 0.578947 0.000000
vt 0.473684 0.285714
vt 0.421053 0.000000
vt 0.473684 0.000000
vt 0.526316 0.285714
vt 0.421053 0.285714
vt 0.368421 0.000000
vt 0.921053 0.214286
vt 0.763158 0.142857
vt 0.763158 0.142857
vt 0.921053 0.214286
vt 0.763158 0.071429
vt 0.763158 0.071429
vt 0.578947 0.071429
vt 0.052632 0.571429
vt 0.368421 0.857143
vt 0.052632 0.071429
vt 0.105263 0.000000
vt 0.315789 0.000000
vt 0.368421 0.357143
vt 0.052632 0.571429
vt 0.763158 0.142857
vt 0.368421 0.857143
vt 0.052632 0.071429
vt 0.105263 0.000000
vt 0.315789 0.000000
vt 0.368421 0.357143
vt 0.368421 0.928571
vt 0.368421 0.428571
vt 0.052632 0.500000
vt 0.052632 1.000000
vt 0.368421 0.928571
vt 0.368421 0.428571
vt 0.052632 0.500000
vt 0.052632 1.000000
vt 0.763158 0.071429
vt 0.921053 0.214286
vt 0.921053 0.214286
vt 0.763158 0.071429
vt 0.763158 0.142857
vt 0.473684 0.428571
vt 0.565789 0.750000
vt 0.526316 0.642857
vt 0.684211 0.571429
vt 0.684211 0.285714
vt 0.473684 0.357143
vt 0.447368 0.803571
vt 0.605263 0.910714
vt 0.447368 1.000000
vt 0.447368 0.714286
vt 0.421053 0.910714
vt 0.605263 1.000000
vt 0.631579 0.803571
vt 0.736842 0.428571
vt 0.473684 0.285714
vt 0.684211 0.714286
vt 0.421053 0.571429
vt 0.368421 0.285714
vt 0.368421 0.285714
vt 0.368421 0.285714
vt 0.368421 0.285714
vn 0.7071 0.0000 -0.7071
vn 0.0000 0.7071 -0.7071
vn -0.7071 0.0000 -0.7071
vn 0.0000 0.0000 1.0000
vn -1.0000 0.0000 0.0000
vn 0.0000 -1.0000 0.0000
vn 0.0000 0.0000 -1.0000
vn 0.0000 -0.7071 -0.7071
vn 0.0000 -0.7071 0.7071
vn 0.7071 0.0000 0.7071
vn -0.7071 0.0000 0.7071
vn 0.0000 1.0000 0.0000
vn 0.0000 0.7071 0.7071
vn 1.0000 0.0000 0.0000
vn -0.7071 -0.7071 0.0000
vn -0.7071 0.7071 0.0000
vn 0.7071 -0.7071 0.0000
vn 0.7071 0.7071 0.0000
s off
f 2/2/1 1/3/1 5/1/1 8/241/1
f 2/2/2 8/5/2 7/4/2 3/8/2
f 4/7/3 3/8/3 7/6/3 6/242/3
f 4/7/4 1/3/4 2/2/4 3/8/4
f 142/10/5 6/11/5 7/9/5 143/114/5
f 141/12/6 5/13/6 6/11/6 142/10/6
f 138/15/7 66/16/7 65/14/7 137/30/7
f 4/7/8 6/18/8 5/17/8 1/3/8
f 10/20/9 15/21/9 13/19/9 11/26/9
f 10/20/10 9/23/10 16/22/10 15/243/10
f 12/25/11 11/26/11 13/24/11 14/244/11
f 10/20/7 11/26/7 12/25/7 9/23/7
f 139/28/4 67/29/4 68/27/4 140/245/4
f 137/30/12 65/14/12 67/29/12 139/28/12
f 140/31/6 68/32/6 66/16/6 138/15/6
f 12/25/13 14/34/13 16/33/13 9/23/13
f 24/36/4 20/37/4 19/35/4 23/45/4
f 20/37/14 18/39/14 17/38/14 19/35/14
f 18/39/7 22/41/7 21/40/7 17/38/7
f 150/43/5 14/44/5 13/42/5 149/246/5
f 22/46/5 24/36/5 23/45/5 21/247/5
f 152/47/12 16/48/12 14/44/12 150/43/12
f 44/50/4 33/51/4 36/49/4 45/248/4
f 58/53/5 53/54/5 50/52/5 59/91/5
f 48/56/6 42/57/6 46/55/6 47/81/6
f 46/55/5 35/59/5 40/58/5 47/81/5
f 48/56/7 39/61/7 38/60/7 41/249/7
f 40/58/12 36/63/12 38/62/12 39/253/12
f 60/65/4 49/66/4 52/64/4 61/254/4
f 25/68/11 26/69/11 32/67/11 31/255/11
f 64/71/12 58/53/12 62/70/12 63/88/12
f 62/70/14 51/73/14 56/72/14 63/88/14
f 64/71/7 55/75/7 54/74/7 57/256/7
f 56/72/6 52/77/6 54/76/6 55/260/6
f 38/78/1 37/79/1 42/57/1 41/261/1
f 48/80/3 47/81/3 40/58/3 39/262/3
f 36/82/11 35/59/11 46/55/11 45/263/11
f 44/84/10 43/85/10 34/83/10 33/264/10
f 54/86/3 53/54/3 58/53/3 57/265/3
f 64/87/1 63/88/1 56/72/1 55/266/1
f 52/89/10 51/73/10 62/70/10 61/267/10
f 60/90/11 59/91/11 50/52/11 49/268/11
f 42/57/14 37/79/14 34/83/14 43/85/14
f 148/93/12 32/94/12 30/92/12 146/99/12
f 145/96/6 29/97/6 31/95/6 147/110/6
f 146/99/7 30/92/7 29/98/7 145/269/7
f 25/68/14 27/101/14 28/100/14 26/69/14
f 28/100/3 27/101/3 29/102/3 30/270/3
f 25/68/15 31/104/15 29/103/15 27/101/15
f 28/100/16 30/106/16 32/105/16 26/69/16
f 71/108/10 72/109/10 68/107/10 67/271/10
f 147/110/4 31/95/4 32/94/4 148/93/4
f 144/112/14 8/113/14 5/111/14 141/272/14
f 143/114/12 7/9/12 8/113/12 144/112/12
f 70/115/5 72/109/5 71/108/5 69/117/5
f 70/115/1 69/117/1 65/116/1 66/273/1
f 70/115/17 66/119/17 68/118/17 72/109/17
f 71/108/18 67/121/18 65/120/18 69/117/18
f 92/123/4 81/124/4 84/122/4 93/274/4
f 98/126/14 109/127/14 106/125/14 103/275/14
f 96/129/12 90/130/12 94/128/12 95/141/12
f 94/128/14 83/132/14 88/131/14 95/141/14
f 96/129/7 87/134/7 86/133/7 89/277/7
f 82/136/11 81/137/11 92/135/11 91/276/11
f 90/130/3 89/139/3 86/138/3 85/143/3
f 96/140/1 95/141/1 88/131/1 87/278/1
f 84/142/10 83/132/10 94/128/10 93/279/10
f 90/130/5 85/143/5 82/136/5 91/276/5
f 102/145/5 107/146/5 112/144/5 99/156/5
f 104/147/12 102/145/12 98/126/12 103/275/12
f 104/147/7 105/149/7 108/148/7 101/281/7
f 79/151/6 77/152/6 73/150/6 74/167/6
f 102/145/3 101/154/3 108/153/3 107/146/3
f 100/155/11 99/156/11 112/144/11 111/282/11
f 106/125/1 105/158/1 104/157/1 103/275/1
f 98/126/10 97/160/10 110/159/10 109/127/10
f 100/162/4 111/163/4 110/161/4 97/280/4
f 126/165/6 124/166/6 128/164/6 127/193/6
f 113/168/14 79/151/14 74/167/14 114/170/14
f 114/170/1 74/167/1 73/169/1 117/283/1
f 118/172/3 76/173/3 75/171/3 119/177/3
f 117/175/7 73/150/7 76/174/7 118/284/7
f 119/177/5 75/171/5 78/176/5 120/179/5
f 120/179/11 78/176/11 77/178/11 116/285/11
f 115/180/10 80/181/10 79/151/10 113/168/10
f 116/183/4 77/152/4 80/182/4 115/286/4
f 151/184/14 15/185/14 16/48/14 152/47/14
f 129/187/4 124/166/4 125/186/4 136/287/4
f 136/188/10 125/189/10 126/165/10 135/194/10
f 132/191/3 121/192/3 122/190/3 131/196/3
f 135/194/14 126/165/14 127/193/14 134/198/14
f 131/196/5 122/190/5 123/195/5 130/200/5
f 134/198/1 127/193/1 128/197/1 133/288/1
f 130/200/11 123/195/11 124/199/11 129/289/11
f 133/202/7 128/164/7 121/201/7 132/290/7
f 149/203/6 13/204/6 15/185/6 151/184/6
f 156/206/3 155/207/3 159/205/3 160/211/3
f 153/209/10 154/210/10 158/208/10 157/212/10
f 154/210/1 156/206/1 160/211/1 158/208/1
f 155/213/11 153/209/11 157/212/11 159/291/11
f 164/215/3 163/216/3 167/214/3 168/220/3
f 161/218/10 162/219/10 166/217/10 165/221/10
f 162/219/1 164/215/1 168/220/1 166/217/1
f 163/222/11 161/218/11 165/221/11 167/292/11
f 172/224/3 171/225/3 175/223/3 176/229/3
f 169/227/10 170/228/10 174/226/10 173/230/10
f 170/228/1 172/224/1 176/229/1 174/226/1
f 171/231/11 169/227/11 173/230/11 175/293/11
f 180/233/3 179/234/3 183/232/3 184/238/3
f 177/236/10 178/237/10 182/235/10 181/239/10
f 178/237/1 180/233/1 184/238/1 182/235/1
f 179/240/11 177/236/11 181/239/11 183/294/11
f 42/57/6 43/85/6 44/50/6 46/55/6
f 44/50/6 45/248/6 46/55/6
f 48/56/6 41/249/6 42/57/6
f 36/63/12 33/250/12 34/251/12 38/62/12
f 34/251/12 37/252/12 38/62/12
f 40/58/12 35/59/12 36/63/12
f 58/53/12 59/91/12 60/65/12 62/70/12
f 60/65/12 61/254/12 62/70/12
f 64/71/12 57/256/12 58/53/12
f 52/77/6 49/257/6 50/258/6 54/76/6
f 50/258/6 53/259/6 54/76/6
f 56/72/6 51/73/6 52/77/6
f 90/130/12 91/276/12 92/123/12 94/128/12
f 92/123/12 93/274/12 94/128/12
f 96/129/12 89/277/12 90/130/12
f 102/145/12 99/156/12 100/162/12 98/126/12
f 100/162/12 97/280/12 98/126/12
f 104/147/12 101/281/12 102/145/12
f 77/152/6 78/176/6 75/171/6 73/150/6
f 75/171/6 76/174/6 73/150/6
f 79/151/6 80/182/6 77/152/6
f 124/166/6 123/195/6 122/190/6 128/164/6
f 122/190/6 121/201/6 128/164/6
f 126/165/6 125/186/6 124/166/6
