# Blender v2.79 (sub 0) OBJ File: 'rfc.blend'
# www.blender.org
o Cube_Cube.001
v -0.500000 1.000000 4.500000
v -0.500000 2.000000 4.500000
v -0.500000 1.000000 -4.500000
v -0.500000 2.000000 -4.500000
v 0.500000 1.000000 4.500000
v 0.500000 2.000000 4.500000
v 0.500000 1.000000 -4.500000
v 0.500000 2.000000 -4.500000
v -1.000000 0.500000 4.000000
v -1.000000 2.500000 4.000000
v -1.000000 0.500000 3.500000
v -1.000000 2.500000 3.500000
v 1.000000 0.500000 4.000000
v 1.000000 2.500000 4.000000
v 1.000000 0.500000 3.500000
v 1.000000 2.500000 3.500000
v -0.500000 1.000000 4.250000
v -0.500000 2.000000 4.250000
v 0.500000 2.000000 4.250000
v 0.500000 1.000000 4.250000
v -0.500000 2.000000 3.250000
v -0.500000 1.000000 3.250000
v 0.500000 1.000000 3.250000
v 0.500000 2.000000 3.250000
v -0.187500 2.000000 3.187500
v 0.187500 2.000000 3.187500
v -0.187500 2.000000 2.812500
v 0.187500 2.000000 2.812500
v -0.187500 3.000000 2.812500
v -0.187500 3.000000 3.187500
v 0.187500 3.000000 3.187500
v 0.187500 3.000000 2.812500
v -0.187500 2.000000 -2.812500
v 0.187500 2.000000 -2.812500
v -0.187500 2.000000 -3.187500
v 0.187500 2.000000 -3.187500
v -0.187500 3.000000 -3.187500
v -0.187500 3.000000 -2.812500
v 0.187500 3.000000 -2.812500
v 0.187500 3.000000 -3.187500
v -0.187500 0.000000 3.187500
v 0.187500 0.000000 3.187500
v -0.187500 0.000000 2.812500
v 0.187500 0.000000 2.812500
v -0.187500 1.000000 2.812500
v -0.187500 1.000000 3.187500
v 0.187500 1.000000 3.187500
v 0.187500 1.000000 2.812500
v -0.187500 0.000000 -2.812500
v 0.187500 0.000000 -2.812500
v -0.187500 0.000000 -3.187500
v 0.187500 0.000000 -3.187500
v -0.187500 1.000000 -3.187500
v -0.187500 1.000000 -2.812500
v 0.187500 1.000000 -2.812500
v 0.187500 1.000000 -3.187500
v -0.125000 2.375000 3.875000
v -0.125000 2.625000 3.875000
v -0.125000 2.375000 -3.875000
v -0.125000 2.625000 -3.875000
v 0.125000 2.375000 3.875000
v 0.125000 2.625000 3.875000
v 0.125000 2.375000 -3.875000
v 0.125000 2.625000 -3.875000
v -0.125000 0.375000 3.875000
v -0.125000 0.625000 3.875000
v -0.125000 0.375000 -3.875000
v -0.125000 0.625000 -3.875000
v 0.125000 0.375000 3.875000
v 0.125000 0.625000 3.875000
v 0.125000 0.375000 -3.875000
v 0.125000 0.625000 -3.875000
v -1.000000 0.500000 2.500000
v -1.000000 2.500000 2.500000
v -1.000000 0.500000 2.000000
v -1.000000 2.500000 2.000000
v 1.000000 0.500000 2.500000
v 1.000000 2.500000 2.500000
v 1.000000 0.500000 2.000000
v 1.000000 2.500000 2.000000
v -0.500000 1.000000 2.750000
v -0.500000 2.000000 2.750000
v 0.500000 2.000000 2.750000
v 0.500000 1.000000 2.750000
v -0.500000 2.000000 1.750000
v -0.500000 1.000000 1.750000
v 0.500000 1.000000 1.750000
v 0.500000 2.000000 1.750000
v -1.000000 0.500000 1.000000
v -1.000000 2.500000 1.000000
v -1.000000 0.500000 0.500000
v -1.000000 2.500000 0.500000
v 1.000000 0.500000 1.000000
v 1.000000 2.500000 1.000000
v 1.000000 0.500000 0.500000
v 1.000000 2.500000 0.500000
v -0.500000 1.000000 1.250000
v -0.500000 2.000000 1.250000
v 0.500000 2.000000 1.250000
v 0.500000 1.000000 1.250000
v -0.500000 2.000000 0.250000
v -0.500000 1.000000 0.250000
v 0.500000 1.000000 0.250000
v 0.500000 2.000000 0.250000
v -1.000000 0.500000 -0.500000
v -1.000000 2.500000 -0.500000
v -1.000000 0.500000 -1.000000
v -1.000000 2.500000 -1.000000
v 1.000000 0.500000 -0.500000
v 1.000000 2.500000 -0.500000
v 1.000000 0.500000 -1.000000
v 1.000000 2.500000 -1.000000
v -0.500000 1.000000 -0.250000
v -0.500000 2.000000 -0.250000
v 0.500000 2.000000 -0.250000
v 0.500000 1.000000 -0.250000
v -0.500000 2.000000 -1.250000
v -0.500000 1.000000 -1.250000
v 0.500000 1.000000 -1.250000
v 0.500000 2.000000 -1.250000
v -1.000000 0.500000 -2.000000
v -1.000000 2.500000 -2.000000
v -1.000000 0.500000 -2.500000
v -1.000000 2.500000 -2.500000
v 1.000000 0.500000 -2.000000
v 1.000000 2.500000 -2.000000
v 1.000000 0.500000 -2.500000
v 1.000000 2.500000 -2.500000
v -0.500000 1.000000 -1.750000
v -0.500000 2.000000 -1.750000
v 0.500000 2.000000 -1.750000
v 0.500000 1.000000 -1.750000
v -0.500000 2.000000 -2.750000
v -0.500000 1.000000 -2.750000
v 0.500000 1.000000 -2.750000
v 0.500000 2.000000 -2.750000
v -1.000000 0.500000 -3.500000
v -1.000000 2.500000 -3.500000
v -1.000000 0.500000 -4.000000
v -1.000000 2.500000 -4.000000
v 1.000000 0.500000 -3.500000
v 1.000000 2.500000 -3.500000
v 1.000000 0.500000 -4.000000
v 1.000000 2.500000 -4.000000
v -0.500000 1.000000 -3.250000
v -0.500000 2.000000 -3.250000
v 0.500000 2.000000 -3.250000
v 0.500000 1.000000 -3.250000
v -0.500000 2.000000 -4.250000
v -0.500000 1.000000 -4.250000
v 0.500000 1.000000 -4.250000
v 0.500000 2.000000 -4.250000
v -0.187500 2.000000 0.187500
v 0.187500 2.000000 0.187500
v -0.187500 2.000000 -0.187500
v 0.187500 2.000000 -0.187500
v -0.187500 3.000000 -0.187500
v -0.187500 3.000000 0.187500
v 0.187500 3.000000 0.187500
v 0.187500 3.000000 -0.187500
v -0.187500 0.000000 0.187500
v 0.187500 0.000000 0.187500
v -0.187500 0.000000 -0.187500
v 0.187500 0.000000 -0.187500
v -0.187500 1.000000 -0.187500
v -0.187500 1.000000 0.187500
v 0.187500 1.000000 0.187500
v 0.187500 1.000000 -0.187500
vt 0.071429 0.400000
vt 0.714286 0.600000
vt 0.071429 0.600000
vt 0.714286 0.400000
vt 0.785714 0.200000
vt 0.785714 0.400000
vt 0.714286 0.200000
vt 0.071429 0.000000
vt 0.714286 -0.000000
vt 0.071429 0.200000
vt -0.000000 0.400000
vt -0.000000 0.200000
vt 0.714286 0.800000
vt 1.000000 0.500000
vt 0.964286 0.100000
vt 1.000000 0.100000
vt 0.821429 0.500000
vt 0.928571 0.400000
vt 0.964286 0.500000
vt 0.785714 0.100000
vt 0.821429 0.100000
vt 0.964286 0.600000
vt 0.857143 0.700000
vt 0.821429 0.600000
vt 0.964286 0.000000
vt 0.857143 0.900000
vt 0.821429 1.000000
vt 0.964286 1.000000
vt 0.928571 0.700000
vt 0.928571 0.900000
vt 0.928571 0.200000
vt 0.857143 0.400000
vt 0.857143 0.200000
vt 0.741071 0.700000
vt 0.767857 0.775000
vt 0.741071 0.775000
vt 0.741071 0.700000
vt 0.767857 0.775000
vt 0.741071 0.775000
vt 0.794643 0.500000
vt 0.767857 0.700000
vt 0.767857 0.500000
vt 0.741071 0.500000
vt 0.714286 0.700000
vt 0.714286 0.500000
vt 0.821429 0.500000
vt 0.794643 0.700000
vt 0.794643 0.500000
vt 0.767857 0.700000
vt 0.767857 0.500000
vt 0.741071 0.500000
vt 0.714286 0.700000
vt 0.714286 0.500000
vt 0.821429 0.500000
vt 0.794643 0.700000
vt 0.767857 0.700000
vt 0.794643 0.500000
vt 0.794643 0.700000
vt 0.714286 0.700000
vt 0.741071 0.500000
vt 0.741071 0.700000
vt 0.821429 0.500000
vt 0.821429 0.700000
vt 0.767857 0.500000
vt 0.767857 0.700000
vt 0.794643 0.500000
vt 0.794643 0.700000
vt 0.714286 0.700000
vt 0.741071 0.500000
vt 0.741071 0.700000
vt 0.821429 0.500000
vt 0.821429 0.700000
vt 0.767857 0.500000
vt 0.767857 0.775000
vt 0.767857 0.775000
vt 0.071429 0.950000
vt 0.625000 1.000000
vt 0.071429 1.000000
vt 0.625000 0.950000
vt 0.642857 0.900000
vt 0.642857 0.950000
vt 0.625000 0.900000
vt 0.071429 0.850000
vt 0.625000 0.850000
vt 0.071429 0.900000
vt 0.053571 0.950000
vt 0.053571 0.900000
vt 0.071429 0.800000
vt 0.625000 0.800000
vt 0.071429 0.950000
vt 0.625000 1.000000
vt 0.071429 1.000000
vt 0.625000 0.950000
vt 0.642857 0.900000
vt 0.642857 0.950000
vt 0.625000 0.900000
vt 0.071429 0.850000
vt 0.625000 0.850000
vt 0.071429 0.900000
vt 0.053571 0.950000
vt 0.053571 0.900000
vt 0.071429 0.800000
vt 0.625000 0.800000
vt 1.000000 0.500000
vt 0.964286 0.100000
vt 1.000000 0.100000
vt 0.821429 0.500000
vt 0.928571 0.400000
vt 0.964286 0.500000
vt 0.785714 0.100000
vt 0.821429 0.100000
vt 0.964286 0.600000
vt 0.857143 0.700000
vt 0.821429 0.600000
vt 0.964286 0.000000
vt 0.857143 0.900000
vt 0.821429 1.000000
vt 0.964286 1.000000
vt 0.928571 0.700000
vt 0.928571 0.900000
vt 0.928571 0.200000
vt 0.857143 0.400000
vt 0.857143 0.200000
vt 1.000000 0.500000
vt 0.964286 0.100000
vt 1.000000 0.100000
vt 0.821429 0.500000
vt 0.928571 0.400000
vt 0.964286 0.500000
vt 0.785714 0.100000
vt 0.821429 0.100000
vt 0.964286 0.600000
vt 0.857143 0.700000
vt 0.821429 0.600000
vt 0.964286 0.000000
vt 0.857143 0.900000
vt 0.821429 1.000000
vt 0.964286 1.000000
vt 0.928571 0.700000
vt 0.928571 0.900000
vt 0.928571 0.200000
vt 0.857143 0.400000
vt 0.857143 0.200000
vt 1.000000 0.500000
vt 0.964286 0.100000
vt 1.000000 0.100000
vt 0.821429 0.500000
vt 0.928571 0.400000
vt 0.964286 0.500000
vt 0.785714 0.100000
vt 0.821429 0.100000
vt 0.964286 0.600000
vt 0.857143 0.700000
vt 0.821429 0.600000
vt 0.964286 0.000000
vt 0.857143 0.900000
vt 0.821429 1.000000
vt 0.964286 1.000000
vt 0.928571 0.700000
vt 0.928571 0.900000
vt 0.928571 0.200000
vt 0.857143 0.400000
vt 0.857143 0.200000
vt 1.000000 0.500000
vt 0.964286 0.100000
vt 1.000000 0.100000
vt 0.821429 0.500000
vt 0.928571 0.400000
vt 0.964286 0.500000
vt 0.785714 0.100000
vt 0.821429 0.100000
vt 0.964286 0.600000
vt 0.857143 0.700000
vt 0.821429 0.600000
vt 0.964286 0.000000
vt 0.857143 0.900000
vt 0.821429 1.000000
vt 0.964286 1.000000
vt 0.928571 0.700000
vt 0.928571 0.900000
vt 0.928571 0.200000
vt 0.857143 0.400000
vt 0.857143 0.200000
vt 1.000000 0.500000
vt 0.964286 0.100000
vt 1.000000 0.100000
vt 0.821429 0.500000
vt 0.928571 0.400000
vt 0.964286 0.500000
vt 0.785714 0.100000
vt 0.821429 0.100000
vt 0.964286 0.600000
vt 0.857143 0.700000
vt 0.821429 0.600000
vt 0.964286 0.000000
vt 0.857143 0.900000
vt 0.821429 1.000000
vt 0.964286 1.000000
vt 0.928571 0.700000
vt 0.928571 0.900000
vt 0.928571 0.200000
vt 0.857143 0.400000
vt 0.857143 0.200000
vt 0.741071 0.700000
vt 0.767857 0.775000
vt 0.741071 0.775000
vt 0.794643 0.500000
vt 0.767857 0.700000
vt 0.767857 0.500000
vt 0.741071 0.500000
vt 0.714286 0.700000
vt 0.714286 0.500000
vt 0.821429 0.500000
vt 0.794643 0.700000
vt 0.767857 0.700000
vt 0.794643 0.500000
vt 0.794643 0.700000
vt 0.714286 0.700000
vt 0.741071 0.500000
vt 0.741071 0.700000
vt 0.821429 0.500000
vt 0.821429 0.700000
vt 0.767857 0.500000
vt 0.767857 0.775000
vt 0.071429 0.800000
vt 0.785714 0.500000
vt 0.821429 0.000000
vt 0.821429 0.700000
vt 0.821429 0.700000
vt 0.714286 0.500000
vt 0.714286 0.500000
vt 0.741071 0.775000
vt 0.741071 0.775000
vt 0.785714 0.500000
vt 0.821429 0.000000
vt 0.785714 0.500000
vt 0.821429 0.000000
vt 0.785714 0.500000
vt 0.821429 0.000000
vt 0.785714 0.500000
vt 0.821429 0.000000
vt 0.785714 0.500000
vt 0.821429 0.000000
vt 0.821429 0.700000
vt 0.714286 0.500000
vt 0.741071 0.775000
vn -1.0000 0.0000 0.0000
vn 0.0000 0.0000 -1.0000
vn 1.0000 0.0000 0.0000
vn 0.0000 0.0000 1.0000
vn 0.0000 -1.0000 0.0000
vn 0.0000 1.0000 0.0000
vn 0.0000 0.4472 -0.8944
vn 0.0000 0.4472 0.8944
vn 0.4472 0.0000 0.8944
vn -0.4472 0.0000 0.8944
vn 0.0000 -0.4472 0.8944
vn -0.4472 0.0000 -0.8944
vn 0.4472 0.0000 -0.8944
vn 0.0000 -0.4472 -0.8944
s off
f 3/2/1 1/3/1 2/1/1 4/4/1
f 7/5/2 3/6/2 4/4/2 8/7/2
f 5/8/3 7/9/3 8/7/3 6/10/3
f 1/11/4 5/12/4 6/10/4 2/1/4
f 1/3/5 3/2/5 7/13/5 5/225/5
f 6/10/6 8/7/6 4/4/6 2/1/6
f 11/15/1 9/16/1 10/14/1 12/19/1
f 21/18/7 12/19/7 16/17/7 24/32/7
f 13/20/3 15/21/3 16/17/3 14/226/3
f 19/23/8 14/24/8 10/22/8 18/29/8
f 9/25/5 11/15/5 15/21/5 13/227/5
f 14/24/6 16/17/6 12/19/6 10/22/6
f 20/26/9 13/27/9 14/24/9 19/23/9
f 18/29/10 10/22/10 9/28/10 17/30/10
f 17/30/11 9/28/11 13/27/11 20/26/11
f 22/31/12 11/15/12 12/19/12 21/18/12
f 24/32/13 16/17/13 15/21/13 23/33/13
f 23/33/14 15/21/14 11/15/14 22/31/14
f 37/35/6 38/36/6 39/34/6 40/49/6
f 29/38/6 30/39/6 31/37/6 32/41/6
f 32/41/2 28/42/2 27/40/2 29/47/2
f 30/44/4 25/45/4 26/43/4 31/37/4
f 31/37/3 26/43/3 28/42/3 32/41/3
f 29/47/1 27/40/1 25/46/1 30/228/1
f 40/49/2 36/50/2 35/48/2 37/55/2
f 38/52/4 33/53/4 34/51/4 39/34/4
f 39/34/3 34/51/3 36/50/3 40/49/3
f 37/55/1 35/48/1 33/54/1 38/229/1
f 48/57/2 44/58/2 43/56/2 45/64/2
f 46/60/4 41/61/4 42/59/4 47/230/4
f 47/62/3 42/63/3 44/58/3 48/57/3
f 45/64/1 43/56/1 41/61/1 46/60/1
f 56/66/2 52/67/2 51/65/2 53/73/2
f 54/69/4 49/70/4 50/68/4 55/231/4
f 55/71/3 50/72/3 52/67/3 56/66/3
f 53/73/1 51/65/1 49/70/1 54/69/1
f 41/61/5 43/56/5 44/74/5 42/232/5
f 49/70/5 51/65/5 52/75/5 50/233/5
f 59/77/1 57/78/1 58/76/1 60/79/1
f 63/80/2 59/81/2 60/79/2 64/82/2
f 61/83/3 63/84/3 64/82/3 62/85/3
f 57/86/4 61/87/4 62/85/4 58/76/4
f 57/88/5 59/89/5 63/84/5 61/83/5
f 62/85/6 64/82/6 60/79/6 58/76/6
f 67/91/1 65/92/1 66/90/1 68/93/1
f 71/94/2 67/95/2 68/93/2 72/96/2
f 69/97/3 71/98/3 72/96/3 70/99/3
f 65/100/4 69/101/4 70/99/4 66/90/4
f 65/102/5 67/103/5 71/98/5 69/97/5
f 70/99/6 72/96/6 68/93/6 66/90/6
f 75/105/1 73/106/1 74/104/1 76/109/1
f 85/108/7 76/109/7 80/107/7 88/122/7
f 77/110/3 79/111/3 80/107/3 78/234/3
f 83/113/8 78/114/8 74/112/8 82/119/8
f 73/115/5 75/105/5 79/111/5 77/235/5
f 78/114/6 80/107/6 76/109/6 74/112/6
f 84/116/9 77/117/9 78/114/9 83/113/9
f 82/119/10 74/112/10 73/118/10 81/120/10
f 81/120/11 73/118/11 77/117/11 84/116/11
f 86/121/12 75/105/12 76/109/12 85/108/12
f 88/122/13 80/107/13 79/111/13 87/123/13
f 87/123/14 79/111/14 75/105/14 86/121/14
f 91/125/1 89/126/1 90/124/1 92/129/1
f 101/128/7 92/129/7 96/127/7 104/142/7
f 93/130/3 95/131/3 96/127/3 94/236/3
f 99/133/8 94/134/8 90/132/8 98/139/8
f 89/135/5 91/125/5 95/131/5 93/237/5
f 94/134/6 96/127/6 92/129/6 90/132/6
f 100/136/9 93/137/9 94/134/9 99/133/9
f 98/139/10 90/132/10 89/138/10 97/140/10
f 97/140/11 89/138/11 93/137/11 100/136/11
f 102/141/12 91/125/12 92/129/12 101/128/12
f 104/142/13 96/127/13 95/131/13 103/143/13
f 103/143/14 95/131/14 91/125/14 102/141/14
f 107/145/1 105/146/1 106/144/1 108/149/1
f 117/148/7 108/149/7 112/147/7 120/162/7
f 109/150/3 111/151/3 112/147/3 110/238/3
f 115/153/8 110/154/8 106/152/8 114/159/8
f 105/155/5 107/145/5 111/151/5 109/239/5
f 110/154/6 112/147/6 108/149/6 106/152/6
f 116/156/9 109/157/9 110/154/9 115/153/9
f 114/159/10 106/152/10 105/158/10 113/160/10
f 113/160/11 105/158/11 109/157/11 116/156/11
f 118/161/12 107/145/12 108/149/12 117/148/12
f 120/162/13 112/147/13 111/151/13 119/163/13
f 119/163/14 111/151/14 107/145/14 118/161/14
f 123/165/1 121/166/1 122/164/1 124/169/1
f 133/168/7 124/169/7 128/167/7 136/182/7
f 125/170/3 127/171/3 128/167/3 126/240/3
f 131/173/8 126/174/8 122/172/8 130/179/8
f 121/175/5 123/165/5 127/171/5 125/241/5
f 126/174/6 128/167/6 124/169/6 122/172/6
f 132/176/9 125/177/9 126/174/9 131/173/9
f 130/179/10 122/172/10 121/178/10 129/180/10
f 129/180/11 121/178/11 125/177/11 132/176/11
f 134/181/12 123/165/12 124/169/12 133/168/12
f 136/182/13 128/167/13 127/171/13 135/183/13
f 135/183/14 127/171/14 123/165/14 134/181/14
f 139/185/1 137/186/1 138/184/1 140/189/1
f 149/188/7 140/189/7 144/187/7 152/202/7
f 141/190/3 143/191/3 144/187/3 142/242/3
f 147/193/8 142/194/8 138/192/8 146/199/8
f 137/195/5 139/185/5 143/191/5 141/243/5
f 142/194/6 144/187/6 140/189/6 138/192/6
f 148/196/9 141/197/9 142/194/9 147/193/9
f 146/199/10 138/192/10 137/198/10 145/200/10
f 145/200/11 137/198/11 141/197/11 148/196/11
f 150/201/12 139/185/12 140/189/12 149/188/12
f 152/202/13 144/187/13 143/191/13 151/203/13
f 151/203/14 143/191/14 139/185/14 150/201/14
f 157/205/6 158/206/6 159/204/6 160/208/6
f 160/208/2 156/209/2 155/207/2 157/214/2
f 158/211/4 153/212/4 154/210/4 159/204/4
f 159/204/3 154/210/3 156/209/3 160/208/3
f 157/214/1 155/207/1 153/213/1 158/244/1
f 168/216/2 164/217/2 163/215/2 165/223/2
f 166/219/4 161/220/4 162/218/4 167/245/4
f 167/221/3 162/222/3 164/217/3 168/216/3
f 165/223/1 163/215/1 161/220/1 166/219/1
f 161/220/5 163/215/5 164/224/5 162/246/5
