# Blender 3.6.0
# www.blender.org
mtllib anvil.mtl
o Back
v 0.250000 0.000000 0.875000
v 0.750000 0.000000 0.875000
v 0.250000 0.062500 0.875000
v 0.750000 0.062500 0.875000
v 0.250000 0.062500 0.750000
v 0.750000 0.062500 0.750000
v 0.312500 0.125000 0.687500
v 0.687500 0.125000 0.687500
v 0.375000 0.187500 0.625000
v 0.625000 0.187500 0.625000
v 0.375000 0.312500 0.625000
v 0.625000 0.312500 0.625000
v 0.375000 0.437500 0.750000
v 0.625000 0.437500 0.750000
v 0.375000 0.562500 1.125000
v 0.625000 0.562500 1.125000
v 0.375000 0.688500 1.125000
v 0.625000 0.688500 1.125000
vn -0.0000 -0.0000 1.0000
vn -0.0000 0.7071 0.7071
vn -0.0000 -0.7071 0.7071
vt 0.750000 0.187500
vt 0.250000 0.125000
vt 0.750000 0.125000
vt 0.312500 0.250000
vt 0.250000 0.187500
vt 0.625000 0.312500
vt 0.687500 0.250000
vt 0.375000 0.437500
vt 0.375000 0.312500
vt 0.500000 0.625000
vt 0.375000 0.375000
vt 0.500000 0.375000
vt 0.625000 0.687500
vt 0.375000 0.812500
vt 0.375000 0.687500
vt 0.625000 0.437500
vt 0.375000 0.625000
vt 0.625000 0.812500
usemtl Anvil
s 0
f 4/1/1 1/2/1 2/3/1
f 6/1/2 7/4/2 5/5/2
f 10/6/2 7/4/2 8/7/2
f 10/6/1 11/8/1 9/9/1
f 12/10/3 13/11/3 11/12/3
f 16/13/1 17/14/1 15/15/1
f 4/1/1 3/5/1 1/2/1
f 6/1/2 8/7/2 7/4/2
f 10/6/2 9/9/2 7/4/2
f 10/6/1 12/16/1 11/8/1
f 12/10/3 14/17/3 13/11/3
f 16/13/1 18/18/1 17/14/1
o Bottom
v 0.250000 -0.000000 0.125000
v 0.750000 -0.000000 0.125000
v 0.250000 -0.000000 0.250000
v 0.750000 -0.000000 0.250000
v 0.250000 0.000000 0.875000
v 0.750000 0.000000 0.875000
v 0.250000 0.000000 0.750000
v 0.750000 0.000000 0.750000
v 0.312500 0.000000 0.687500
v 0.687500 0.000000 0.687500
v 0.312500 -0.000000 0.312500
v 0.687500 -0.000000 0.312500
v 0.375000 0.437500 0.312500
v 0.625000 0.437500 0.312500
v 0.375000 0.437500 0.125000
v 0.625000 0.437500 0.125000
v 0.375000 0.437500 0.750000
v 0.625000 0.437500 0.750000
v 0.375000 0.562500 1.125000
v 0.625000 0.562500 1.125000
v 0.406250 0.468750 0.125000
v 0.593750 0.468750 0.125000
v 0.406250 0.468750 -0.000000
v 0.593750 0.468750 -0.000000
v 0.433709 0.496209 -0.000000
v 0.500000 0.468750 -0.000000
v 0.566291 0.496209 -0.000000
v 0.443652 0.520215 -0.187500
v 0.500000 0.496875 -0.187500
v 0.556348 0.520215 -0.187500
v 0.500000 0.656250 -0.437500
vn -0.0000 -1.0000 -0.0000
vn -0.0000 -0.9487 0.3162
vn 0.3791 -0.9151 -0.1373
vn -0.3791 -0.9151 -0.1373
vn 0.3297 -0.7961 -0.5075
vn -0.3297 -0.7961 -0.5075
vt 0.312500 0.687500
vt 0.687500 0.312500
vt 0.687500 0.687500
vt 0.250000 0.250000
vt 0.312500 0.312500
vt 0.125000 0.250000
vt 0.250000 0.750000
vt 0.125000 0.750000
vt 0.812500 0.375000
vt 1.000000 0.625000
vt 0.812500 0.625000
vt 0.375000 0.625000
vt 0.000000 0.375000
vt 0.375000 0.375000
vt 0.937500 0.625000
vt 0.812500 0.437500
vt 0.937500 0.437500
vt 0.500000 0.250000
vt 0.312500 0.250000
vt 0.500000 0.750000
vt 0.312500 0.750000
vt 0.750000 0.312500
vt 0.500000 0.312500
vt 0.500000 0.687500
vt 0.750000 0.687500
vt 0.750000 0.750000
vt 0.875000 0.750000
vt 0.750000 0.250000
vt 0.875000 0.250000
vt 1.000000 0.375000
vt 0.000000 0.625000
usemtl Anvil
s 0
f 28/19/4 29/20/4 30/21/4
f 28/19/4 25/22/4 27/23/4
f 23/24/4 26/25/4 24/26/4
f 31/27/4 34/28/4 32/29/4
f 36/30/5 37/31/5 35/32/5
f 39/33/4 42/34/4 40/35/4
f 47/36/6 45/23/6 44/37/6
f 43/19/7 47/38/7 44/39/7
f 47/36/8 49/40/8 48/41/8
f 46/42/9 49/43/9 47/38/9
f 29/20/4 22/44/4 30/21/4
f 20/45/4 21/46/4 19/47/4
f 28/19/4 27/23/4 29/20/4
f 28/19/4 26/25/4 25/22/4
f 23/24/4 25/22/4 26/25/4
f 31/27/4 33/48/4 34/28/4
f 36/30/5 38/49/5 37/31/5
f 39/33/4 41/29/4 42/34/4
f 47/36/6 48/41/6 45/23/6
f 43/19/7 46/42/7 47/38/7
f 29/20/4 21/46/4 22/44/4
f 20/45/4 22/44/4 21/46/4
o Front
v 0.250000 -0.000000 0.125000
v 0.750000 -0.000000 0.125000
v 0.250000 0.062500 0.125000
v 0.750000 0.062500 0.125000
v 0.250000 0.062500 0.250000
v 0.750000 0.062500 0.250000
v 0.312500 0.125000 0.312500
v 0.687500 0.125000 0.312500
v 0.375000 0.187500 0.375000
v 0.625000 0.187500 0.375000
v 0.375000 0.375000 0.375000
v 0.625000 0.375000 0.375000
v 0.375000 0.437500 0.312500
v 0.625000 0.437500 0.312500
v 0.375000 0.437500 0.125000
v 0.625000 0.437500 0.125000
v 0.375000 0.687500 0.125000
v 0.625000 0.687500 0.125000
v 0.406250 0.468750 -0.000000
v 0.593750 0.468750 -0.000000
v 0.406250 0.656250 -0.000000
v 0.593750 0.656250 -0.000000
vn -0.0000 -0.0000 -1.0000
vn -0.0000 0.7071 -0.7071
vn -0.0000 -0.7071 -0.7071
vt 0.250000 0.187500
vt 0.750000 0.125000
vt 0.750000 0.187500
vt 0.312500 0.250000
vt 0.687500 0.250000
vt 0.375000 0.312500
vt 0.625000 0.312500
vt 0.375000 0.500000
vt 0.625000 0.500000
vt 0.375000 0.562500
vt 0.625000 0.562500
vt 0.375000 0.812500
vt 0.562500 0.625000
vt 0.375000 0.625000
vt 0.250000 0.125000
vt 0.625000 0.812500
vt 0.562500 0.812500
usemtl Anvil
s 0
f 50/50/10 53/51/10 51/52/10
f 54/52/11 57/53/11 55/50/11
f 56/54/11 59/55/11 57/53/11
f 58/56/10 61/57/10 59/55/10
f 60/58/12 63/59/12 61/57/12
f 64/60/10 67/61/10 65/59/10
f 68/62/10 71/61/10 69/63/10
f 50/50/10 52/64/10 53/51/10
f 54/52/11 56/54/11 57/53/11
f 56/54/11 58/56/11 59/55/11
f 58/56/10 60/58/10 61/57/10
f 60/58/12 62/60/12 63/59/12
f 64/60/10 66/65/10 67/61/10
f 68/62/10 70/66/10 71/61/10
o Left
v 0.250000 -0.000000 0.125000
v 0.250000 -0.000000 0.250000
v 0.250000 0.000000 0.875000
v 0.250000 0.000000 0.750000
v 0.250000 0.062500 0.125000
v 0.250000 0.062500 0.250000
v 0.250000 0.062500 0.875000
v 0.250000 0.062500 0.750000
v 0.312500 0.000000 0.687500
v 0.312500 0.125000 0.687500
v 0.312500 -0.000000 0.312500
v 0.312500 0.125000 0.312500
v 0.375000 0.187500 0.625000
v 0.375000 0.187500 0.375000
v 0.375000 0.375000 0.375000
v 0.375000 0.437500 0.312500
v 0.375000 0.437500 0.125000
v 0.375000 0.687500 0.125000
v 0.375000 0.312500 0.625000
v 0.375000 0.437500 0.750000
v 0.375000 0.562500 1.125000
v 0.375000 0.688500 1.125000
v 0.406250 0.468750 0.125000
v 0.406250 0.656250 0.125000
v 0.406250 0.468750 -0.000000
v 0.406250 0.656250 -0.000000
v 0.433709 0.628791 -0.000000
v 0.406250 0.562500 -0.000000
v 0.433709 0.496209 -0.000000
v 0.443652 0.632910 -0.187500
v 0.420313 0.576563 -0.187500
v 0.443652 0.520215 -0.187500
v 0.500000 0.656250 -0.437500
vn -1.0000 -0.0000 -0.0000
vn -0.7071 -0.0000 -0.7071
vn -0.7071 -0.0000 0.7071
vn -0.7071 0.7071 -0.0000
vn -0.9195 -0.3809 -0.0975
vn -0.9231 0.3824 -0.0406
vn -0.8529 -0.3533 -0.3845
vn -0.9104 0.3771 -0.1700
vn -0.9195 -0.3808 -0.0975
vt 0.875000 0.125000
vt 1.000000 0.187500
vt 1.000000 0.125000
vt 0.187500 0.187500
vt 0.312500 0.125000
vt 0.187500 0.125000
vt 0.312500 0.187500
vt 0.437500 0.125000
vt 0.875000 0.187500
vt 0.812500 0.125000
vt 0.812500 0.250000
vt 0.437500 0.250000
vt 0.750000 0.312500
vt 0.500000 0.437500
vt 0.500000 0.312500
vt 0.750000 0.500000
vt 0.375000 0.562500
vt 0.812500 0.562500
vt 1.000000 0.562500
vt 1.000000 0.812500
vt 0.000000 0.812500
vt 0.000000 0.687500
vt 0.875000 0.812500
vt 1.000000 0.625000
vt 0.875000 0.625000
vt 0.312500 0.625000
vt 0.500000 0.562500
vt 0.312500 0.562500
vt 0.312500 0.687500
vt 0.500000 0.625000
vt 0.750000 0.625000
vt 0.500000 0.687500
vt 0.750000 0.687500
usemtl Anvil
s 0
f 73/67/13 76/68/13 72/69/13
f 78/70/13 75/71/13 74/72/13
f 79/73/14 80/74/14 75/71/14
f 77/75/15 82/76/15 83/77/15
f 83/77/13 80/74/13 81/78/13
f 81/78/16 85/79/16 83/77/16
f 90/80/13 85/79/13 84/81/13
f 86/82/13 91/83/13 87/84/13
f 88/85/13 87/84/13 89/86/13
f 89/86/13 91/83/13 93/87/13
f 92/88/13 93/87/13 91/83/13
f 95/89/13 96/90/13 94/91/13
f 99/92/17 103/93/17 100/94/17
f 98/95/18 102/96/18 99/92/18
f 102/96/19 104/97/19 103/93/19
f 101/98/20 104/99/20 102/96/20
f 73/67/13 77/75/13 76/68/13
f 78/70/13 79/73/13 75/71/13
f 79/73/14 81/78/14 80/74/14
f 77/75/15 73/67/15 82/76/15
f 83/77/13 82/76/13 80/74/13
f 81/78/16 84/81/16 85/79/16
f 90/80/13 86/82/13 85/79/13
f 86/82/13 90/80/13 91/83/13
f 89/86/13 87/84/13 91/83/13
f 95/89/13 97/86/13 96/90/13
f 99/92/21 102/96/21 103/93/21
f 98/95/18 101/98/18 102/96/18
o Right
v 0.750000 -0.000000 0.125000
v 0.750000 -0.000000 0.250000
v 0.750000 0.000000 0.875000
v 0.750000 0.000000 0.750000
v 0.750000 0.062500 0.125000
v 0.750000 0.062500 0.250000
v 0.750000 0.062500 0.875000
v 0.750000 0.062500 0.750000
v 0.687500 0.000000 0.687500
v 0.687500 0.125000 0.687500
v 0.687500 -0.000000 0.312500
v 0.687500 0.125000 0.312500
v 0.625000 0.187500 0.625000
v 0.625000 0.187500 0.375000
v 0.625000 0.375000 0.375000
v 0.625000 0.437500 0.312500
v 0.625000 0.437500 0.125000
v 0.625000 0.687500 0.125000
v 0.625000 0.312500 0.625000
v 0.625000 0.437500 0.750000
v 0.625000 0.562500 1.125000
v 0.625000 0.688500 1.125000
v 0.593750 0.468750 0.125000
v 0.593750 0.656250 0.125000
v 0.593750 0.468750 -0.000000
v 0.593750 0.656250 -0.000000
v 0.566291 0.496209 -0.000000
v 0.593750 0.562500 -0.000000
v 0.566291 0.628791 -0.000000
v 0.556348 0.520215 -0.187500
v 0.579687 0.576563 -0.187500
v 0.556348 0.632910 -0.187500
v 0.500000 0.656250 -0.437500
vn 1.0000 -0.0000 -0.0000
vn 0.7071 -0.0000 -0.7071
vn 0.7071 -0.0000 0.7071
vn 0.7071 0.7071 -0.0000
vn 0.9195 -0.3809 -0.0975
vn 0.9231 0.3824 -0.0406
vn 0.9104 0.3771 -0.1700
vn 0.8529 -0.3533 -0.3845
vn 0.9195 -0.3808 -0.0975
vt 0.375000 0.187500
vt 0.250000 0.125000
vt 0.375000 0.125000
vt 1.000000 0.125000
vt 0.875000 0.187500
vt 0.875000 0.125000
vt 0.437500 0.125000
vt 0.437500 0.250000
vt 0.812500 0.125000
vt 0.812500 0.250000
vt 0.500000 0.312500
vt 0.750000 0.312500
vt 0.500000 0.437500
vt 0.375000 0.562500
vt 0.750000 0.500000
vt 0.812500 0.562500
vt 1.000000 0.562500
vt 1.000000 0.812500
vt 0.000000 0.812500
vt 0.000000 0.687500
vt 0.812500 0.625000
vt 0.937500 0.812500
vt 0.812500 0.812500
vt 0.312500 0.375000
vt 0.312500 0.312500
vt 0.500000 0.375000
vt 0.312500 0.437500
vt 0.750000 0.437500
vt 0.750000 0.375000
vt 0.250000 0.187500
vt 1.000000 0.187500
vt 0.937500 0.625000
usemtl Anvil
s 0
f 112/100/22 107/101/22 108/102/22
f 105/103/22 110/104/22 106/105/22
f 112/100/23 113/106/23 114/107/23
f 110/104/24 115/108/24 106/105/24
f 115/108/22 114/107/22 113/106/22
f 116/109/25 117/110/25 114/107/25
f 118/111/22 123/112/22 117/110/22
f 124/113/22 119/114/22 120/115/22
f 121/116/22 122/117/22 120/115/22
f 124/113/22 122/117/22 126/118/22
f 124/113/22 126/118/22 125/119/22
f 127/120/22 130/121/22 128/122/22
f 134/110/26 132/123/26 131/124/26
f 135/125/27 133/126/27 132/123/27
f 135/125/28 137/127/28 136/112/28
f 134/110/29 137/128/29 135/125/29
f 112/100/22 111/129/22 107/101/22
f 105/103/22 109/130/22 110/104/22
f 112/100/23 108/102/23 113/106/23
f 110/104/24 116/109/24 115/108/24
f 115/108/22 116/109/22 114/107/22
f 116/109/25 118/111/25 117/110/25
f 118/111/22 119/114/22 123/112/22
f 124/113/22 123/112/22 119/114/22
f 124/113/22 120/115/22 122/117/22
f 127/120/22 129/131/22 130/121/22
f 134/110/30 135/125/30 132/123/30
f 135/125/27 136/112/27 133/126/27
o Top
v 0.250000 0.062500 0.125000
v 0.750000 0.062500 0.125000
v 0.250000 0.062500 0.250000
v 0.750000 0.062500 0.250000
v 0.250000 0.062500 0.875000
v 0.750000 0.062500 0.875000
v 0.250000 0.062500 0.750000
v 0.750000 0.062500 0.750000
v 0.375000 0.687500 0.125000
v 0.625000 0.687500 0.125000
v 0.375000 0.688500 1.125000
v 0.625000 0.688500 1.125000
v 0.406250 0.656250 0.125000
v 0.593750 0.656250 0.125000
v 0.406250 0.656250 -0.000000
v 0.593750 0.656250 -0.000000
v 0.500000 0.656250 -0.000000
v 0.433709 0.628791 -0.000000
v 0.566291 0.628791 -0.000000
v 0.500000 0.656250 -0.187500
v 0.443652 0.632910 -0.187500
v 0.556348 0.632910 -0.187500
v 0.500000 0.656250 -0.437500
vn -0.0000 1.0000 -0.0000
vn -0.0000 1.0000 -0.0010
vn -0.3827 0.9239 -0.0000
vn 0.3827 0.9239 -0.0000
vt 0.375000 0.250000
vt 0.250000 0.750000
vt 0.250000 0.250000
vt 1.000000 0.750000
vt 0.875000 0.250000
vt 1.000000 0.250000
vt 1.000000 0.625000
vt 0.000000 0.375000
vt 1.000000 0.375000
vt 0.812500 0.437500
vt 0.937500 0.625000
vt 0.812500 0.625000
vt 0.312500 0.500000
vt 0.500000 0.562500
vt 0.312500 0.562500
vt 0.500000 0.437500
vt 0.312500 0.437500
vt 0.750000 0.500000
vt 0.500000 0.500000
vt 0.375000 0.750000
vt 0.875000 0.750000
vt 0.000000 0.625000
vt 0.937500 0.437500
usemtl Anvil
s 0
f 145/132/31 142/133/31 143/134/31
f 138/135/31 141/136/31 139/137/31
f 146/138/32 149/139/32 147/140/32
f 151/141/31 152/142/31 150/143/31
f 154/144/33 158/145/33 155/146/33
f 159/147/34 154/144/34 156/148/34
f 159/147/34 160/149/34 157/150/34
f 157/150/33 160/149/33 158/145/33
f 145/132/31 144/151/31 142/133/31
f 138/135/31 140/152/31 141/136/31
f 146/138/32 148/153/32 149/139/32
f 151/141/31 153/154/31 152/142/31
f 154/144/33 157/150/33 158/145/33
f 159/147/34 157/150/34 154/144/34
