# Blender v2.79 (sub 0) OBJ File: 'combination_oven.blend'
# www.blender.org
o Plane
v 0.750000 2.125000 -0.750000
v 0.750000 2.125000 0.750000
v -0.750000 2.125000 0.750000
v -0.750000 2.125000 -0.750000
v -1.500000 0.000000 1.500000
v 1.500000 0.000000 1.500000
v -1.500000 0.000000 -1.500000
v 1.500000 0.000000 -1.500000
v -1.500000 0.125000 -1.500000
v -1.500000 0.125000 1.500000
v 1.500000 0.125000 1.500000
v 1.500000 0.125000 -1.500000
v -1.375000 0.125000 -1.375000
v -1.375000 0.125000 1.375000
v 1.375000 0.125000 1.375000
v 1.375000 0.125000 -1.375000
v -1.375000 0.875000 -1.375000
v -1.375000 0.875000 1.375000
v 1.375000 0.875000 1.375000
v 1.375000 0.875000 -1.375000
v -1.000000 1.625000 -1.000000
v -1.000000 1.625000 1.000000
v 1.000000 1.625000 1.000000
v 1.000000 1.625000 -1.000000
v -1.000000 2.125000 -1.000000
v -1.000000 2.125000 1.000000
v 1.000000 2.125000 1.000000
v 1.000000 2.125000 -1.000000
v 0.750000 1.625000 -0.750000
v -0.750000 1.625000 -0.750000
v 0.750000 1.625000 0.750000
v -0.750000 1.625000 0.750000
v -0.500000 0.000000 0.500000
v 0.500000 0.000000 0.500000
v -0.500000 0.000000 -0.500000
v 0.500000 0.000000 -0.500000
v -0.500000 0.062500 -0.500000
v -0.500000 0.062500 0.500000
v 0.500000 0.062500 0.500000
v 0.500000 0.062500 -0.500000
v -0.437500 0.062500 -0.437500
v -0.437500 0.062500 0.437500
v 0.437500 0.062500 0.437500
v 0.437500 0.062500 -0.437500
v -0.437500 0.000000 -0.437500
v -0.437500 0.000000 0.437500
v 0.437500 0.000000 0.437500
v 0.437500 0.000000 -0.437500
vt 0.000000 0.489796
vt 0.347826 0.326531
vt 0.521739 0.489796
vt 0.521739 1.000000
vt 0.500000 0.530612
vt 0.521739 0.510204
vt 0.000000 0.510204
vt 0.521739 0.489796
vt 0.000000 0.510204
vt 0.000000 0.489796
vt 0.521739 0.489796
vt 0.000000 0.510204
vt 0.000000 0.489796
vt 0.521739 0.489796
vt 0.000000 0.510204
vt 0.000000 0.489796
vt 1.000000 0.000000
vt 0.521739 0.122449
vt 0.521739 0.000000
vt 0.021739 0.979592
vt 0.000000 1.000000
vt 0.021739 0.530612
vt 0.500000 0.979592
vt 1.000000 0.122449
vt 0.586957 0.244898
vt 0.521739 0.122449
vt 1.000000 -0.000000
vt 0.521739 -0.000000
vt 1.000000 0.000000
vt 0.521739 0.122449
vt 0.521739 0.000000
vt 1.000000 0.000000
vt 0.521739 0.122449
vt 0.521739 0.000000
vt 0.934783 0.244898
vt 0.586957 0.326531
vt 0.586957 0.244898
vt 1.000000 0.122449
vt 0.586957 0.244898
vt 1.000000 0.122449
vt 1.000000 0.122449
vt 0.586957 0.244898
vt 0.934783 0.326531
vt 0.630435 0.367347
vt 0.586957 0.326531
vt 0.934783 0.244898
vt 0.586957 0.326531
vt 0.934783 0.244898
vt 0.934783 0.244898
vt 0.586957 0.326531
vt 0.891304 0.653061
vt 0.630435 0.734694
vt 0.630435 0.653061
vt 0.586957 0.653061
vt 0.891304 0.612245
vt 0.934783 0.653061
vt 0.891304 0.367347
vt 0.630435 0.612245
vt 0.630435 0.979592
vt 0.891304 0.734694
vt 0.891304 0.979592
vt 0.891304 0.653061
vt 0.630435 0.734694
vt 0.630435 0.653061
vt 0.891304 0.653061
vt 0.630435 0.734694
vt 0.630435 0.653061
vt 0.891304 0.653061
vt 0.630435 0.734694
vt 0.630435 0.653061
vt 0.369565 0.714286
vt 0.358696 0.551020
vt 0.369565 0.551020
vt 0.000000 0.000000
vt 0.173913 0.326531
vt 0.521739 0.000000
vt 0.173913 0.163265
vt 0.347826 0.163265
vt 0.163043 0.551020
vt 0.173913 0.704082
vt 0.163043 0.714286
vt 0.152174 0.551020
vt 0.152174 0.714286
vt 0.173913 0.734694
vt 0.347826 0.724490
vt 0.347826 0.734694
vt 0.347826 0.530612
vt 0.173913 0.540816
vt 0.173913 0.530612
vt 0.184783 0.714286
vt 0.336957 0.704082
vt 0.336957 0.714286
vt 0.173913 0.724490
vt 0.347826 0.540816
vt 0.184783 0.551020
vt 0.358696 0.714286
vt 0.347826 0.561224
vt 0.336957 0.561224
vt 0.184783 0.704082
vt 0.184783 0.561224
vt 0.336957 0.551020
vt 0.347826 0.704082
vt 0.173913 0.561224
vt 0.521739 0.510204
vt 0.521739 0.510204
vt 0.521739 0.510204
vt 0.934783 0.326531
vt 0.934783 0.326531
vt 0.934783 0.326531
vt 0.891304 0.734694
vt 0.891304 0.734694
vt 0.891304 0.734694
vn 0.0000 -1.0000 0.0000
vn 0.0000 1.0000 0.0000
vn 1.0000 0.0000 0.0000
vn -1.0000 0.0000 0.0000
vn 0.0000 0.0000 -1.0000
vn 0.0000 0.0000 1.0000
vn 0.8944 0.4472 0.0000
vn -0.8944 0.4472 0.0000
vn 0.0000 0.4472 -0.8944
vn 0.0000 0.4472 0.8944
s off
f 36/2/1 8/3/1 6/1/1 34/75/1
f 16/5/2 12/6/2 9/4/2 13/23/2
f 11/7/3 6/1/3 8/3/3 12/6/3
f 9/9/4 7/10/4 5/8/4 10/104/4
f 12/12/5 8/13/5 7/11/5 9/105/5
f 10/15/6 5/16/6 6/14/6 11/106/6
f 18/18/6 14/19/6 15/17/6 19/41/6
f 14/20/2 10/21/2 11/7/2 15/22/2
f 15/22/2 11/7/2 12/6/2 16/5/2
f 13/23/2 9/4/2 10/21/2 14/20/2
f 23/25/7 19/26/7 20/24/7 24/48/7
f 19/26/3 15/28/3 16/27/3 20/24/3
f 17/30/4 13/31/4 14/29/4 18/38/4
f 20/33/5 16/34/5 13/32/5 17/40/5
f 28/36/5 24/37/5 21/35/5 25/107/5
f 21/39/8 17/30/8 18/38/8 22/49/8
f 24/37/9 20/33/9 17/40/9 21/35/9
f 22/42/10 18/18/10 19/41/10 23/46/10
f 2/44/2 27/45/2 28/43/2 1/57/2
f 26/47/6 22/42/6 23/46/6 27/108/6
f 27/45/3 23/25/3 24/48/3 28/43/3
f 25/50/4 21/39/4 22/49/4 26/109/4
f 32/52/5 3/53/5 2/51/5 31/110/5
f 4/55/2 25/56/2 26/54/2 3/58/2
f 1/57/2 28/43/2 25/56/2 4/55/2
f 3/58/2 26/54/2 27/45/2 2/44/2
f 29/60/2 30/61/2 32/59/2 31/69/2
f 29/63/6 1/64/6 4/62/6 30/111/6
f 30/66/3 4/67/3 3/65/3 32/112/3
f 31/69/4 2/70/4 1/68/4 29/60/4
f 37/72/6 35/73/6 36/71/6 40/96/6
f 34/75/1 6/1/1 5/74/1 33/77/1
f 33/77/1 5/74/1 7/76/1 35/78/1
f 35/78/1 7/76/1 8/3/1 36/2/1
f 43/80/1 39/81/1 38/79/1 42/103/1
f 39/81/5 34/83/5 33/82/5 38/79/5
f 40/85/4 36/86/4 34/84/4 39/93/4
f 38/88/3 33/89/3 35/87/3 37/94/3
f 48/91/3 44/92/3 43/90/3 47/99/3
f 44/92/1 40/85/1 39/93/1 43/90/1
f 42/95/1 38/88/1 37/94/1 41/101/1
f 41/97/1 37/72/1 40/96/1 44/102/1
f 47/99/1 46/100/1 45/98/1 48/91/1
f 46/100/4 42/95/4 41/101/4 45/98/4
f 45/98/5 41/97/5 44/102/5 48/91/5
f 47/99/6 43/80/6 42/103/6 46/100/6
