# Blender v2.79 (sub 0) OBJ File: 'radar_screen.blend'
# www.blender.org
o Plane
v -0.250000 0.000000 1.500000
v 0.500000 0.000000 1.500000
v -0.250000 0.000000 -0.500000
v 0.500000 0.000000 -0.500000
v -0.250000 2.000000 -0.500000
v -0.250000 2.000000 1.500000
v 0.500000 2.000000 1.500000
v 0.500000 2.000000 -0.500000
v -0.250000 0.250000 -0.250000
v -0.250000 0.250000 1.250000
v -0.250000 1.750000 -0.250000
v -0.250000 1.750000 1.250000
v -0.500000 0.250000 -0.250000
v -0.500000 0.250000 1.250000
v -0.500000 1.750000 -0.250000
v -0.500000 1.750000 1.250000
v 0.500000 0.125000 1.375000
v 0.500000 0.125000 -0.375000
v 0.500000 1.875000 1.375000
v 0.500000 1.875000 -0.375000
v 0.375000 0.125000 1.375000
v 0.375000 0.125000 -0.375000
v 0.375000 1.875000 1.375000
v 0.375000 1.875000 -0.375000
vt 0.500000 0.000000
vt 0.136364 0.214286
vt 0.136364 0.000000
vt 0.136364 0.785714
vt 0.500000 1.000000
vt 0.136364 1.000000
vt 0.636364 0.214286
vt 0.500000 0.785714
vt 0.500000 0.214286
vt 0.000000 0.785714
vt 0.000000 0.214286
vt 0.159091 0.750000
vt 0.681818 0.714286
vt 0.636364 0.785714
vt 0.500000 0.107143
vt 0.772727 0.035714
vt 0.772727 0.107143
vt 0.954545 0.714286
vt 1.000000 0.785714
vt 1.000000 0.214286
vt 0.681818 0.285714
vt 0.954545 0.285714
vt 0.954545 0.267857
vt 0.681818 0.714286
vt 0.681818 0.267857
vt 0.500000 0.107143
vt 0.772727 0.035714
vt 0.772727 0.107143
vt 0.500000 0.107143
vt 0.772727 0.035714
vt 0.772727 0.107143
vt 0.500000 0.107143
vt 0.772727 0.035714
vt 0.772727 0.107143
vt 0.818182 -0.000000
vt 0.500000 0.035714
vt 0.500000 0.000000
vt 0.477273 0.750000
vt 0.159091 0.250000
vt 0.477273 0.250000
vt 0.477273 0.250000
vt 0.159091 0.750000
vt 0.159091 0.250000
vt 0.818182 0.000000
vt 0.500000 0.035714
vt 0.500000 0.000000
vt 0.818182 0.000000
vt 0.500000 0.035714
vt 0.500000 0.000000
vt 0.818182 -0.000000
vt 0.500000 0.035714
vt 0.500000 0.000000
vt 0.500000 0.035714
vt 0.954545 0.714286
vt 0.500000 0.035714
vt 0.500000 0.035714
vt 0.500000 0.035714
vt 0.818182 0.035714
vt 0.477273 0.750000
vt 0.818182 0.035714
vt 0.818182 0.035714
vt 0.818182 0.035714
vn 0.0000 -1.0000 0.0000
vn 0.0000 1.0000 0.0000
vn 0.0000 0.0000 -1.0000
vn 0.0000 0.0000 1.0000
vn 1.0000 0.0000 0.0000
vn -1.0000 0.0000 0.0000
s off
f 2/2/1 1/3/1 3/1/1 4/9/1
f 5/5/2 6/6/2 7/4/2 8/8/2
f 8/8/3 4/9/3 3/7/3 5/14/3
f 6/10/4 1/11/4 2/2/4 7/4/4
f 19/12/5 7/4/5 2/2/5 17/39/5
f 11/13/6 5/14/6 3/7/6 9/21/6
f 15/16/3 11/17/3 9/15/3 13/53/3
f 12/18/6 6/19/6 5/14/6 11/13/6
f 9/21/6 3/7/6 1/20/6 10/22/6
f 10/22/6 1/20/6 6/19/6 12/18/6
f 15/24/6 13/25/6 14/23/6 16/54/6
f 13/27/1 9/28/1 10/26/1 14/55/1
f 14/30/4 10/31/4 12/29/4 16/56/4
f 16/33/2 12/34/2 11/32/2 15/57/2
f 22/36/4 18/37/4 20/35/4 24/58/4
f 20/38/5 8/8/5 7/4/5 19/12/5
f 17/39/5 2/2/5 4/9/5 18/40/5
f 18/40/5 4/9/5 8/8/5 20/38/5
f 23/42/5 21/43/5 22/41/5 24/59/5
f 21/45/2 17/46/2 18/44/2 22/60/2
f 23/48/3 19/49/3 17/47/3 21/61/3
f 24/51/1 20/52/1 19/50/1 23/62/1
