# Blender v2.79 (sub 0) OBJ File: 'soldering_station.blend'
# www.blender.org
o Plane
v -1.000000 0.000000 1.000000
v 1.000000 0.000000 1.000000
v -1.000000 0.000000 -1.000000
v 1.000000 0.000000 -1.000000
v -1.000000 1.000000 1.000000
v 1.000000 1.000000 1.000000
v -1.000000 1.000000 -1.000000
v 1.000000 1.000000 -1.000000
v -1.000000 0.875000 -1.000000
v -1.000000 0.875000 1.000000
v 1.000000 0.875000 1.000000
v 1.000000 0.875000 -1.000000
v -1.000000 0.125000 -1.000000
v -1.000000 0.125000 1.000000
v 1.000000 0.125000 1.000000
v 1.000000 0.125000 -1.000000
v 0.875000 0.687500 0.312500
v 0.875000 0.687500 0.687500
v 0.875000 0.312500 0.687500
v 0.875000 0.312500 0.312500
v 1.000000 0.687500 0.312500
v 1.000000 0.312500 0.312500
v 1.000000 0.687500 0.687500
v 1.000000 0.312500 0.687500
v -0.375000 1.000000 0.375000
v 0.375000 1.000000 0.375000
v -0.375000 1.000000 -0.375000
v 0.375000 1.000000 -0.375000
v -0.375000 1.125000 -0.375000
v -0.375000 1.125000 0.375000
v 0.375000 1.125000 0.375000
v 0.375000 1.125000 -0.375000
v -0.375000 1.000000 -0.437500
v 0.375000 1.000000 -0.437500
v -0.375000 1.000000 -0.937500
v 0.375000 1.000000 -0.937500
v -0.375000 1.125000 -0.937500
v -0.375000 1.125000 -0.437500
v 0.375000 1.125000 -0.437500
v 0.375000 1.125000 -0.937500
v -0.250000 1.250000 -0.937500
v -0.250000 1.250000 -0.437500
v 0.250000 1.250000 -0.437500
v 0.250000 1.250000 -0.937500
v -0.125000 1.375000 0.125000
v 0.125000 1.375000 0.125000
v -0.125000 1.375000 -0.125000
v 0.125000 1.375000 -0.125000
v -0.125000 1.500000 0.125000
v 0.125000 1.500000 0.125000
v -0.125000 1.500000 -0.125000
v 0.125000 1.500000 -0.125000
v -0.062500 1.375000 0.062500
v 0.062500 1.375000 0.062500
v -0.062500 1.375000 -0.062500
v 0.062500 1.375000 -0.062500
v 0.000000 1.187500 0.000000
v -0.062500 1.406250 -0.125000
v 0.062500 1.406250 -0.125000
v -0.062500 1.468750 -0.125000
v 0.062500 1.468750 -0.125000
v -0.062500 1.406250 -0.625000
v 0.062500 1.406250 -0.625000
v -0.062500 1.468750 -0.625000
v 0.062500 1.468750 -0.625000
v -0.125000 1.500000 -0.625000
v 0.125000 1.500000 -0.625000
v -0.125000 1.500000 -0.875000
v 0.125000 1.500000 -0.875000
v -0.125000 1.250000 -0.625000
v 0.125000 1.250000 -0.625000
v -0.125000 1.250000 -0.875000
v 0.125000 1.250000 -0.875000
v -0.312500 1.187500 -0.500000
v -0.187500 1.187500 -0.500000
v -0.312500 1.187500 -0.625000
v -0.187500 1.187500 -0.625000
v -0.312500 1.437500 -0.625000
v -0.312500 1.437500 -0.500000
v -0.187500 1.437500 -0.500000
v -0.187500 1.437500 -0.625000
v -0.312500 1.187500 -0.750000
v -0.187500 1.187500 -0.750000
v -0.312500 1.187500 -0.875000
v -0.187500 1.187500 -0.875000
v -0.312500 1.437500 -0.875000
v -0.312500 1.437500 -0.750000
v -0.187500 1.437500 -0.750000
v -0.187500 1.437500 -0.875000
v 1.000000 0.312500 -0.312500
v 1.000000 0.687500 -0.312500
v 1.000000 0.312500 -0.687500
v 1.000000 0.687500 -0.687500
v 0.875000 0.312500 -0.687500
v 0.875000 0.312500 -0.312500
v 0.875000 0.687500 -0.312500
v 0.875000 0.687500 -0.687500
v -0.875000 0.125000 -0.875000
v -0.875000 0.125000 0.875000
v 0.875000 0.125000 0.875000
v 0.875000 0.125000 -0.875000
v -0.875000 0.875000 -0.875000
v -0.875000 0.875000 0.875000
v 0.875000 0.875000 0.875000
v 0.875000 0.875000 -0.875000
v -0.250000 1.000000 0.937500
v 0.250000 1.000000 0.937500
v -0.250000 1.000000 0.437500
v 0.250000 1.000000 0.437500
v -0.250000 1.125000 0.437500
v -0.250000 1.125000 0.937500
v 0.250000 1.125000 0.937500
v 0.250000 1.125000 0.437500
v 0.031250 1.187500 0.687500
v -0.031250 1.187500 0.687500
v -0.187500 1.125000 0.562500
v 0.187500 1.125000 0.562500
v -0.187500 1.036612 0.599112
v 0.187500 1.036612 0.599112
v -0.187500 1.000000 0.687500
v 0.187500 1.000000 0.687500
v -0.187500 1.036612 0.775888
v 0.187500 1.036612 0.775888
v -0.187500 1.125000 0.812500
v 0.187500 1.125000 0.812500
v -0.187500 1.213388 0.775888
v 0.187500 1.213388 0.775888
v -0.187500 1.250000 0.687500
v 0.187500 1.250000 0.687500
v -0.187500 1.213388 0.599112
v 0.187500 1.213388 0.599112
v 0.031250 1.125000 0.687500
v -0.031250 1.125000 0.687500
v 0.031250 1.187500 0.000000
v -0.031250 1.187500 0.000000
v 0.031250 1.125000 0.000000
v -0.031250 1.125000 0.000000
v 0.875000 1.250000 0.500000
v 0.875000 1.250000 -0.500000
v 0.875000 1.000000 0.500000
v 0.875000 1.000000 -0.500000
v 0.875000 1.000000 0.375000
v 0.875000 1.000000 -0.375000
v 0.875000 1.125000 0.375000
v 0.875000 1.125000 -0.375000
v 0.750000 1.250000 0.500000
v 0.750000 1.250000 -0.500000
v 0.750000 1.000000 0.500000
v 0.750000 1.000000 -0.500000
v 0.750000 1.000000 0.375000
v 0.750000 1.000000 -0.375000
v 0.750000 1.125000 0.375000
v 0.750000 1.125000 -0.375000
v -0.750000 1.250000 0.500000
v -0.750000 1.250000 -0.500000
v -0.750000 1.000000 0.500000
v -0.750000 1.000000 -0.500000
v -0.750000 1.000000 0.375000
v -0.750000 1.000000 -0.375000
v -0.750000 1.125000 0.375000
v -0.750000 1.125000 -0.375000
v -0.875000 1.250000 0.500000
v -0.875000 1.250000 -0.500000
v -0.875000 1.000000 0.500000
v -0.875000 1.000000 -0.500000
v -0.875000 1.000000 0.375000
v -0.875000 1.000000 -0.375000
v -0.875000 1.125000 0.375000
v -0.875000 1.125000 -0.375000
v -0.312500 0.687500 0.875000
v -0.687500 0.687500 0.875000
v -0.687500 0.312500 0.875000
v -0.312500 0.312500 0.875000
v -0.312500 0.687500 1.000000
v -0.312500 0.312500 1.000000
v -0.687500 0.687500 1.000000
v -0.687500 0.312500 1.000000
v 0.312500 0.312500 1.000000
v 0.312500 0.687500 1.000000
v 0.687500 0.312500 1.000000
v 0.687500 0.687500 1.000000
v 0.687500 0.312500 0.875000
v 0.312500 0.312500 0.875000
v 0.312500 0.687500 0.875000
v 0.687500 0.687500 0.875000
v -0.687500 0.687500 -0.875000
v -0.312500 0.687500 -0.875000
v -0.312500 0.312500 -0.875000
v -0.687500 0.312500 -0.875000
v -0.687500 0.687500 -1.000000
v -0.687500 0.312500 -1.000000
v -0.312500 0.687500 -1.000000
v -0.312500 0.312500 -1.000000
v 0.687500 0.312500 -1.000000
v 0.687500 0.687500 -1.000000
v 0.312500 0.312500 -1.000000
v 0.312500 0.687500 -1.000000
v 0.312500 0.312500 -0.875000
v 0.687500 0.312500 -0.875000
v 0.687500 0.687500 -0.875000
v 0.312500 0.687500 -0.875000
v -0.875000 0.687500 0.687500
v -0.875000 0.687500 0.312500
v -0.875000 0.312500 0.312500
v -0.875000 0.312500 0.687500
v -1.000000 0.687500 0.687500
v -1.000000 0.312500 0.687500
v -1.000000 0.687500 0.312500
v -1.000000 0.312500 0.312500
v -1.000000 0.312500 -0.687500
v -1.000000 0.687500 -0.687500
v -1.000000 0.312500 -0.312500
v -1.000000 0.687500 -0.312500
v -0.875000 0.312500 -0.312500
v -0.875000 0.312500 -0.687500
v -0.875000 0.687500 -0.687500
v -0.875000 0.687500 -0.312500
vt 0.500000 -0.000000
vt -0.000000 0.380952
vt 0.000000 -0.000000
vt -0.000000 0.619048
vt 0.500000 1.000000
vt -0.000000 1.000000
vt -0.000000 0.619048
vt 0.500000 0.595238
vt 0.500000 0.619048
vt -0.000000 0.619048
vt 0.500000 0.595238
vt 0.500000 0.619048
vt 0.500000 0.595238
vt 0.500000 0.619048
vt 0.500000 0.404762
vt 0.031250 0.428571
vt -0.000000 0.404762
vt -0.000000 0.619048
vt 0.500000 0.595238
vt 0.500000 0.619048
vt 0.500000 0.404762
vt 0.031250 0.428571
vt -0.000000 0.404762
vt 0.500000 0.380952
vt 0.500000 0.380952
vt -0.000000 0.404762
vt -0.000000 0.380952
vt 0.500000 0.380952
vt -0.000000 0.404762
vt -0.000000 0.380952
vt 0.500000 0.380952
vt -0.000000 0.380952
vt 0.468750 0.428571
vt 0.031250 0.571429
vt 0.031250 0.428571
vt 0.500000 0.404762
vt 0.031250 0.428571
vt 0.531250 0.500000
vt 0.625000 0.476190
vt 0.625000 0.500000
vt 0.625000 0.571429
vt 0.531250 0.595238
vt 0.531250 0.571429
vt 0.468750 0.428571
vt 0.031250 0.571429
vt 0.468750 0.428571
vt 0.031250 0.571429
vt 0.500000 0.404762
vt 0.500000 0.500000
vt 0.656250 0.571429
vt 0.812500 0.238095
vt 0.781250 0.285714
vt 0.781250 0.238095
vt 0.531250 0.023810
vt 0.718750 0.166667
vt 0.531250 0.166667
vt 0.750000 0.166667
vt 0.718750 0.023810
vt 0.750000 0.023810
vt 0.500000 0.023810
vt 0.500000 0.166667
vt 0.718750 0.000000
vt 0.531250 0.000000
vt 0.531250 0.190476
vt 0.718750 0.190476
vt 0.718750 0.357143
vt 0.781250 0.404762
vt 0.718750 0.404762
vt 0.718750 0.333333
vt 0.765625 0.321429
vt 0.781250 0.333333
vt 1.000000 0.023810
vt 1.000000 0.166667
vt 0.937500 0.142857
vt 0.937500 -0.000000
vt 0.812500 0.023810
vt 0.812500 -0.000000
vt 0.812500 0.190476
vt 0.937500 0.166667
vt 0.937500 0.190476
vt 0.812500 0.047619
vt 0.812500 0.142857
vt 0.937500 0.023810
vt 0.812500 0.166667
vt 0.750000 0.166667
vt 0.750000 0.023810
vt 0.906250 0.333333
vt 0.843750 0.357143
vt 0.843750 0.333333
vt 0.968750 0.333333
vt 0.906250 0.357143
vt 0.781250 0.357143
vt 0.921875 0.285714
vt 0.937500 0.190476
vt 0.937500 0.285714
vt 0.890625 0.321429
vt 0.953125 0.321429
vt 0.828125 0.321429
vt 0.859375 0.321429
vt 0.875000 0.285714
vt 0.796875 0.321429
vt 0.812500 0.285714
vt 0.734375 0.321429
vt 0.750000 0.285714
vt 0.921875 0.321429
vt 0.937500 0.285714
vt 0.890625 0.285714
vt 0.921875 0.190476
vt 0.968750 0.190476
vt 0.968750 0.285714
vt 0.875000 0.285714
vt 0.890625 0.190476
vt 0.625000 0.238095
vt 0.687500 0.285714
vt 0.625000 0.285714
vt 0.718750 0.309524
vt 0.687500 0.285714
vt 0.718750 0.285714
vt 0.687500 0.190476
vt 0.687500 0.238095
vt 0.812500 0.238095
vt 0.875000 0.190476
vt 0.875000 0.238095
vt 0.750000 0.190476
vt 0.750000 0.238095
vt 0.812500 0.190476
vt 0.718750 0.309524
vt 0.687500 0.285714
vt 0.718750 0.285714
vt 0.812500 0.238095
vt 0.781250 0.285714
vt 0.781250 0.238095
vt 0.750000 0.238095
vt 0.718750 0.238095
vt 0.750000 0.285714
vt 0.687500 0.238095
vt 0.750000 0.238095
vt 0.718750 0.238095
vt 0.750000 0.285714
vt 0.687500 0.238095
vt 0.625000 0.500000
vt 0.531250 0.571429
vt 0.531250 0.500000
vt 0.468750 0.428571
vt 0.031250 0.571429
vt 0.656250 0.571429
vt 0.625000 0.571429
vt 0.500000 0.500000
vt 0.531250 0.595238
vt 0.625000 0.476190
vt -0.000000 0.595238
vt 0.468750 0.571429
vt -0.000000 0.595238
vt 0.468750 0.571429
vt -0.000000 0.595238
vt 0.468750 0.571429
vt -0.000000 0.595238
vt 0.468750 0.571429
vt 0.812500 0.380952
vt 0.937500 0.476190
vt 0.812500 0.476190
vt 0.937500 0.357143
vt 0.812500 0.357143
vt 0.812500 0.500000
vt 0.937500 0.500000
vt 0.968750 0.476190
vt 0.937500 0.380952
vt 0.968750 0.380952
vt 0.781250 0.380952
vt 0.781250 0.476190
vt 0.671875 0.285714
vt 0.656250 0.416667
vt 0.656250 0.285714
vt 0.656250 0.452381
vt 0.687500 0.523810
vt 0.656250 0.523810
vt 0.687500 0.452381
vt 0.718750 0.523810
vt 0.750000 0.452320
vt 0.718831 0.428571
vt 0.750000 0.404823
vt 0.718750 0.452381
vt 0.750000 0.523810
vt 0.750000 0.452381
vt 0.781250 0.523810
vt 0.772040 0.445364
vt 0.750000 0.452320
vt 0.727960 0.445364
vt 0.687500 0.285714
vt 0.671875 0.416667
vt 0.640625 0.285714
vt 0.625000 0.416667
vt 0.625000 0.285714
vt 0.640625 0.416667
vt 0.640625 0.428571
vt 0.625000 0.428571
vt 0.562500 0.476190
vt 0.593750 0.452381
vt 0.593750 0.476190
vt 0.500000 0.452381
vt 0.531250 0.476190
vt 0.500000 0.476190
vt 0.593750 0.261905
vt 0.625000 0.404762
vt 0.593750 0.404762
vt 0.593750 0.190476
vt 0.625000 0.214286
vt 0.593750 0.214286
vt 0.562500 0.238095
vt 0.531250 0.190476
vt 0.562500 0.190476
vt 0.500000 0.404762
vt 0.531250 0.238095
vt 0.531250 0.428571
vt 0.625000 0.476190
vt 0.500000 0.214286
vt 0.500000 0.190476
vt 0.562500 0.428571
vt 0.562500 0.476190
vt 0.593750 0.452381
vt 0.593750 0.476190
vt 0.500000 0.452381
vt 0.531250 0.476190
vt 0.500000 0.476190
vt 0.593750 0.261905
vt 0.625000 0.404762
vt 0.593750 0.404762
vt 0.593750 0.190476
vt 0.625000 0.214286
vt 0.593750 0.214286
vt 0.562500 0.238095
vt 0.531250 0.190476
vt 0.562500 0.190476
vt 0.500000 0.404762
vt 0.531250 0.238095
vt 0.531250 0.428571
vt 0.625000 0.476190
vt 0.500000 0.214286
vt 0.500000 0.190476
vt 0.562500 0.428571
vt 0.531250 0.500000
vt 0.625000 0.476190
vt 0.625000 0.500000
vt 0.625000 0.571429
vt 0.531250 0.595238
vt 0.531250 0.571429
vt 0.500000 0.500000
vt 0.656250 0.571429
vt 0.625000 0.500000
vt 0.531250 0.571429
vt 0.531250 0.500000
vt 0.656250 0.571429
vt 0.625000 0.571429
vt 0.500000 0.500000
vt 0.531250 0.595238
vt 0.531250 0.476190
vt 0.625000 0.476190
vt 0.625000 0.500000
vt 0.531250 0.476190
vt 0.625000 0.476190
vt 0.625000 0.571429
vt 0.531250 0.595238
vt 0.531250 0.571429
vt 0.500000 0.500000
vt 0.531250 0.500000
vt 0.656250 0.571429
vt 0.625000 0.500000
vt 0.531250 0.571429
vt 0.531250 0.500000
vt 0.656250 0.571429
vt 0.625000 0.571429
vt 0.500000 0.500000
vt 0.531250 0.595238
vt 0.625000 0.476190
vt 0.531250 0.500000
vt 0.625000 0.476190
vt 0.625000 0.500000
vt 0.625000 0.571429
vt 0.531250 0.595238
vt 0.531250 0.571429
vt 0.500000 0.500000
vt 0.656250 0.571429
vt 0.625000 0.500000
vt 0.531250 0.571429
vt 0.531250 0.500000
vt 0.656250 0.571429
vt 0.625000 0.571429
vt 0.500000 0.500000
vt 0.531250 0.595238
vt 0.625000 0.476190
vt 0.531250 0.476190
vt 0.625000 0.595238
vt 0.500000 0.571429
vt 0.656250 0.500000
vt 0.812500 0.285714
vt 0.968750 0.166667
vt 0.937500 0.047619
vt 0.968750 0.023810
vt 0.781250 0.023810
vt 0.781250 0.166667
vt 0.968750 0.357143
vt 0.875000 0.190476
vt 0.687500 0.309524
vt 0.625000 0.190476
vt 0.687500 0.309524
vt 0.812500 0.285714
vt 0.656250 0.500000
vt 0.500000 0.571429
vt 0.625000 0.595238
vt 0.531250 0.476190
vt 0.772040 0.411779
vt 0.781169 0.428571
vt 0.772040 0.445364
vt 0.727960 0.445364
vt 0.727960 0.411779
vt 0.781250 0.452381
vt 0.718831 0.428571
vt 0.727960 0.411779
vt 0.750000 0.404823
vt 0.772040 0.411779
vt 0.781169 0.428571
vt 0.687500 0.416667
vt 0.625000 0.261905
vt 0.625000 0.190476
vt 0.500000 0.261905
vt 0.625000 0.452381
vt 0.625000 0.261905
vt 0.625000 0.190476
vt 0.500000 0.261905
vt 0.625000 0.452381
vt 0.531250 0.476190
vt 0.625000 0.595238
vt 0.500000 0.571429
vt 0.656250 0.500000
vt 0.656250 0.500000
vt 0.500000 0.571429
vt 0.625000 0.595238
vt 0.625000 0.595238
vt 0.500000 0.571429
vt 0.656250 0.500000
vt 0.656250 0.500000
vt 0.500000 0.571429
vt 0.625000 0.595238
vt 0.531250 0.476190
vt 0.531250 0.476190
vt 0.625000 0.595238
vt 0.500000 0.571429
vt 0.656250 0.500000
vt 0.656250 0.500000
vt 0.500000 0.571429
vt 0.625000 0.595238
vt 0.531250 0.476190
vn 0.0000 -1.0000 0.0000
vn 0.0000 1.0000 0.0000
vn 0.0000 0.0000 -1.0000
vn -1.0000 0.0000 0.0000
vn 1.0000 0.0000 0.0000
vn 0.0000 0.0000 1.0000
vn 0.7071 0.7071 0.0000
vn -0.7071 0.7071 0.0000
vn -0.9487 -0.3162 0.0000
vn 0.0000 -0.3162 -0.9487
vn 0.9487 -0.3162 0.0000
vn 0.0000 -0.3162 0.9487
vn 0.0000 0.3827 0.9239
vn 0.0000 0.9239 0.3827
vn 0.0000 0.9239 -0.3827
vn 0.0000 0.3827 -0.9239
s off
f 2/2/1 1/3/1 3/1/1 4/24/1
f 7/5/2 5/6/2 6/4/2 8/14/2
f 9/8/3 7/9/3 8/7/3 12/151/3
f 10/11/4 5/12/4 7/10/4 9/157/4
f 12/13/5 8/14/5 6/4/5 11/153/5
f 100/16/2 15/17/2 16/15/2 101/144/2
f 11/19/6 6/20/6 5/18/6 10/155/6
f 99/22/2 14/23/2 15/21/2 100/46/2
f 15/17/5 2/2/5 4/24/5 16/15/5
f 13/26/4 3/27/4 1/25/4 14/48/4
f 16/29/3 4/30/3 3/28/3 13/36/3
f 14/23/6 1/32/6 2/31/6 15/21/6
f 102/34/4 98/35/4 99/33/4 103/158/4
f 101/37/2 16/29/2 13/36/2 98/44/2
f 20/39/1 22/40/1 24/38/1 19/291/1
f 18/42/2 23/43/2 21/41/2 17/292/2
f 105/45/3 101/37/3 98/44/3 102/152/3
f 103/47/6 99/22/6 100/46/6 104/156/6
f 98/35/2 13/26/2 14/48/2 99/33/2
f 19/49/6 24/38/6 23/43/6 18/293/6
f 17/50/3 21/41/3 22/40/3 20/294/3
f 23/43/5 24/38/5 22/40/5 21/41/5
f 89/52/3 85/53/3 84/51/3 86/295/3
f 29/55/2 30/56/2 31/54/2 32/58/2
f 32/58/3 28/59/3 27/57/3 29/55/3
f 30/56/6 25/61/6 26/60/6 31/54/6
f 31/54/5 26/63/5 28/62/5 32/58/5
f 29/55/4 27/65/4 25/64/4 30/56/4
f 51/67/2 49/68/2 50/66/2 52/92/2
f 56/70/1 48/71/1 46/69/1 54/103/1
f 41/74/3 36/72/3 35/73/3 37/296/3
f 39/76/5 34/77/5 36/75/5 40/83/5
f 37/79/4 35/80/4 33/78/4 38/84/4
f 41/74/2 42/82/2 43/81/2 44/297/2
f 50/66/5 46/69/5 48/71/5 52/92/5
f 43/81/7 39/76/7 40/83/7 44/297/7
f 41/74/8 37/79/8 38/84/8 42/82/8
f 43/81/6 33/85/6 34/86/6 39/299/6
f 51/88/4 47/89/4 45/87/4 49/91/4
f 49/91/6 45/87/6 46/90/6 50/301/6
f 52/92/3 48/71/3 47/89/3 51/88/3
f 62/94/4 58/95/4 60/93/4 64/108/4
f 53/96/1 45/87/1 47/89/1 55/99/1
f 54/97/1 46/90/1 45/87/1 53/105/1
f 55/98/1 47/89/1 48/71/1 56/101/1
f 53/96/9 55/99/9 57/100/9
f 55/98/10 56/101/10 57/102/10
f 56/70/11 54/103/11 57/104/11
f 54/97/12 53/105/12 57/106/12
f 64/108/2 60/93/2 61/107/2 65/112/2
f 63/109/1 59/110/1 58/95/1 62/94/1
f 65/112/5 61/107/5 59/111/5 63/302/5
f 68/114/2 66/115/2 67/113/2 69/120/2
f 86/117/2 87/118/2 88/116/2 89/303/2
f 73/119/5 69/120/5 67/113/5 71/304/5
f 71/122/6 67/123/6 66/121/6 70/126/6
f 72/124/3 68/125/3 69/120/3 73/119/3
f 70/126/4 66/121/4 68/125/4 72/124/4
f 78/128/2 79/129/2 80/127/2 81/305/2
f 81/131/3 77/132/3 76/130/3 78/306/3
f 79/129/6 74/134/6 75/133/6 80/135/6
f 80/135/5 75/133/5 77/132/5 81/131/5
f 78/128/4 76/136/4 74/134/4 79/129/4
f 87/118/6 82/138/6 83/137/6 88/139/6
f 88/139/5 83/137/5 85/53/5 89/52/5
f 86/117/4 84/140/4 82/138/4 87/118/4
f 91/142/5 90/143/5 92/141/5 93/147/5
f 104/145/5 100/16/5 101/144/5 105/154/5
f 97/146/3 93/147/3 92/141/3 94/307/3
f 95/148/6 90/143/6 91/142/6 96/308/6
f 96/149/2 91/142/2 93/147/2 97/309/2
f 94/150/1 92/141/1 90/143/1 95/310/1
f 102/152/1 9/8/1 12/151/1 105/45/1
f 105/154/1 12/13/1 11/153/1 104/145/1
f 104/156/1 11/19/1 10/155/1 103/47/1
f 103/158/1 10/11/1 9/157/1 102/34/1
f 110/160/2 111/161/2 112/159/2 113/167/2
f 112/159/5 107/163/5 109/162/5 113/167/5
f 110/160/4 108/165/4 106/164/4 111/161/4
f 113/167/3 109/168/3 108/166/3 110/160/3
f 111/161/6 106/170/6 107/169/6 112/159/6
f 135/172/2 115/173/2 114/171/2 134/190/2
f 126/175/13 124/176/13 125/174/13 127/177/13
f 128/178/14 126/175/14 127/177/14 129/182/14
f 125/180/5 121/181/5 129/179/5 127/314/5
f 130/183/15 128/178/15 129/182/15 131/184/15
f 116/185/16 130/183/16 131/184/16 117/316/16
f 126/186/4 128/187/4 130/188/4 124/321/4
f 134/190/5 114/171/5 132/189/5 136/322/5
f 136/192/1 132/193/1 133/191/1 137/194/1
f 137/194/4 133/191/4 115/173/4 135/172/4
f 135/195/3 134/196/3 136/192/3 137/194/3
f 145/198/5 143/199/5 141/197/5 139/218/5
f 149/201/4 151/202/4 153/200/4 147/214/4
f 153/204/1 145/205/1 144/203/1 152/323/1
f 152/207/3 144/208/3 142/206/3 150/324/3
f 148/210/6 140/211/6 138/209/6 146/213/6
f 146/213/4 147/214/4 153/212/4 152/325/4
f 151/215/6 143/199/6 145/198/6 153/326/6
f 152/216/4 150/217/4 148/210/4 146/213/4
f 147/214/3 139/218/3 141/197/3 149/201/3
f 146/213/2 138/209/2 139/218/2 147/214/2
f 145/205/5 139/218/5 138/209/5 144/203/5
f 144/208/5 138/209/5 140/211/5 142/206/5
f 161/220/5 159/221/5 157/219/5 155/240/5
f 165/223/4 167/224/4 169/222/4 163/236/4
f 169/226/1 161/227/1 160/225/1 168/327/1
f 168/229/3 160/230/3 158/228/3 166/328/3
f 164/232/6 156/233/6 154/231/6 162/235/6
f 162/235/4 163/236/4 169/234/4 168/329/4
f 167/237/6 159/221/6 161/220/6 169/330/6
f 168/238/4 166/239/4 164/232/4 162/235/4
f 163/236/3 155/240/3 157/219/3 165/223/3
f 162/235/2 154/231/2 155/240/2 163/236/2
f 161/227/5 155/240/5 154/231/5 160/225/5
f 160/230/5 154/231/5 156/233/5 158/228/5
f 173/242/1 175/243/1 177/241/1 172/331/1
f 171/245/2 176/246/2 174/244/2 170/332/2
f 172/247/4 177/241/4 176/246/4 171/333/4
f 170/248/5 174/244/5 175/243/5 173/334/5
f 176/246/6 177/241/6 175/243/6 174/244/6
f 179/250/6 178/251/6 180/249/6 181/253/6
f 185/252/5 181/253/5 180/249/5 182/335/5
f 183/254/4 178/251/4 179/250/4 184/336/4
f 184/255/2 179/250/2 181/253/2 185/337/2
f 183/256/1 182/257/1 180/249/1 178/251/1
f 188/259/1 189/260/1 191/258/1 193/265/1
f 187/262/2 192/263/2 190/261/2 186/338/2
f 188/264/5 193/265/5 192/263/5 187/339/5
f 186/266/4 190/261/4 191/258/4 189/340/4
f 192/263/3 193/265/3 191/258/3 190/261/3
f 195/268/3 194/269/3 196/267/3 197/271/3
f 201/270/4 197/271/4 196/267/4 198/341/4
f 199/272/5 194/269/5 195/268/5 200/342/5
f 200/273/2 195/268/2 197/271/2 201/343/2
f 198/274/1 196/267/1 194/269/1 199/344/1
f 205/276/1 207/277/1 209/275/1 204/345/1
f 203/279/2 208/280/2 206/278/2 202/346/2
f 204/281/3 209/275/3 208/280/3 203/347/3
f 202/282/6 206/278/6 207/277/6 205/348/6
f 208/280/4 209/275/4 207/277/4 206/278/4
f 211/284/4 210/285/4 212/283/4 213/287/4
f 217/286/6 213/287/6 212/283/6 214/349/6
f 215/288/3 210/285/3 211/284/3 216/350/3
f 216/289/2 211/284/2 213/287/2 217/351/2
f 214/290/1 212/283/1 210/285/1 215/352/1
f 36/72/3 41/74/3 44/297/3 40/298/3
f 33/85/6 43/81/6 42/82/6 38/300/6
f 121/181/5 119/311/5 117/312/5 129/179/5
f 117/312/5 131/313/5 129/179/5
f 125/180/5 123/315/5 121/181/5
f 130/188/4 116/317/4 118/318/4 120/319/4
f 130/188/4 120/319/4 122/320/4 124/321/4
