# Blender v2.79 (sub 0) OBJ File: 'uv_lamp.blend'
# www.blender.org
o On
v -0.093750 0.125000 0.187500
v 0.093750 0.125000 0.187500
v -0.093750 0.125000 -0.187500
v 0.093750 0.125000 -0.187500
v 0.187500 0.125000 0.093750
v 0.187500 0.125000 -0.093750
v -0.187500 0.125000 0.093750
v -0.187500 0.125000 -0.093750
v -0.093750 1.875000 0.187500
v 0.093750 1.875000 0.187500
v -0.093750 1.875000 -0.187500
v 0.093750 1.875000 -0.187500
v 0.187500 1.875000 0.093750
v 0.187500 1.875000 -0.093750
v -0.187500 1.875000 0.093750
v -0.187500 1.875000 -0.093750
vt 0.771429 0.848485
vt 0.685714 0.000000
vt 0.771429 0.000000
vt 0.685714 0.848485
vt 0.657143 0.000000
vt 0.685714 0.000000
vt 0.771429 0.848485
vt 0.771429 0.000000
vt 0.657143 0.848485
vt 0.657143 0.000000
vt 0.771429 0.848485
vt 0.685714 0.000000
vt 0.771429 0.000000
vt 0.771429 0.848485
vt 0.685714 0.000000
vt 0.771429 0.000000
vt 0.685714 0.848485
vt 0.657143 0.000000
vt 0.657143 0.848485
vt 0.657143 0.000000
vt 0.685714 0.848485
vt 0.657143 0.848485
vt 0.685714 0.848485
vt 0.657143 0.848485
vn 0.0000 0.0000 1.0000
vn 0.7071 0.0000 0.7071
vn 1.0000 0.0000 0.0000
vn -0.7071 0.0000 0.7071
vn 0.0000 0.0000 -1.0000
vn -1.0000 0.0000 0.0000
vn -0.7071 0.0000 -0.7071
vn 0.7071 0.0000 -0.7071
s off
f 1/2/1 2/3/1 10/1/1 9/21/1
f 2/5/2 5/6/2 13/4/2 10/22/2
f 5/6/3 6/8/3 14/7/3 13/4/3
f 15/9/4 7/10/4 1/2/4 9/21/4
f 4/12/5 3/13/5 11/11/5 12/23/5
f 8/15/6 7/16/6 15/14/6 16/17/6
f 3/18/7 8/15/7 16/17/7 11/24/7
f 14/19/8 6/20/8 4/12/8 12/23/8
o Off
v -0.093750 0.125000 0.187500
v 0.093750 0.125000 0.187500
v -0.093750 0.125000 -0.187500
v 0.093750 0.125000 -0.187500
v 0.187500 0.125000 0.093750
v 0.187500 0.125000 -0.093750
v -0.187500 0.125000 0.093750
v -0.187500 0.125000 -0.093750
v -0.093750 1.875000 0.187500
v 0.093750 1.875000 0.187500
v -0.093750 1.875000 -0.187500
v 0.093750 1.875000 -0.187500
v 0.187500 1.875000 0.093750
v 0.187500 1.875000 -0.093750
v -0.187500 1.875000 0.093750
v -0.187500 1.875000 -0.093750
vt 0.657143 0.848485
vt 0.571429 -0.000000
vt 0.657143 -0.000000
vt 0.571429 0.848485
vt 0.542857 -0.000000
vt 0.571429 -0.000000
vt 0.657143 0.848485
vt 0.657143 -0.000000
vt 0.542857 0.848485
vt 0.542857 -0.000000
vt 0.657143 0.848485
vt 0.571429 -0.000000
vt 0.657143 -0.000000
vt 0.657143 0.848485
vt 0.571429 -0.000000
vt 0.657143 -0.000000
vt 0.571429 0.848485
vt 0.542857 -0.000000
vt 0.542857 0.848485
vt 0.542857 -0.000000
vt 0.571429 0.848485
vt 0.542857 0.848485
vt 0.571429 0.848485
vt 0.542857 0.848485
vn 0.0000 0.0000 1.0000
vn 0.7071 0.0000 0.7071
vn 1.0000 0.0000 0.0000
vn -0.7071 0.0000 0.7071
vn 0.0000 0.0000 -1.0000
vn -1.0000 0.0000 0.0000
vn -0.7071 0.0000 -0.7071
vn 0.7071 0.0000 -0.7071
s off
f 17/26/9 18/27/9 26/25/9 25/45/9
f 18/29/10 21/30/10 29/28/10 26/46/10
f 21/30/11 22/32/11 30/31/11 29/28/11
f 31/33/12 23/34/12 17/26/12 25/45/12
f 20/36/13 19/37/13 27/35/13 28/47/13
f 24/39/14 23/40/14 31/38/14 32/41/14
f 19/42/15 24/39/15 32/41/15 27/48/15
f 30/43/16 22/44/16 20/36/16 28/47/16
o UV
v -0.500000 0.000000 0.500000
v 0.500000 0.000000 0.500000
v -0.500000 0.000000 -0.500000
v 0.500000 0.000000 -0.500000
v -0.500000 0.062500 0.500000
v 0.500000 0.062500 0.500000
v -0.500000 0.062500 -0.500000
v 0.500000 0.062500 -0.500000
v -0.250000 0.062500 0.250000
v 0.250000 0.062500 0.250000
v -0.250000 0.062500 -0.250000
v 0.250000 0.062500 -0.250000
v -0.250000 0.125000 0.250000
v 0.250000 0.125000 0.250000
v -0.250000 0.125000 -0.250000
v 0.250000 0.125000 -0.250000
v -0.093750 0.125000 0.093750
v 0.093750 0.125000 0.093750
v -0.093750 0.125000 -0.093750
v 0.093750 0.125000 -0.093750
v -0.093750 1.875000 0.093750
v 0.093750 1.875000 0.093750
v -0.093750 1.875000 -0.093750
v 0.093750 1.875000 -0.093750
v -0.250000 1.875000 0.250000
v 0.250000 1.875000 0.250000
v -0.250000 1.875000 -0.250000
v 0.250000 1.875000 -0.250000
v -0.250000 1.937500 0.250000
v 0.250000 1.937500 0.250000
v -0.250000 1.937500 -0.250000
v 0.250000 1.937500 -0.250000
v -0.187500 2.000000 -0.187500
v -0.187500 2.000000 0.187500
v 0.187500 2.000000 0.187500
v 0.187500 2.000000 -0.187500
vt 0.457143 -0.000000
vt -0.000000 0.484848
vt -0.000000 -0.000000
vt -0.000000 0.515152
vt 0.457143 1.000000
vt -0.000000 1.000000
vt 0.457143 0.484848
vt -0.000000 0.515152
vt 0.457143 0.484848
vt 0.457143 0.515152
vt -0.000000 0.515152
vt 0.457143 0.484848
vt 0.457143 0.515152
vt 0.457143 0.484848
vt -0.000000 0.515152
vt -0.000000 0.484848
vt 0.771429 0.515152
vt 1.000000 0.757576
vt 0.771429 0.757576
vt 0.771429 0.515152
vt 1.000000 0.484848
vt 1.000000 0.515152
vt 1.000000 0.484848
vt 0.771429 0.515152
vt 0.771429 0.484848
vt 1.000000 0.484848
vt 0.771429 0.484848
vt 0.771429 0.515152
vt 1.000000 0.484848
vt 1.000000 0.515152
vt 0.542857 0.848485
vt 0.457143 -0.000000
vt 0.542857 -0.000000
vt 0.542857 0.848485
vt 0.457143 -0.000000
vt 0.542857 -0.000000
vt 0.542857 0.848485
vt 0.457143 -0.000000
vt 0.542857 -0.000000
vt 0.542857 0.848485
vt 0.457143 -0.000000
vt 0.542857 -0.000000
vt 1.000000 -0.000000
vt 0.771429 0.242424
vt 0.771429 0.000000
vt 1.000000 0.272727
vt 0.800000 0.303030
vt 0.771429 0.272727
vt 1.000000 0.242424
vt 0.771429 0.272727
vt 0.771429 0.242424
vt 1.000000 0.242424
vt 0.771429 0.272727
vt 0.771429 0.242424
vt 1.000000 0.242424
vt 0.771429 0.272727
vt 1.000000 0.242424
vt 0.771429 0.242424
vt 0.800000 0.303030
vt 0.971429 0.484848
vt 0.800000 0.484848
vt 1.000000 0.272727
vt 0.800000 0.303030
vt 1.000000 0.272727
vt 0.800000 0.303030
vt 1.000000 0.272727
vt 0.457143 0.515152
vt -0.000000 0.484848
vt -0.000000 0.484848
vt 0.457143 0.515152
vt 1.000000 0.515152
vt 0.771429 0.484848
vt 1.000000 0.515152
vt 0.771429 0.484848
vt 0.457143 0.848485
vt 0.457143 0.848485
vt 0.457143 0.848485
vt 0.457143 0.848485
vt 0.971429 0.303030
vt 0.971429 0.303030
vt 0.971429 0.303030
vt 0.971429 0.303030
vn 0.0000 -1.0000 0.0000
vn 0.0000 1.0000 0.0000
vn 1.0000 0.0000 0.0000
vn -1.0000 0.0000 0.0000
vn 0.0000 0.0000 -1.0000
vn 0.0000 0.0000 1.0000
vn -0.7071 0.7071 0.0000
vn 0.0000 0.7071 -0.7071
vn 0.0000 0.7071 0.7071
vn 0.7071 0.7071 0.0000
s off
f 34/50/17 33/51/17 35/49/17 36/55/17
f 39/53/18 37/54/18 38/52/18 40/115/18
f 38/52/19 34/50/19 36/55/19 40/115/19
f 39/57/20 35/58/20 33/56/20 37/116/20
f 40/60/21 36/61/21 35/59/21 39/117/21
f 37/63/22 33/64/22 34/62/22 38/118/22
f 47/66/18 45/67/18 46/65/18 48/119/18
f 48/69/21 44/70/21 43/68/21 47/120/21
f 45/72/22 41/73/22 42/71/22 46/121/22
f 46/65/19 42/75/19 44/74/19 48/119/19
f 47/77/20 43/78/20 41/76/20 45/122/20
f 51/80/20 49/81/20 53/79/20 55/123/20
f 49/83/22 50/84/22 54/82/22 53/124/22
f 50/86/19 52/87/19 56/85/19 54/125/19
f 52/89/21 51/90/21 55/88/21 56/126/21
f 58/92/17 57/93/17 59/91/17 60/103/17
f 65/95/23 63/96/23 61/94/23 66/127/23
f 64/98/21 60/99/21 59/97/21 63/110/21
f 61/101/22 57/102/22 58/100/22 62/112/22
f 62/104/19 58/92/19 60/103/19 64/114/19
f 63/96/20 59/106/20 57/105/20 61/94/20
f 65/108/18 66/109/18 67/107/18 68/128/18
f 68/111/24 64/98/24 63/110/24 65/129/24
f 66/113/25 61/101/25 62/112/25 67/130/25
f 67/107/26 62/104/26 64/114/26 68/128/26
