# Blender v2.76 (sub 0) OBJ File: 'core_emitter.blend'
# www.blender.org
o Cube_Cube.001
v -0.500000 0.000000 0.500000
v -0.500000 1.000000 0.500000
v -0.500000 0.000000 -0.500000
v -0.500000 1.000000 -0.500000
v 0.500000 0.000000 0.500000
v 0.500000 1.000000 0.500000
v 0.500000 0.000000 -0.500000
v 0.500000 1.000000 -0.500000
v -0.500000 0.343750 0.156250
v -0.500000 0.656250 0.156250
v -0.500000 0.343750 -0.156250
v -0.500000 0.656250 -0.156250
v 0.500000 0.343750 0.156250
v 0.500000 0.656250 0.156250
v 0.500000 0.343750 -0.156250
v 0.500000 0.656250 -0.156250
v -0.156250 0.343750 -0.500000
v -0.156250 0.656250 -0.500000
v 0.156250 0.343750 -0.500000
v 0.156250 0.656250 -0.500000
v -0.156250 0.000000 0.156250
v -0.156250 1.000000 0.156250
v -0.156250 0.000000 -0.156250
v -0.156250 1.000000 -0.156250
v 0.156250 0.000000 0.156250
v 0.156250 1.000000 0.156250
v 0.156250 0.000000 -0.156250
v 0.156250 1.000000 -0.156250
v -0.500000 0.125000 0.375000
v -0.500000 0.875000 0.375000
v -0.500000 0.125000 -0.375000
v -0.500000 0.875000 -0.375000
v 0.500000 0.125000 0.375000
v 0.500000 0.875000 0.375000
v 0.500000 0.125000 -0.375000
v 0.500000 0.875000 -0.375000
v -0.375000 0.125000 0.500000
v -0.375000 0.875000 0.500000
v -0.375000 0.125000 -0.500000
v -0.375000 0.875000 -0.500000
v 0.375000 0.125000 0.500000
v 0.375000 0.875000 0.500000
v 0.375000 0.125000 -0.500000
v 0.375000 0.875000 -0.500000
v -0.375000 0.000000 0.375000
v -0.375000 1.000000 0.375000
v -0.375000 0.000000 -0.375000
v -0.375000 1.000000 -0.375000
v 0.375000 0.000000 0.375000
v 0.375000 1.000000 0.375000
v 0.375000 0.000000 -0.375000
v 0.375000 1.000000 -0.375000
v -0.500000 0.343750 0.156250
v -0.500000 0.656250 0.156250
v -0.500000 0.343750 -0.156250
v -0.500000 0.656250 -0.156250
v 0.500000 0.343750 0.156250
v 0.500000 0.656250 0.156250
v 0.500000 0.343750 -0.156250
v 0.500000 0.656250 -0.156250
v -0.156250 0.343750 0.375000
v -0.156250 0.656250 0.375000
v -0.156250 0.343750 -0.375000
v -0.156250 0.656250 -0.375000
v 0.156250 0.343750 0.375000
v 0.156250 0.656250 0.375000
v 0.156250 0.343750 -0.375000
v 0.156250 0.656250 -0.375000
v -0.156250 0.000000 0.156250
v -0.156250 1.000000 0.156250
v -0.156250 0.000000 -0.156250
v -0.156250 1.000000 -0.156250
v 0.156250 0.000000 0.156250
v 0.156250 1.000000 0.156250
v 0.156250 0.000000 -0.156250
v 0.156250 1.000000 -0.156250
v -0.156250 0.125000 0.156250
v -0.156250 0.875000 0.156250
v -0.156250 0.125000 -0.156250
v -0.156250 0.875000 -0.156250
v 0.156250 0.125000 0.156250
v 0.156250 0.875000 0.156250
v 0.156250 0.125000 -0.156250
v 0.156250 0.875000 -0.156250
v -0.375000 0.343750 0.156250
v -0.375000 0.656250 0.156250
v -0.375000 0.343750 -0.156250
v -0.375000 0.656250 -0.156250
v 0.375000 0.343750 0.156250
v 0.375000 0.656250 0.156250
v 0.375000 0.343750 -0.156250
v 0.375000 0.656250 -0.156250
v -0.375000 0.125000 0.375000
v -0.375000 0.125000 -0.375000
v 0.375000 0.125000 0.375000
v 0.375000 0.125000 -0.375000
v -0.375000 0.875000 0.375000
v -0.375000 0.875000 -0.375000
v 0.375000 0.875000 0.375000
v 0.375000 0.875000 -0.375000
v 0.000000 0.750000 0.375000
v -0.095671 0.730970 0.375000
v -0.176777 0.676777 0.375000
v -0.230970 0.595671 0.375000
v -0.250000 0.500000 0.375000
v -0.230970 0.404329 0.375000
v -0.176777 0.323223 0.375000
v -0.095671 0.269030 0.375000
v -0.000000 0.250000 0.375000
v 0.095671 0.269030 0.375000
v 0.176777 0.323223 0.375000
v 0.230970 0.404329 0.375000
v 0.250000 0.500000 0.375000
v 0.230970 0.595671 0.375000
v 0.176777 0.676777 0.375000
v 0.095671 0.730970 0.375000
v 0.000000 0.875000 0.375000
v -0.143506 0.846455 0.375000
v -0.265165 0.765165 0.375000
v -0.346455 0.643506 0.375000
v -0.375000 0.500000 0.375000
v -0.346455 0.356494 0.375000
v -0.265165 0.234835 0.375000
v -0.143506 0.153545 0.375000
v -0.000000 0.125000 0.375000
v 0.143506 0.153545 0.375000
v 0.265165 0.234835 0.375000
v 0.346455 0.356494 0.375000
v 0.375000 0.500000 0.375000
v 0.346455 0.643506 0.375000
v 0.265165 0.765165 0.375000
v 0.143506 0.846455 0.375000
v -0.095671 0.730970 0.625000
v 0.000000 0.750000 0.625000
v -0.176777 0.676777 0.625000
v -0.230970 0.595671 0.625000
v -0.250000 0.500000 0.625000
v -0.230970 0.404329 0.625000
v -0.176777 0.323223 0.625000
v -0.095671 0.269030 0.625000
v -0.000000 0.250000 0.625000
v 0.095671 0.269030 0.625000
v 0.176777 0.323223 0.625000
v 0.230970 0.404329 0.625000
v 0.250000 0.500000 0.625000
v 0.230970 0.595671 0.625000
v 0.176777 0.676777 0.625000
v 0.095671 0.730970 0.625000
v -0.143506 0.846455 0.625000
v 0.000000 0.875000 0.625000
v -0.265165 0.765165 0.625000
v -0.346455 0.643506 0.625000
v -0.375000 0.500000 0.625000
v -0.346455 0.356494 0.625000
v -0.265165 0.234835 0.625000
v -0.143506 0.153545 0.625000
v -0.000000 0.125000 0.625000
v 0.143506 0.153545 0.625000
v 0.265165 0.234835 0.625000
v 0.346455 0.356494 0.625000
v 0.375000 0.500000 0.625000
v 0.346455 0.643506 0.625000
v 0.265165 0.765165 0.625000
v 0.143506 0.846455 0.625000
v 0.000000 0.625000 0.375000
v -0.088388 0.588388 0.375000
v -0.125000 0.500000 0.375000
v -0.088388 0.411612 0.375000
v 0.000000 0.375000 0.375000
v 0.088388 0.411612 0.375000
v 0.125000 0.500000 0.375000
v 0.088388 0.588388 0.375000
v -0.088388 0.588388 1.000000
v 0.000000 0.625000 1.000000
v -0.125000 0.500000 1.000000
v -0.088388 0.411612 1.000000
v 0.000000 0.375000 1.000000
v 0.088388 0.411612 1.000000
v 0.125000 0.500000 1.000000
v 0.088388 0.588388 1.000000
v -0.088388 0.588388 0.375000
v -0.088388 0.411612 0.375000
v 0.088388 0.411612 0.375000
v 0.088388 0.588388 0.375000
v -0.088388 0.588388 0.625000
v -0.088388 0.411612 0.625000
v 0.088388 0.411612 0.625000
v 0.088388 0.588388 0.625000
v -0.156250 0.343750 -0.500000
v -0.156250 0.656250 -0.500000
v 0.156250 0.343750 -0.500000
v 0.156250 0.656250 -0.500000
v -0.500000 0.125000 0.375000
v -0.500000 0.875000 0.375000
v -0.500000 0.125000 -0.375000
v -0.500000 0.875000 -0.375000
v 0.500000 0.125000 0.375000
v 0.500000 0.875000 0.375000
v 0.500000 0.125000 -0.375000
v 0.500000 0.875000 -0.375000
v -0.375000 0.125000 -0.500000
v -0.375000 0.875000 -0.500000
v 0.375000 0.125000 -0.500000
v 0.375000 0.875000 -0.500000
v -0.375000 0.000000 0.375000
v -0.375000 1.000000 0.375000
v -0.375000 0.000000 -0.375000
v -0.375000 1.000000 -0.375000
v 0.375000 0.000000 0.375000
v 0.375000 1.000000 0.375000
v 0.375000 0.000000 -0.375000
v 0.375000 1.000000 -0.375000
v -0.500000 0.343750 0.156250
v -0.500000 0.656250 0.156250
v -0.500000 0.343750 -0.156250
v -0.500000 0.656250 -0.156250
v 0.500000 0.343750 0.156250
v 0.500000 0.656250 0.156250
v 0.500000 0.343750 -0.156250
v 0.500000 0.656250 -0.156250
v -0.156250 0.343750 -0.375000
v -0.156250 0.656250 -0.375000
v 0.156250 0.343750 -0.375000
v 0.156250 0.656250 -0.375000
v -0.156250 0.000000 0.156250
v -0.156250 1.000000 0.156250
v -0.156250 0.000000 -0.156250
v -0.156250 1.000000 -0.156250
v 0.156250 0.000000 0.156250
v 0.156250 1.000000 0.156250
v 0.156250 0.000000 -0.156250
v 0.156250 1.000000 -0.156250
v -0.156250 0.125000 0.156250
v -0.156250 0.875000 0.156250
v -0.156250 0.125000 -0.156250
v -0.156250 0.875000 -0.156250
v 0.156250 0.125000 0.156250
v 0.156250 0.875000 0.156250
v 0.156250 0.125000 -0.156250
v 0.156250 0.875000 -0.156250
v -0.375000 0.343750 0.156250
v -0.375000 0.656250 0.156250
v -0.375000 0.343750 -0.156250
v -0.375000 0.656250 -0.156250
v 0.375000 0.343750 0.156250
v 0.375000 0.656250 0.156250
v 0.375000 0.343750 -0.156250
v 0.375000 0.656250 -0.156250
v -0.375000 0.125000 0.375000
v -0.375000 0.125000 -0.375000
v 0.375000 0.125000 0.375000
v 0.375000 0.125000 -0.375000
v -0.375000 0.875000 0.375000
v -0.375000 0.875000 -0.375000
v 0.375000 0.875000 0.375000
v 0.375000 0.875000 -0.375000
v -0.176777 0.676777 0.375000
v -0.176777 0.323223 0.375000
v 0.176777 0.323223 0.375000
v 0.176777 0.676777 0.375000
v -0.176777 0.676777 0.625000
v -0.176777 0.323223 0.625000
v 0.176777 0.323223 0.625000
v 0.176777 0.676777 0.625000
v -0.088388 0.588388 0.375000
v -0.088388 0.411612 0.375000
v 0.088388 0.411612 0.375000
v 0.088388 0.588388 0.375000
v -0.088388 0.588388 0.625000
v -0.088388 0.411612 0.625000
v 0.088388 0.411612 0.625000
v 0.088388 0.588388 0.625000
vt 0.500000 0.500000
vt 0.437500 0.437500
vt 0.437500 0.062500
vt 0.062500 0.062500
vt 0.000000 0.000000
vt 0.500000 0.000000
vt 0.312500 0.687500
vt 0.468750 0.687500
vt 0.468750 0.843750
vt 0.312500 0.843750
vt 0.562500 0.218750
vt 0.562500 0.062500
vt 0.718750 0.062500
vt 0.718750 0.218750
vt 0.781250 0.062500
vt 0.781250 0.218750
vt 0.718750 0.281250
vt 0.562500 0.281250
vt 0.062500 0.437500
vt 0.000000 0.500000
vt 0.562500 0.000000
vt 0.718750 0.000000
vt 0.500000 0.218750
vt 0.500000 0.062500
vt 0.781250 0.281250
vt 0.625000 0.437500
vt 0.625000 0.281250
vt 0.062500 0.625000
vt 0.062500 0.562500
vt 0.437500 0.562500
vt 0.062500 0.500000
vt 0.437500 0.500000
vt 0.437500 0.625000
vt 0.281250 0.125000
vt 0.281250 0.062500
vt 0.343750 0.093750
vt 0.218750 0.125000
vt 0.218750 0.062500
vt 0.187500 0.156250
vt 0.156250 0.093750
vt 0.312500 0.156250
vt 0.406250 0.156250
vt 0.343750 0.187500
vt 0.437500 0.218750
vt 0.375000 0.218750
vt 0.437500 0.281250
vt 0.375000 0.281250
vt 0.406250 0.343750
vt 0.343750 0.312500
vt 0.343750 0.406250
vt 0.281250 0.375000
vt 0.312500 0.343750
vt 0.281250 0.437500
vt 0.218750 0.437500
vt 0.218750 0.375000
vt 0.156250 0.406250
vt 0.156250 0.312500
vt 0.187500 0.343750
vt 0.093750 0.343750
vt 0.062500 0.281250
vt 0.125000 0.281250
vt 0.062500 0.218750
vt 0.125000 0.218750
vt 0.093750 0.156250
vt 0.156250 0.187500
vt 0.531250 0.437500
vt 0.531250 0.406250
vt 0.781250 -0.000000
vt 0.906250 0.000000
vt 0.906250 0.062500
vt 0.625000 0.781250
vt 0.531250 0.781250
vt 0.531250 0.750000
vt 0.781250 0.937500
vt 0.906250 0.937500
vt 0.906250 1.000000
vt 0.625000 0.750000
vt 0.531250 0.718750
vt 0.781250 0.875000
vt 0.906250 0.875000
vt 0.625000 0.718750
vt 0.531250 0.687500
vt 0.781250 0.812500
vt 0.906250 0.812500
vt 0.625000 0.687500
vt 0.531250 0.656250
vt 0.531250 0.593750
vt 0.625000 0.593750
vt 0.625000 0.625000
vt 0.781250 0.750000
vt 0.906250 0.750000
vt 0.531250 0.531250
vt 0.625000 0.531250
vt 0.625000 0.562500
vt 0.531250 0.625000
vt 0.625000 0.656250
vt 0.781250 0.687500
vt 0.906250 0.687500
vt 0.531250 0.562500
vt 0.625000 0.406250
vt 0.531250 0.375000
vt 0.781250 0.625000
vt 0.906250 0.625000
vt 0.781250 0.437500
vt 0.906250 0.437500
vt 0.906250 0.500000
vt 0.625000 0.375000
vt 0.531250 0.343750
vt 0.781250 0.562500
vt 0.906250 0.562500
vt 0.781250 0.375000
vt 0.906250 0.375000
vt 0.625000 0.343750
vt 0.531250 0.312500
vt 0.781250 0.500000
vt 0.781250 0.312500
vt 0.906250 0.312500
vt 0.625000 0.312500
vt 0.531250 0.281250
vt 0.781250 0.250000
vt 0.906250 0.250000
vt 0.531250 0.500000
vt 0.781250 0.187500
vt 0.906250 0.187500
vt 0.625000 0.500000
vt 0.531250 0.468750
vt 0.781250 0.125000
vt 0.906250 0.125000
vt 0.625000 0.468750
vt 0.312500 0.625000
vt 0.312500 0.656250
vt 0.281250 0.687500
vt 0.218750 0.625000
vt 0.218750 0.937500
vt 0.187500 0.937500
vt 0.156250 0.625000
vt 0.156250 0.937500
vt 0.125000 0.937500
vt 0.125000 0.625000
vt 0.093750 0.937500
vt 0.062500 0.937500
vt 0.031250 0.937500
vt 0.250000 0.625000
vt 0.250000 0.937500
vt 0.187500 0.625000
vt 0.093750 0.625000
vt 0.031250 0.625000
vt -0.000000 0.937500
vt 0.437500 0.843750
vt 0.437500 0.906250
vt 0.312500 0.906250
vt 0.468750 0.625000
vt 0.613025 0.561999
vt 0.781250 1.000000
vt 0.250000 0.687500
vt 0.250000 0.656250
vt 0.281250 0.625000
vt 0.000000 0.625000
vn 1.000000 0.000000 0.000000
vn 0.000000 0.000000 -1.000000
vn 0.000000 1.000000 0.000000
vn -1.000000 0.000000 0.000000
vn 0.000000 -1.000000 0.000000
vn 0.000000 0.000000 1.000000
vn 0.000000 0.707100 -0.707100
vn -0.707100 0.707100 0.000000
vn -0.707100 -0.707100 0.000000
vn 0.000000 -0.707100 -0.707100
vn 0.000000 -0.707100 0.707100
vn 0.000000 0.707100 0.707100
vn -0.707100 0.000000 -0.707100
vn -0.707100 0.000000 0.707100
vn 0.707100 0.000000 0.707100
vn 0.707100 -0.707100 0.000000
vn 0.707100 0.707100 0.000000
vn 0.707100 0.000000 -0.707100
vn 0.577400 0.577400 -0.577400
vn -0.577400 0.577400 -0.577400
vn -0.577400 -0.577400 -0.577400
vn 0.577400 -0.577400 -0.577400
vn 0.577400 -0.577400 0.577400
vn -0.577400 -0.577400 0.577400
vn -0.577400 0.577400 0.577400
vn 0.577400 0.577400 0.577400
vn -0.555600 0.831500 0.000000
vn -0.195100 -0.980800 0.000000
vn -0.831500 0.555600 0.000000
vn 0.195100 -0.980800 0.000000
vn -0.980800 0.195100 0.000000
vn 0.555600 -0.831500 0.000000
vn -0.980800 -0.195100 0.000000
vn 0.831500 -0.555600 0.000000
vn -0.831500 -0.555600 0.000000
vn 0.980800 -0.195100 0.000000
vn -0.555600 -0.831500 0.000000
vn 0.980800 0.195100 0.000000
vn 0.831500 0.555600 0.000000
vn -0.195100 0.980800 0.000000
vn 0.555600 0.831500 0.000000
vn 0.195100 0.980800 0.000000
vn -0.923900 -0.382700 0.000000
vn -0.382700 0.923900 0.000000
vn 0.382700 0.923900 0.000000
vn 0.923900 -0.382700 0.000000
vn -0.382700 -0.923900 0.000000
vn -0.923900 0.382700 0.000000
vn 0.923900 0.382700 0.000000
vn 0.382700 -0.923900 0.000000
s off
f 8/1/1 34/19/1 36/2/1 35/3/1
f 4/1/2 44/19/2 40/2/2 39/3/2
f 33/4/1 6/20/1 5/5/1 35/3/1
f 43/4/2 8/20/2 7/5/2 39/3/2
f 6/6/3 50/3/3 46/4/3
f 8/1/3 52/2/3 50/3/3 6/6/3
f 12/7/4 11/8/4 9/9/4 10/10/4
f 14/10/1 13/7/1 15/8/1 16/9/1
f 20/11/2 19/12/2 17/13/2 18/14/2
f 23/7/5 27/8/5 25/9/5 21/10/5
f 28/9/3 24/10/3 22/7/3 26/8/3
f 76/12/3 72/13/3 70/14/3 74/11/3
f 71/12/5 75/13/5 73/14/5 69/11/5
f 91/15/2 92/16/2 60/14/2 59/13/2
f 60/14/3 92/17/3 90/18/3 58/11/3
f 58/11/1 57/12/1 59/13/1 60/14/1
f 56/11/4 55/12/4 53/13/4 54/14/4
f 2/5/3 6/6/3 46/4/3 48/19/3
f 4/20/3 2/5/3 48/19/3 52/2/3
f 7/6/5 5/1/5 51/3/5 47/4/5
f 3/5/5 7/6/5 47/4/5 45/19/5
f 1/20/5 3/5/5 45/19/5 49/2/5
f 5/1/5 1/20/5 49/2/5 51/3/5
f 34/19/1 8/1/1 6/20/1 33/4/1
f 31/4/4 32/19/4 4/20/4
f 32/19/4 30/2/4 2/1/4 4/20/4
f 30/2/4 29/3/4 1/6/4 2/1/4
f 31/4/4 4/20/4 3/5/4 29/3/4
f 44/19/2 4/1/2 8/20/2 43/4/2
f 42/2/6 41/3/6 6/1/6 38/19/6
f 37/4/6 38/19/6 1/5/6 41/3/6
f 19/12/5 67/21/5 63/22/5 17/13/5
f 20/11/1 68/23/1 67/24/1 19/12/1
f 18/14/3 64/17/3 68/18/3 20/11/3
f 63/15/4 64/16/4 18/14/4 17/13/4
f 64/8/7 80/9/7 84/10/7 68/7/7
f 88/7/8 86/8/8 78/9/8 80/10/8
f 85/9/9 87/10/9 79/7/9 77/8/9
f 67/10/10 83/7/10 79/8/10 63/9/10
f 61/10/11 77/7/11 81/8/11 65/9/11
f 66/8/12 82/9/12 78/10/12 62/7/12
f 87/8/13 88/9/13 64/10/13 63/7/13
f 86/10/14 85/7/14 61/8/14 62/9/14
f 89/8/15 90/9/15 66/10/15 65/7/15
f 91/9/16 89/10/16 81/7/16 83/8/16
f 90/7/17 92/8/17 84/9/17 82/10/17
f 68/9/18 92/10/18 91/7/18 67/8/18
f 84/25/19 92/26/19 68/27/19
f 80/26/20 64/27/20 88/25/20
f 79/25/21 87/26/21 63/27/21
f 83/26/22 67/27/22 91/25/22
f 81/25/23 89/26/23 65/27/23
f 77/26/24 61/27/24 85/25/24
f 78/25/25 86/26/25 62/27/25
f 82/26/26 66/27/26 90/25/26
f 58/11/6 90/23/6 89/24/6 57/12/6
f 57/12/5 89/21/5 91/22/5 59/13/5
f 65/8/6 66/9/6 62/10/6 61/7/6
f 55/12/5 87/21/5 85/22/5 53/13/5
f 53/13/6 85/15/6 86/16/6 54/14/6
f 54/14/3 86/17/3 88/18/3 56/11/3
f 56/11/2 88/23/2 87/24/2 55/12/2
f 79/21/2 83/22/2 75/13/2 71/12/2
f 77/23/4 79/24/4 71/12/4 69/11/4
f 81/17/6 77/18/6 69/11/6 73/14/6
f 83/15/1 81/16/1 73/14/1 75/13/1
f 84/21/2 80/22/2 72/13/2 76/12/2
f 80/15/4 78/16/4 70/14/4 72/13/4
f 78/17/6 82/18/6 74/11/6 70/14/6
f 82/23/1 84/24/1 76/12/1 74/11/1
f 45/28/2 93/29/2 95/30/2 49/33/2
f 95/30/3 93/29/3 37/31/3 41/32/3
f 49/32/4 95/30/4 96/29/4 51/31/4
f 96/29/3 95/30/3 33/33/3 35/28/3
f 96/30/6 94/29/6 47/31/6 51/32/6
f 47/32/1 94/30/1 93/29/1 45/31/1
f 93/29/3 94/30/3 31/33/3 29/28/3
f 39/28/3 94/29/3 96/30/3 43/33/3
f 38/28/5 97/29/5 99/30/5 42/33/5
f 99/30/2 97/29/2 46/31/2 50/32/2
f 46/32/1 97/30/1 98/29/1 48/31/1
f 48/32/6 98/30/6 100/29/6 52/31/6
f 52/32/4 100/30/4 99/29/4 50/31/4
f 99/29/5 100/30/5 36/33/5 34/28/5
f 100/29/5 98/30/5 40/33/5 44/28/5
f 98/29/5 97/30/5 30/33/5 32/28/5
f 37/32/1 93/30/1 97/29/1 38/31/1
f 99/30/4 95/29/4 41/31/4 42/32/4
f 33/28/2 95/29/2 99/30/2 34/33/2
f 100/29/6 96/30/6 35/33/6 36/28/6
f 43/32/4 96/30/4 100/29/4 44/31/4
f 98/30/1 94/29/1 39/31/1 40/32/1
f 31/28/6 94/29/6 98/30/6 32/33/6
f 97/29/2 93/30/2 29/33/2 30/28/2
f 109/34/2 125/35/2 124/36/2
f 110/37/2 126/38/2 125/35/2 109/34/2
f 111/39/2 127/40/2 126/38/2 110/37/2
f 108/41/2 109/34/2 124/36/2 123/42/2
f 107/43/2 108/41/2 123/42/2 122/44/2
f 106/45/2 107/43/2 122/44/2 121/46/2
f 105/47/2 106/45/2 121/46/2 120/48/2
f 104/49/2 105/47/2 120/48/2 119/50/2
f 103/52/2 104/49/2 119/50/2 102/51/2
f 102/51/2 119/50/2 118/53/2 117/54/2
f 101/55/2 102/51/2 117/54/2 132/56/2
f 116/58/2 101/55/2 132/56/2 115/57/2
f 115/57/2 132/56/2 131/59/2 130/60/2
f 114/61/2 115/57/2 130/60/2 129/62/2
f 113/63/2 114/61/2 129/62/2 128/64/2
f 112/65/2 113/63/2 128/64/2 127/40/2
f 156/38/6 157/35/6 141/34/6
f 157/35/6 158/36/6 142/41/6 141/34/6
f 159/42/6 160/44/6 143/43/6 158/36/6
f 156/38/6 141/34/6 140/37/6 155/40/6
f 155/40/6 140/37/6 139/39/6 154/64/6
f 154/64/6 139/39/6 138/65/6 153/62/6
f 153/62/6 138/65/6 137/63/6 152/60/6
f 152/60/6 137/63/6 136/61/6 151/59/6
f 151/59/6 136/61/6 135/57/6 149/56/6
f 149/56/6 135/57/6 133/58/6 150/54/6
f 150/54/6 133/58/6 134/55/6 164/53/6
f 164/53/6 134/55/6 148/51/6 163/50/6
f 163/50/6 148/51/6 147/52/6 162/48/6
f 162/48/6 147/52/6 146/49/6 161/46/6
f 144/45/6 143/43/6 160/44/6 161/46/6
f 110/26/27 142/66/27 143/67/27 111/100/27
f 125/68/28 157/69/28 156/70/28 124/15/28
f 111/71/29 143/72/29 144/73/29 112/77/29
f 126/74/30 158/75/30 157/76/30 125/154/30
f 112/77/31 144/73/31 145/78/31 113/81/31
f 127/79/32 159/80/32 158/75/32 126/74/32
f 113/81/33 145/78/33 146/82/33 114/85/33
f 128/83/34 160/84/34 159/80/34 127/79/34
f 114/85/35 146/82/35 147/86/35 115/96/35
f 101/87/30 134/88/30 133/89/30 102/95/30
f 129/90/36 161/91/36 160/84/36 128/83/36
f 115/92/37 147/93/37 148/94/37 116/99/37
f 102/95/32 133/89/32 135/96/32 103/86/32
f 130/97/38 162/98/38 161/91/38 129/90/38
f 116/99/28 148/94/28 134/88/28 101/87/28
f 103/100/34 135/67/34 136/101/34 104/107/34
f 131/102/39 163/103/39 162/98/39 130/97/39
f 118/104/40 149/105/40 150/106/40 117/115/40
f 104/107/36 136/101/36 137/108/36 105/113/36
f 132/109/41 164/110/41 163/103/41 131/102/41
f 119/111/27 151/112/27 149/105/27 118/104/27
f 105/113/38 137/108/38 138/114/38 106/118/38
f 117/115/42 150/106/42 164/110/42 132/109/42
f 120/116/29 152/117/29 151/112/29 119/111/29
f 106/118/39 138/114/39 139/119/39 107/27/39
f 121/120/31 153/121/31 152/117/31 120/116/31
f 107/93/41 139/92/41 140/122/41 108/125/41
f 122/123/33 154/124/33 153/121/33 121/120/33
f 108/125/42 140/122/42 141/126/42 109/129/42
f 123/127/35 155/128/35 154/124/35 122/123/35
f 109/129/40 141/126/40 142/66/40 110/26/40
f 124/15/37 156/70/37 155/128/37 123/127/37
f 179/131/6 180/7/6 174/132/6 178/130/6
f 168/133/43 176/134/43 175/135/43 167/145/43
f 166/136/44 173/137/44 174/138/44 165/139/44
f 165/139/45 174/138/45 180/140/45 172/146/45
f 171/28/46 179/141/46 178/142/46 170/147/46
f 169/143/47 177/144/47 176/134/47 168/133/47
f 167/145/48 175/135/48 173/137/48 166/136/48
f 172/146/49 180/140/49 179/141/49 171/28/49
f 170/147/50 178/142/50 177/148/50 169/158/50
f 185/149/9 135/150/9 103/151/9 181/10/9
f 188/149/8 147/150/8 115/151/8 184/10/8
f 187/10/17 143/151/17 111/150/17 183/149/17
f 186/10/16 139/151/16 107/150/16 182/149/16
f 74/8/18 50/7/18 99/130/18 82/152/18
f 70/8/15 46/7/15 97/130/15 78/152/15
f 84/130/15 100/152/15 52/8/15 76/7/15
f 72/130/14 48/152/14 98/8/14 80/7/14
f 43/8/17 19/7/17 67/130/17 96/152/17
f 94/130/8 63/152/8 17/8/8 39/7/8
f 40/8/9 18/7/9 64/130/9 98/152/9
f 44/8/8 20/7/8 68/130/8 100/152/8
f 60/8/12 36/7/12 100/130/12 92/152/12
f 59/7/7 35/8/7 96/152/7 91/130/7
f 57/8/10 33/7/10 95/130/10 89/152/10
f 58/8/11 34/7/11 99/130/11 90/152/11
f 79/130/14 94/152/14 47/8/14 71/7/14
f 75/153/15 51/153/15 96/153/15 83/153/15
f 81/8/18 95/7/18 49/130/18 73/152/18
f 69/8/13 45/7/13 93/130/13 77/152/13
f 87/130/7 94/152/7 31/8/7 55/7/7
f 56/8/10 32/7/10 98/130/10 88/152/10
f 54/8/7 30/7/7 97/130/7 86/152/7
f 53/8/12 29/7/12 93/130/12 85/152/12
f 257/151/17 261/150/17 269/149/17 265/10/17
f 260/151/16 264/150/16 272/149/16 268/10/16
f 259/150/9 263/151/9 271/10/9 267/149/9
f 258/150/8 262/151/8 270/10/8 266/149/8
f 255/130/14 210/7/14 230/8/14 238/152/14
f 253/130/13 206/7/13 226/8/13 234/152/13
f 212/8/13 256/152/13 240/130/13 232/7/13
f 254/8/18 208/152/18 228/130/18 236/7/18
f 223/130/9 191/7/9 203/8/9 252/152/9
f 189/8/16 221/152/16 250/130/16 201/7/16
f 222/130/17 190/7/17 202/8/17 254/152/17
f 224/130/16 192/7/16 204/8/16 256/152/16
f 256/130/10 200/7/10 220/8/10 248/152/10
f 252/152/11 199/8/11 219/7/11 247/130/11
f 251/130/12 197/7/12 217/8/12 245/152/12
f 255/130/7 198/7/7 218/8/7 246/152/7
f 207/8/18 250/152/18 235/130/18 227/7/18
f 252/153/13 211/153/13 231/153/13 239/153/13
f 209/130/14 251/7/14 237/8/14 229/152/14
f 249/130/15 205/7/15 225/8/15 233/152/15
f 195/8/11 250/152/11 243/130/11 215/7/11
f 254/130/12 196/7/12 216/8/12 244/152/12
f 253/130/11 194/7/11 214/8/11 242/152/11
f 249/130/10 193/7/10 213/8/10 241/152/10
f 7/6/1 8/1/1 35/3/1 5/5/1
f 3/6/2 4/1/2 39/3/2 7/5/2
f 8/1/3 4/20/3 52/2/3
f 1/6/4 29/3/4 3/5/4
f 2/20/6 1/5/6 38/19/6 6/1/6
f 5/6/6 6/1/6 41/3/6 1/5/6
f 111/39/2 112/65/2 127/40/2
f 142/41/6 158/36/6 143/43/6
f 145/47/6 144/45/6 161/46/6 146/49/6
f 174/132/6 173/155/6 175/156/6
f 175/156/6 176/143/6 177/157/6
f 177/157/6 178/130/6 174/132/6 175/156/6
