# Blender v2.79 (sub 0) OBJ File: 'sliding_door.blend'
# www.blender.org
o Right
v -0.125000 1.875000 -0.875000
v -0.125000 1.125000 -0.875000
v -0.125000 1.875000 -0.125000
v -0.125000 1.125000 -0.125000
v -0.125000 0.125000 -0.875000
v -0.125000 0.875000 -0.875000
v -0.125000 0.125000 -0.125000
v -0.125000 0.875000 -0.125000
v -0.187500 1.875000 -0.875000
v -0.187500 1.125000 -0.875000
v -0.187500 1.875000 -0.125000
v -0.187500 1.125000 -0.125000
v -0.187500 0.125000 -0.875000
v -0.187500 0.875000 -0.875000
v -0.187500 0.125000 -0.125000
v -0.187500 0.875000 -0.125000
v -0.125000 1.062500 -0.875000
v -0.125000 0.937500 -0.875000
v -0.125000 1.062500 -0.250000
v -0.125000 0.937500 -0.250000
v -0.187500 1.062500 -0.875000
v -0.187500 0.937500 -0.875000
v -0.187500 1.062500 -0.250000
v -0.187500 0.937500 -0.250000
v -0.250000 0.000000 -1.000000
v -0.250000 0.125000 -1.000000
v -0.250000 0.000000 0.000000
v -0.250000 0.125000 0.000000
v -0.062500 0.000000 -1.000000
v -0.062500 0.125000 -1.000000
v -0.062500 0.000000 0.000000
v -0.062500 0.125000 0.000000
v -0.250000 0.000000 -0.125000
v -0.250000 0.125000 -0.125000
v -0.062500 0.000000 -0.125000
v -0.062500 0.125000 -0.125000
v -0.250000 0.000000 -0.875000
v -0.062500 0.125000 -0.875000
v -0.250000 0.125000 -0.875000
v -0.062500 0.000000 -0.875000
v -0.250000 1.875000 0.000000
v -0.062500 1.875000 0.000000
v -0.062500 1.875000 -0.875000
v -0.062500 1.875000 -1.000000
v -0.250000 1.875000 -1.000000
v -0.250000 1.875000 -0.875000
v -0.250000 2.000000 0.000000
v -0.062500 2.000000 0.000000
v -0.062500 2.000000 -0.875000
v -0.062500 2.000000 -1.000000
v -0.250000 2.000000 -1.000000
v -0.062500 2.000000 -0.125000
v -0.250000 2.000000 -0.875000
v -0.062500 1.875000 -0.125000
v -0.250000 1.875000 -0.125000
v -0.250000 2.000000 -0.125000
v -0.062500 1.250000 0.000000
v -0.250000 1.250000 0.000000
v -0.062500 1.250000 -0.125000
v -0.250000 0.750000 0.000000
v -0.062500 0.750000 0.000000
v -0.062500 0.875000 0.000000
v -0.250000 0.875000 -0.125000
v -0.250000 0.875000 0.000000
v -0.062500 0.875000 -0.187500
v -0.062500 1.125000 0.000000
v -0.250000 1.125000 -0.125000
v -0.250000 1.125000 0.000000
v -0.062500 1.125000 -0.187500
v -0.250000 1.125000 -0.250000
v -0.250000 0.875000 -0.250000
v -0.250000 1.250000 -0.125000
v -0.062500 1.125000 -0.250000
v -0.062500 0.875000 -0.250000
v -0.062500 0.750000 -0.125000
v -0.250000 0.750000 -0.125000
v -0.187500 1.125000 0.000000
v -0.187500 1.125000 -0.187500
v -0.187500 0.875000 -0.187500
v -0.187500 0.875000 0.000000
v -0.062500 0.875000 -0.125000
v -0.062500 1.125000 -0.125000
v -0.062500 0.875000 -0.062500
v -0.062500 1.125000 -0.062500
v -0.125000 0.875000 -0.125000
v -0.125000 1.125000 -0.125000
v -0.125000 0.875000 -0.062500
v -0.125000 1.125000 -0.062500
v -0.187500 1.062500 -0.875000
v -0.187500 1.125000 -0.875000
v -0.187500 1.062500 -0.250000
v -0.187500 1.125000 -0.250000
v -0.125000 1.062500 -0.875000
v -0.125000 1.125000 -0.875000
v -0.125000 1.062500 -0.250000
v -0.125000 1.125000 -0.250000
v -0.187500 0.937500 -0.875000
v -0.187500 0.875000 -0.875000
v -0.187500 0.937500 -0.250000
v -0.187500 0.875000 -0.250000
v -0.125000 0.937500 -0.875000
v -0.125000 0.875000 -0.875000
v -0.125000 0.937500 -0.250000
v -0.125000 0.875000 -0.250000
v -0.187500 2.000000 0.000000
v -0.187500 2.000000 -1.000000
v -0.187500 2.000000 -0.875000
v -0.187500 2.000000 -0.125000
v -0.125000 2.000000 0.000000
v -0.125000 2.000000 -0.875000
v -0.125000 2.000000 -1.000000
v -0.125000 2.000000 -0.125000
vt 0.909774 0.979167
vt 1.000000 0.729167
vt 1.000000 0.979167
vt 1.000000 0.645833
vt 0.909774 0.395833
vt 1.000000 0.395833
vt 0.819549 0.729167
vt 0.909774 0.979167
vt 0.819549 0.979167
vt 0.909774 0.395833
vt 0.819549 0.645833
vt 0.819549 0.395833
vt 0.924812 0.708333
vt 1.000000 0.666667
vt 1.000000 0.708333
vt 0.819549 0.666667
vt 0.894737 0.708333
vt 0.819549 0.708333
vt 0.646617 0.083333
vt 0.631579 0.125000
vt 0.631579 0.083333
vt 0.669173 0.083333
vt 0.646617 0.125000
vt 0.789474 0.083333
vt 0.774436 0.125000
vt 0.774436 0.083333
vt 0.812030 0.083333
vt 0.789474 0.125000
vt 0.789474 0.020833
vt 0.774436 0.020833
vt 0.789474 0.708333
vt 0.488722 0.708333
vt 0.466165 0.125000
vt 0.488722 0.125000
vt 0.684211 0.020833
vt 0.669173 0.020833
vt 0.684211 0.083333
vt 0.669173 0.125000
vt 0.541353 0.125000
vt 0.541353 0.083333
vt 0.526316 0.125000
vt 0.526316 0.083333
vt 0.458647 0.125000
vt 0.368421 0.187500
vt 0.368421 0.125000
vt 0.684211 0.125000
vt 0.684211 0.750000
vt 0.669173 0.708333
vt 0.684211 0.708333
vt 0.541353 0.750000
vt 0.526316 0.708333
vt 0.541353 0.708333
vt 0.669173 0.500000
vt 0.684211 0.500000
vt 0.646617 0.708333
vt 0.631579 0.500000
vt 0.646617 0.500000
vt 0.812030 0.708333
vt 0.812030 0.125000
vt 0.518797 0.708333
vt 0.496241 0.500000
vt 0.518797 0.500000
vt 0.789474 0.750000
vt 0.774436 0.708333
vt 0.646617 0.750000
vt 0.631579 0.708333
vt 0.774436 0.750000
vt 0.368421 0.270833
vt 0.458647 0.208333
vt 0.458647 0.270833
vt 0.812030 0.750000
vt 0.669173 0.750000
vt 0.654135 0.458333
vt 0.669173 0.458333
vt 0.631579 0.375000
vt 0.616541 0.375000
vt 0.631579 0.333333
vt 0.631579 0.458333
vt 0.646617 0.458333
vt 0.691729 0.458333
vt 0.684211 0.333333
vt 0.646617 0.333333
vt 0.518797 0.333333
vt 0.496241 0.125000
vt 0.518797 0.125000
vt 0.669173 0.333333
vt 0.669173 0.375000
vt 0.646617 0.375000
vt 0.699248 0.458333
vt 0.654135 0.375000
vt 0.571429 0.500000
vt 0.586466 0.416667
vt 0.586466 0.500000
vt 0.616541 0.458333
vt 0.518797 0.458333
vt 0.496241 0.375000
vt 0.518797 0.375000
vt 0.699248 0.375000
vt 0.691729 0.375000
vt 0.496241 0.458333
vt 0.496241 0.333333
vt 0.548872 0.416667
vt 0.571429 0.416667
vt 0.548872 0.500000
vt 0.571429 0.541667
vt 0.548872 0.541667
vt 0.548872 0.375000
vt 0.571429 0.375000
vt 0.759399 0.583333
vt 0.751880 0.500000
vt 0.759399 0.500000
vt 0.751880 0.583333
vt 0.744361 0.500000
vt 0.744361 0.583333
vt 0.736842 0.500000
vt 0.766917 0.583333
vt 0.766917 0.500000
vt 0.691729 0.229167
vt 0.766917 0.208333
vt 0.766917 0.229167
vt 0.766917 0.166667
vt 0.691729 0.187500
vt 0.691729 0.166667
vt 0.766917 0.145833
vt 0.691729 0.145833
vt 0.766917 0.187500
vt 0.691729 0.208333
vt 0.766917 0.687500
vt 0.691729 0.666667
vt 0.766917 0.666667
vt 0.691729 0.625000
vt 0.766917 0.645833
vt 0.691729 0.645833
vt 0.691729 0.604167
vt 0.766917 0.625000
vt 0.646617 0.770833
vt 0.631579 0.750000
vt 0.631579 0.770833
vt 0.541353 0.770833
vt 0.526316 0.750000
vt 0.774436 0.770833
vt 0.684211 0.770833
vt 0.789474 0.770833
vt 0.909774 0.729167
vt 0.909774 0.645833
vt 0.909774 0.729167
vt 0.909774 0.645833
vt 0.924812 0.666667
vt 0.894737 0.666667
vt 0.466165 0.708333
vt 0.458647 0.187500
vt 0.496241 0.708333
vt 0.368421 0.208333
vt 0.736842 0.583333
vt 0.691729 0.687500
vt 0.766917 0.604167
vt 0.526316 0.770833
vt 0.669173 0.770833
vn 1.0000 0.0000 0.0000
vn -1.0000 0.0000 0.0000
vn 0.0000 0.0000 1.0000
vn 0.0000 0.0000 -1.0000
vn 0.0000 -1.0000 0.0000
vn 0.0000 1.0000 0.0000
vn 0.0000 0.7071 -0.7071
vn 0.0000 -0.7071 -0.7071
s off
f 2/2/1 1/3/1 3/1/1 4/144/1
f 7/5/1 5/6/1 6/4/1 8/145/1
f 11/8/2 9/9/2 10/7/2 12/146/2
f 14/11/2 13/12/2 15/10/2 16/147/2
f 18/14/1 17/15/1 19/13/1 20/148/1
f 23/17/2 21/18/2 22/16/2 24/149/2
f 34/20/2 33/21/2 27/19/2 28/23/2
f 28/23/3 27/19/3 31/22/3 32/38/3
f 38/25/1 40/26/1 29/24/1 30/28/1
f 30/28/4 29/24/4 25/27/4 26/59/4
f 40/26/5 37/30/5 25/29/5 29/24/5
f 38/25/1 30/28/1 44/31/1 43/64/1
f 39/33/3 38/34/3 43/32/3 46/150/3
f 31/22/5 27/36/5 33/35/5 35/37/5
f 32/38/1 31/22/1 35/37/1 36/46/1
f 39/39/2 37/40/2 33/21/2 34/20/2
f 26/41/2 25/42/2 37/40/2 39/39/2
f 34/44/6 36/45/6 38/43/6 39/151/6
f 35/37/5 33/35/5 37/30/5 40/26/5
f 36/46/1 35/37/1 40/26/1 38/25/1
f 42/48/1 54/49/1 52/47/1 48/72/1
f 53/50/2 45/51/2 46/52/2 55/66/2
f 57/53/1 59/54/1 54/49/1 42/48/1
f 72/56/2 58/57/2 41/55/2 55/66/2
f 26/41/2 39/39/2 46/52/2 45/51/2
f 30/28/4 26/59/4 45/58/4 44/31/4
f 59/61/4 72/62/4 55/60/4 54/152/4
f 58/57/3 57/53/3 42/48/3 41/55/3
f 43/64/1 44/31/1 50/63/1 49/67/1
f 55/66/2 41/55/2 47/65/2 56/137/2
f 43/64/1 49/67/1 52/47/1 54/49/1
f 46/69/5 43/70/5 54/68/5 55/153/5
f 44/31/4 45/58/4 51/71/4 50/63/4
f 41/55/3 42/48/3 48/72/3 47/65/3
f 77/73/3 66/74/3 57/53/3 58/57/3
f 63/75/2 71/76/2 76/77/2 64/88/2
f 67/78/2 68/79/2 58/57/2 72/56/2
f 59/54/1 66/74/1 69/80/1 73/89/1
f 32/38/1 36/46/1 75/81/1 61/86/1
f 34/20/2 28/23/2 60/82/2 76/77/2
f 36/84/4 34/85/4 76/83/4 75/101/4
f 28/23/3 32/38/3 61/86/3 60/82/3
f 62/87/1 61/86/1 75/81/1 65/99/1
f 64/88/2 76/77/2 60/82/2
f 60/82/3 61/86/3 80/90/3 64/88/3
f 65/92/3 69/93/3 78/91/3 79/103/3
f 63/75/2 64/88/2 68/79/2 67/78/2
f 70/94/2 63/75/2 67/78/2 72/56/2
f 64/88/3 80/90/3 77/73/3 68/79/3
f 74/96/4 71/97/4 70/95/4 73/100/4
f 74/98/1 69/80/1 65/99/1 75/81/1
f 72/62/7 59/61/7 73/100/7 70/95/7
f 71/97/8 74/96/8 75/101/8 76/83/8
f 80/102/1 79/103/1 78/91/1 77/104/1
f 69/105/5 66/106/5 77/104/5 78/91/5
f 62/107/6 65/108/6 79/103/6 80/102/6
f 83/110/1 81/111/1 82/109/1 84/112/1
f 87/113/3 83/110/3 84/112/3 88/114/3
f 85/115/2 87/113/2 88/114/2 86/154/2
f 81/111/4 85/117/4 86/116/4 82/109/4
f 90/119/2 89/120/2 91/118/2 92/127/2
f 96/122/1 95/123/1 93/121/1 94/126/1
f 95/123/5 91/125/5 89/124/5 93/121/5
f 92/127/6 96/122/6 94/126/6 90/119/6
f 99/129/2 97/130/2 98/128/2 100/155/2
f 101/132/1 103/133/1 104/131/1 102/135/1
f 97/130/6 99/129/6 103/133/6 101/132/6
f 102/135/5 104/131/5 100/134/5 98/156/5
f 56/137/6 47/65/6 105/136/6 108/138/6
f 53/50/6 56/137/6 108/138/6 107/139/6
f 51/140/6 53/50/6 107/139/6 106/157/6
f 52/47/6 49/67/6 110/141/6 112/142/6
f 48/72/6 52/47/6 112/142/6 109/158/6
f 49/67/6 50/63/6 111/143/6 110/141/6
f 58/57/3 68/79/3 77/73/3
f 53/50/2 51/140/2 45/51/2
f 55/66/2 56/137/2 53/50/2
f 59/54/1 57/53/1 66/74/1
f 61/86/3 62/87/3 80/90/3
f 70/94/2 71/76/2 63/75/2
f 74/98/1 73/89/1 69/80/1
o Frame
v -0.187500 0.000000 1.812500
v -0.187500 0.062500 1.812500
v -0.187500 0.000000 -1.812500
v -0.187500 0.062500 -1.812500
v -0.125000 0.000000 1.812500
v -0.125000 0.062500 1.812500
v -0.125000 0.000000 -1.812500
v -0.125000 0.062500 -1.812500
v -0.187500 2.000000 1.812500
v -0.187500 1.937500 1.812500
v -0.187500 2.000000 -1.812500
v -0.187500 1.937500 -1.812500
v -0.125000 2.000000 1.812500
v -0.125000 1.937500 1.812500
v -0.125000 2.000000 -1.812500
v -0.125000 1.937500 -1.812500
vt 0.015038 0.937500
vt 0.451128 0.958333
vt 0.015038 0.958333
vt 0.451128 0.937500
vt 0.458647 0.916667
vt 0.458647 0.937500
vt 0.451128 0.916667
vt 0.015038 0.895833
vt 0.451128 0.895833
vt 0.015038 0.916667
vt 0.007519 0.937500
vt 0.007519 0.916667
vt 0.451128 0.979167
vt 0.451128 0.854167
vt 0.015038 0.833333
vt 0.015038 0.854167
vt 0.458647 0.812500
vt 0.451128 0.833333
vt 0.458647 0.833333
vt 0.015038 0.791667
vt 0.451128 0.812500
vt 0.451128 0.791667
vt 0.007519 0.833333
vt 0.015038 0.812500
vt 0.007519 0.812500
vt 0.451128 0.875000
vt 0.015038 0.979167
vt 0.015038 0.875000
vn -1.0000 0.0000 0.0000
vn 0.0000 0.0000 -1.0000
vn 1.0000 0.0000 0.0000
vn 0.0000 0.0000 1.0000
vn 0.0000 -1.0000 0.0000
vn 0.0000 1.0000 0.0000
s off
f 115/160/9 113/161/9 114/159/9 116/162/9
f 119/163/10 115/164/10 116/162/10 120/165/10
f 117/166/11 119/167/11 120/165/11 118/168/11
f 113/169/12 117/170/12 118/168/12 114/159/12
f 113/161/13 115/160/13 119/171/13 117/185/13
f 118/168/14 120/165/14 116/162/14 114/159/14
f 122/173/9 121/174/9 123/172/9 124/176/9
f 124/176/10 123/177/10 127/175/10 128/179/10
f 128/179/11 127/180/11 125/178/11 126/182/11
f 126/182/12 125/183/12 121/181/12 122/173/12
f 127/184/14 123/172/14 121/174/14 125/186/14
f 124/176/13 128/179/13 126/182/13 122/173/13
o Left
v -0.125000 0.937500 -0.187500
v -0.125000 1.062500 -0.187500
v -0.125000 0.937500 0.187500
v -0.125000 1.062500 0.187500
v -0.187500 0.937500 -0.187500
v -0.187500 1.062500 -0.187500
v -0.187500 0.937500 0.187500
v -0.187500 1.062500 0.187500
v -0.250000 0.000000 1.000000
v -0.250000 0.125000 1.000000
v -0.250000 0.000000 0.000000
v -0.250000 0.125000 0.000000
v -0.062500 0.000000 1.000000
v -0.062500 0.125000 1.000000
v -0.062500 0.000000 0.000000
v -0.062500 0.125000 0.000000
v -0.250000 0.000000 0.125000
v -0.250000 0.125000 0.125000
v -0.062500 0.000000 0.125000
v -0.062500 0.125000 0.125000
v -0.250000 0.000000 0.875000
v -0.062500 0.125000 0.875000
v -0.250000 0.125000 0.875000
v -0.062500 0.000000 0.875000
v -0.250000 1.875000 0.000000
v -0.062500 1.875000 0.000000
v -0.062500 1.875000 0.875000
v -0.062500 1.875000 1.000000
v -0.250000 1.875000 1.000000
v -0.250000 1.875000 0.875000
v -0.250000 2.000000 0.000000
v -0.062500 2.000000 0.000000
v -0.062500 2.000000 0.875000
v -0.062500 2.000000 1.000000
v -0.250000 2.000000 1.000000
v -0.062500 2.000000 0.125000
v -0.250000 2.000000 0.875000
v -0.062500 1.875000 0.125000
v -0.250000 1.875000 0.125000
v -0.250000 2.000000 0.125000
v -0.062500 1.250000 0.000000
v -0.250000 1.250000 0.000000
v -0.062500 1.250000 0.125000
v -0.250000 0.750000 0.000000
v -0.062500 0.750000 0.000000
v -0.062500 0.875000 0.000000
v -0.250000 0.875000 0.125000
v -0.250000 0.875000 0.000000
v -0.062500 0.875000 0.187500
v -0.062500 1.125000 0.000000
v -0.250000 1.125000 0.125000
v -0.250000 1.125000 0.000000
v -0.062500 1.125000 0.187500
v -0.250000 1.125000 0.250000
v -0.250000 0.875000 0.250000
v -0.250000 1.250000 0.125000
v -0.062500 1.125000 0.250000
v -0.062500 0.875000 0.250000
v -0.062500 0.750000 0.125000
v -0.250000 0.750000 0.125000
v -0.187500 1.125000 0.000000
v -0.187500 1.125000 0.187500
v -0.187500 0.875000 0.187500
v -0.187500 0.875000 0.000000
v -0.062500 0.875000 0.125000
v -0.062500 1.125000 0.125000
v -0.062500 0.875000 0.062500
v -0.062500 1.125000 0.062500
v -0.125000 0.875000 0.125000
v -0.125000 1.125000 0.125000
v -0.125000 0.875000 0.062500
v -0.125000 1.125000 0.062500
v -0.187500 1.062500 0.875000
v -0.187500 1.125000 0.875000
v -0.187500 1.062500 0.250000
v -0.187500 1.125000 0.250000
v -0.125000 1.062500 0.875000
v -0.125000 1.125000 0.875000
v -0.125000 1.062500 0.250000
v -0.125000 1.125000 0.250000
v -0.187500 0.937500 0.875000
v -0.187500 0.875000 0.875000
v -0.187500 0.937500 0.250000
v -0.187500 0.875000 0.250000
v -0.125000 0.937500 0.875000
v -0.125000 0.875000 0.875000
v -0.125000 0.937500 0.250000
v -0.125000 0.875000 0.250000
v -0.187500 2.000000 0.000000
v -0.187500 2.000000 1.000000
v -0.187500 2.000000 0.875000
v -0.187500 2.000000 0.125000
v -0.125000 2.000000 0.000000
v -0.125000 2.000000 0.875000
v -0.125000 2.000000 1.000000
v -0.125000 2.000000 0.125000
v -0.125000 1.875000 0.875000
v -0.125000 1.125000 0.875000
v -0.125000 1.875000 0.125000
v -0.125000 1.125000 0.125000
v -0.125000 0.125000 0.875000
v -0.125000 0.875000 0.875000
v -0.125000 0.125000 0.125000
v -0.125000 0.875000 0.125000
v -0.187500 1.875000 0.875000
v -0.187500 1.125000 0.875000
v -0.187500 1.875000 0.125000
v -0.187500 1.125000 0.125000
v -0.187500 0.125000 0.875000
v -0.187500 0.875000 0.875000
v -0.187500 0.125000 0.125000
v -0.187500 0.875000 0.125000
v -0.125000 1.062500 0.875000
v -0.125000 0.937500 0.875000
v -0.125000 1.062500 0.250000
v -0.125000 0.937500 0.250000
v -0.187500 1.062500 0.875000
v -0.187500 0.937500 0.875000
v -0.187500 1.062500 0.250000
v -0.187500 0.937500 0.250000
vt 0.593985 0.625000
vt 0.548872 0.583333
vt 0.593985 0.583333
vt 0.548872 0.645833
vt 0.593985 0.687500
vt 0.548872 0.687500
vt 0.601504 0.625000
vt 0.601504 0.583333
vt 0.548872 0.562500
vt 0.548872 0.625000
vt 0.593985 0.645833
vt 0.187970 0.125000
vt 0.172932 0.083333
vt 0.187970 0.083333
vt 0.172932 0.125000
vt 0.150376 0.083333
vt 0.045113 0.125000
vt 0.030075 0.083333
vt 0.045113 0.083333
vt 0.030075 0.125000
vt 0.007519 0.083333
vt 0.045113 0.020833
vt 0.030075 0.020833
vt 0.030075 0.708333
vt 0.353383 0.125000
vt 0.330827 0.708333
vt 0.330827 0.125000
vt 0.135338 0.020833
vt 0.150376 0.020833
vt 0.150376 0.125000
vt 0.135338 0.083333
vt 0.278196 0.125000
vt 0.278196 0.083333
vt 0.293233 0.125000
vt 0.293233 0.083333
vt 0.458647 0.625000
vt 0.368421 0.562500
vt 0.458647 0.562500
vt 0.135338 0.125000
vt 0.150376 0.708333
vt 0.135338 0.750000
vt 0.135338 0.708333
vt 0.293233 0.708333
vt 0.278196 0.750000
vt 0.278196 0.708333
vt 0.150376 0.500000
vt 0.135338 0.500000
vt 0.187970 0.500000
vt 0.172932 0.708333
vt 0.172932 0.500000
vt 0.007519 0.708333
vt 0.007519 0.125000
vt 0.323308 0.500000
vt 0.300752 0.708333
vt 0.300752 0.500000
vt 0.045113 0.708333
vt 0.030075 0.750000
vt 0.187970 0.708333
vt 0.172932 0.750000
vt 0.045113 0.750000
vt 0.368421 0.645833
vt 0.458647 0.708333
vt 0.368421 0.708333
vt 0.007519 0.750000
vt 0.150376 0.750000
vt 0.165414 0.458333
vt 0.150376 0.458333
vt 0.187970 0.375000
vt 0.187970 0.333333
vt 0.203008 0.375000
vt 0.187970 0.458333
vt 0.172932 0.458333
vt 0.127820 0.458333
vt 0.135338 0.333333
vt 0.172932 0.333333
vt 0.323308 0.125000
vt 0.300752 0.333333
vt 0.300752 0.125000
vt 0.150376 0.333333
vt 0.150376 0.375000
vt 0.127820 0.375000
vt 0.172932 0.375000
vt 0.120301 0.458333
vt 0.165414 0.375000
vt 0.195489 0.562500
vt 0.210526 0.645833
vt 0.195489 0.645833
vt 0.203008 0.458333
vt 0.323308 0.375000
vt 0.300752 0.458333
vt 0.300752 0.375000
vt 0.120301 0.375000
vt 0.323308 0.458333
vt 0.323308 0.333333
vt 0.233083 0.562500
vt 0.210526 0.562500
vt 0.210526 0.687500
vt 0.233083 0.645833
vt 0.233083 0.687500
vt 0.233083 0.520833
vt 0.210526 0.520833
vt 0.067669 0.500000
vt 0.060150 0.583333
vt 0.060150 0.500000
vt 0.075188 0.500000
vt 0.067669 0.583333
vt 0.082707 0.500000
vt 0.075188 0.583333
vt 0.052632 0.583333
vt 0.052632 0.500000
vt 0.052632 0.208333
vt 0.127820 0.229167
vt 0.052632 0.229167
vt 0.127820 0.187500
vt 0.052632 0.166667
vt 0.127820 0.166667
vt 0.127820 0.145833
vt 0.052632 0.145833
vt 0.127820 0.208333
vt 0.052632 0.187500
vt 0.127820 0.666667
vt 0.052632 0.687500
vt 0.052632 0.666667
vt 0.052632 0.645833
vt 0.127820 0.625000
vt 0.127820 0.645833
vt 0.052632 0.625000
vt 0.127820 0.604167
vt 0.187970 0.770833
vt 0.172932 0.770833
vt 0.187970 0.750000
vt 0.293233 0.770833
vt 0.278196 0.770833
vt 0.135338 0.770833
vt 0.045113 0.770833
vt 0.030075 0.770833
vt 0.819549 0.729167
vt 0.909774 0.979167
vt 0.819549 0.979167
vt 0.909774 0.395833
vt 0.819549 0.645833
vt 0.819549 0.395833
vt 0.909774 0.979167
vt 1.000000 0.729167
vt 1.000000 0.979167
vt 1.000000 0.645833
vt 0.909774 0.395833
vt 1.000000 0.395833
vt 0.819549 0.666667
vt 0.894737 0.708333
vt 0.819549 0.708333
vt 0.924812 0.708333
vt 1.000000 0.666667
vt 1.000000 0.708333
vt 0.593985 0.562500
vt 0.353383 0.708333
vt 0.368421 0.625000
vt 0.293233 0.750000
vt 0.323308 0.708333
vt 0.458647 0.645833
vt 0.082707 0.583333
vt 0.127820 0.687500
vt 0.052632 0.604167
vt 0.150376 0.770833
vt 0.909774 0.729167
vt 0.909774 0.645833
vt 0.909774 0.729167
vt 0.909774 0.645833
vt 0.894737 0.666667
vt 0.924812 0.666667
vn 1.0000 0.0000 -0.0000
vn -1.0000 0.0000 0.0000
vn 0.0000 0.0000 -1.0000
vn 0.0000 -1.0000 0.0000
vn 0.0000 1.0000 0.0000
vn 0.0000 0.0000 1.0000
vn 0.0000 0.7071 0.7071
vn 0.0000 -0.7071 0.7071
s off
f 131/188/15 129/189/15 130/187/15 132/196/15
f 133/191/16 135/192/16 136/190/16 134/197/16
f 129/189/17 133/194/17 134/193/17 130/187/17
f 129/189/18 131/188/18 135/195/18 133/341/18
f 134/197/19 136/190/19 132/196/19 130/187/19
f 139/199/16 145/200/16 146/198/16 140/201/16
f 143/202/17 139/199/17 140/201/17 144/216/17
f 141/204/15 152/205/15 150/203/15 142/206/15
f 137/207/20 141/204/20 142/206/20 138/238/20
f 141/204/18 137/209/18 149/208/18 152/205/18
f 156/210/15 142/206/15 150/203/15 155/242/15
f 155/212/17 150/213/17 151/211/17 158/342/17
f 145/214/18 139/215/18 143/202/18 147/217/18
f 147/217/15 143/202/15 144/216/15 148/225/15
f 145/200/16 149/219/16 151/218/16 146/198/16
f 149/219/16 137/221/16 138/220/16 151/218/16
f 150/223/19 148/224/19 146/222/19 151/343/19
f 149/208/18 145/214/18 147/217/18 152/205/18
f 152/205/15 147/217/15 148/225/15 150/203/15
f 164/227/15 166/228/15 154/226/15 160/251/15
f 158/231/16 157/229/16 165/230/16 167/244/16
f 166/228/15 171/233/15 169/232/15 154/226/15
f 153/235/16 170/236/16 184/234/16 167/244/16
f 158/231/16 151/218/16 138/220/16 157/229/16
f 157/237/20 138/238/20 142/206/20 156/210/20
f 167/240/20 184/241/20 171/239/20 166/345/20
f 154/226/17 169/232/17 170/236/17 153/235/17
f 162/243/15 156/210/15 155/242/15 161/246/15
f 159/245/16 153/235/16 167/244/16 168/317/16
f 164/227/15 161/246/15 155/242/15 166/228/15
f 166/248/18 155/249/18 158/247/18 167/346/18
f 163/250/20 157/237/20 156/210/20 162/243/20
f 160/251/17 154/226/17 153/235/17 159/245/17
f 169/232/17 178/253/17 189/252/17 170/236/17
f 188/255/16 183/256/16 175/254/16 176/268/16
f 170/236/16 180/258/16 179/257/16 184/234/16
f 181/259/15 178/253/15 171/233/15 185/269/15
f 187/260/15 148/225/15 144/216/15 173/265/15
f 172/261/16 140/201/16 146/198/16 188/255/16
f 188/263/20 146/264/20 148/262/20 187/280/20
f 173/265/17 144/216/17 140/201/17 172/261/17
f 187/260/15 174/266/15 177/267/15 186/278/15
f 188/255/16 176/268/16 172/261/16
f 192/270/17 174/266/17 173/265/17 172/261/17
f 190/272/17 181/273/17 177/271/17 191/282/17
f 180/258/16 176/268/16 175/254/16 179/257/16
f 179/257/16 175/254/16 182/274/16 184/234/16
f 176/268/17 189/252/17 192/270/17 172/261/17
f 182/276/20 183/277/20 186/275/20 185/279/20
f 186/278/15 177/267/15 181/259/15 185/269/15
f 185/279/21 171/239/21 184/241/21 182/276/21
f 187/280/22 186/275/22 183/277/22 188/263/22
f 190/272/15 191/282/15 192/281/15 189/284/15
f 189/284/18 178/285/18 181/283/18 190/272/18
f 191/282/19 177/287/19 174/286/19 192/281/19
f 194/289/15 193/290/15 195/288/15 196/292/15
f 196/292/17 195/288/17 199/291/17 200/294/17
f 200/294/16 199/291/16 197/293/16 198/347/16
f 198/295/20 197/296/20 193/290/20 194/289/20
f 203/298/16 201/299/16 202/297/16 204/305/16
f 205/301/15 207/302/15 208/300/15 206/306/15
f 205/301/18 201/304/18 203/303/18 207/302/18
f 206/306/19 208/300/19 204/305/19 202/297/19
f 210/308/16 209/309/16 211/307/16 212/348/16
f 216/311/15 215/312/15 213/310/15 214/313/15
f 213/310/19 215/312/19 211/307/19 209/309/19
f 212/314/18 216/311/18 214/313/18 210/349/18
f 220/315/19 217/316/19 159/245/19 168/317/19
f 220/315/19 168/317/19 165/230/19 219/319/19
f 218/318/19 219/319/19 165/230/19 163/344/19
f 224/320/19 222/321/19 161/246/19 164/227/19
f 224/320/19 164/227/19 160/251/19 221/350/19
f 222/321/19 223/322/19 162/243/19 161/246/19
f 180/258/17 170/236/17 189/252/17 176/268/17
f 227/324/15 225/325/15 226/323/15 228/351/15
f 230/327/15 229/328/15 231/326/15 232/352/15
f 234/330/16 233/331/16 235/329/16 236/353/16
f 239/333/16 237/334/16 238/332/16 240/354/16
f 243/336/15 241/337/15 242/335/15 244/355/15
f 246/339/16 245/340/16 247/338/16 248/356/16
f 157/229/16 163/344/16 165/230/16
f 165/230/16 168/317/16 167/244/16
f 178/253/15 169/232/15 171/233/15
f 187/260/15 173/265/15 174/266/15
f 175/254/16 183/256/16 182/274/16
