# Blender v3.6.0 OBJ File: ''
# www.blender.org
mtllib ../general.mtl
o Cube.001
v 0.275888 0.062500 0.562500
v 0.250000 0.088388 0.500000
v 0.250000 0.088388 0.562500
v 1.000000 0.500000 0.187500
v 1.000000 0.062500 0.562500
v 1.000000 0.062500 0.187500
v 0.187500 0.500000 0.562500
v 0.187500 0.062500 0.187500
v 0.187500 0.062500 0.562500
v 0.250000 0.562500 0.187500
v 0.937500 -0.000000 0.187500
v 0.250000 0.000000 0.562500
v 0.250000 -0.000000 0.187500
v 0.250000 0.562500 0.562500
v 0.937500 0.000000 0.562500
v 0.937500 0.562500 0.562500
v 0.937500 0.562500 0.187500
v 0.275888 0.500000 0.562500
v 0.250000 0.474112 0.562500
v 0.911612 0.062500 0.562500
v 0.937500 0.088388 0.562500
v 0.937500 0.474112 0.562500
v 0.911612 0.500000 0.562500
v 1.000000 0.500000 0.562500
v 0.911612 0.500000 0.500000
v 0.250000 0.474112 0.500000
v 0.275888 0.062500 0.500000
v 0.937500 0.474112 0.500000
v 0.275888 0.500000 0.500000
v 0.937500 0.088388 0.500000
v 0.911612 0.062500 0.500000
v 0.250000 0.562500 0.187500
v 0.937500 0.562500 0.562500
v 0.937500 0.562500 0.187500
v 0.937500 -0.000000 0.187500
v 0.250000 0.000000 0.562500
v 0.250000 -0.000000 0.187500
v 0.187500 0.062500 0.000000
v 1.000000 0.375000 0.000000
v 0.937500 -0.000000 0.000000
v 0.250000 -0.000000 0.187500
v 0.250000 -0.000000 0.000000
v 0.187500 0.375000 0.000000
v 1.000000 0.375000 0.187500
v 1.000000 0.062500 0.187500
v 1.000000 0.062500 0.000000
v 0.937500 -0.000000 0.187500
v 0.187500 0.375000 0.187500
v 0.187500 0.062500 0.187500
v 0.781250 0.375000 0.562500
v 0.825444 0.356694 0.500000
v 0.781250 0.375000 0.500000
v 0.825444 0.356694 0.562500
v 0.843750 0.312500 0.500000
v 0.843750 0.312500 0.562500
v 0.825444 0.268306 0.500000
v 0.825444 0.268306 0.562500
v 0.781250 0.250000 0.500000
v 0.781250 0.250000 0.562500
v 0.737056 0.268306 0.500000
v 0.737056 0.268306 0.562500
v 0.718750 0.312500 0.500000
v 0.718750 0.312500 0.562500
v 0.737056 0.356694 0.500000
v 0.737056 0.356694 0.562500
v 0.312500 0.437500 0.531250
v 0.312500 0.187500 0.468750
v 0.312500 0.187500 0.531250
v 0.687500 0.437500 0.468750
v 0.687500 0.187500 0.531250
v 0.687500 0.187500 0.468750
v 0.687500 0.437500 0.531250
v 0.312500 0.437500 0.468750
v 0.875000 0.131250 0.875000
v 0.375000 0.056250 0.875000
v 0.875000 0.056250 0.875000
v 0.375000 0.187500 0.743750
v 0.875000 0.187500 0.818750
v 0.875000 0.187500 0.743750
v 0.375000 0.131250 0.687500
v 0.875000 0.056250 0.687500
v 0.375000 0.056250 0.687500
v 0.375000 0.000000 0.743750
v 0.875000 0.000000 0.743750
v 0.875000 0.000000 0.818750
v 0.375000 0.000000 0.818750
v 0.375000 0.187500 0.818750
v 0.875000 0.187500 0.743750
v 0.875000 0.131250 0.875000
v 0.875000 0.000000 0.818750
v 0.375000 0.187500 0.818750
v 0.375000 0.131250 0.687500
v 0.375000 0.000000 0.743750
v 0.375000 0.687500 0.375000
v 0.375000 0.562500 0.437500
v 0.375000 0.562500 0.375000
v 0.312500 0.625000 0.437500
v 0.312500 0.562500 0.375000
v 0.312500 0.562500 0.437500
v 0.312500 0.625000 0.375000
v 0.812500 0.687500 0.437500
v 0.812500 0.562500 0.375000
v 0.812500 0.562500 0.437500
v 0.875000 0.625000 0.437500
v 0.875000 0.562500 0.437500
v 0.875000 0.625000 0.375000
v 0.875000 0.562500 0.375000
v 0.375000 0.687500 0.437500
v 0.812500 0.687500 0.375000
v 0.375000 0.687500 0.375000
v 0.812500 0.625000 0.375000
v 0.375000 0.625000 0.375000
v 0.812500 0.687500 0.437500
v 0.375000 0.625000 0.437500
v 0.812500 0.625000 0.437500
v 0.812500 0.687500 0.375000
v 0.093750 0.062500 0.812500
v 0.093750 -0.000000 0.312500
v 0.093750 0.000000 0.812500
v 0.156250 0.062500 0.312500
v 0.156250 0.000000 0.812500
v 0.156250 -0.000000 0.312500
v 0.156250 0.062500 0.812500
v 0.093750 0.062500 0.312500
v 0.312500 0.062500 0.812500
v 0.156250 0.000000 0.812500
v 0.312500 0.000000 0.812500
v 0.312500 0.000000 0.750000
v 0.156250 0.000000 0.750000
v 0.156250 0.062500 0.750000
v 0.312500 0.062500 0.750000
v 0.375000 0.125000 0.812500
v 0.312500 0.000000 0.812500
v 0.375000 0.000000 0.812500
v 0.375000 0.000000 0.750000
v 0.312500 0.000000 0.750000
v 0.312500 0.125000 0.750000
v 0.375000 0.125000 0.750000
v 0.093750 0.343750 0.312500
v 0.093750 -0.000000 0.250000
v 0.093750 -0.000000 0.312500
v 0.093750 0.343750 0.250000
v 0.156250 -0.000000 0.250000
v 0.156250 0.343750 0.250000
v 0.156250 -0.000000 0.312500
v 0.156250 0.343750 0.312500
v 0.865085 0.562744 0.360538
v 0.634915 0.562744 0.201962
v 0.617518 0.562744 0.325745
v 0.156250 0.375000 0.281250
v 0.218750 0.356694 0.325444
v 0.218750 0.375000 0.281250
v 0.156250 0.356694 0.325444
v 0.218750 0.312500 0.343750
v 0.156250 0.312500 0.343750
v 0.218750 0.268306 0.325444
v 0.156250 0.268306 0.325444
v 0.218750 0.250000 0.281250
v 0.156250 0.250000 0.281250
v 0.218750 0.268306 0.237056
v 0.156250 0.268306 0.237056
v 0.218750 0.312500 0.218750
v 0.156250 0.312500 0.218750
v 0.218750 0.356694 0.237056
v 0.156250 0.356694 0.237056
v 0.187500 0.500000 0.187500
v 0.250000 0.562500 0.562500
v 0.937500 0.000000 0.562500
v 0.375000 0.131250 0.875000
v 0.875000 0.131250 0.687500
v 0.875000 0.000000 0.743750
v 0.875000 0.056250 0.687500
v 0.875000 0.131250 0.687500
v 0.875000 0.187500 0.818750
v 0.875000 0.056250 0.875000
v 0.375000 0.000000 0.818750
v 0.375000 0.056250 0.875000
v 0.375000 0.131250 0.875000
v 0.375000 0.187500 0.743750
v 0.375000 0.056250 0.687500
v 0.375000 0.687500 0.437500
v 0.156250 0.062500 0.812500
v 0.312500 0.125000 0.812500
v 0.882482 0.562744 0.236755
vt 0.708278 0.727278
vt 0.728085 0.738881
vt 0.708278 0.738881
vt 0.454545 0.872727
vt 0.345455 0.745455
vt 0.454545 0.745455
vt 0.109091 0.872727
vt 0.000000 0.745455
vt 0.109091 0.745455
vt 0.672711 0.890896
vt 0.454565 0.872717
vt 0.472744 0.727287
vt 0.109091 0.727273
vt 0.000000 0.727273
vt 0.000000 0.890909
vt 0.109091 0.890909
vt 0.454545 0.727273
vt 0.345455 0.727273
vt 0.345455 0.890909
vt 0.454545 0.890909
vt 0.127289 0.752995
vt 0.127289 0.727287
vt 0.134819 0.745465
vt 0.134819 0.872717
vt 0.127289 0.865187
vt 0.319726 0.745465
vt 0.345435 0.745465
vt 0.327256 0.752995
vt 0.327256 0.865187
vt 0.327256 0.890896
vt 0.319726 0.872717
vt 0.327256 0.727287
vt 0.345435 0.872717
vt 0.127289 0.890896
vt 0.919727 0.872717
vt 0.727289 0.865187
vt 0.734819 0.745465
vt 0.745460 0.890755
vt 0.927267 0.872882
vt 0.927267 0.890755
vt 0.728085 0.861119
vt 0.708278 0.861119
vt 0.945455 0.872722
vt 0.927273 0.861119
vt 0.945455 0.861119
vt 0.728085 0.872722
vt 0.708278 0.872722
vt 0.927273 0.738881
vt 0.945455 0.738881
vt 0.927267 0.727427
vt 0.745460 0.745301
vt 0.745460 0.727427
vt 0.927273 0.727278
vt 0.945455 0.727278
vt 0.127273 1.000000
vt 0.327273 0.890909
vt 0.327273 1.000000
vt 0.327273 0.618182
vt 0.127273 0.727273
vt 0.127273 0.618182
vt 0.290909 0.454545
vt 0.054545 0.545455
vt 0.072727 0.436364
vt 0.272727 0.381818
vt 0.272727 0.436364
vt 0.290909 0.545455
vt 0.054545 0.600000
vt 0.000000 0.454545
vt 0.054545 0.454545
vt 0.345455 0.436364
vt 0.290909 0.436364
vt 0.054545 0.436364
vt 0.000000 0.436364
vt 0.345455 0.545455
vt 0.345455 0.454545
vt 0.672727 0.481818
vt 0.654545 0.500000
vt 0.654545 0.481818
vt 0.672727 0.500000
vt 0.654545 0.518182
vt 0.672727 0.518182
vt 0.654545 0.536364
vt 0.672727 0.536364
vt 0.654545 0.554545
vt 0.672727 0.554545
vt 0.654545 0.572727
vt 0.672727 0.572727
vt 0.654545 0.590909
vt 0.721947 0.478052
vt 0.696234 0.478052
vt 0.696234 0.503765
vt 0.672727 0.590909
vt 0.654545 0.609091
vt 0.672727 0.609091
vt 0.654545 0.627273
vt 0.381818 0.527273
vt 0.363636 0.454545
vt 0.381818 0.454545
vt 0.509091 0.527273
vt 0.490909 0.454545
vt 0.509091 0.454545
vt 0.490909 0.527273
vt 0.490909 0.436364
vt 0.381818 0.436364
vt 0.381818 0.545455
vt 0.490909 0.545455
vt 0.581818 0.327273
vt 0.436364 0.309091
vt 0.581818 0.309091
vt 0.436364 0.363636
vt 0.581818 0.345455
vt 0.581818 0.363636
vt 0.436364 0.381818
vt 0.581818 0.400000
vt 0.436364 0.400000
vt 0.436364 0.418182
vt 0.581818 0.418182
vt 0.581818 0.290909
vt 0.436364 0.290909
vt 0.436364 0.345455
vt 0.581818 0.272727
vt 0.436364 0.272727
vt 0.401927 0.345455
vt 0.363636 0.329200
vt 0.379891 0.290909
vt 0.401927 0.418182
vt 0.363636 0.401927
vt 0.379891 0.363636
vt 0.727273 0.709091
vt 0.709091 0.672727
vt 0.727273 0.672727
vt 0.690909 0.690909
vt 0.672727 0.672727
vt 0.690909 0.672727
vt 0.672727 0.690909
vt 0.654545 0.672727
vt 0.963636 0.709091
vt 0.945455 0.672727
vt 0.963636 0.672727
vt 0.909091 0.690909
vt 0.890909 0.672727
vt 0.909091 0.672727
vt 0.927273 0.690909
vt 0.927273 0.672727
vt 0.672727 0.709091
vt 0.690909 0.709091
vt 0.909091 0.709091
vt 0.927273 0.709091
vt 0.745455 0.690909
vt 0.872727 0.709091
vt 0.745455 0.709091
vt 0.872727 0.672727
vt 0.745455 0.654545
vt 0.872727 0.654545
vt 0.872727 0.636364
vt 0.745455 0.636364
vt 0.872727 0.690909
vt 0.109091 0.345455
vt 0.127273 0.200000
vt 0.127273 0.345455
vt 0.163636 0.200000
vt 0.145455 0.345455
vt 0.145455 0.200000
vt 0.127273 0.345455
vt 0.109091 0.363636
vt 0.109091 0.345455
vt 0.181818 0.200000
vt 0.163636 0.345455
vt 0.163636 0.200000
vt 0.145455 0.200000
vt 0.127273 0.200000
vt 0.200000 0.345455
vt 0.218182 0.300000
vt 0.218182 0.345455
vt 0.272727 0.345455
vt 0.254545 0.300000
vt 0.272727 0.300000
vt 0.218182 0.300000
vt 0.236364 0.345455
vt 0.218182 0.345455
vt 0.254545 0.300000
vt 0.236364 0.345455
vt 0.236364 0.300000
vt 0.309091 0.345455
vt 0.290909 0.309091
vt 0.309091 0.309091
vt 0.309091 0.290909
vt 0.290909 0.290909
vt 0.309091 0.345455
vt 0.290909 0.363636
vt 0.290909 0.345455
vt 0.345455 0.345455
vt 0.327273 0.309091
vt 0.345455 0.309091
vt 0.327273 0.309091
vt 0.309091 0.309091
vt 0.036364 0.345455
vt 0.018182 0.245455
vt 0.036364 0.245455
vt 0.090909 0.345455
vt 0.072727 0.245455
vt 0.090909 0.245455
vt 0.072727 0.345455
vt 0.054545 0.245455
vt 0.054545 0.345455
vt 0.036364 0.218182
vt 0.018182 0.236364
vt 0.018182 0.218182
vt 0.036364 0.345455
vt 0.018182 0.363636
vt 0.018182 0.345455
vt 0.636364 0.563636
vt 0.345455 0.709091
vt 0.345455 0.563636
vt 0.763636 0.472727
vt 0.745454 0.490909
vt 0.745454 0.472727
vt 0.763636 0.490909
vt 0.745454 0.509091
vt 0.763636 0.509091
vt 0.745454 0.527273
vt 0.763636 0.527273
vt 0.745455 0.545455
vt 0.763636 0.545455
vt 0.745455 0.563636
vt 0.763636 0.563636
vt 0.745455 0.581818
vt 0.709090 0.581818
vt 0.690908 0.600000
vt 0.709090 0.618182
vt 0.763636 0.581818
vt 0.745455 0.600000
vt 0.763636 0.600000
vt 0.745455 0.618182
vt 0.728085 0.727278
vt 0.345455 0.872727
vt 0.000000 0.872727
vt 0.672711 0.727287
vt 0.690890 0.745465
vt 0.690890 0.872717
vt 0.472744 0.890896
vt 0.454565 0.745465
vt 0.919727 0.745465
vt 0.927257 0.752994
vt 0.927257 0.865187
vt 0.734819 0.872717
vt 0.727289 0.752995
vt 0.745460 0.872882
vt 0.927273 0.872722
vt 0.927267 0.745301
vt 0.127273 0.890909
vt 0.327273 0.727273
vt 0.072727 0.381818
vt 0.290909 0.600000
vt 0.000000 0.545455
vt 0.709091 0.509091
vt 0.721947 0.503765
vt 0.727273 0.490909
vt 0.709091 0.472727
vt 0.690909 0.490909
vt 0.672727 0.627273
vt 0.363636 0.527273
vt 0.436364 0.327273
vt 0.581818 0.381818
vt 0.401927 0.290909
vt 0.418182 0.307164
vt 0.418182 0.329200
vt 0.379891 0.345455
vt 0.363636 0.307164
vt 0.401927 0.363636
vt 0.418182 0.379891
vt 0.418182 0.401927
vt 0.379891 0.418182
vt 0.363636 0.379891
vt 0.709091 0.709091
vt 0.654545 0.709091
vt 0.945455 0.709091
vt 0.890909 0.709091
vt 0.745455 0.672727
vt 0.109091 0.200000
vt 0.163636 0.345455
vt 0.127273 0.363636
vt 0.181818 0.345455
vt 0.145455 0.345455
vt 0.200000 0.300000
vt 0.254545 0.345455
vt 0.236364 0.300000
vt 0.254545 0.345455
vt 0.290909 0.345455
vt 0.309091 0.363636
vt 0.327273 0.345455
vt 0.327273 0.345455
vt 0.018182 0.345455
vt 0.036364 0.236364
vt 0.036364 0.363636
vt 0.636364 0.709091
vt 0.721947 0.612856
vt 0.727272 0.600000
vt 0.721947 0.587143
vt 0.696234 0.587143
vt 0.696234 0.612856
vt 0.763636 0.618182
vn 0.7071 0.7071 -0.0000
vn 1.0000 0.0000 0.0000
vn -1.0000 0.0000 0.0000
vn -0.0000 -0.0000 -1.0000
vn -0.7071 -0.7071 0.0000
vn -0.7071 0.7071 0.0000
vn 0.7071 -0.7071 0.0000
vn -0.0000 0.0000 1.0000
vn 0.0000 -1.0000 0.0000
vn 0.0000 1.0000 -0.0000
vn 0.0000 0.3827 0.9239
vn 0.0000 -0.3827 0.9239
vn 0.0000 0.9239 -0.3827
vn 0.0000 0.9239 0.3827
vn 0.0000 0.3827 -0.9239
vn 0.0000 -0.3827 -0.9239
vn 0.0000 -0.9239 -0.3827
vn 0.0000 -0.9239 0.3827
vn 0.0000 0.7071 0.7071
vn 0.0000 -0.7071 0.7071
vn 0.0000 -0.7071 -0.7071
vn 0.0000 0.7071 -0.7071
usemtl Texture
s 1
f 1/1/1 2/2/1 3/3/1
f 4/4/2 5/5/2 6/6/2
f 7/7/3 8/8/3 9/9/3
f 10/10/4 4/11/4 11/12/4
f 12/13/5 8/8/5 13/14/5
f 10/15/6 7/7/6 14/16/6
f 11/17/7 5/5/7 15/18/7
f 16/19/1 4/4/1 17/20/1
f 3/21/8 12/22/8 1/23/8
f 18/24/8 7/7/8 19/25/8
f 20/26/8 5/27/8 21/28/8
f 22/29/8 16/30/8 23/31/8
f 1/23/8 15/32/8 20/26/8
f 19/25/8 9/9/8 3/21/8
f 21/28/8 24/33/8 22/29/8
f 23/31/8 14/34/8 18/24/8
f 25/35/8 26/36/8 27/37/8
f 18/38/9 25/39/9 23/40/9
f 3/3/2 26/41/2 19/42/2
f 23/43/5 28/44/5 22/45/5
f 19/42/7 29/46/7 18/47/7
f 22/45/3 30/48/3 21/49/3
f 20/50/10 27/51/10 1/52/10
f 21/49/6 31/53/6 20/54/6
f 32/55/10 33/56/10 34/57/10
f 35/58/9 36/59/9 37/60/9
f 38/61/4 39/62/4 40/63/4
f 40/63/9 41/64/9 42/65/9
f 43/66/10 44/67/10 39/62/10
f 39/62/2 45/68/2 46/69/2
f 41/70/5 38/61/5 42/71/5
f 40/72/7 45/68/7 47/73/7
f 48/74/3 38/61/3 49/75/3
f 50/76/10 51/77/1 52/78/10
f 53/79/1 54/80/2 51/77/1
f 55/81/2 56/82/7 54/80/2
f 57/83/7 58/84/9 56/82/7
f 59/85/9 60/86/5 58/84/9
f 61/87/5 62/88/3 60/86/5
f 63/89/8 59/90/8 55/91/8
f 63/92/3 64/93/6 62/88/3
f 65/94/6 52/95/10 64/93/6
f 66/96/3 67/97/3 68/98/3
f 69/99/2 70/100/2 71/101/2
f 72/102/8 68/98/8 70/100/8
f 71/103/9 68/98/9 67/104/9
f 73/105/10 72/102/10 69/106/10
f 74/107/11 75/108/12 76/109/12
f 77/110/13 78/111/14 79/112/13
f 80/113/15 81/114/16 82/115/16
f 83/116/17 81/114/16 84/117/17
f 79/112/13 80/113/15 77/110/13
f 85/118/18 75/108/12 86/119/18
f 87/120/14 74/107/11 78/111/14
f 84/121/17 86/119/18 83/122/17
f 88/123/2 89/124/2 90/125/2
f 91/126/3 92/127/3 93/128/3
f 94/129/2 95/130/2 96/131/2
f 97/132/3 98/133/3 99/134/3
f 100/135/4 96/136/4 98/133/4
f 101/137/3 102/138/3 103/139/3
f 104/140/8 103/141/8 105/142/8
f 102/138/4 106/143/4 107/144/4
f 106/143/2 105/142/2 107/144/2
f 94/145/6 97/132/6 108/146/6
f 101/147/1 106/143/1 109/148/1
f 95/130/8 97/132/8 99/134/8
f 110/149/4 111/150/4 112/151/4
f 113/152/8 114/153/8 115/154/8
f 111/155/9 114/153/9 112/156/9
f 110/149/10 113/152/10 116/157/10
f 117/158/3 118/159/3 119/160/3
f 120/161/2 121/162/2 122/163/2
f 123/164/8 119/165/8 121/166/8
f 122/167/9 119/168/9 118/169/9
f 124/170/10 123/164/10 120/171/10
f 125/172/8 126/173/8 127/174/8
f 128/175/9 126/176/9 129/177/9
f 130/178/10 125/179/10 131/180/10
f 130/181/4 128/182/4 129/183/4
f 132/184/8 133/185/8 134/186/8
f 135/187/9 133/185/9 136/188/9
f 137/189/10 132/190/10 138/191/10
f 137/192/4 135/193/4 136/194/4
f 133/195/3 137/189/3 136/196/3
f 139/197/3 140/198/3 141/199/3
f 142/200/4 143/201/4 140/202/4
f 144/203/2 145/204/2 143/201/2
f 146/205/8 141/199/8 145/204/8
f 143/206/9 141/207/9 140/208/9
f 142/209/10 146/210/10 144/211/10
f 147/212/10 148/213/10 149/214/10
f 150/215/10 151/216/19 152/217/10
f 153/218/19 154/219/8 151/216/19
f 155/220/8 156/221/20 154/219/8
f 157/222/20 158/223/9 156/221/20
f 159/224/9 160/225/21 158/223/9
f 161/226/21 162/227/4 160/225/21
f 163/228/3 159/229/3 155/230/3
f 163/231/4 164/232/22 162/227/4
f 165/233/22 152/234/10 164/232/22
f 1/1/1 27/235/1 2/2/1
f 4/4/2 24/236/2 5/5/2
f 7/7/3 166/237/3 8/8/3
f 11/12/4 13/238/4 8/239/4
f 8/239/4 166/240/4 10/10/4
f 10/10/4 17/241/4 4/11/4
f 4/11/4 6/242/4 11/12/4
f 11/12/4 8/239/4 10/10/4
f 12/13/5 9/9/5 8/8/5
f 10/15/6 166/237/6 7/7/6
f 11/17/7 6/6/7 5/5/7
f 16/19/1 24/236/1 4/4/1
f 3/21/8 9/9/8 12/22/8
f 18/24/8 14/34/8 7/7/8
f 20/26/8 15/32/8 5/27/8
f 22/29/8 24/33/8 16/30/8
f 1/23/8 12/22/8 15/32/8
f 19/25/8 7/7/8 9/9/8
f 21/28/8 5/27/8 24/33/8
f 23/31/8 16/30/8 14/34/8
f 27/37/8 31/243/8 30/244/8
f 30/244/8 28/245/8 25/35/8
f 25/35/8 29/246/8 26/36/8
f 26/36/8 2/247/8 27/37/8
f 27/37/8 30/244/8 25/35/8
f 18/38/9 29/248/9 25/39/9
f 3/3/2 2/2/2 26/41/2
f 23/43/5 25/249/5 28/44/5
f 19/42/7 26/41/7 29/46/7
f 22/45/3 28/44/3 30/48/3
f 20/50/10 31/250/10 27/51/10
f 21/49/6 30/48/6 31/53/6
f 32/55/10 167/251/10 33/56/10
f 35/58/9 168/252/9 36/59/9
f 40/63/4 42/65/4 38/61/4
f 38/61/4 43/66/4 39/62/4
f 39/62/4 46/69/4 40/63/4
f 40/63/9 47/253/9 41/64/9
f 43/66/10 48/254/10 44/67/10
f 39/62/2 44/255/2 45/68/2
f 41/70/5 49/75/5 38/61/5
f 40/72/7 46/69/7 45/68/7
f 48/74/3 43/66/3 38/61/3
f 50/76/10 53/79/1 51/77/1
f 53/79/1 55/81/2 54/80/2
f 55/81/2 57/83/7 56/82/7
f 57/83/7 59/85/9 58/84/9
f 59/85/9 61/87/5 60/86/5
f 61/87/5 63/92/3 62/88/3
f 55/91/8 53/256/8 50/257/8
f 50/257/8 65/258/8 63/89/8
f 63/89/8 61/259/8 59/90/8
f 59/90/8 57/260/8 55/91/8
f 55/91/8 50/257/8 63/89/8
f 63/92/3 65/94/6 64/93/6
f 65/94/6 50/261/10 52/95/10
f 66/96/3 73/262/3 67/97/3
f 69/99/2 72/102/2 70/100/2
f 72/102/8 66/96/8 68/98/8
f 71/103/9 70/100/9 68/98/9
f 73/105/10 66/96/10 72/102/10
f 74/107/11 169/263/11 75/108/12
f 77/110/13 87/120/14 78/111/14
f 80/113/15 170/264/15 81/114/16
f 83/116/17 82/115/16 81/114/16
f 79/112/13 170/264/15 80/113/15
f 85/118/18 76/109/12 75/108/12
f 87/120/14 169/263/11 74/107/11
f 84/121/17 85/118/18 86/119/18
f 90/125/2 171/265/2 172/266/2
f 172/266/2 173/267/2 88/123/2
f 88/123/2 174/268/2 89/124/2
f 89/124/2 175/269/2 90/125/2
f 90/125/2 172/266/2 88/123/2
f 93/128/3 176/270/3 177/271/3
f 177/271/3 178/272/3 91/126/3
f 91/126/3 179/273/3 92/127/3
f 92/127/3 180/274/3 93/128/3
f 93/128/3 177/271/3 91/126/3
f 94/129/2 108/275/2 95/130/2
f 97/132/3 100/135/3 98/133/3
f 100/135/4 94/276/4 96/136/4
f 101/137/3 109/277/3 102/138/3
f 104/140/8 101/278/8 103/141/8
f 102/138/4 109/277/4 106/143/4
f 106/143/2 104/140/2 105/142/2
f 94/145/6 100/135/6 97/132/6
f 101/147/1 104/140/1 106/143/1
f 95/130/8 108/275/8 97/132/8
f 110/149/4 116/157/4 111/150/4
f 113/152/8 181/279/8 114/153/8
f 111/155/9 115/154/9 114/153/9
f 110/149/10 181/279/10 113/152/10
f 117/158/3 124/280/3 118/159/3
f 120/161/2 123/281/2 121/162/2
f 123/164/8 117/282/8 119/165/8
f 122/167/9 121/283/9 119/168/9
f 124/170/10 117/284/10 123/164/10
f 125/172/8 182/285/8 126/173/8
f 128/175/9 127/286/9 126/176/9
f 130/178/10 182/287/10 125/179/10
f 130/181/4 131/288/4 128/182/4
f 132/184/8 183/289/8 133/185/8
f 135/187/9 134/186/9 133/185/9
f 137/189/10 183/290/10 132/190/10
f 137/192/4 138/291/4 135/193/4
f 133/195/3 183/292/3 137/189/3
f 139/197/3 142/293/3 140/198/3
f 142/200/4 144/203/4 143/201/4
f 144/203/2 146/205/2 145/204/2
f 146/205/8 139/197/8 141/199/8
f 143/206/9 145/294/9 141/207/9
f 142/209/10 139/295/10 146/210/10
f 147/212/10 184/296/10 148/213/10
f 150/215/10 153/218/19 151/216/19
f 153/218/19 155/220/8 154/219/8
f 155/220/8 157/222/20 156/221/20
f 157/222/20 159/224/9 158/223/9
f 159/224/9 161/226/21 160/225/21
f 161/226/21 163/231/4 162/227/4
f 155/230/3 153/297/3 150/298/3
f 150/298/3 165/299/3 163/228/3
f 163/228/3 161/300/3 159/229/3
f 159/229/3 157/301/3 155/230/3
f 155/230/3 150/298/3 163/228/3
f 163/231/4 165/233/22 164/232/22
f 165/233/22 150/302/10 152/234/10
