# Blender v2.79 (sub 0) OBJ File: 'splitter.blend'
# www.blender.org
mtllib splitter.mtl
o Inner
usemtl inner
v 0.000000 0.250000 -0.375000
v 0.000000 0.250000 0.375000
v 0.000000 0.875000 -0.375000
v 0.000000 0.875000 0.375000
vt 0.875000 0.875000
vt 0.125000 0.250000
vt 0.875000 0.250000
vt 0.125000 0.875000
vn -1.0000 0.0000 0.0000
s off
f 4/1/1 3/4/1 1/2/1 2/3/1
o InnerBottom
usemtl belt
v -0.500000 0.250000 0.375000
v -0.500000 0.250000 -0.375000
v 0.000000 0.250000 -0.375000
v 0.000000 0.250000 0.375000
vt 0.875000 0.000000
vt 0.125000 0.500000
vt 0.125000 0.000000
vt 0.875000 0.500000
vn 0.0000 1.0000 0.0000
s off
f 5/5/2 8/8/2 7/6/2 6/7/2
o InnerLeft
usemtl inner_side
v -0.500000 0.250000 0.375000
v -0.500000 0.875000 0.375000
v 0.000000 0.250000 0.375000
v 0.000000 0.875000 0.375000
vt 0.187500 1.000000
vt 0.812500 0.500000
vt 0.812500 1.000000
vt 0.187500 0.500000
vn 0.0000 0.0000 -1.0000
s off
f 10/9/3 12/12/3 11/10/3 9/11/3
o InnerTop
usemtl inner_side
v -0.500000 0.875000 0.375000
v -0.500000 0.875000 -0.375000
v 0.000000 0.875000 -0.375000
v 0.000000 0.875000 0.375000
vt 0.125000 1.000000
vt 0.875000 0.500000
vt 0.875000 1.000000
vt 0.125000 0.500000
vn 0.0000 -1.0000 0.0000
s off
f 14/13/4 15/16/4 16/14/4 13/15/4
o InnerRight
usemtl inner_side
v -0.500000 0.250000 -0.375000
v -0.500000 0.875000 -0.375000
v 0.000000 0.250000 -0.375000
v 0.000000 0.875000 -0.375000
vt 0.187500 1.000000
vt 0.812500 0.500000
vt 0.812500 1.000000
vt 0.187500 0.500000
vn 0.0000 0.0000 1.0000
s off
f 17/17/5 19/20/5 20/18/5 18/19/5
o Top
usemtl top
v -0.500000 1.000000 -0.500000
v -0.500000 1.000000 0.500000
v 0.500000 0.875000 0.500000
v 0.500000 0.875000 -0.500000
v 0.000000 1.000000 0.500000
v 0.000000 1.000000 -0.500000
vt 0.000000 0.000000
vt 1.000000 0.500000
vt 0.000000 0.500000
vt 1.000000 1.000000
vt 0.000000 1.000000
vt 1.000000 0.000000
vn 0.2425 0.9701 0.0000
vn 0.0000 1.0000 0.0000
s off
f 23/21/6 26/22/6 25/23/6
f 25/23/7 21/24/7 22/25/7
f 23/21/6 24/26/6 26/22/6
f 25/23/7 26/22/7 21/24/7
o Right
usemtl side_right
v -0.500000 0.000000 -0.500000
v 0.500000 0.000000 -0.500000
v -0.500000 1.000000 -0.500000
v 0.500000 0.875000 -0.500000
v 0.000000 1.000000 -0.500000
vt 1.000000 0.000000
vt 1.000000 1.000000
vt 0.500000 1.000000
vt 0.000000 0.875000
vt 0.000000 0.000000
vn 0.0000 0.0000 -1.0000
s off
f 27/27/8 29/28/8 31/29/8
f 30/30/8 28/31/8 31/29/8
f 28/31/8 27/27/8 31/29/8
o Left
usemtl side_left
v -0.500000 0.000000 0.500000
v 0.500000 0.000000 0.500000
v -0.500000 1.000000 0.500000
v 0.500000 0.875000 0.500000
v 0.000000 1.000000 0.500000
vt 1.000000 0.000000
vt 1.000000 0.875000
vt 0.500000 1.000000
vt 0.000000 1.000000
vt 0.000000 0.000000
vn 0.0000 0.0000 1.0000
s off
f 33/32/9 35/33/9 36/34/9
f 34/35/9 32/36/9 36/34/9
f 32/36/9 33/32/9 36/34/9
o Back
usemtl back
v 0.500000 0.000000 0.500000
v 0.500000 0.000000 -0.500000
v 0.500000 0.875000 0.500000
v 0.500000 0.875000 -0.500000
vt 1.000000 0.000000
vt 0.000000 0.875000
vt 0.000000 0.000000
vt 1.000000 0.875000
vn 1.0000 0.0000 0.0000
s off
f 38/37/10 40/40/10 39/38/10 37/39/10
o Bottom
usemtl bottom
v -0.500000 0.000000 0.500000
v 0.500000 0.000000 0.500000
v -0.500000 0.000000 -0.500000
v 0.500000 0.000000 -0.500000
vt 0.000000 1.000000
vt 1.000000 0.000000
vt 1.000000 1.000000
vt 0.000000 0.000000
vn 0.0000 -1.0000 0.0000
s off
f 43/41/11 44/44/11 42/42/11 41/43/11
o Front
usemtl front
v -0.500000 0.000000 0.500000
v -0.500000 0.000000 -0.500000
v -0.500000 1.000000 -0.500000
v -0.500000 1.000000 0.500000
v -0.500000 0.250000 0.375000
v -0.500000 0.250000 -0.375000
v -0.500000 0.875000 0.375000
v -0.500000 0.875000 -0.375000
vt 0.000000 1.000000
vt 0.125000 0.250000
vt 0.125000 0.875000
vt 0.875000 0.250000
vt 0.000000 0.000000
vt 1.000000 0.000000
vt 1.000000 1.000000
vt 0.875000 0.875000
vn -1.0000 0.0000 0.0000
s off
f 47/45/12 50/46/12 52/47/12
f 49/48/12 46/49/12 45/50/12
f 48/51/12 49/48/12 45/50/12
f 47/45/12 51/52/12 48/51/12
f 47/45/12 46/49/12 50/46/12
f 49/48/12 50/46/12 46/49/12
f 48/51/12 51/52/12 49/48/12
f 47/45/12 52/47/12 51/52/12
