mtllib legacy_default.mtl
v 0.125000 0.312500 0.375000
v 0.125000 0.312500 -0.500000
v 0.125000 -0.312500 0.375000
v 0.125000 -0.312500 -0.500000
v 0.062500 0.312500 0.375000
v 0.062500 0.312500 -0.500000
v 0.062500 -0.312500 0.375000
v 0.062500 -0.312500 -0.500000
v 0.000000 0.250000 0.375000
v 0.000000 0.250000 -0.500000
v 0.000000 -0.250000 0.375000
v 0.000000 -0.250000 -0.500000
v 0.125000 0.312500 0.187500
v 0.125000 -0.312500 0.187500
v 0.125000 0.312500 -0.187500
v 0.125000 -0.312500 -0.187500
v 0.062500 0.312500 -0.187500
v 0.000000 0.250000 -0.187500
v 0.062500 0.312500 0.187500
v 0.000000 0.250000 0.187500
v 0.062500 -0.312500 0.187500
v 0.000000 -0.250000 0.187500
v 0.062500 -0.312500 -0.187500
v 0.000000 -0.250000 -0.187500
vn 1.0000 -0.0000 -0.0000
vn -0.0000 -0.0000 1.0000
vn -0.0000 -0.0000 -1.0000
vn -0.0000 -1.0000 -0.0000
vn -0.7071 -0.7071 -0.0000
vn -0.0000 1.0000 -0.0000
vn -0.7071 0.7071 -0.0000
vn -1.0000 -0.0000 -0.0000
vt 0.000000 0.000000
vt 0.187500 0.000000
vt 0.187500 0.625000
vt 0.000000 0.625000
vt 0.187500 0.750000
vt 0.812500 0.750000
vt 0.812500 0.812500
vt 0.187500 0.812500
vt 0.187500 0.937500
vt 0.187500 0.875000
vt 0.812500 0.875000
vt 0.812500 0.937500
vt 0.750000 0.875000
vt 0.250000 0.875000
vt 0.812500 0.625000
vt 0.500000 0.625000
vt 0.500000 0.000000
vt 0.812500 0.000000
vt 0.687500 0.687500
vt 0.375000 0.687500
vt 0.375000 0.625000
vt 0.687500 0.625000
vt 0.687500 0.750000
vt 0.312500 0.750000
vt 0.312500 0.687500
vt 0.812500 0.687500
vt 0.500000 0.687500
vt 0.500000 0.750000
vt 0.625000 0.687500
vt 0.312500 0.625000
vt 0.625000 0.625000
vt 0.187500 0.687500
vt 0.000000 0.687500
vt 0.000000 0.750000
vt 0.312500 0.000000
vt 0.625000 0.000000
vt 1.000000 0.687500
vt 1.000000 0.625000
vt 1.000000 0.750000
vt 0.750000 0.812500
vt 0.250000 0.812500
v 0.125000 0.312500 0.500000
v 0.125000 0.312500 -0.500000
v 0.125000 -0.312500 0.500000
v 0.125000 -0.312500 -0.500000
v 0.062500 0.312500 0.500000
v 0.062500 0.312500 -0.500000
v 0.062500 -0.312500 0.500000
v 0.062500 -0.312500 -0.500000
v 0.000000 0.250000 0.500000
v 0.000000 0.250000 -0.500000
v 0.000000 -0.250000 0.500000
v 0.000000 -0.250000 -0.500000
v 0.125000 0.312500 0.187500
v 0.125000 -0.312500 0.187500
v 0.125000 0.312500 -0.187500
v 0.125000 -0.312500 -0.187500
v 0.062500 0.312500 -0.187500
v 0.000000 0.250000 -0.187500
v 0.062500 0.312500 0.187500
v 0.000000 0.250000 0.187500
v 0.062500 -0.312500 0.187500
v 0.000000 -0.250000 0.187500
v 0.062500 -0.312500 -0.187500
v 0.000000 -0.250000 -0.187500
vn 1.0000 -0.0000 -0.0000
vn -0.0000 -0.0000 1.0000
vn -0.0000 -0.0000 -1.0000
vn -0.0000 -1.0000 -0.0000
vn -0.7071 -0.7071 -0.0000
vn -0.0000 1.0000 -0.0000
vn -0.7071 0.7071 -0.0000
vn -1.0000 -0.0000 -0.0000
vt 0.187500 0.000000
vt 0.500000 0.000000
vt 0.500000 0.625000
vt 0.187500 0.625000
vt 0.187500 0.875000
vt 0.812500 0.875000
vt 0.812500 0.937500
vt 0.187500 0.937500
vt 0.750000 0.875000
vt 0.250000 0.875000
vt 0.187500 0.812500
vt 0.812500 0.812500
vt 0.812500 0.625000
vt 0.812500 0.000000
vt 0.625000 0.687500
vt 0.375000 0.687500
vt 0.375000 0.625000
vt 0.625000 0.625000
vt 0.687500 0.750000
vt 0.312500 0.750000
vt 0.312500 0.687500
vt 0.687500 0.687500
vt 0.812500 0.687500
vt 0.500000 0.687500
vt 0.812500 0.750000
vt 0.500000 0.750000
vt 0.187500 0.687500
vt 0.187500 0.750000
vt 0.375000 0.000000
vt 0.625000 0.000000
vt 0.750000 0.812500
vt 0.250000 0.812500
v 0.125000 0.312500 0.375000
v 0.125000 0.312500 -0.375000
v 0.125000 -0.312500 0.375000
v 0.125000 -0.312500 -0.375000
v 0.062500 0.312500 0.375000
v 0.062500 0.312500 -0.375000
v 0.062500 -0.312500 0.375000
v 0.062500 -0.312500 -0.375000
v 0.000000 0.250000 0.375000
v 0.000000 0.250000 -0.375000
v 0.000000 -0.250000 0.375000
v 0.000000 -0.250000 -0.375000
v 0.125000 0.312500 0.187500
v 0.125000 -0.312500 0.187500
v 0.125000 0.312500 -0.187500
v 0.125000 -0.312500 -0.187500
v 0.062500 0.312500 -0.187500
v 0.000000 0.250000 -0.187500
v 0.062500 0.312500 0.187500
v 0.000000 0.250000 0.187500
v 0.062500 -0.312500 0.187500
v 0.000000 -0.250000 0.187500
v 0.062500 -0.312500 -0.187500
v 0.000000 -0.250000 -0.187500
vn 1.0000 -0.0000 -0.0000
vn -0.0000 -0.0000 1.0000
vn -0.0000 -0.0000 -1.0000
vn -0.0000 -1.0000 -0.0000
vn -0.7071 -0.7071 -0.0000
vn -0.0000 1.0000 -0.0000
vn -0.7071 0.7071 -0.0000
vn -1.0000 -0.0000 -0.0000
vt 0.000000 0.000000
vt 0.187500 0.000000
vt 0.187500 0.625000
vt 0.000000 0.625000
vt 0.187500 0.750000
vt 0.812500 0.750000
vt 0.812500 0.812500
vt 0.187500 0.812500
vt 0.750000 0.875000
vt 0.250000 0.875000
vt 1.000000 0.625000
vt 0.812500 0.625000
vt 0.812500 0.000000
vt 1.000000 0.000000
vt 0.687500 0.687500
vt 0.312500 0.687500
vt 0.312500 0.625000
vt 0.687500 0.625000
vt 0.687500 0.750000
vt 0.312500 0.750000
vt 1.000000 0.687500
vt 0.812500 0.687500
vt 1.000000 0.750000
vt 0.187500 0.687500
vt 0.000000 0.687500
vt 0.000000 0.750000
vt 0.312500 0.000000
vt 0.687500 0.000000
vt 0.750000 0.812500
vt 0.250000 0.812500
o FluoroSingle
s 1
usemtl default
f 51/74/17 62/75/17 61/76/17
f 51/74/17 61/76/17 49/77/17
f 51/78/18 49/79/18 53/80/18
f 51/78/18 53/80/18 55/81/18
f 54/81/19 50/78/19 52/79/19
f 54/81/19 52/79/19 56/80/19
f 57/82/18 59/83/18 55/81/18
f 57/82/18 55/81/18 53/80/18
f 60/82/19 58/83/19 54/81/19
f 60/82/19 54/81/19 56/80/19
f 50/84/17 63/85/17 64/86/17
f 50/84/17 64/86/17 52/87/17
f 69/88/20 71/89/20 64/90/20
f 69/88/20 64/90/20 62/91/20
f 70/92/21 72/93/21 71/89/21
f 70/92/21 71/89/21 69/88/21
f 54/94/22 65/95/22 63/85/22
f 54/94/22 63/85/22 50/84/22
f 58/96/23 66/79/23 65/95/23
f 58/96/23 65/95/23 54/94/23
f 65/88/22 67/89/22 61/90/22
f 65/88/22 61/90/22 63/91/22
f 66/92/23 68/93/23 67/89/23
f 66/92/23 67/89/23 65/88/23
f 49/77/22 61/76/22 67/97/22
f 49/77/22 67/97/22 53/98/22
f 53/98/23 67/97/23 68/78/23
f 53/98/23 68/78/23 57/99/23
f 62/100/17 64/101/17 63/91/17
f 62/100/17 63/91/17 61/90/17
f 55/94/20 69/95/20 62/85/20
f 55/94/20 62/85/20 51/84/20
f 59/96/21 70/79/21 69/95/21
f 59/96/21 69/95/21 55/94/21
f 52/77/20 64/76/20 71/97/20
f 52/77/20 71/97/20 56/98/20
f 56/98/21 71/97/21 72/78/21
f 56/98/21 72/78/21 60/99/21
f 57/102/24 58/82/24 60/83/24
f 57/102/24 60/83/24 59/103/24
