# Blender v2.79 (sub 7) OBJ File: 'dud1.blend'
# www.blender.org
mtllib dud_conventional.mtl
o Cube.003_Cube.005
v 0.392370 -0.392370 -1.500000
v 0.392370 -0.392370 2.499999
v 0.267370 -0.392370 -1.500000
v 0.267370 -0.392370 2.499999
v 0.392370 -0.267370 -1.500000
v 0.392370 -0.267370 2.499999
v 0.267370 -0.267370 -1.500000
v 0.267370 -0.267370 2.499999
v -0.392369 -0.392370 -1.500000
v -0.392370 -0.392369 2.499999
v -0.392369 -0.267370 -1.500000
v -0.392370 -0.267369 2.499999
v -0.267369 -0.392370 -1.500000
v -0.267370 -0.392369 2.499999
v -0.267369 -0.267370 -1.500000
v -0.267370 -0.267369 2.499999
v -0.392370 0.392369 -1.500000
v -0.392370 0.392370 2.499999
v -0.267370 0.392369 -1.500000
v -0.267370 0.392370 2.499999
v -0.392370 0.267369 -1.500000
v -0.392370 0.267370 2.499999
v -0.267370 0.267369 -1.500000
v -0.267370 0.267370 2.499999
v 0.392369 0.392369 -1.499999
v 0.392370 0.392370 2.499998
v 0.392369 0.267369 -1.499999
v 0.392370 0.267370 2.499999
v 0.267369 0.392370 -1.499999
v 0.267370 0.392370 2.499999
v 0.267369 0.267370 -1.499999
v 0.267370 0.267370 2.499999
v 0.220971 -0.088388 -3.500000
v 0.220971 -0.088388 -3.437500
v 0.265165 -0.132582 -3.500000
v 0.265165 -0.132582 -3.437500
v 0.088388 -0.220971 -3.500000
v 0.088388 -0.220971 -3.437500
v 0.132583 -0.265165 -3.500000
v 0.132583 -0.265165 -3.437500
v 0.353553 -0.132582 -3.437500
v 0.353553 -0.132582 -3.500000
v 0.132583 -0.353553 -3.500000
v 0.132583 -0.353553 -3.437500
v 0.707107 -0.486136 -3.437500
v 0.707107 -0.486136 -3.500000
v 0.486136 -0.707107 -3.500000
v 0.486136 -0.707107 -3.437500
v -0.088388 -0.220971 -3.500000
v -0.088388 -0.220971 -3.437500
v -0.132582 -0.265166 -3.500000
v -0.132582 -0.265166 -3.437500
v -0.220970 -0.088389 -3.500000
v -0.220970 -0.088389 -3.437500
v -0.265165 -0.132583 -3.500000
v -0.265165 -0.132583 -3.437500
v -0.132582 -0.353554 -3.437500
v -0.132582 -0.353554 -3.500000
v -0.353553 -0.132583 -3.500000
v -0.353553 -0.132583 -3.437500
v -0.486135 -0.707107 -3.437500
v -0.486135 -0.707107 -3.500000
v -0.707106 -0.486136 -3.500000
v -0.707106 -0.486136 -3.437500
v -0.220971 0.088387 -3.500000
v -0.220971 0.088387 -3.437500
v -0.265165 0.132582 -3.500000
v -0.265165 0.132582 -3.437500
v -0.088388 0.220970 -3.500000
v -0.088388 0.220970 -3.437500
v -0.132582 0.265164 -3.500000
v -0.132582 0.265164 -3.437500
v -0.353553 0.132582 -3.437500
v -0.353553 0.132582 -3.500000
v -0.132583 0.353552 -3.500000
v -0.132582 0.353552 -3.437500
v -0.707107 0.486135 -3.437501
v -0.707107 0.486135 -3.500001
v -0.486136 0.707106 -3.500001
v -0.486136 0.707106 -3.437501
v 0.088388 0.220970 -3.500000
v 0.088388 0.220970 -3.437500
v 0.132582 0.265164 -3.500000
v 0.132582 0.265164 -3.437500
v 0.220970 0.088388 -3.500000
v 0.220970 0.088388 -3.437500
v 0.265164 0.132582 -3.500000
v 0.265164 0.132582 -3.437500
v 0.132582 0.353553 -3.437501
v 0.132582 0.353553 -3.500000
v 0.353553 0.132582 -3.500000
v 0.353553 0.132582 -3.437500
v 0.486135 0.707106 -3.437501
v 0.486135 0.707106 -3.500001
v 0.707106 0.486135 -3.500001
v 0.707106 0.486135 -3.437501
v 0.420463 -0.062500 -1.424884
v 0.420463 0.062500 -1.424884
v 0.420463 0.000000 -1.500000
v 0.920463 -0.062500 -1.674884
v 0.920463 0.000000 -1.750000
v 0.920463 0.062500 -1.674884
v 0.420463 -0.062500 0.424884
v 0.420463 -0.000000 0.500000
v 0.420463 0.062500 0.424884
v 0.920463 -0.062500 0.174884
v 0.920463 0.062500 0.174884
v 0.920463 -0.000000 0.250000
v -0.420463 -0.062500 -1.424884
v -0.420463 0.062500 -1.424884
v -0.420463 0.000000 -1.500000
v -0.920463 -0.062500 -1.674884
v -0.920463 0.000000 -1.750000
v -0.920463 0.062500 -1.674884
v -0.420463 -0.062500 0.424884
v -0.420463 -0.000000 0.500000
v -0.420463 0.062500 0.424884
v -0.920463 -0.062500 0.174884
v -0.920463 0.062500 0.174884
v -0.920463 -0.000000 0.250000
v -0.186935 -0.031250 3.781250
v -0.186935 -0.031250 4.156250
v -0.186935 0.031250 3.781250
v -0.186935 0.031250 4.156250
v -0.124435 -0.031250 3.781250
v -0.124435 -0.031250 4.156250
v -0.124435 0.031250 3.781250
v -0.124435 0.031250 4.156250
v 0.186935 -0.031250 3.781250
v 0.186935 -0.031250 4.156250
v 0.186935 0.031250 3.781250
v 0.186935 0.031250 4.156250
v 0.124435 -0.031250 3.781250
v 0.124435 -0.031250 4.156250
v 0.124435 0.031250 3.781250
v 0.124435 0.031250 4.156250
v -0.000000 0.482963 -2.000000
v -0.000000 0.482962 3.000000
v 0.241481 0.418258 -2.000000
v 0.241481 0.418258 3.000000
v 0.418258 0.241481 -2.000000
v 0.418258 0.241481 3.000000
v 0.482963 0.000000 -2.000000
v 0.482963 -0.000000 3.000000
v 0.418258 -0.241481 -2.000000
v 0.418258 -0.241482 3.000000
v 0.241481 -0.418258 -2.000000
v 0.241481 -0.418258 3.000000
v 0.000000 -0.482963 -2.000000
v 0.000000 -0.482963 3.000000
v -0.241481 -0.418258 -2.000000
v -0.241481 -0.418258 3.000000
v -0.418258 -0.241481 -2.000000
v -0.418258 -0.241482 3.000000
v -0.482963 -0.000000 -2.000000
v -0.482963 -0.000000 3.000000
v -0.418258 0.241481 -2.000000
v -0.418258 0.241481 3.000000
v -0.241482 0.418258 -2.000000
v -0.241482 0.418258 3.000000
v 0.000000 0.241481 -3.000000
v 0.120741 0.209129 -3.000000
v 0.209129 0.120741 -3.000000
v 0.241481 0.000000 -3.000000
v 0.209129 -0.120741 -3.000000
v 0.120741 -0.209129 -3.000000
v 0.000000 -0.241481 -3.000000
v -0.120741 -0.209129 -3.000000
v -0.209129 -0.120741 -3.000000
v -0.241481 -0.000000 -3.000000
v -0.209129 0.120741 -3.000000
v -0.120741 0.209129 -3.000000
v 0.000000 0.241481 -3.500000
v 0.120741 0.209129 -3.500000
v 0.209129 0.120741 -3.500000
v 0.241481 0.000000 -3.500000
v 0.209129 -0.120741 -3.500000
v 0.120741 -0.209129 -3.500000
v 0.000000 -0.241481 -3.500000
v -0.120741 -0.209129 -3.500000
v -0.209129 -0.120741 -3.500000
v -0.241481 -0.000000 -3.500000
v -0.209129 0.120741 -3.500000
v -0.120741 0.209129 -3.500000
v 0.120741 0.209129 3.750000
v -0.000000 0.241481 3.750000
v 0.209129 0.120740 3.750000
v 0.241481 -0.000000 3.750000
v 0.209129 -0.120741 3.750000
v 0.120741 -0.209129 3.750000
v 0.000000 -0.241481 3.750000
v -0.120741 -0.209129 3.750000
v -0.209129 -0.120741 3.750000
v -0.241481 -0.000000 3.750000
v -0.209129 0.120740 3.750000
v -0.120741 0.209129 3.750000
v 0.000000 -0.000000 4.000000
vt 0.382857 0.042857
vt 0.017143 0.071429
vt 0.017143 0.042857
vt 0.382857 0.014286
vt 0.017143 0.014286
vt 0.005714 0.014286
vt 0.005714 0.042857
vt 0.394286 0.042857
vt 0.394286 0.014286
vt 0.382857 0.114286
vt 0.017143 0.142857
vt 0.017143 0.114286
vt 0.382857 0.085714
vt 0.017143 0.085714
vt 0.005714 0.085714
vt 0.005714 0.114286
vt 0.394286 0.114286
vt 0.394286 0.085714
vt 0.382857 0.185714
vt 0.017143 0.214286
vt 0.017143 0.185714
vt 0.382857 0.157143
vt 0.017143 0.157143
vt 0.005714 0.157143
vt 0.005714 0.185714
vt 0.394286 0.185714
vt 0.394286 0.157143
vt 0.382857 0.257143
vt 0.017143 0.285714
vt 0.017143 0.257143
vt 0.017143 0.228571
vt 0.005714 0.228571
vt 0.005714 0.257143
vt 0.394286 0.257143
vt 0.382857 0.228571
vt 0.394286 0.228571
vt 0.691429 0.128571
vt 0.685714 0.142857
vt 0.685714 0.128571
vt 0.657143 0.142857
vt 0.651429 0.157143
vt 0.651429 0.142857
vt 0.657143 0.128571
vt 0.662857 0.142857
vt 0.680000 0.128571
vt 0.680000 0.142857
vt 0.645714 0.142857
vt 0.628571 0.128571
vt 0.645714 0.128571
vt 0.657143 0.157143
vt 0.651429 0.271429
vt 0.622857 0.157143
vt 0.628571 0.142857
vt 0.691429 0.142857
vt 0.685714 0.157143
vt 0.685714 0.285714
vt 0.657143 0.271429
vt 0.685714 0.271429
vt 0.622857 0.271429
vt 0.691429 0.157143
vt 0.617143 0.128571
vt 0.611429 0.142857
vt 0.611429 0.128571
vt 0.582857 0.142857
vt 0.577143 0.157143
vt 0.577143 0.142857
vt 0.582857 0.128571
vt 0.588571 0.142857
vt 0.605714 0.128571
vt 0.605714 0.142857
vt 0.571429 0.142857
vt 0.554286 0.128571
vt 0.571429 0.128571
vt 0.582857 0.157143
vt 0.577143 0.271429
vt 0.548571 0.157143
vt 0.554286 0.142857
vt 0.617143 0.142857
vt 0.611429 0.157143
vt 0.611429 0.285714
vt 0.582857 0.271429
vt 0.611429 0.271429
vt 0.548571 0.271429
vt 0.617143 0.157143
vt 0.542857 0.128571
vt 0.537143 0.142857
vt 0.537143 0.128571
vt 0.502857 0.142857
vt 0.508571 0.157143
vt 0.502857 0.157143
vt 0.508571 0.142857
vt 0.502857 0.128571
vt 0.508571 0.128571
vt 0.514286 0.142857
vt 0.531429 0.128571
vt 0.531429 0.142857
vt 0.480000 0.142857
vt 0.497143 0.128571
vt 0.497143 0.142857
vt 0.502857 0.271429
vt 0.474286 0.157143
vt 0.542857 0.142857
vt 0.537143 0.157143
vt 0.537143 0.285714
vt 0.508571 0.271429
vt 0.537143 0.271429
vt 0.474286 0.271429
vt 0.542857 0.271429
vt 0.468571 0.128571
vt 0.462857 0.142857
vt 0.462857 0.128571
vt 0.434286 0.142857
vt 0.428571 0.157143
vt 0.428571 0.142857
vt 0.434286 0.128571
vt 0.440000 0.142857
vt 0.457143 0.128571
vt 0.457143 0.142857
vt 0.422857 0.142857
vt 0.405714 0.128571
vt 0.422857 0.128571
vt 0.434286 0.157143
vt 0.428571 0.271429
vt 0.400000 0.157143
vt 0.405714 0.142857
vt 0.468571 0.157143
vt 0.462857 0.157143
vt 0.462857 0.285714
vt 0.434286 0.271429
vt 0.462857 0.271429
vt 0.400000 0.271429
vt 0.468571 0.271429
vt 0.862857 0.968548
vt 0.862857 0.545738
vt 0.874286 0.545738
vt 0.805714 0.557143
vt 0.760000 0.928571
vt 0.760000 0.500000
vt 0.857143 0.928571
vt 0.811429 0.557143
vt 0.857143 0.500000
vt 0.805714 0.471429
vt 0.760000 0.485714
vt 0.760000 0.471429
vt 0.760000 0.457143
vt 0.805714 0.457143
vt 0.857143 0.471429
vt 0.811429 0.485714
vt 0.811429 0.471429
vt 0.811429 0.457143
vt 0.857143 0.457143
vt 0.880000 0.545738
vt 0.891429 0.968548
vt 0.880000 0.968548
vt 0.948571 0.557143
vt 0.994286 0.928571
vt 0.948571 0.985714
vt 0.942857 0.557143
vt 0.897143 0.928571
vt 0.897143 0.500000
vt 0.994286 0.485714
vt 0.948571 0.471429
vt 0.994286 0.471429
vt 0.994286 0.457143
vt 0.942857 0.485714
vt 0.897143 0.471429
vt 0.942857 0.471429
vt 0.942857 0.457143
vt 0.714286 0.757143
vt 0.748571 0.771429
vt 0.748571 0.757143
vt 0.714286 0.771429
vt 0.748571 0.785714
vt 0.714286 0.728571
vt 0.748571 0.742857
vt 0.748571 0.728571
vt 0.714286 0.742857
vt 0.708571 0.757143
vt 0.708571 0.771429
vt 0.748571 0.814286
vt 0.714286 0.828571
vt 0.748571 0.828571
vt 0.748571 0.800000
vt 0.714286 0.814286
vt 0.748571 0.842857
vt 0.714286 0.857143
vt 0.748571 0.857143
vt 0.714286 0.842857
vt 0.708571 0.828571
vt 0.708571 0.814286
vt 0.382857 0.071429
vt 0.382857 0.142857
vt 0.382857 0.214286
vt 0.382857 0.285714
vt 0.651429 0.128571
vt 0.662857 0.128571
vt 0.657143 0.285714
vt 0.691429 0.271429
vt 0.577143 0.128571
vt 0.588571 0.128571
vt 0.582857 0.285714
vt 0.617143 0.271429
vt 0.514286 0.128571
vt 0.480000 0.128571
vt 0.542857 0.157143
vt 0.508571 0.285714
vt 0.468571 0.142857
vt 0.428571 0.128571
vt 0.440000 0.128571
vt 0.434286 0.285714
vt 0.868571 0.528571
vt 0.874286 0.968548
vt 0.868571 0.985714
vt 0.805714 0.985714
vt 0.811429 0.985714
vt 0.805714 0.485714
vt 0.857143 0.485714
vt 0.885714 0.528571
vt 0.891429 0.545738
vt 0.885714 0.985714
vt 0.994286 0.500000
vt 0.942857 0.985714
vt 0.948571 0.485714
vt 0.948571 0.457143
vt 0.897143 0.485714
vt 0.897143 0.457143
vt 0.714286 0.785714
vt 0.714286 0.800000
vt 0.102857 0.471429
vt 0.560000 0.414286
vt 0.560000 0.471429
vt 0.102857 0.414286
vt 0.560000 0.357143
vt 0.102857 0.357143
vt 0.560000 0.300000
vt 0.102857 0.985714
vt 0.560000 0.928571
vt 0.560000 0.985714
vt 0.102857 0.928571
vt 0.560000 0.871429
vt 0.102857 0.871429
vt 0.560000 0.814286
vt 0.102857 0.814286
vt 0.560000 0.757143
vt 0.102857 0.757143
vt 0.560000 0.700000
vt 0.102857 0.700000
vt 0.560000 0.642857
vt 0.102857 0.642857
vt 0.560000 0.585714
vt 0.034286 0.942857
vt 0.102857 0.585714
vt 0.560000 0.528571
vt 0.102857 0.528571
vt 0.651429 0.400000
vt 0.657143 0.642857
vt 0.702857 0.671429
vt 0.657143 0.671429
vt 0.651429 0.628571
vt 0.651429 0.685714
vt 0.651429 0.742857
vt 0.651429 0.800000
vt 0.651429 0.857143
vt 0.651429 0.914286
vt 0.651429 0.971429
vt 0.651429 0.514286
vt 0.651429 0.457143
vt 0.651429 0.342857
vt 0.651429 0.571429
vt 0.753847 0.928913
vt 0.720484 0.976662
vt 0.720625 0.880554
vt 0.657143 0.785714
vt 0.702857 0.814286
vt 0.657143 0.814286
vt 0.657143 0.871429
vt 0.702857 0.900000
vt 0.657143 0.900000
vt 0.657143 0.957143
vt 0.702857 0.985714
vt 0.657143 0.985714
vt 0.657143 0.757143
vt 0.702857 0.785714
vt 0.657143 0.700000
vt 0.702857 0.728571
vt 0.657143 0.728571
vt 0.657143 0.842857
vt 0.702857 0.871429
vt 0.657143 0.928571
vt 0.702857 0.957143
vt 0.702857 0.757143
vt 0.702857 0.700000
vt 0.702857 0.842857
vt 0.702857 0.928571
vt 0.034286 0.828571
vt 0.034286 0.857143
vt 0.005714 0.842857
vt 0.034286 0.485714
vt 0.034286 0.428571
vt 0.034286 0.314286
vt 0.102857 0.300000
vt 0.034286 0.542857
vt 0.034286 0.371429
vt 0.034286 0.600000
vt 0.034286 0.685714
vt 0.034286 0.657143
vt 0.034286 0.714286
vt 0.034286 0.771429
vt 0.034286 0.885714
vt 0.034286 0.342857
vt 0.005714 0.328571
vt 0.034286 0.628571
vt 0.005714 0.614286
vt 0.034286 0.800000
vt 0.005714 0.785714
vt 0.034286 0.971429
vt 0.005714 0.957143
vt 0.034286 0.571429
vt 0.005714 0.557143
vt 0.034286 0.457143
vt 0.005714 0.442857
vt 0.034286 0.742857
vt 0.005714 0.728571
vt 0.034286 0.914286
vt 0.005714 0.900000
vt 0.034286 0.514286
vt 0.005714 0.500000
vt 0.034286 0.400000
vt 0.005714 0.385714
vt 0.005714 0.671429
vt 0.651429 0.371429
vt 0.702857 0.642857
vt 0.651429 0.600000
vt 0.651429 0.657143
vt 0.651429 0.714286
vt 0.651429 0.771429
vt 0.651429 0.828571
vt 0.651429 0.885714
vt 0.651429 0.942857
vt 0.651429 0.485714
vt 0.651429 0.428571
vt 0.651429 0.314286
vt 0.651429 0.542857
vt 0.731734 0.873222
vt 0.742820 0.880758
vt 0.750915 0.901142
vt 0.750833 0.956630
vt 0.742679 0.976865
vt 0.731571 0.984197
vt 0.712390 0.956277
vt 0.709457 0.928506
vt 0.712471 0.900789
vn -0.0000 -1.0000 -0.0000
vn 1.0000 -0.0000 -0.0000
vn -0.0000 0.0000 -1.0000
vn -0.0000 0.0000 1.0000
vn -1.0000 0.0000 -0.0000
vn 0.0000 1.0000 -0.0000
vn 0.7071 0.7071 -0.0000
vn -0.7071 -0.7071 0.0000
vn 0.7071 -0.7071 0.0000
vn -0.7071 0.7071 0.0000
vn -0.3046 0.7322 -0.6092
vn -0.3046 -0.7322 -0.6092
vn 0.3046 0.7322 0.6092
vn 0.3046 -0.7322 0.6092
vn 0.3046 0.7322 -0.6092
vn 0.3046 -0.7322 -0.6092
vn -0.3046 0.7322 0.6092
vn -0.3046 -0.7322 0.6092
vn 0.0000 0.9885 0.1513
vn 0.4966 0.8602 -0.1160
vn 0.0000 0.9932 -0.1160
vn 0.4942 0.8560 0.1513
vn 0.8602 0.4966 -0.1160
vn 0.8560 0.4942 0.1513
vn 0.9932 0.0000 -0.1160
vn 0.9885 0.0000 0.1513
vn 0.8602 -0.4966 -0.1160
vn 0.8560 -0.4942 0.1513
vn 0.4966 -0.8602 -0.1160
vn 0.4942 -0.8560 0.1513
vn 0.0000 -0.9932 -0.1160
vn 0.0000 -0.9885 0.1513
vn -0.4966 -0.8602 -0.1160
vn -0.4942 -0.8560 0.1513
vn -0.8602 -0.4966 -0.1160
vn -0.8560 -0.4942 0.1513
vn -0.9932 0.0000 -0.1160
vn -0.9885 0.0000 0.1513
vn -0.8602 0.4966 -0.1160
vn 0.7509 -0.4335 0.4981
vn -0.8560 0.4942 0.1513
vn -0.4966 0.8602 -0.1160
vn -0.4942 0.8560 0.1513
vn 0.4964 0.8597 -0.1205
vn 0.9927 0.0000 -0.1205
vn 0.6557 0.3786 -0.6532
vn 0.8597 0.4964 -0.1205
vn -0.9927 0.0000 -0.1205
vn -0.8597 -0.4964 -0.1205
vn -0.4963 -0.8597 -0.1205
vn 0.0000 -0.9927 -0.1205
vn 0.4964 -0.8597 -0.1205
vn 0.8597 -0.4964 -0.1205
vn -0.4964 0.8597 -0.1205
vn 0.0000 0.9927 -0.1205
vn -0.8597 0.4964 -0.1205
vn 0.7571 0.0000 -0.6532
vn -0.3786 -0.6557 -0.6532
vn -0.3786 0.6557 -0.6532
vn -0.7571 0.0000 -0.6532
vn 0.0000 -0.7571 -0.6532
vn -0.6557 0.3786 -0.6532
vn 0.0000 0.7571 -0.6532
vn 0.6557 -0.3786 -0.6532
vn 0.3786 0.6557 -0.6532
vn -0.6557 -0.3786 -0.6532
vn 0.3786 -0.6557 -0.6532
vn 0.0000 -0.8671 0.4981
vn 0.4335 -0.7509 0.4981
vn 0.0000 0.8671 0.4981
vn 0.4335 0.7509 0.4981
vn 0.8671 0.0000 0.4981
vn -0.4335 0.7509 0.4981
vn 0.7509 0.4335 0.4981
vn -0.7509 0.4335 0.4981
vn -0.7509 -0.4335 0.4981
vn -0.8671 0.0000 0.4981
vn -0.4335 -0.7509 0.4981
usemtl None
s off
f 3/2/1 1/3/1 2/1/1 4/191/1
f 1/3/2 5/5/2 6/4/2 2/1/2
f 1/3/3 3/7/3 7/6/3 5/5/3
f 6/4/4 8/9/4 4/8/4 2/1/4
f 11/11/5 9/12/5 10/10/5 12/192/5
f 9/12/1 13/14/1 14/13/1 10/10/1
f 9/12/3 11/16/3 15/15/3 13/14/3
f 14/13/4 16/18/4 12/17/4 10/10/4
f 19/20/6 17/21/6 18/19/6 20/193/6
f 17/21/5 21/23/5 22/22/5 18/19/5
f 17/21/3 19/25/3 23/24/3 21/23/3
f 22/22/4 24/27/4 20/26/4 18/19/4
f 27/29/2 25/30/2 26/28/2 28/194/2
f 26/28/6 25/30/6 29/31/6 30/35/6
f 25/30/3 27/33/3 31/32/3 29/31/3
f 30/35/4 32/36/4 28/34/4 26/28/4
f 35/38/7 33/39/7 34/37/7 36/54/7
f 44/41/5 40/42/5 39/40/5 43/50/5
f 37/43/8 39/40/8 40/42/8 38/195/8
f 39/44/3 33/45/3 35/46/3 43/50/3
f 34/48/4 38/49/4 40/47/4 36/53/4
f 48/51/8 44/41/8 43/50/8 47/57/8
f 41/52/4 36/53/4 40/47/4 44/41/4
f 42/55/6 35/38/6 36/54/6 41/60/6
f 47/57/9 46/58/9 45/56/9 48/197/9
f 42/55/3 47/57/3 43/50/3 35/46/3
f 45/59/4 41/52/4 44/41/4 48/51/4
f 46/58/7 42/55/7 41/60/7 45/198/7
f 51/62/9 49/63/9 50/61/9 52/78/9
f 60/65/6 56/66/6 55/64/6 59/74/6
f 53/67/10 55/64/10 56/66/10 54/199/10
f 55/68/3 49/69/3 51/70/3 59/74/3
f 50/72/4 54/73/4 56/71/4 52/77/4
f 64/75/10 60/65/10 59/74/10 63/81/10
f 57/76/4 52/77/4 56/71/4 60/65/4
f 58/79/2 51/62/2 52/78/2 57/84/2
f 63/81/8 62/82/8 61/80/8 64/201/8
f 62/82/3 63/81/3 59/74/3 58/79/3
f 61/83/4 57/76/4 60/65/4 64/75/4
f 62/82/9 58/79/9 57/84/9 61/202/9
f 67/86/8 65/87/8 66/85/8 68/102/8
f 75/89/2 76/90/2 72/88/2 71/91/2
f 70/92/7 69/93/7 71/91/7 72/88/7
f 71/94/3 65/95/3 67/96/3 75/89/3
f 68/97/4 70/98/4 72/99/4 73/101/4
f 80/100/7 76/90/7 75/89/7 79/105/7
f 74/103/1 67/86/1 68/102/1 73/205/1
f 79/105/10 78/106/10 77/104/10 80/206/10
f 74/103/3 79/105/3 75/89/3 67/96/3
f 76/90/4 77/107/4 73/101/4 72/99/4
f 77/108/8 78/106/8 74/103/8 73/205/8
f 83/110/10 81/111/10 82/109/10 84/207/10
f 92/113/1 88/114/1 87/112/1 91/122/1
f 85/115/9 87/112/9 88/114/9 86/208/9
f 87/116/3 81/117/3 83/118/3 91/122/3
f 82/120/4 86/121/4 88/119/4 84/125/4
f 96/123/9 92/113/9 91/122/9 95/129/9
f 89/124/4 84/125/4 88/119/4 92/113/4
f 89/126/5 90/127/5 83/110/5 84/207/5
f 95/129/7 94/130/7 93/128/7 96/210/7
f 90/127/3 95/129/3 91/122/3 83/118/3
f 93/131/4 89/124/4 92/113/4 96/123/4
f 93/132/10 94/130/10 90/127/10 89/126/10
f 102/135/2 106/133/2 100/134/2 101/211/2
f 107/137/6 102/138/6 98/136/6 105/214/6
f 97/140/1 100/141/1 106/139/1 103/215/1
f 102/143/11 101/144/11 99/142/11 98/216/11
f 100/145/12 97/146/12 99/142/12 101/144/12
f 105/148/13 104/149/13 108/147/13 107/217/13
f 103/150/14 106/151/14 108/147/14 104/149/14
f 118/153/5 119/154/5 114/152/5 112/219/5
f 119/156/6 117/157/6 110/155/6 114/221/6
f 118/159/1 112/160/1 109/158/1 115/222/1
f 111/162/15 113/163/15 114/161/15 110/223/15
f 112/164/16 113/163/16 111/162/16 109/224/16
f 120/166/17 116/167/17 117/165/17 119/225/17
f 115/168/18 116/167/18 120/166/18 118/226/18
f 123/170/5 121/171/5 122/169/5 124/172/5
f 127/173/6 123/170/6 124/172/6 128/227/6
f 125/175/2 127/176/2 128/174/2 126/177/2
f 121/171/1 125/175/1 126/177/1 122/169/1
f 126/178/4 128/179/4 124/172/4 122/169/4
f 130/181/2 129/182/2 131/180/2 132/184/2
f 132/184/6 131/180/6 135/183/6 136/228/6
f 136/186/5 135/187/5 133/185/5 134/188/5
f 134/188/1 133/185/1 129/182/1 130/181/1
f 132/184/4 136/190/4 134/189/4 130/181/4
f 39/44/3 37/196/3 33/45/3
f 42/55/3 46/58/3 47/57/3
f 55/68/3 53/200/3 49/69/3
f 51/70/3 58/79/3 59/74/3
f 71/94/3 69/203/3 65/95/3
f 68/97/4 66/204/4 70/98/4
f 74/103/3 78/106/3 79/105/3
f 76/90/4 80/100/4 77/107/4
f 87/116/3 85/209/3 81/117/3
f 90/127/3 94/130/3 95/129/3
f 106/133/2 102/135/2 107/212/2 108/213/2
f 114/152/5 113/218/5 112/219/5
f 118/153/5 120/220/5 119/154/5
s 1
f 139/230/20 137/231/21 138/229/19 140/232/22
f 141/233/23 139/230/20 140/232/22 142/234/24
f 143/235/25 141/233/23 142/234/24 144/301/26
f 145/237/27 143/238/25 144/236/26 146/239/28
f 147/240/29 145/237/27 146/239/28 148/241/30
f 149/242/31 147/240/29 148/241/30 150/243/32
f 151/244/33 149/242/31 150/243/32 152/245/34
f 153/246/35 151/244/33 152/245/34 154/247/36
f 155/248/37 153/246/35 154/247/36 156/249/38
f 157/250/39 155/248/37 156/249/38 158/252/41
f 189/251/40 146/239/28 144/236/26 188/316/72
f 159/253/42 157/250/39 158/252/41 160/254/43
f 137/231/21 159/253/42 160/254/43 138/229/19
f 162/255/44 139/230/20 141/233/23 163/331/47
f 175/257/46 163/258/47 164/256/45 176/332/57
f 170/259/48 155/248/37 157/250/39 171/333/56
f 169/260/49 153/246/35 155/248/37 170/334/48
f 168/261/50 151/244/33 153/246/35 169/335/49
f 167/262/51 149/242/31 151/244/33 168/336/50
f 166/263/52 147/240/29 149/242/31 167/337/51
f 165/264/53 145/237/27 147/240/29 166/338/52
f 164/265/45 143/238/25 145/237/27 165/339/53
f 172/266/54 159/253/42 137/231/21 161/340/55
f 161/267/55 137/231/21 139/230/20 162/341/44
f 163/268/47 141/233/23 143/235/25 164/342/45
f 171/269/56 157/250/39 159/253/42 172/343/54
f 176/270/57 180/271/58 184/272/59 173/344/63
f 182/274/60 170/275/48 171/273/56 183/283/62
f 179/277/61 167/278/51 168/276/50 180/288/58
f 176/280/57 164/281/45 165/279/53 177/290/64
f 183/283/62 171/273/56 172/282/54 184/291/59
f 173/285/63 161/286/55 162/284/44 174/292/65
f 180/288/58 168/276/50 169/287/49 181/293/66
f 177/290/64 165/279/53 166/289/52 178/294/67
f 184/291/59 172/282/54 161/286/55 173/285/63
f 174/292/65 162/284/44 163/258/47 175/257/46
f 181/293/66 169/287/49 170/275/48 182/274/60
f 178/294/67 166/289/52 167/278/51 179/277/61
f 191/295/68 190/296/69 197/297/4
f 186/298/70 138/229/19 160/254/43 196/326/73
f 185/299/71 140/232/22 138/229/19 186/320/70
f 188/300/72 144/301/26 142/234/24 187/310/74
f 196/302/73 160/254/43 158/252/41 195/318/75
f 187/303/74 142/234/24 140/232/22 185/328/71
f 195/304/75 158/252/41 156/249/38 194/312/77
f 193/305/76 194/306/77 156/249/38 154/247/36
f 193/307/76 154/247/36 152/245/34 192/322/78
f 192/308/78 152/245/34 150/243/32 191/314/68
f 191/295/68 150/243/32 148/241/30 190/296/69
f 190/309/69 148/241/30 146/239/28 189/324/40
f 188/300/72 187/310/74 197/311/4
f 195/304/75 194/312/77 197/313/4
f 192/308/78 191/314/68 197/315/4
f 189/251/40 188/316/72 197/317/4
f 196/302/73 195/318/75 197/319/4
f 185/299/71 186/320/70 197/321/4
f 193/307/76 192/322/78 197/323/4
f 190/309/69 189/324/40 197/325/4
f 186/298/70 196/326/73 197/327/4
f 187/303/74 185/328/71 197/329/4
f 194/306/77 193/305/76 197/330/4
f 176/270/57 173/344/63 174/345/65 175/346/46
f 176/270/57 177/347/64 178/348/67 179/349/61
f 179/349/61 180/271/58 176/270/57
f 180/271/58 181/350/66 182/351/60 184/272/59
f 182/351/60 183/352/62 184/272/59
