# Blender v2.79 (sub 0) OBJ File: 'connector.blend'
# www.blender.org
o Cube_Cube.001
v -0.062500 0.437500 0.062500
v -0.062500 0.562500 0.062500
v -0.062500 0.437500 -0.062500
v -0.062500 0.562500 -0.062500
v 0.062500 0.437500 0.062500
v 0.062500 0.562500 0.062500
v 0.062500 0.437500 -0.062500
v 0.062500 0.562500 -0.062500
v -0.125000 0.437500 0.125000
v -0.125000 0.437500 -0.125000
v 0.125000 0.437500 0.125000
v 0.125000 0.437500 -0.125000
v -0.125000 0.375000 0.125000
v -0.125000 0.375000 -0.125000
v 0.125000 0.375000 0.125000
v 0.125000 0.375000 -0.125000
v -0.187500 0.375000 0.187500
v -0.187500 0.375000 -0.187500
v 0.187500 0.375000 0.187500
v 0.187500 0.375000 -0.187500
v -0.187500 0.250000 0.187500
v -0.187500 0.250000 -0.187500
v 0.187500 0.250000 0.187500
v 0.187500 0.250000 -0.187500
v -0.125000 0.250000 0.125000
v -0.125000 0.250000 -0.125000
v 0.125000 0.250000 0.125000
v 0.125000 0.250000 -0.125000
v -0.125000 0.187500 0.125000
v -0.125000 0.187500 -0.125000
v 0.125000 0.187500 0.125000
v 0.125000 0.187500 -0.125000
v -0.187500 0.187500 0.187500
v -0.187500 0.187500 -0.187500
v 0.187500 0.187500 0.187500
v 0.187500 0.187500 -0.187500
v -0.187500 0.062500 0.187500
v -0.187500 0.062500 -0.187500
v 0.187500 0.062500 0.187500
v 0.187500 0.062500 -0.187500
v -0.125000 0.062500 0.125000
v -0.125000 0.062500 -0.125000
v 0.125000 0.062500 0.125000
v 0.125000 0.062500 -0.125000
v -0.125000 0.000000 0.125000
v -0.125000 0.000000 -0.125000
v 0.125000 0.000000 0.125000
v 0.125000 0.000000 -0.125000
vt 0.666667 0.900000
vt 0.333333 0.800000
vt 0.666667 0.800000
vt 0.666667 0.900000
vt 0.333333 0.800000
vt 0.666667 0.800000
vt 0.666667 0.900000
vt 0.333333 0.800000
vt 0.666667 0.800000
vt 0.666667 0.900000
vt 0.333333 0.800000
vt 0.666667 0.800000
vt 0.833333 0.750000
vt 0.666667 1.000000
vt 0.333333 0.900000
vt 0.833333 0.750000
vt 0.833333 0.750000
vt 0.833333 0.750000
vt 0.166667 0.750000
vt 0.833333 0.700000
vt 0.166667 0.750000
vt 0.833333 0.700000
vt 0.166667 0.750000
vt 0.833333 0.700000
vt 0.166667 0.750000
vt 0.833333 0.700000
vt 0.166667 0.700000
vt 1.000000 0.650000
vt 0.166667 0.700000
vt 1.000000 0.650000
vt 0.166667 0.700000
vt 1.000000 0.650000
vt 0.166667 0.700000
vt 1.000000 0.650000
vt -0.000000 0.650000
vt 1.000000 0.550000
vt 0.000000 0.650000
vt 1.000000 0.550000
vt 0.000000 0.650000
vt 1.000000 0.550000
vt 0.000000 0.650000
vt 1.000000 0.550000
vt 0.166667 0.500000
vt 0.833333 0.450000
vt 0.833333 0.500000
vt 0.166667 0.500000
vt 0.833333 0.450000
vt 0.833333 0.500000
vt 0.166667 0.500000
vt 0.833333 0.450000
vt 0.833333 0.500000
vt 0.166667 0.500000
vt 0.833333 0.450000
vt 0.833333 0.500000
vt 0.166667 0.450000
vt 1.000000 0.400000
vt 0.166667 0.450000
vt 1.000000 0.400000
vt 0.166667 0.450000
vt 1.000000 0.400000
vt 0.166667 0.450000
vt 1.000000 0.400000
vt -0.000000 0.400000
vt 1.000000 0.300000
vt 0.000000 0.400000
vt 1.000000 0.300000
vt 0.000000 0.400000
vt 1.000000 0.300000
vt 0.000000 0.400000
vt 1.000000 0.300000
vt 0.166667 0.250000
vt 0.833333 0.200000
vt 0.833333 0.250000
vt 0.166667 0.250000
vt 0.833333 0.200000
vt 0.833333 0.250000
vt 0.166667 0.250000
vt 0.833333 0.200000
vt 0.833333 0.250000
vt 0.166667 0.250000
vt 0.833333 0.200000
vt 0.833333 0.250000
vt 0.166667 0.000000
vt 0.833333 0.000000
vt -0.000000 0.300000
vt 0.000000 0.300000
vt 0.000000 0.300000
vt 0.000000 0.300000
vt -0.000000 0.550000
vt 0.000000 0.550000
vt 0.000000 0.550000
vt 0.000000 0.550000
vt 0.333333 0.900000
vt 0.333333 0.900000
vt 0.333333 0.900000
vt 0.333333 1.000000
vt 0.166667 0.200000
vt 0.166667 0.200000
vt 0.166667 0.200000
vt 0.166667 0.200000
vn -1.0000 0.0000 0.0000
vn 0.0000 0.0000 -1.0000
vn 1.0000 0.0000 0.0000
vn 0.0000 0.0000 1.0000
vn 0.0000 1.0000 0.0000
vn 0.0000 -1.0000 0.0000
s off
f 3/2/1 1/3/1 2/1/1 4/93/1
f 7/5/2 3/6/2 4/4/2 8/94/2
f 5/8/3 7/9/3 8/7/3 6/15/3
f 1/11/4 5/12/4 6/10/4 2/95/4
f 10/13/5 3/6/5 7/5/5 12/21/5
f 6/15/5 8/7/5 4/14/5 2/96/5
f 9/16/5 1/3/5 3/2/5 10/25/5
f 12/17/5 7/9/5 5/8/5 11/23/5
f 11/18/5 5/12/5 1/11/5 9/19/5
f 15/20/4 11/18/4 9/19/4 13/31/4
f 14/22/2 10/13/2 12/21/2 16/33/2
f 16/24/3 12/17/3 11/23/3 15/27/3
f 13/26/1 9/16/1 10/25/1 14/29/1
f 20/28/5 16/24/5 15/27/5 19/39/5
f 17/30/5 13/26/5 14/29/5 18/41/5
f 19/32/5 15/20/5 13/31/5 17/35/5
f 18/34/5 14/22/5 16/33/5 20/37/5
f 23/36/4 19/32/4 17/35/4 21/89/4
f 22/38/2 18/34/2 20/37/2 24/91/2
f 24/40/3 20/28/3 19/39/3 23/90/3
f 21/42/1 17/30/1 18/41/1 22/92/1
f 31/44/4 27/45/4 25/43/4 29/59/4
f 30/47/2 26/48/2 28/46/2 32/61/2
f 32/50/3 28/51/3 27/49/3 31/55/3
f 29/53/1 25/54/1 26/52/1 30/57/1
f 36/56/5 32/50/5 31/55/5 35/67/5
f 33/58/5 29/53/5 30/57/5 34/69/5
f 35/60/5 31/44/5 29/59/5 33/63/5
f 34/62/5 30/47/5 32/61/5 36/65/5
f 39/64/4 35/60/4 33/63/4 37/85/4
f 38/66/2 34/62/2 36/65/2 40/87/2
f 40/68/3 36/56/3 35/67/3 39/86/3
f 37/70/1 33/58/1 34/69/1 38/88/1
f 47/72/4 43/73/4 41/71/4 45/97/4
f 46/75/2 42/76/2 44/74/2 48/98/2
f 48/78/3 44/79/3 43/77/3 47/99/3
f 45/81/1 41/82/1 42/80/1 46/100/1
f 45/83/6 46/84/6 48/78/6 47/99/6
f 43/73/6 39/64/6 37/85/6 41/71/6
f 44/79/6 40/68/6 39/86/6 43/77/6
f 42/76/6 38/66/6 40/87/6 44/74/6
f 41/82/6 37/70/6 38/88/6 42/80/6
f 27/45/6 23/36/6 21/89/6 25/43/6
f 28/51/6 24/40/6 23/90/6 27/49/6
f 26/48/6 22/38/6 24/91/6 28/46/6
f 25/54/6 21/42/6 22/92/6 26/52/6
