# Blender v2.79 (sub 0) OBJ File: ''
# www.blender.org
o UnderBarrel
v -0.562500 -0.750000 4.000000
v 0.562500 -0.750000 4.000000
v 0.562500 -0.750000 3.000000
v 0.562500 0.750000 4.000000
v -0.562500 0.750000 4.000000
v -0.562500 0.750000 3.000000
v 0.562500 0.750000 3.000000
v -0.562500 -0.750000 3.000000
v 0.562500 0.500000 4.500000
v -0.562500 0.500000 4.500000
v -0.562500 -0.500000 5.000000
v 0.562500 0.500000 5.000000
v -0.562500 0.500000 5.000000
v 0.562500 -0.500000 5.000000
v -0.562500 -0.250000 9.000000
v 0.562500 -0.250000 9.000000
v 0.562500 0.500000 9.000000
v -0.562500 0.500000 9.000000
v -0.437500 -0.500000 5.000000
v -0.437500 -0.500000 9.000000
v 0.437500 -0.500000 5.000000
v 0.437500 -0.500000 9.000000
v 0.437500 0.500000 9.000000
v -0.437500 0.500000 9.000000
v 0.437500 -0.500000 11.000000
v 0.437500 0.500000 11.000000
v -0.437500 0.500000 11.000000
v -0.437500 -0.500000 11.000000
v 0.375000 0.499999 11.750000
v -0.375000 0.499999 11.750000
v 0.375000 -0.250001 11.750000
v -0.375000 -0.250001 11.750000
vt 0.078947 0.080000
vt 0.144737 0.000000
vt 0.144737 0.080000
vt 0.289474 0.080000
vt 0.223684 0.000000
vt 0.223684 0.080000
vt 0.289474 0.000000
vt 0.223684 0.000000
vt 0.223684 0.080000
vt 0.078947 0.000000
vt 0.000000 0.080000
vt 0.000000 0.000000
vt 0.289474 0.120000
vt 0.223684 0.120000
vt 0.078947 0.160000
vt 0.289474 0.160000
vt 0.223684 0.160000
vt 0.144737 0.160000
vt 0.157895 0.160000
vt 0.210526 0.160000
vt 0.210526 0.120000
vt 0.013158 0.120000
vt 0.013158 0.160000
vt 0.065789 0.160000
vt 0.078947 0.480000
vt 0.144737 0.480000
vt 0.210526 0.480000
vt 0.171053 0.480000
vt 0.289474 0.480000
vt 0.223684 0.480000
vt 0.078947 0.480000
vt 0.144737 0.480000
vt 0.144737 0.540000
vt 0.078947 0.540000
vt 0.052632 0.480000
vt 0.013158 0.480000
vt 0.394737 0.160000
vt 0.447368 0.160000
vt 0.394737 0.480000
vt 0.447368 0.480000
vt 0.289474 0.480000
vt 0.289474 0.160000
vt 0.342105 0.480000
vt 0.342105 0.480000
vt 0.289474 0.620000
vt 0.342105 0.620000
vt 0.500000 0.480000
vt 0.447368 0.620000
vt 0.447368 0.480000
vt 0.500000 0.620000
vt 0.394737 0.620000
vt 0.342105 0.620000
vt 0.447368 0.620000
vt 0.447368 0.680000
vt 0.500000 0.680000
vt 0.302632 0.680000
vt 0.342105 0.680000
vt 0.342105 0.680000
vt 0.381579 0.680000
vt 0.381579 0.740000
vt 0.342105 0.740000
vt 0.342105 0.680000
vt 0.381579 0.680000
vt 0.401316 0.680000
vt 0.440789 0.680000
vn 0.0000 -1.0000 -0.0000
vn 0.0000 0.9732 0.2298
vn 0.0000 1.0000 0.0000
vn 1.0000 0.0000 0.0000
vn -1.0000 0.0000 0.0000
vn 0.0000 -0.9701 0.2425
vn 0.0000 -0.9882 0.1531
vn 0.0000 -0.9981 0.0624
vn 0.0000 0.0000 1.0000
vn 0.9993 0.0000 0.0368
vn 0.9991 0.0000 0.0416
vn -0.9993 0.0000 0.0368
vn -0.9991 0.0000 0.0416
vn 0.0000 -0.9877 0.1561
vn 0.9965 0.0000 0.0830
vn -0.9965 0.0000 0.0830
vn 0.0000 -0.9487 0.3162
s 1
f 1/1/1 3/2/1 2/3/1
f 4/4/2 7/7/3 6/5/3 5/6/2
f 2/3/4 3/2/4 7/8/4 4/9/4
f 3/2/1 1/1/1 8/10/1
f 5/11/5 6/12/5 8/10/5 1/1/5
f 5/6/2 10/14/2 9/13/2 4/4/2
f 1/1/6 2/3/6 11/15/7
f 10/14/2 13/17/3 12/16/3 9/13/2
f 11/15/7 2/3/6 14/18/7
f 14/19/4 2/3/4 12/20/4
f 2/3/4 4/9/4 9/21/4 12/20/4
f 1/1/5 13/23/5 10/22/5 5/11/5
f 1/1/5 11/24/5 13/23/5
f 15/25/8 11/15/7 14/18/7 16/26/8
f 16/28/4 14/19/4 12/20/4 17/27/4
f 13/17/3 18/30/3 17/29/3 12/16/3
f 17/31/9 18/32/9 15/33/9 16/34/9
f 18/36/5 13/23/5 11/24/5 15/35/5
f 21/38/1 22/40/1 20/39/1 19/37/1
f 22/41/4 21/42/4 23/43/4
f 20/39/5 24/44/5 19/37/5
f 25/45/10 22/41/4 23/43/4 26/46/11
f 24/47/3 27/50/3 26/48/3 23/49/3
f 28/51/12 27/52/13 24/44/5 20/39/5
f 20/39/1 22/40/1 25/53/14 28/51/14
f 27/50/3 30/55/3 29/54/3 26/48/3
f 26/46/11 29/57/15 31/56/15 25/45/10
f 32/58/9 31/59/9 29/60/9 30/61/9
f 27/52/13 28/51/12 32/63/16 30/62/16
f 28/51/14 25/53/14 31/65/17 32/64/17
o BarrelShotgun
v -0.500000 1.375000 4.000000
v -0.433012 1.625000 4.000000
v -0.649518 1.750000 4.500000
v 0.433013 1.625000 4.000000
v 0.500000 1.375000 4.000000
v 0.750000 1.375000 4.500000
v 0.250000 0.941987 4.000000
v 0.000000 0.875000 4.000000
v 0.000000 0.625000 4.500000
v -0.433012 1.125000 4.000000
v -0.750000 1.375000 4.500000
v 0.250000 1.808012 4.000000
v 0.649519 1.750000 4.500000
v -0.250000 1.808013 4.000000
v 0.000000 1.875000 4.000000
v 0.000000 2.125000 4.500000
v 0.433012 1.125000 4.000000
v 0.375000 0.725481 4.500000
v -0.250000 0.941987 4.000000
v -0.649518 1.000000 4.500000
v 0.375000 2.024518 4.500000
v -0.375000 2.024520 4.500000
v 0.649518 1.000000 4.500000
v -0.375000 0.725481 4.500000
v -0.375000 2.024520 5.500000
v -0.649518 1.750000 5.375000
v -0.750000 1.375000 5.375000
v -0.649518 1.000000 5.375000
v 0.000000 2.125000 5.500000
v 0.375000 2.024518 5.500000
v 0.649519 1.750000 5.375000
v 0.750000 1.375000 5.375000
v 0.649518 1.000000 5.375000
v 0.375000 0.725481 5.500000
v 0.000000 0.625000 5.500000
v -0.375000 0.725481 5.500000
v -0.375000 2.000000 12.000000
v 0.000000 2.062500 12.000000
v 0.375000 2.000000 12.000000
v 0.375000 2.000000 5.500000
v 0.000000 2.062500 5.500000
v -0.375000 2.000000 5.500000
v -0.375000 0.750000 12.000000
v 0.375000 0.750000 12.000000
v 0.000000 0.687500 12.000000
v -0.375000 0.750000 5.500000
v 0.000000 0.687500 5.500000
v 0.375000 0.750000 5.500000
v 0.750000 1.375000 4.500000
vt 0.631579 0.560000
vt 0.618421 0.540000
vt 0.618421 0.560000
vt 0.565789 0.560000
vt 0.552632 0.540000
vt 0.552632 0.560000
vt 0.526316 0.560000
vt 0.513158 0.540000
vt 0.513158 0.560000
vt 0.644737 0.560000
vt 0.631579 0.540000
vt 0.578947 0.560000
vt 0.565789 0.540000
vt 0.605263 0.560000
vt 0.592105 0.540000
vt 0.592105 0.560000
vt 0.539474 0.560000
vt 0.526316 0.540000
vt 0.657895 0.560000
vt 0.644737 0.540000
vt 0.578947 0.540000
vt 0.605263 0.540000
vt 0.539474 0.540000
vt 0.671053 0.560000
vt 0.657895 0.540000
vt 0.671053 0.540000
vt 0.605263 0.480000
vt 0.618421 0.490000
vt 0.631579 0.490000
vt 0.644737 0.490000
vt 0.592105 0.480000
vt 0.578947 0.480000
vt 0.565789 0.490000
vt 0.552632 0.490000
vt 0.539474 0.490000
vt 0.526316 0.480000
vt 0.513158 0.480000
vt 0.671053 0.480000
vt 0.657895 0.480000
vt 0.427632 0.080000
vt 0.427632 0.110000
vt 0.440789 0.130000
vt 0.427632 0.080000
vt 0.427632 0.050000
vt 0.440789 0.030000
vt 0.453947 0.440000
vt 0.493421 0.440000
vt 0.473684 0.460000
vt 0.565789 0.460000
vt 0.578947 0.460000
vt 0.565789 0.000000
vt 0.578947 0.000000
vt 0.592105 0.460000
vt 0.592105 0.000000
vt 0.453947 0.340000
vt 0.473684 0.320000
vt 0.493421 0.340000
vt 0.657895 0.000000
vt 0.657895 0.460000
vt 0.671053 0.000000
vt 0.671053 0.460000
vt 0.684211 0.460000
vt 0.684211 0.000000
vt 0.500000 0.000000
vt 0.500000 0.460000
vt 0.440789 0.130000
vt 0.480263 0.130000
vt 0.493421 0.110000
vt 0.493421 0.080000
vt 0.480263 0.030000
vt 0.493421 0.050000
vt 0.493421 0.080000
vt 0.480263 0.130000
vt 0.460526 0.140000
vt 0.460526 0.020000
vn -0.8944 0.0000 -0.4472
vn -0.8445 0.4876 -0.2217
vn -0.7746 0.4472 -0.4472
vn 0.7746 0.4472 -0.4472
vn 0.9751 -0.0000 -0.2217
vn 0.8944 -0.0000 -0.4472
vn 0.4472 -0.7746 -0.4472
vn -0.0000 -0.9751 -0.2217
vn -0.0000 -0.8944 -0.4472
vn -0.7746 -0.4472 -0.4472
vn -0.9751 -0.0000 -0.2217
vn 0.4472 0.7746 -0.4472
vn 0.8445 0.4876 -0.2217
vn -0.4472 0.7746 -0.4472
vn 0.0000 0.9751 -0.2217
vn 0.0000 0.8944 -0.4472
vn 0.7746 -0.4472 -0.4472
vn 0.4876 -0.8445 -0.2217
vn -0.4472 -0.7746 -0.4472
vn -0.8445 -0.4876 -0.2217
vn 0.4876 0.8445 -0.2217
vn -0.4876 0.8445 -0.2217
vn 0.8445 -0.4876 -0.2217
vn -0.4876 -0.8445 -0.2217
vn -0.4743 0.8804 0.0000
vn -0.8537 0.5208 0.0000
vn -1.0000 0.0000 0.0000
vn -0.8537 -0.5208 0.0000
vn 0.0000 1.0000 0.0000
vn 0.4743 0.8804 0.0000
vn 0.8537 0.5208 0.0000
vn 1.0000 -0.0000 0.0000
vn 0.8537 -0.5208 0.0000
vn 0.4743 -0.8804 0.0000
vn 0.0000 -1.0000 0.0000
vn -0.4743 -0.8804 0.0000
vn -0.1246 0.0157 0.9921
vn -0.5230 0.1401 0.8408
vn -0.3667 -0.0000 0.9303
vn -0.5230 -0.1401 0.8408
vn -0.1246 -0.0157 0.9921
vn 0.0000 0.0000 1.0000
vn 0.1644 0.9864 -0.0000
vn -0.1644 0.9864 -0.0000
vn -0.1644 -0.9864 0.0000
vn 0.1644 -0.9864 0.0000
vn 0.3667 -0.0000 0.9303
vn 0.5230 0.1401 0.8408
vn 0.1246 0.0157 0.9921
vn 0.1246 -0.0157 0.9921
vn 0.5230 -0.1401 0.8408
s 1
f 33/66/18 35/67/19 34/68/20
f 36/69/21 38/70/22 37/71/23
f 39/72/24 41/73/25 40/74/26
f 42/75/27 43/76/28 33/66/18
f 44/77/29 45/78/30 36/69/21
f 46/79/31 48/80/32 47/81/33
f 49/82/34 50/83/35 39/72/24
f 51/84/36 52/85/37 42/75/27
f 47/81/33 53/86/38 44/77/29
f 34/68/20 54/87/39 46/79/31
f 37/71/23 55/88/40 49/82/34
f 40/89/26 56/90/41 51/84/36
f 33/66/18 43/76/28 35/67/19
f 36/69/21 45/78/30 38/70/22
f 39/72/24 50/83/35 41/73/25
f 42/75/27 52/85/37 43/76/28
f 44/77/29 53/86/38 45/78/30
f 46/79/31 54/87/39 48/80/32
f 49/82/34 55/88/40 50/83/35
f 51/84/36 56/90/41 52/85/37
f 47/81/33 48/80/32 53/86/38
f 34/68/20 35/67/19 54/87/39
f 37/71/23 38/70/22 55/88/40
f 40/89/26 41/91/25 56/90/41
f 54/87/39 35/67/19 57/92/42
f 58/93/43 43/76/28 59/94/44
f 57/92/42 35/67/19 58/93/43
f 59/94/44 43/76/28 52/85/37 60/95/45
f 43/76/28 58/93/43 35/67/19
f 61/96/46 48/80/32 54/87/39 57/92/42
f 48/80/32 61/96/46 62/97/47 53/86/38
f 53/86/38 62/97/47 63/98/48 45/78/30
f 64/99/49 38/70/22 45/78/30 63/98/48
f 65/100/50 55/88/40 38/70/22 64/99/49
f 66/101/51 50/83/35 55/88/40 65/100/50
f 67/102/52 41/73/25 50/83/35 66/101/51
f 67/103/52 68/104/53 41/91/25
f 60/95/45 52/85/37 56/90/41 68/104/53
f 41/91/25 68/104/53 56/90/41
f 57/105/54 58/106/55 59/107/56
f 59/108/56 60/109/57 68/110/58
f 69/111/59 71/112/59 70/113/59
f 73/115/46 70/117/46 71/116/60 72/114/60
f 70/117/46 73/115/46 74/118/61 69/119/61
f 75/120/59 77/121/59 76/122/59 71/112/59
f 75/120/59 71/112/59 69/111/59
f 69/119/44 74/118/44 78/124/44 75/123/44
f 75/123/62 78/124/62 79/126/52 77/125/52
f 80/127/63 76/128/63 77/125/52 79/126/52
f 76/129/49 80/130/49 72/114/49 71/116/49
f 57/131/54 59/108/56 68/110/58
f 64/132/64 63/133/65 62/134/66
f 66/135/67 65/136/68 64/137/64
f 64/137/64 62/138/66 66/135/67
f 68/110/58 66/135/67 62/138/66 57/131/54
f 57/131/54 62/138/66 61/139/59
f 67/140/59 66/135/67 68/110/58
l 38 81
